<?xml version="1.0" encoding="utf-8"?>
<!-- Generator: Adobe Illustrator 18.0.0, SVG Export Plug-In . SVG Version: 6.00 Build 0)  -->
<!DOCTYPE svg PUBLIC "-//W3C//DTD SVG 1.1//EN" "http://www.w3.org/Graphics/SVG/1.1/DTD/svg11.dtd">
<svg version="1.1" id="Capa_1" xmlns="http://www.w3.org/2000/svg" xmlns:xlink="http://www.w3.org/1999/xlink" x="0px" y="0px"
	 viewBox="0 0 953.8 205.8" enable-background="new 0 0 953.8 205.8" xml:space="preserve">
<rect x="0" y="0" width="155" height="103.1"/>
<rect x="0.5" y="107.7" fill="#0000F2" width="187" height="98.1"/>
<rect x="191.6" y="107.7" width="187" height="98.1"/>
<rect x="382.6" y="107.7" width="187" height="98.1"/>
<rect x="573.7" y="107.7" fill="#0000F2" width="187" height="98.1"/>
<rect x="764.8" y="107.7" width="189" height="98.1"/>
<rect x="159.8" y="0" width="155" height="103.1"/>
<rect x="319.6" y="0" fill="#0000F2" width="155" height="103.1"/>
<rect x="479.4" y="0" width="155" height="103.1"/>
<rect x="639.2" y="0" fill="#0000F2" width="155" height="103.1"/>
<rect x="799" y="0" fill="#0000F2" width="155" height="103.1"/>
<g>
	<g>
		<path fill="#FFFFFF" d="M11.4,15.6h4.1v15.8h4.3v2.8h-8.4V15.6z"/>
		<path fill="#FFFFFF" d="M24.2,15.6h4.7l3.5,18.6h-3.8L28,30.3h-2.7l-0.6,3.9h-3.9L24.2,15.6z M27.6,27.8l-1-7.3l-1,7.3H27.6z"/>
		<path fill="#FFFFFF" d="M11.4,43.2h2.9l3.8,9v-9h3.4v18.6h-2.8l-3.8-9.7v9.7h-3.5V43.2z"/>
		<path fill="#FFFFFF" d="M26.9,43.2h4.7l3.5,18.6h-3.8l-0.6-3.9H28l-0.6,3.9h-3.9L26.9,43.2z M30.3,55.4l-1-7.3l-1,7.3H30.3z"/>
		<path fill="#FFFFFF" d="M37.7,60.5c-0.9-1.1-1.3-2.6-1.3-4.6v-6.7c0-2.1,0.4-3.6,1.3-4.7c0.8-1,2.3-1.6,4.3-1.6
			c1.9,0,3.3,0.5,4.1,1.4c0.8,0.9,1.2,2.3,1.2,4v1.6h-4V48c0-0.7-0.1-1.3-0.2-1.7C43,46,42.6,45.8,42,45.8s-1,0.2-1.1,0.6
			s-0.3,1-0.3,1.7v8.8c0,0.7,0.1,1.3,0.3,1.7c0.2,0.4,0.6,0.6,1.1,0.6s0.9-0.2,1.1-0.6c0.2-0.4,0.2-1,0.2-1.7v-2h4v1.6
			c0,1.7-0.4,3.1-1.2,4.1c-0.8,1-2.2,1.5-4.1,1.5C40,62.1,38.6,61.5,37.7,60.5z"/>
		<path fill="#FFFFFF" d="M49.7,43.2h4.1v18.6h-4.1V43.2z"/>
		<path fill="#FFFFFF" d="M57.6,60.5c-0.9-1-1.3-2.6-1.3-4.6V49c0-2,0.4-3.5,1.3-4.6c0.9-1,2.3-1.5,4.3-1.5c2,0,3.5,0.5,4.3,1.5
			s1.3,2.5,1.3,4.6v6.9c0,2-0.4,3.6-1.3,4.6s-2.3,1.6-4.3,1.6C59.9,62.1,58.5,61.5,57.6,60.5z M63,58.6c0.2-0.4,0.3-0.9,0.3-1.6v-9
			c0-0.7-0.1-1.2-0.3-1.6c-0.2-0.4-0.6-0.6-1.2-0.6c-0.6,0-0.9,0.2-1.1,0.6c-0.2,0.4-0.3,0.9-0.3,1.6v9c0,0.7,0.1,1.2,0.3,1.6
			c0.2,0.4,0.5,0.6,1.1,0.6S62.9,58.9,63,58.6z M62.1,37.1h3.8L63,41.7h-2.4L62.1,37.1z"/>
		<path fill="#FFFFFF" d="M70,43.2h2.9l3.8,9v-9h3.4v18.6h-2.8l-3.8-9.7v9.7H70V43.2z"/>
	</g>
</g>
<g>
	<g>
		<path fill="#FFFFFF" d="M11.4,115.3h5.1c2,0,3.6,0.4,4.6,1.1c1,0.7,1.6,2,1.6,3.8c0,1.2-0.2,2.2-0.5,3c-0.3,0.7-0.9,1.3-1.8,1.7
			l2.6,9h-4.3l-2-8.3h-1.2v8.3h-4.1V115.3z M16.7,123.2c0.8,0,1.4-0.2,1.7-0.7c0.3-0.4,0.5-1.1,0.5-2c0-0.8-0.2-1.5-0.5-1.9
			s-0.8-0.6-1.6-0.6h-1.3v5.2H16.7z"/>
		<path fill="#FFFFFF" d="M25.2,115.3h8.4v2.8h-4.3v4.6h3.2v2.9h-3.2v5.6h4.3v2.8h-8.4V115.3z"/>
		<path fill="#FFFFFF" d="M34.6,115.3h3.5l2,12.6l1.9-12.6h3.7l-3.4,18.6H38L34.6,115.3z"/>
		<path fill="#FFFFFF" d="M47.6,115.3h4.1v18.6h-4.1V115.3z"/>
		<path fill="#FFFFFF" d="M55.5,132.8c-0.9-0.9-1.3-2.4-1.4-4.5l3.5-0.5c0,1.2,0.2,2,0.4,2.5c0.3,0.5,0.7,0.8,1.2,0.8
			c0.7,0,1-0.5,1-1.4c0-0.7-0.2-1.3-0.5-1.9c-0.3-0.5-0.8-1.1-1.6-1.7l-1.6-1.4c-0.8-0.7-1.4-1.4-1.9-2.2c-0.4-0.8-0.7-1.7-0.7-2.7
			c0-1.6,0.5-2.8,1.4-3.6c0.9-0.8,2.2-1.3,3.8-1.3c1.8,0,3,0.5,3.6,1.5c0.6,1,1,2.3,1,3.7l-3.5,0.4c0-1-0.1-1.7-0.3-2.1
			c-0.1-0.4-0.5-0.6-1-0.6c-0.4,0-0.6,0.1-0.8,0.4s-0.3,0.6-0.3,1c0,0.6,0.1,1.2,0.4,1.6c0.3,0.4,0.7,0.9,1.4,1.5l1.5,1.4
			c0.9,0.8,1.6,1.6,2.1,2.5c0.5,0.9,0.8,1.9,0.8,3.1c0,0.9-0.2,1.7-0.6,2.4s-1,1.3-1.7,1.7s-1.6,0.6-2.6,0.6
			C57.7,134.2,56.4,133.7,55.5,132.8z"/>
		<path fill="#FFFFFF" d="M68,118.3h-2.8v-3.1h9.7v3.1h-2.8v15.6H68V118.3z"/>
		<path fill="#FFFFFF" d="M78.4,115.3h4.7l3.5,18.6h-3.8l-0.6-3.9h-2.7l-0.6,3.9h-3.9L78.4,115.3z M81.7,127.5l-1-7.3l-1,7.3H81.7z"
			/>
		<path fill="#FFFFFF" d="M12.4,160.2c-0.9-1.1-1.3-2.6-1.3-4.6v-6.7c0-2.1,0.4-3.6,1.3-4.7c0.8-1.1,2.3-1.6,4.3-1.6
			c1.9,0,3.3,0.5,4.1,1.4c0.8,0.9,1.2,2.3,1.2,4v1.6h-4v-1.9c0-0.7-0.1-1.3-0.2-1.7c-0.2-0.4-0.5-0.6-1.1-0.6s-1,0.2-1.1,0.6
			s-0.3,1-0.3,1.7v8.8c0,0.7,0.1,1.3,0.3,1.7c0.2,0.4,0.6,0.6,1.1,0.6s0.9-0.2,1.1-0.6c0.2-0.4,0.2-1,0.2-1.7v-2h4v1.6
			c0,1.7-0.4,3.1-1.2,4.1c-0.8,1-2.2,1.5-4.1,1.5C14.7,161.8,13.3,161.3,12.4,160.2z"/>
		<path fill="#FFFFFF" d="M25.4,160.2c-0.9-1-1.3-2.6-1.3-4.6v-6.9c0-2,0.4-3.5,1.3-4.6c0.9-1,2.3-1.5,4.3-1.5c2,0,3.5,0.5,4.3,1.5
			s1.3,2.5,1.3,4.6v6.9c0,2-0.4,3.6-1.3,4.6c-0.9,1-2.3,1.6-4.3,1.6C27.7,161.8,26.3,161.3,25.4,160.2z M30.9,158.3
			c0.2-0.4,0.3-0.9,0.3-1.6v-9c0-0.7-0.1-1.2-0.3-1.6c-0.2-0.4-0.6-0.6-1.2-0.6c-0.6,0-0.9,0.2-1.1,0.6c-0.2,0.4-0.3,0.9-0.3,1.6v9
			c0,0.7,0.1,1.2,0.3,1.6c0.2,0.4,0.5,0.6,1.1,0.6S30.7,158.7,30.9,158.3z"/>
		<path fill="#FFFFFF" d="M37.8,142.9h2.9l3.8,9v-9H48v18.6h-2.8l-3.8-9.7v9.7h-3.5V142.9z"/>
		<path fill="#FFFFFF" d="M49.9,142.9h3.5l2,12.6l1.9-12.6H61l-3.4,18.6h-4.3L49.9,142.9z"/>
		<path fill="#FFFFFF" d="M62.9,142.9H67v18.6h-4.1V142.9z"/>
		<path fill="#FFFFFF" d="M68.9,142.9h3.5l2,12.6l1.9-12.6H80l-3.4,18.6h-4.3L68.9,142.9z"/>
		<path fill="#FFFFFF" d="M81.9,142.9H86v18.6h-4.1V142.9z"/>
		<path fill="#FFFFFF" d="M89,142.9h4.4l2,10.8l2.2-10.8h4.3l0.3,18.6h-2.9L99,149.1l-2.2,12.4h-2.6L92,149l-0.3,12.5h-3L89,142.9z"
			/>
		<path fill="#FFFFFF" d="M106,160.2c-0.9-1-1.3-2.6-1.3-4.6v-6.9c0-2,0.4-3.5,1.3-4.6c0.9-1,2.3-1.5,4.3-1.5c2,0,3.5,0.5,4.3,1.5
			s1.3,2.5,1.3,4.6v6.9c0,2-0.4,3.6-1.3,4.6c-0.9,1-2.3,1.6-4.3,1.6C108.3,161.8,106.9,161.3,106,160.2z M111.5,158.3
			c0.2-0.4,0.3-0.9,0.3-1.6v-9c0-0.7-0.1-1.2-0.3-1.6c-0.2-0.4-0.6-0.6-1.2-0.6c-0.6,0-0.9,0.2-1.1,0.6c-0.2,0.4-0.3,0.9-0.3,1.6v9
			c0,0.7,0.1,1.2,0.3,1.6c0.2,0.4,0.5,0.6,1.1,0.6S111.3,158.7,111.5,158.3z"/>
		<path fill="#FFFFFF" d="M119.4,160.4c-0.9-0.9-1.3-2.4-1.4-4.5l3.5-0.5c0,1.2,0.2,2,0.4,2.5c0.3,0.5,0.7,0.8,1.2,0.8
			c0.7,0,1-0.5,1-1.4c0-0.7-0.2-1.3-0.5-1.9c-0.3-0.5-0.8-1.1-1.6-1.7l-1.6-1.4c-0.8-0.7-1.4-1.4-1.9-2.2s-0.7-1.7-0.7-2.7
			c0-1.6,0.5-2.8,1.4-3.6c0.9-0.8,2.2-1.3,3.8-1.3c1.8,0,3,0.5,3.6,1.5c0.6,1,1,2.3,1,3.7l-3.5,0.4c0-1-0.1-1.7-0.3-2.1
			c-0.1-0.4-0.5-0.6-1-0.6c-0.4,0-0.6,0.1-0.8,0.4s-0.3,0.6-0.3,1c0,0.6,0.1,1.2,0.4,1.6c0.3,0.4,0.7,0.9,1.4,1.5l1.5,1.4
			c0.9,0.8,1.6,1.6,2.1,2.5c0.5,0.9,0.8,1.9,0.8,3.1c0,0.9-0.2,1.7-0.6,2.4s-1,1.3-1.7,1.7s-1.6,0.6-2.6,0.6
			C121.6,161.8,120.3,161.3,119.4,160.4z"/>
	</g>
</g>
<g>
	<g>
		<path fill="#FFFFFF" d="M395.2,133.5c-0.8-0.5-1.4-1.1-1.7-2c-0.3-0.9-0.5-2-0.5-3.4v-12.9h4.1v13.5c0,0.8,0.1,1.3,0.3,1.8
			c0.2,0.4,0.6,0.7,1.2,0.7s1-0.2,1.2-0.7c0.2-0.4,0.3-1,0.3-1.8v-13.5h4.1v12.9c0,1.4-0.2,2.5-0.5,3.4c-0.3,0.9-0.9,1.5-1.7,2
			c-0.8,0.5-1.9,0.7-3.3,0.7S396,134,395.2,133.5z"/>
		<path fill="#FFFFFF" d="M406.6,115.3h2.9l3.8,9v-9h3.4v18.6H414l-3.8-9.7v9.7h-3.5V115.3z"/>
		<path fill="#FFFFFF" d="M422.1,115.3h4.7l3.5,18.6h-3.8l-0.6-3.9h-2.7l-0.6,3.9h-3.9L422.1,115.3z M425.5,127.5l-1-7.3l-1,7.3
			H425.5z"/>
		<path fill="#FFFFFF" d="M439.1,132.6c-0.9-1.1-1.3-2.6-1.3-4.6v-6.7c0-2.1,0.4-3.6,1.3-4.7c0.8-1,2.3-1.6,4.3-1.6
			c1.9,0,3.3,0.5,4.1,1.4c0.8,0.9,1.2,2.3,1.2,4v1.6h-4v-1.9c0-0.7-0.1-1.3-0.2-1.7c-0.2-0.4-0.5-0.6-1.1-0.6c-0.6,0-1,0.2-1.2,0.6
			c-0.2,0.4-0.3,1-0.3,1.7v8.8c0,0.7,0.1,1.3,0.3,1.7c0.2,0.4,0.6,0.6,1.1,0.6s0.9-0.2,1.1-0.6c0.2-0.4,0.2-1,0.2-1.7v-2h4v1.6
			c0,1.7-0.4,3.1-1.2,4.1s-2.2,1.5-4.1,1.5C441.4,134.2,440,133.7,439.1,132.6z"/>
		<path fill="#FFFFFF" d="M453.7,115.3h4.7l3.5,18.6H458l-0.6-3.9h-2.7l-0.6,3.9h-3.9L453.7,115.3z M457,127.5l-1-7.3l-1,7.3H457z"
			/>
		<path fill="#FFFFFF" d="M464.5,132.8c-0.9-0.9-1.3-2.4-1.4-4.5l3.5-0.5c0,1.2,0.2,2,0.4,2.5c0.3,0.5,0.7,0.8,1.2,0.8
			c0.7,0,1-0.5,1-1.4c0-0.7-0.2-1.3-0.5-1.9c-0.3-0.5-0.8-1.1-1.6-1.7l-1.6-1.4c-0.8-0.7-1.4-1.4-1.9-2.2c-0.4-0.8-0.7-1.7-0.7-2.7
			c0-1.6,0.5-2.8,1.4-3.6c0.9-0.8,2.2-1.3,3.8-1.3c1.8,0,3,0.5,3.6,1.5s1,2.3,1,3.7l-3.5,0.4c0-1-0.1-1.7-0.3-2.1s-0.5-0.6-1-0.6
			c-0.4,0-0.6,0.1-0.8,0.4c-0.2,0.3-0.3,0.6-0.3,1c0,0.6,0.1,1.2,0.4,1.6s0.7,0.9,1.4,1.5l1.5,1.4c0.9,0.8,1.6,1.6,2.1,2.5
			c0.5,0.9,0.8,1.9,0.8,3.1c0,0.9-0.2,1.7-0.6,2.4s-1,1.3-1.7,1.7c-0.7,0.4-1.6,0.6-2.6,0.6C466.7,134.2,465.4,133.7,464.5,132.8z"
			/>
		<path fill="#FFFFFF" d="M477.8,115.3h4.7l3.5,18.6h-3.8l-0.6-3.9h-2.7l-0.6,3.9h-3.9L477.8,115.3z M481.1,127.5l-1-7.3l-1,7.3
			H481.1z"/>
		<path fill="#FFFFFF" d="M394.1,160.2c-0.9-1.1-1.3-2.6-1.3-4.6v-6.7c0-2.1,0.4-3.6,1.3-4.7c0.8-1.1,2.3-1.6,4.3-1.6
			c1.9,0,3.3,0.5,4.1,1.4c0.8,0.9,1.2,2.3,1.2,4v1.6h-4v-1.9c0-0.7-0.1-1.3-0.2-1.7c-0.2-0.4-0.5-0.6-1.1-0.6c-0.6,0-1,0.2-1.2,0.6
			c-0.2,0.4-0.3,1-0.3,1.7v8.8c0,0.7,0.1,1.3,0.3,1.7c0.2,0.4,0.6,0.6,1.1,0.6s0.9-0.2,1.1-0.6c0.2-0.4,0.2-1,0.2-1.7v-2h4v1.6
			c0,1.7-0.4,3.1-1.2,4.1s-2.2,1.5-4.1,1.5C396.4,161.8,395,161.3,394.1,160.2z"/>
		<path fill="#FFFFFF" d="M407.1,160.2c-0.9-1-1.3-2.6-1.3-4.6v-6.9c0-2,0.4-3.5,1.3-4.6c0.9-1,2.3-1.5,4.3-1.5c2,0,3.5,0.5,4.3,1.5
			s1.3,2.5,1.3,4.6v6.9c0,2-0.4,3.6-1.3,4.6c-0.9,1-2.3,1.6-4.3,1.6C409.4,161.8,407.9,161.3,407.1,160.2z M412.5,158.3
			c0.2-0.4,0.3-0.9,0.3-1.6v-9c0-0.7-0.1-1.2-0.3-1.6c-0.2-0.4-0.6-0.6-1.2-0.6c-0.6,0-0.9,0.2-1.1,0.6c-0.2,0.4-0.3,0.9-0.3,1.6v9
			c0,0.7,0.1,1.2,0.3,1.6c0.2,0.4,0.5,0.6,1.1,0.6C412,158.9,412.3,158.7,412.5,158.3z"/>
		<path fill="#FFFFFF" d="M419.5,142.9h2.9l3.8,9v-9h3.4v18.6h-2.8l-3.8-9.7v9.7h-3.5V142.9z"/>
		<path fill="#FFFFFF" d="M440,146.7c-0.2,0.1-0.6,0.3-1.3,0.6c-0.1,0-0.3,0.1-0.6,0.2c-0.3,0.1-0.5,0.2-0.6,0.3V145
			c1.8-1,3-1.6,3.4-2.1h3v18.6H440V146.7z"/>
		<path fill="#FFFFFF" d="M448.4,160.4c-0.9-1-1.3-2.3-1.3-3.9v-8.4c0-1.7,0.4-3,1.3-4c0.9-1,2.1-1.5,3.8-1.5c1.7,0,3,0.5,3.8,1.5
			c0.8,1,1.3,2.3,1.3,4v8.4c0,1.6-0.4,2.9-1.3,3.9c-0.9,1-2.1,1.5-3.7,1.5C450.6,161.9,449.3,161.4,448.4,160.4z M453.1,157.8
			c0.1-0.4,0.2-0.9,0.2-1.4v-8.3c0-0.6-0.1-1.1-0.2-1.5c-0.1-0.4-0.4-0.6-1-0.6c-0.5,0-0.8,0.2-1,0.6c-0.1,0.4-0.2,0.9-0.2,1.5v8.3
			c0,1.3,0.4,2,1.2,2C452.7,158.4,453,158.2,453.1,157.8z"/>
		<path fill="#FFFFFF" d="M466.8,160.2c-0.9-1.1-1.3-2.6-1.3-4.6v-6.7c0-2.1,0.4-3.6,1.3-4.7c0.8-1.1,2.3-1.6,4.3-1.6
			c1.9,0,3.3,0.5,4.1,1.4c0.8,0.9,1.2,2.3,1.2,4v1.6h-4v-1.9c0-0.7-0.1-1.3-0.2-1.7c-0.2-0.4-0.5-0.6-1.1-0.6c-0.6,0-1,0.2-1.1,0.6
			c-0.2,0.4-0.3,1-0.3,1.7v8.8c0,0.7,0.1,1.3,0.3,1.7c0.2,0.4,0.6,0.6,1.1,0.6s0.9-0.2,1.1-0.6c0.2-0.4,0.2-1,0.2-1.7v-2h4v1.6
			c0,1.7-0.4,3.1-1.2,4.1c-0.8,1-2.2,1.5-4.1,1.5C469.1,161.8,467.7,161.3,466.8,160.2z"/>
		<path fill="#FFFFFF" d="M478.8,142.9h4.1v7.5h2.9v-7.5h4.1v18.6h-4.1v-8.1h-2.9v8.1h-4.1V142.9z"/>
		<path fill="#FFFFFF" d="M492.8,142.9h4.1v18.6h-4.1V142.9z"/>
		<path fill="#FFFFFF" d="M499.7,142.9h2.9l3.8,9v-9h3.4v18.6H507l-3.8-9.7v9.7h-3.5V142.9z"/>
		<path fill="#FFFFFF" d="M513.6,160.2c-0.9-1-1.3-2.6-1.3-4.6v-6.9c0-2,0.4-3.5,1.3-4.6c0.9-1,2.3-1.5,4.3-1.5c2,0,3.5,0.5,4.3,1.5
			s1.3,2.5,1.3,4.6v6.9c0,2-0.4,3.6-1.3,4.6c-0.9,1-2.3,1.6-4.3,1.6C515.9,161.8,514.5,161.3,513.6,160.2z M519.1,158.3
			c0.2-0.4,0.3-0.9,0.3-1.6v-9c0-0.7-0.1-1.2-0.3-1.6c-0.2-0.4-0.6-0.6-1.2-0.6c-0.6,0-0.9,0.2-1.1,0.6c-0.2,0.4-0.3,0.9-0.3,1.6v9
			c0,0.7,0.1,1.2,0.3,1.6c0.2,0.4,0.5,0.6,1.1,0.6C518.5,158.9,518.9,158.7,519.1,158.3z"/>
		<path fill="#FFFFFF" d="M527.1,160.4c-0.9-0.9-1.3-2.4-1.4-4.5l3.5-0.5c0,1.2,0.2,2,0.4,2.5c0.3,0.5,0.7,0.8,1.2,0.8
			c0.7,0,1-0.5,1-1.4c0-0.7-0.2-1.3-0.5-1.9c-0.3-0.5-0.8-1.1-1.6-1.7l-1.6-1.4c-0.8-0.7-1.4-1.4-1.9-2.2c-0.4-0.8-0.7-1.7-0.7-2.7
			c0-1.6,0.5-2.8,1.4-3.6c0.9-0.8,2.2-1.3,3.8-1.3c1.8,0,3,0.5,3.6,1.5s1,2.3,1,3.7l-3.5,0.4c0-1-0.1-1.7-0.3-2.1
			c-0.1-0.4-0.5-0.6-1-0.6c-0.4,0-0.6,0.1-0.8,0.4c-0.2,0.3-0.3,0.6-0.3,1c0,0.6,0.1,1.2,0.4,1.6c0.3,0.4,0.7,0.9,1.4,1.5l1.5,1.4
			c0.9,0.8,1.6,1.6,2.1,2.5s0.8,1.9,0.8,3.1c0,0.9-0.2,1.7-0.6,2.4s-1,1.3-1.7,1.7c-0.7,0.4-1.6,0.6-2.6,0.6
			C529.2,161.8,527.9,161.3,527.1,160.4z"/>
		<path fill="#FFFFFF" d="M392.2,170.5h2.4l2.9,13.7l2.8-13.7h2.4l-4.1,18.6h-2.3L392.2,170.5z"/>
		<path fill="#FFFFFF" d="M405.4,187.8c-0.8-1-1.2-2.5-1.2-4.5v-7.1c0-1.9,0.4-3.4,1.2-4.4c0.8-1,2.1-1.5,3.9-1.5
			c1.8,0,3.1,0.5,3.9,1.5c0.8,1,1.2,2.5,1.2,4.4v7.1c0,1.9-0.4,3.4-1.2,4.5c-0.8,1-2.1,1.6-3.9,1.6
			C407.5,189.3,406.2,188.8,405.4,187.8z M411.3,186.4c0.3-0.6,0.5-1.4,0.5-2.6v-8.2c0-1.1-0.2-2-0.5-2.5c-0.3-0.5-1-0.8-2-0.8
			c-1,0-1.6,0.3-2,0.8c-0.3,0.5-0.5,1.4-0.5,2.5v8.2c0,1.2,0.2,2,0.5,2.6c0.3,0.6,1,0.9,2,0.9C410.3,187.3,411,187,411.3,186.4z"/>
		<path fill="#FFFFFF" d="M417,170.5h3.7c1.9,0,3.3,0.4,4.2,1.2s1.3,2,1.3,3.8c0,2.4-0.8,3.8-2.3,4.3l2.6,9.3H424l-2.4-8.7h-2v8.7
			H417V170.5z M420.6,178.5c1.1,0,1.9-0.2,2.4-0.7c0.5-0.4,0.7-1.2,0.7-2.4c0-0.8-0.1-1.4-0.3-1.8c-0.2-0.4-0.5-0.8-0.9-1
			c-0.4-0.2-1-0.3-1.8-0.3h-1.2v6.2H420.6z"/>
		<path fill="#FFFFFF" d="M431,172.4h-3.2v-1.9h8.8v1.9h-3.1v16.7H431V172.4z"/>
		<path fill="#FFFFFF" d="M438.4,170.5h7.2v1.9H441v6.2h3.7v1.8H441v6.8h4.7v1.9h-7.3V170.5z"/>
		<path fill="#FFFFFF" d="M447.8,170.5h3.7c1.9,0,3.3,0.4,4.2,1.2s1.3,2,1.3,3.8c0,2.4-0.8,3.8-2.3,4.3l2.6,9.3h-2.5l-2.4-8.7h-2
			v8.7h-2.6V170.5z M451.4,178.5c1.1,0,1.9-0.2,2.4-0.7c0.5-0.4,0.7-1.2,0.7-2.4c0-0.8-0.1-1.4-0.3-1.8c-0.2-0.4-0.5-0.8-0.9-1
			c-0.4-0.2-1-0.3-1.8-0.3h-1.2v6.2H451.4z"/>
		<path fill="#FFFFFF" d="M459.9,170.5h2.6v18.6h-2.6V170.5z"/>
		<path fill="#FFFFFF" d="M468.2,179.4l-3.8-8.9h2.4l2.8,6.6l2.6-6.6h2.4l-3.9,9.1l4.1,9.5h-2.4l-3-7l-2.6,7h-2.4L468.2,179.4z"/>
	</g>
</g>
<g>
	<g>
		<path fill="#FFFFFF" d="M588,129.7h-5.7v-2.8l4.9-11.6h4.5v11.6h1.7v2.9h-1.7v4.2H588V129.7z M588,126.9v-7.8l-2.8,7.8H588z"/>
		<path fill="#FFFFFF" d="M602.1,132.6c-0.9-1.1-1.3-2.6-1.3-4.6v-6.7c0-2.1,0.4-3.6,1.3-4.7c0.8-1,2.3-1.6,4.3-1.6
			c1.9,0,3.3,0.5,4.1,1.4c0.8,0.9,1.2,2.3,1.2,4v1.6h-4v-1.9c0-0.7-0.1-1.3-0.2-1.7c-0.2-0.4-0.5-0.6-1.1-0.6c-0.6,0-1,0.2-1.2,0.6
			c-0.2,0.4-0.3,1-0.3,1.7v8.8c0,0.7,0.1,1.3,0.3,1.7c0.2,0.4,0.6,0.6,1.1,0.6s0.9-0.2,1.1-0.6c0.2-0.4,0.2-1,0.2-1.7v-2h4v1.6
			c0,1.7-0.4,3.1-1.2,4.1s-2.2,1.5-4.1,1.5C604.3,134.2,602.9,133.7,602.1,132.6z"/>
		<path fill="#FFFFFF" d="M616.6,115.3h4.7l3.5,18.6H621l-0.6-3.9h-2.7l-0.6,3.9h-3.9L616.6,115.3z M620,127.5l-1-7.3l-1,7.3H620z"
			/>
		<path fill="#FFFFFF" d="M626.7,115.3h5.1c2,0,3.6,0.4,4.6,1.1s1.6,2,1.6,3.8c0,1.2-0.2,2.2-0.5,3c-0.3,0.7-0.9,1.3-1.8,1.7l2.6,9
			H634l-2-8.3h-1.2v8.3h-4.1V115.3z M631.9,123.2c0.8,0,1.4-0.2,1.7-0.7c0.3-0.4,0.5-1.1,0.5-2c0-0.8-0.2-1.5-0.5-1.9
			s-0.8-0.6-1.6-0.6h-1.3v5.2H631.9z"/>
		<path fill="#FFFFFF" d="M643.1,115.3h4.7l3.5,18.6h-3.8l-0.6-3.9h-2.7l-0.6,3.9h-3.9L643.1,115.3z M646.4,127.5l-1-7.3l-1,7.3
			H646.4z"/>
		<path fill="#FFFFFF" d="M653.9,132.8c-0.9-0.9-1.3-2.4-1.4-4.5l3.5-0.5c0,1.2,0.2,2,0.4,2.5c0.3,0.5,0.7,0.8,1.2,0.8
			c0.7,0,1-0.5,1-1.4c0-0.7-0.2-1.3-0.5-1.9c-0.3-0.5-0.8-1.1-1.6-1.7l-1.6-1.4c-0.8-0.7-1.4-1.4-1.9-2.2c-0.4-0.8-0.7-1.7-0.7-2.7
			c0-1.6,0.5-2.8,1.4-3.6c0.9-0.8,2.2-1.3,3.8-1.3c1.8,0,3,0.5,3.6,1.5s1,2.3,1,3.7l-3.5,0.4c0-1-0.1-1.7-0.3-2.1s-0.5-0.6-1-0.6
			c-0.4,0-0.6,0.1-0.8,0.4c-0.2,0.3-0.3,0.6-0.3,1c0,0.6,0.1,1.2,0.4,1.6s0.7,0.9,1.4,1.5l1.5,1.4c0.9,0.8,1.6,1.6,2.1,2.5
			c0.5,0.9,0.8,1.9,0.8,3.1c0,0.9-0.2,1.7-0.6,2.4s-1,1.3-1.7,1.7c-0.7,0.4-1.6,0.6-2.6,0.6C656.1,134.2,654.8,133.7,653.9,132.8z"
			/>
		<path fill="#FFFFFF" d="M670.7,115.3h4.9c1.2,0,2.2,0.1,3.1,0.4c0.9,0.3,1.5,0.7,2.1,1.5s0.8,1.7,0.8,3c0,1.1-0.2,2-0.7,2.6
			c-0.5,0.6-1.2,1-2,1.2c1.1,0.1,1.9,0.6,2.5,1.4c0.6,0.8,0.9,1.8,0.9,3.1c0,3.7-1.9,5.5-5.6,5.5h-5.7V115.3z M675.6,122.7
			c0.9,0,1.5-0.2,1.8-0.6c0.3-0.4,0.5-1,0.5-1.9c0-0.7-0.2-1.3-0.6-1.7c-0.4-0.4-1-0.6-1.7-0.6h-0.7v4.7H675.6z M675.6,131
			c0.9,0,1.5-0.2,1.9-0.7c0.4-0.4,0.5-1.1,0.5-2.1c0-1.1-0.2-1.8-0.5-2.2c-0.4-0.4-1-0.6-1.9-0.6h-0.9v5.6H675.6z"/>
		<path fill="#FFFFFF" d="M685.2,132.6c-0.9-1-1.3-2.6-1.3-4.6v-6.9c0-2,0.4-3.5,1.3-4.6s2.3-1.5,4.3-1.5c2,0,3.5,0.5,4.3,1.5
			s1.3,2.5,1.3,4.6v6.9c0,2-0.4,3.6-1.3,4.6s-2.3,1.6-4.3,1.6C687.5,134.2,686.1,133.7,685.2,132.6z M690.7,130.7
			c0.2-0.4,0.3-0.9,0.3-1.6v-9c0-0.7-0.1-1.2-0.3-1.6c-0.2-0.4-0.6-0.6-1.2-0.6c-0.6,0-0.9,0.2-1.1,0.6s-0.3,0.9-0.3,1.6v9
			c0,0.7,0.1,1.2,0.3,1.6c0.2,0.4,0.5,0.6,1.1,0.6C690.1,131.3,690.5,131.1,690.7,130.7z"/>
		<path fill="#FFFFFF" d="M697.7,115.3h2.9l3.8,9v-9h3.4v18.6H705l-3.8-9.7v9.7h-3.5V115.3z"/>
		<path fill="#FFFFFF" d="M710.6,115.3h4.1v18.6h-4.1V115.3z"/>
		<path fill="#FFFFFF" d="M719.2,118.3h-2.8v-3.1h9.7v3.1h-2.8v15.6h-4.1V118.3z"/>
		<path fill="#FFFFFF" d="M729.5,115.3h4.7l3.5,18.6h-3.8l-0.6-3.9h-2.7l-0.6,3.9H726L729.5,115.3z M732.9,127.5l-1-7.3l-1,7.3
			H732.9z"/>
		<path fill="#FFFFFF" d="M740.4,132.8c-0.9-0.9-1.3-2.4-1.4-4.5l3.5-0.5c0,1.2,0.2,2,0.4,2.5c0.3,0.5,0.7,0.8,1.2,0.8
			c0.7,0,1-0.5,1-1.4c0-0.7-0.2-1.3-0.5-1.9c-0.3-0.5-0.8-1.1-1.6-1.7l-1.6-1.4c-0.8-0.7-1.4-1.4-1.9-2.2c-0.4-0.8-0.7-1.7-0.7-2.7
			c0-1.6,0.5-2.8,1.4-3.6c0.9-0.8,2.2-1.3,3.8-1.3c1.8,0,3,0.5,3.6,1.5c0.6,1,1,2.3,1,3.7l-3.5,0.4c0-1-0.1-1.7-0.3-2.1
			c-0.1-0.4-0.5-0.6-1-0.6c-0.4,0-0.6,0.1-0.8,0.4c-0.2,0.3-0.3,0.6-0.3,1c0,0.6,0.1,1.2,0.4,1.6c0.3,0.4,0.7,0.9,1.4,1.5l1.5,1.4
			c0.9,0.8,1.6,1.6,2.1,2.5c0.5,0.9,0.8,1.9,0.8,3.1c0,0.9-0.2,1.7-0.6,2.4s-1,1.3-1.7,1.7c-0.7,0.4-1.6,0.6-2.6,0.6
			C742.5,134.2,741.2,133.7,740.4,132.8z"/>
		<path fill="#FFFFFF" d="M583.9,160.1c-0.8-1.1-1.1-2.6-1.1-4.5V149c0-2,0.4-3.6,1.1-4.6c0.7-1.1,2-1.6,3.9-1.6
			c1.7,0,2.9,0.5,3.6,1.4c0.7,0.9,1.1,2.2,1.1,4v1.5h-2.5v-1.3c0-0.9,0-1.5-0.1-2c-0.1-0.5-0.3-0.8-0.6-1.1
			c-0.3-0.3-0.8-0.4-1.5-0.4c-0.7,0-1.2,0.1-1.6,0.4s-0.6,0.7-0.7,1.2s-0.2,1.2-0.2,2.1v7.4c0,1,0.1,1.7,0.2,2.2
			c0.2,0.5,0.4,0.9,0.7,1.1s0.8,0.3,1.4,0.3c0.7,0,1.2-0.1,1.5-0.4c0.3-0.3,0.5-0.7,0.6-1.2c0.1-0.5,0.1-1.2,0.1-2.1v-1.4h2.5v1.4
			c0,1.9-0.3,3.3-1,4.3c-0.7,1-1.9,1.5-3.6,1.5C586,161.7,584.7,161.2,583.9,160.1z"/>
		<path fill="#FFFFFF" d="M598,142.9h2.5l4,18.6H602l-0.9-4.7h-3.8l-0.9,4.7H594L598,142.9z M600.8,155l-1.6-8.4l-1.5,8.4H600.8z"/>
		<path fill="#FFFFFF" d="M606.3,142.9h1.8l5.3,12.4v-12.4h2.2v18.6h-1.7l-5.4-12.7v12.7h-2.2V142.9z"/>
		<path fill="#FFFFFF" d="M621.4,142.9h2.5l4,18.6h-2.5l-0.9-4.7h-3.8l-0.9,4.7h-2.4L621.4,142.9z M624.2,155l-1.6-8.4l-1.5,8.4
			H624.2z"/>
		<path fill="#FFFFFF" d="M629.8,142.9h2.6v16.8h4.8v1.9h-7.4V142.9z"/>
		<path fill="#FFFFFF" d="M583.2,170.5h4c2,0,3.4,0.5,4.3,1.4c0.8,0.9,1.3,2.4,1.3,4.3v6.9c0,2.1-0.4,3.6-1.2,4.6
			c-0.8,1-2.2,1.5-4.1,1.5h-4.3V170.5z M587.2,187.3c0.9,0,1.6-0.2,2-0.5c0.4-0.4,0.7-0.8,0.8-1.4c0.1-0.6,0.1-1.5,0.1-2.7v-6
			c0-1.1-0.1-1.9-0.2-2.4c-0.1-0.6-0.4-1-0.8-1.2c-0.4-0.3-1.1-0.4-1.9-0.4h-1.4v14.8H587.2z"/>
		<path fill="#FFFFFF" d="M595.3,170.5h7.2v1.9h-4.6v6.2h3.7v1.8h-3.7v6.8h4.7v1.9h-7.3V170.5z"/>
		<path fill="#FFFFFF" d="M609.9,170.5h2.6v16.8h4.8v1.9h-7.4V170.5z"/>
		<path fill="#FFFFFF" d="M622,170.5h2.5l4,18.6H626l-0.9-4.7h-3.8l-0.9,4.7H618L622,170.5z M624.8,182.6l-1.6-8.4l-1.5,8.4H624.8z"
			/>
		<path fill="#FFFFFF" d="M636.4,187.7c-0.8-1.1-1.1-2.6-1.1-4.5v-6.6c0-2,0.4-3.6,1.1-4.6c0.7-1.1,2-1.6,3.9-1.6
			c1.7,0,2.9,0.5,3.6,1.4c0.7,0.9,1.1,2.2,1.1,4v1.5h-2.5v-1.3c0-0.9,0-1.5-0.1-2c-0.1-0.5-0.3-0.8-0.6-1.1
			c-0.3-0.3-0.8-0.4-1.5-0.4c-0.7,0-1.2,0.1-1.6,0.4c-0.3,0.3-0.6,0.7-0.7,1.2c-0.1,0.5-0.2,1.2-0.2,2.1v7.4c0,1,0.1,1.7,0.2,2.2
			c0.2,0.5,0.4,0.9,0.7,1.1c0.3,0.2,0.8,0.3,1.4,0.3c0.7,0,1.2-0.1,1.5-0.4c0.3-0.3,0.5-0.7,0.6-1.2c0.1-0.5,0.1-1.2,0.1-2.1v-1.4
			h2.5v1.4c0,1.9-0.3,3.3-1,4.3c-0.7,1-1.9,1.5-3.6,1.5C638.5,189.3,637.2,188.8,636.4,187.7z"/>
		<path fill="#FFFFFF" d="M647.6,170.5h2.6v18.6h-2.6V170.5z"/>
		<path fill="#FFFFFF" d="M654.9,188.5c-0.7-0.5-1.2-1.3-1.5-2.2c-0.3-0.9-0.4-2.1-0.4-3.5v-12.4h2.5V183c0,1.4,0.2,2.5,0.5,3.2
			s1,1.1,2,1.1c1,0,1.7-0.4,2-1.1c0.3-0.7,0.5-1.8,0.5-3.2v-12.5h2.5v12.4c0,1.4-0.1,2.6-0.4,3.5c-0.3,0.9-0.8,1.7-1.5,2.2
			s-1.7,0.8-3,0.8C656.7,189.3,655.7,189.1,654.9,188.5z"/>
		<path fill="#FFFFFF" d="M665.7,170.5h4c2,0,3.4,0.5,4.3,1.4s1.3,2.4,1.3,4.3v6.9c0,2.1-0.4,3.6-1.2,4.6c-0.8,1-2.2,1.5-4.1,1.5
			h-4.3V170.5z M669.7,187.3c0.9,0,1.6-0.2,2-0.5c0.4-0.4,0.7-0.8,0.8-1.4c0.1-0.6,0.1-1.5,0.1-2.7v-6c0-1.1-0.1-1.9-0.2-2.4
			c-0.1-0.6-0.4-1-0.8-1.2c-0.4-0.3-1.1-0.4-1.9-0.4h-1.4v14.8H669.7z"/>
		<path fill="#FFFFFF" d="M680.7,170.5h2.5l4,18.6h-2.5l-0.9-4.7h-3.8l-0.9,4.7h-2.4L680.7,170.5z M683.6,182.6l-1.6-8.4l-1.5,8.4
			H683.6z"/>
		<path fill="#FFFFFF" d="M689.1,170.5h4c2,0,3.4,0.5,4.3,1.4s1.3,2.4,1.3,4.3v6.9c0,2.1-0.4,3.6-1.2,4.6c-0.8,1-2.2,1.5-4.1,1.5
			h-4.3V170.5z M693.2,187.3c0.9,0,1.6-0.2,2-0.5c0.4-0.4,0.7-0.8,0.8-1.4c0.1-0.6,0.1-1.5,0.1-2.7v-6c0-1.1-0.1-1.9-0.2-2.4
			c-0.1-0.6-0.4-1-0.8-1.2c-0.4-0.3-1.1-0.4-1.9-0.4h-1.4v14.8H693.2z"/>
	</g>
</g>
<g>
	<g>
		<path fill="#FFFFFF" d="M773.1,115.3h6.3c1.6,0,2.9,0.5,3.7,1.4s1.2,2.3,1.2,4c0,2-0.5,3.4-1.4,4.2c-0.9,0.8-2.3,1.2-4,1.2h-1.7
			v7.9h-4.1V115.3z M778.6,123.1c0.7,0,1.2-0.2,1.4-0.6c0.2-0.4,0.4-1,0.4-1.9c0-0.8-0.1-1.4-0.3-1.8c-0.2-0.4-0.7-0.6-1.5-0.6h-1.4
			v4.9H778.6z"/>
		<path fill="#FFFFFF" d="M787.8,115.3h4.7l3.5,18.6h-3.8l-0.6-3.9h-2.7l-0.6,3.9h-3.9L787.8,115.3z M791.1,127.5l-1-7.3l-1,7.3
			H791.1z"/>
		<path fill="#FFFFFF" d="M797.8,115.3h5.1c2,0,3.6,0.4,4.6,1.1s1.6,2,1.6,3.8c0,1.2-0.2,2.2-0.5,3c-0.3,0.7-0.9,1.3-1.8,1.7l2.6,9
			h-4.3l-2-8.3h-1.2v8.3h-4.1V115.3z M803.1,123.2c0.8,0,1.4-0.2,1.7-0.7c0.3-0.4,0.5-1.1,0.5-2c0-0.8-0.2-1.5-0.5-1.9
			s-0.8-0.6-1.6-0.6h-1.3v5.2H803.1z"/>
		<path fill="#FFFFFF" d="M811.6,115.3h8.4v2.8h-4.3v4.6h3.2v2.9h-3.2v5.6h4.3v2.8h-8.4V115.3z"/>
		<path fill="#FFFFFF" d="M822.9,132.6c-0.9-1.1-1.3-2.6-1.3-4.6v-6.7c0-2.1,0.4-3.6,1.3-4.7c0.8-1,2.3-1.6,4.3-1.6
			c1.9,0,3.3,0.5,4.1,1.4c0.8,0.9,1.2,2.3,1.2,4v1.6h-4v-1.9c0-0.7-0.1-1.3-0.2-1.7c-0.2-0.4-0.5-0.6-1.1-0.6c-0.6,0-1,0.2-1.2,0.6
			c-0.2,0.4-0.3,1-0.3,1.7v8.8c0,0.7,0.1,1.3,0.3,1.7c0.2,0.4,0.6,0.6,1.1,0.6s0.9-0.2,1.1-0.6c0.2-0.4,0.2-1,0.2-1.7v-2h4v1.6
			c0,1.7-0.4,3.1-1.2,4.1s-2.2,1.5-4.1,1.5C825.2,134.2,823.8,133.7,822.9,132.6z"/>
		<path fill="#FFFFFF" d="M834.8,115.3h8.4v2.8H839v4.6h3.2v2.9H839v5.6h4.3v2.8h-8.4V115.3z"/>
		<path fill="#FFFFFF" d="M858.6,136.2c-0.8-0.7-1.4-1.4-1.8-2.1c-0.1,0-0.2,0-0.4,0c-2,0-3.4-0.5-4.3-1.6c-0.9-1-1.3-2.6-1.3-4.6
			v-6.9c0-2,0.4-3.5,1.3-4.6c0.9-1,2.3-1.5,4.3-1.5c2,0,3.5,0.5,4.3,1.5s1.3,2.5,1.3,4.6v6.9c0,1.4-0.2,2.5-0.6,3.4
			c-0.4,0.9-1,1.6-1.9,2c0.8,0.8,1.4,1.4,1.9,1.6l-0.9,2.4C860,137.3,859.3,136.9,858.6,136.2z M857.5,130.7
			c0.2-0.4,0.3-0.9,0.3-1.6v-9c0-0.7-0.1-1.2-0.3-1.6c-0.2-0.4-0.6-0.6-1.2-0.6c-0.6,0-1,0.2-1.1,0.6c-0.2,0.4-0.3,0.9-0.3,1.6v9
			c0,0.7,0.1,1.2,0.3,1.6c0.2,0.4,0.5,0.6,1.1,0.6C856.9,131.3,857.3,131.1,857.5,130.7z"/>
		<path fill="#FFFFFF" d="M866.6,133.5c-0.8-0.5-1.4-1.1-1.7-2c-0.3-0.9-0.5-2-0.5-3.4v-12.9h4.1v13.5c0,0.8,0.1,1.3,0.3,1.8
			c0.2,0.4,0.6,0.7,1.2,0.7c0.6,0,1-0.2,1.1-0.7c0.2-0.4,0.3-1,0.3-1.8v-13.5h4.1v12.9c0,1.4-0.2,2.5-0.5,3.4
			c-0.3,0.9-0.9,1.5-1.7,2c-0.8,0.5-1.9,0.7-3.3,0.7C868.5,134.2,867.4,134,866.6,133.5z"/>
		<path fill="#FFFFFF" d="M878,115.3h8.4v2.8h-4.3v4.6h3.2v2.9h-3.2v5.6h4.3v2.8H878V115.3z"/>
		<path fill="#FFFFFF" d="M894.2,115.3h2.9l3.8,9v-9h3.4v18.6h-2.8l-3.8-9.7v9.7h-3.5V115.3z"/>
		<path fill="#FFFFFF" d="M908.1,132.6c-0.9-1-1.3-2.6-1.3-4.6v-6.9c0-2,0.4-3.5,1.3-4.6s2.3-1.5,4.3-1.5c2,0,3.5,0.5,4.3,1.5
			s1.3,2.5,1.3,4.6v6.9c0,2-0.4,3.6-1.3,4.6s-2.3,1.6-4.3,1.6C910.4,134.2,909,133.7,908.1,132.6z M913.6,130.7
			c0.2-0.4,0.3-0.9,0.3-1.6v-9c0-0.7-0.1-1.2-0.3-1.6c-0.2-0.4-0.6-0.6-1.2-0.6c-0.6,0-0.9,0.2-1.1,0.6s-0.3,0.9-0.3,1.6v9
			c0,0.7,0.1,1.2,0.3,1.6c0.2,0.4,0.5,0.6,1.1,0.6C913,131.3,913.4,131.1,913.6,130.7z"/>
		<path fill="#FFFFFF" d="M773.1,142.9h6.3c1.6,0,2.9,0.5,3.7,1.4s1.2,2.3,1.2,4c0,2-0.5,3.4-1.4,4.2c-0.9,0.8-2.3,1.2-4,1.2h-1.7
			v7.9h-4.1V142.9z M778.6,150.7c0.7,0,1.2-0.2,1.4-0.6c0.2-0.4,0.4-1,0.4-1.9c0-0.8-0.1-1.4-0.3-1.8c-0.2-0.4-0.7-0.6-1.5-0.6h-1.4
			v4.9H778.6z"/>
		<path fill="#FFFFFF" d="M786.2,142.9h8.4v2.8h-4.3v4.6h3.2v2.9h-3.2v5.6h4.3v2.8h-8.4V142.9z"/>
		<path fill="#FFFFFF" d="M796.5,142.9h5.1c2,0,3.6,0.4,4.6,1.1s1.6,2,1.6,3.8c0,1.2-0.2,2.2-0.5,3c-0.3,0.7-0.9,1.3-1.8,1.7l2.6,9
			h-4.3l-2-8.3h-1.2v8.3h-4.1V142.9z M801.8,150.8c0.8,0,1.4-0.2,1.7-0.7c0.3-0.4,0.5-1.1,0.5-2c0-0.8-0.2-1.5-0.5-1.9
			c-0.3-0.4-0.8-0.6-1.6-0.6h-1.3v5.2H801.8z"/>
		<path fill="#FFFFFF" d="M811.2,160.2c-0.9-1-1.3-2.6-1.3-4.6v-6.9c0-2,0.4-3.5,1.3-4.6c0.9-1,2.3-1.5,4.3-1.5c2,0,3.5,0.5,4.3,1.5
			s1.3,2.5,1.3,4.6v6.9c0,2-0.4,3.6-1.3,4.6c-0.9,1-2.3,1.6-4.3,1.6C813.4,161.8,812,161.3,811.2,160.2z M816.6,158.3
			c0.2-0.4,0.3-0.9,0.3-1.6v-9c0-0.7-0.1-1.2-0.3-1.6c-0.2-0.4-0.6-0.6-1.2-0.6c-0.6,0-0.9,0.2-1.1,0.6c-0.2,0.4-0.3,0.9-0.3,1.6v9
			c0,0.7,0.1,1.2,0.3,1.6c0.2,0.4,0.5,0.6,1.1,0.6C816,158.9,816.4,158.7,816.6,158.3z"/>
		<path fill="#FFFFFF" d="M830.5,160.4c-0.9-0.9-1.3-2.4-1.4-4.5l3.5-0.5c0,1.2,0.2,2,0.4,2.5s0.7,0.8,1.2,0.8c0.7,0,1-0.5,1-1.4
			c0-0.7-0.2-1.3-0.5-1.9s-0.8-1.1-1.6-1.7l-1.6-1.4c-0.8-0.7-1.4-1.4-1.9-2.2c-0.4-0.8-0.7-1.7-0.7-2.7c0-1.6,0.5-2.8,1.4-3.6
			c0.9-0.8,2.2-1.3,3.8-1.3c1.8,0,3,0.5,3.6,1.5c0.6,1,1,2.3,1,3.7l-3.5,0.4c0-1-0.1-1.7-0.3-2.1c-0.1-0.4-0.5-0.6-1-0.6
			c-0.4,0-0.6,0.1-0.8,0.4c-0.2,0.3-0.3,0.6-0.3,1c0,0.6,0.1,1.2,0.4,1.6c0.3,0.4,0.7,0.9,1.4,1.5l1.5,1.4c0.9,0.8,1.6,1.6,2.1,2.5
			c0.5,0.9,0.8,1.9,0.8,3.1c0,0.9-0.2,1.7-0.6,2.4s-1,1.3-1.7,1.7c-0.7,0.4-1.6,0.6-2.6,0.6C832.7,161.8,831.3,161.3,830.5,160.4z"
			/>
		<path fill="#FFFFFF" d="M841.3,142.9h4.1v18.6h-4.1V142.9z M843.6,136.8h3.8l-2.9,4.6h-2.4L843.6,136.8z"/>
		<path fill="#FFFFFF" d="M773.2,170.5h3.7c1.9,0,3.3,0.4,4.2,1.2c0.9,0.8,1.3,2,1.3,3.8c0,2.4-0.8,3.8-2.3,4.3l2.6,9.3h-2.5
			l-2.4-8.7h-2v8.7h-2.6V170.5z M776.7,178.5c1.1,0,1.9-0.2,2.4-0.7c0.5-0.4,0.7-1.2,0.7-2.4c0-0.8-0.1-1.4-0.3-1.8
			c-0.2-0.4-0.5-0.8-0.9-1s-1-0.3-1.8-0.3h-1.2v6.2H776.7z"/>
		<path fill="#FFFFFF" d="M785.9,187.8c-0.8-1-1.2-2.5-1.2-4.5v-7.1c0-1.9,0.4-3.4,1.2-4.4c0.8-1,2.1-1.5,3.9-1.5s3.1,0.5,3.9,1.5
			c0.8,1,1.2,2.5,1.2,4.4v7.1c0,1.9-0.4,3.4-1.2,4.5c-0.8,1-2.1,1.6-3.9,1.6C788,189.3,786.7,188.8,785.9,187.8z M791.8,186.4
			c0.3-0.6,0.5-1.4,0.5-2.6v-8.2c0-1.1-0.2-2-0.5-2.5c-0.3-0.5-1-0.8-2-0.8c-1,0-1.6,0.3-2,0.8c-0.3,0.5-0.5,1.4-0.5,2.5v8.2
			c0,1.2,0.2,2,0.5,2.6c0.3,0.6,1,0.9,2,0.9C790.8,187.3,791.5,187,791.8,186.4z"/>
		<path fill="#FFFFFF" d="M798.3,187.7c-0.8-1.1-1.1-2.6-1.1-4.5v-6.6c0-2,0.4-3.6,1.1-4.6c0.7-1.1,2-1.6,3.9-1.6
			c1.7,0,2.9,0.5,3.6,1.4c0.7,0.9,1.1,2.2,1.1,4v1.5h-2.5v-1.3c0-0.9,0-1.5-0.1-2c-0.1-0.5-0.3-0.8-0.6-1.1
			c-0.3-0.3-0.8-0.4-1.5-0.4c-0.7,0-1.2,0.1-1.6,0.4c-0.3,0.3-0.6,0.7-0.7,1.2c-0.1,0.5-0.2,1.2-0.2,2.1v7.4c0,1,0.1,1.7,0.2,2.2
			s0.4,0.9,0.7,1.1c0.3,0.2,0.8,0.3,1.4,0.3c0.7,0,1.1-0.1,1.5-0.4c0.3-0.3,0.5-0.7,0.6-1.2s0.1-1.2,0.1-2.1v-1.4h2.5v1.4
			c0,1.9-0.3,3.3-1,4.3c-0.7,1-1.9,1.5-3.6,1.5C800.3,189.3,799,188.8,798.3,187.7z"/>
		<path fill="#FFFFFF" d="M809.3,170.5h2.6v8.8l4.3-8.8h2.4l-3.7,8.2l4.3,10.4h-2.5l-3.6-8.7l-1.2,2.2v6.6h-2.6V170.5z"/>
		<path fill="#FFFFFF" d="M826.9,188.2c-0.7-0.8-1.1-1.8-1.1-3c0-1.1,0.2-2.1,0.7-2.9c0.5-0.9,1.1-1.7,2-2.4l-0.5-0.9
			c-0.5-0.9-0.9-1.7-1.1-2.3c-0.3-0.7-0.4-1.3-0.4-2.1c0-1.2,0.4-2.2,1.1-3c0.7-0.8,1.7-1.1,2.9-1.1c1.1,0,2.1,0.3,2.8,0.9
			c0.7,0.6,1.1,1.5,1.1,2.5c0,1.1-0.3,2.1-1,3.1c-0.7,1-1.5,2-2.5,3l2.8,4.4c0.4-0.9,0.8-2.1,0.9-3.7h2.4c0,0.9-0.2,1.8-0.5,2.8
			c-0.4,1-0.8,1.8-1.3,2.5c0.2,0.3,0.5,0.5,0.8,0.7c0.3,0.2,0.7,0.3,1,0.3v2.5h-0.3c-0.4,0-0.8-0.1-1.1-0.3
			c-0.3-0.2-0.6-0.4-0.8-0.6c-0.2-0.2-0.5-0.5-1-1c-0.4,0.6-1,1-1.7,1.3c-0.7,0.3-1.4,0.5-2.3,0.5
			C828.6,189.3,827.7,188.9,826.9,188.2z M832.4,185.9l-2.9-4.4c-0.4,0.5-0.7,1-0.9,1.7c-0.2,0.6-0.3,1.3-0.3,2
			c0,0.6,0.1,1.1,0.4,1.5c0.2,0.4,0.6,0.6,1.2,0.6C830.8,187.3,831.7,186.8,832.4,185.9z M831.5,176.3c0.4-0.9,0.6-1.7,0.6-2.5
			c0-0.4-0.1-0.8-0.4-1c-0.3-0.3-0.6-0.4-1.1-0.4c-0.5,0-0.9,0.2-1.2,0.6s-0.4,0.9-0.4,1.5c0,0.6,0.1,1.3,0.3,1.9
			c0.2,0.7,0.5,1.4,0.8,2.2C830.7,177.9,831.1,177.2,831.5,176.3z"/>
		<path fill="#FFFFFF" d="M845.2,170.5h4.6c1.6,0,2.8,0.4,3.5,1.3c0.7,0.9,1.1,2.2,1.1,3.8c0,1.5-0.4,2.7-1.2,3.5
			c-0.8,0.8-1.9,1.3-3.4,1.3h-2v8.7h-2.6V170.5z M849,178.6c0.8,0,1.4-0.1,1.8-0.3s0.7-0.5,0.9-0.9c0.2-0.4,0.3-1,0.3-1.8
			c0-1-0.1-1.6-0.2-2.1c-0.1-0.4-0.4-0.8-0.8-0.9s-1-0.3-1.9-0.3h-1.2v6.2H849z"/>
		<path fill="#FFFFFF" d="M857.1,187.8c-0.8-1-1.2-2.5-1.2-4.5v-7.1c0-1.9,0.4-3.4,1.2-4.4c0.8-1,2.1-1.5,3.9-1.5s3.1,0.5,3.9,1.5
			c0.8,1,1.2,2.5,1.2,4.4v7.1c0,1.9-0.4,3.4-1.2,4.5c-0.8,1-2.1,1.6-3.9,1.6C859.2,189.3,857.9,188.8,857.1,187.8z M863,186.4
			c0.3-0.6,0.5-1.4,0.5-2.6v-8.2c0-1.1-0.2-2-0.5-2.5c-0.3-0.5-1-0.8-2-0.8c-1,0-1.6,0.3-2,0.8c-0.3,0.5-0.5,1.4-0.5,2.5v8.2
			c0,1.2,0.2,2,0.5,2.6c0.3,0.6,1,0.9,2,0.9C862,187.3,862.6,187,863,186.4z"/>
		<path fill="#FFFFFF" d="M868.6,170.5h4.6c1.6,0,2.8,0.4,3.5,1.3c0.7,0.9,1.1,2.2,1.1,3.8c0,1.5-0.4,2.7-1.2,3.5
			c-0.8,0.8-1.9,1.3-3.4,1.3h-2v8.7h-2.6V170.5z M872.4,178.6c0.8,0,1.4-0.1,1.8-0.3s0.7-0.5,0.9-0.9c0.2-0.4,0.3-1,0.3-1.8
			c0-1-0.1-1.6-0.2-2.1c-0.1-0.4-0.4-0.8-0.8-0.9s-1-0.3-1.9-0.3h-1.2v6.2H872.4z"/>
	</g>
</g>
<g>
	<g>
		<path fill="#FFFFFF" d="M200.1,115.3h4.7c1.6,0,2.9,0.2,3.8,0.6c0.9,0.4,1.5,1,1.9,1.9c0.4,0.9,0.6,2,0.6,3.4v6.8
			c0,1.4-0.2,2.6-0.6,3.5c-0.4,0.9-1,1.5-1.9,1.9s-2.1,0.6-3.7,0.6h-4.8V115.3z M204.9,131.1c0.6,0,1-0.1,1.3-0.3s0.5-0.4,0.5-0.8
			c0.1-0.3,0.1-0.8,0.1-1.5v-8.1c0-0.6,0-1.1-0.1-1.4c-0.1-0.3-0.3-0.5-0.6-0.7c-0.3-0.2-0.7-0.2-1.3-0.2h-0.6v12.9H204.9z"/>
		<path fill="#FFFFFF" d="M213.6,115.3h4.1v18.6h-4.1V115.3z"/>
		<path fill="#FFFFFF" d="M223.1,115.3h4.7l3.5,18.6h-3.8l-0.6-3.9h-2.7l-0.6,3.9h-3.9L223.1,115.3z M226.5,127.5l-1-7.3l-1,7.3
			H226.5z"/>
		<path fill="#FFFFFF" d="M233.2,115.3h5.1c2,0,3.6,0.4,4.6,1.1c1,0.7,1.6,2,1.6,3.8c0,1.2-0.2,2.2-0.5,3c-0.3,0.7-0.9,1.3-1.8,1.7
			l2.6,9h-4.3l-2-8.3h-1.2v8.3h-4.1V115.3z M238.4,123.2c0.8,0,1.4-0.2,1.7-0.7c0.3-0.4,0.5-1.1,0.5-2c0-0.8-0.2-1.5-0.5-1.9
			s-0.8-0.6-1.6-0.6h-1.3v5.2H238.4z"/>
		<path fill="#FFFFFF" d="M247,115.3h4.1v18.6H247V115.3z"/>
		<path fill="#FFFFFF" d="M254.9,132.6c-0.9-1-1.3-2.6-1.3-4.6v-6.9c0-2,0.4-3.5,1.3-4.6c0.9-1,2.3-1.5,4.3-1.5c2,0,3.5,0.5,4.3,1.5
			s1.3,2.5,1.3,4.6v6.9c0,2-0.4,3.6-1.3,4.6s-2.3,1.6-4.3,1.6C257.2,134.2,255.8,133.7,254.9,132.6z M260.4,130.7
			c0.2-0.4,0.3-0.9,0.3-1.6v-9c0-0.7-0.1-1.2-0.3-1.6c-0.2-0.4-0.6-0.6-1.2-0.6c-0.6,0-0.9,0.2-1.1,0.6c-0.2,0.4-0.3,0.9-0.3,1.6v9
			c0,0.7,0.1,1.2,0.3,1.6c0.2,0.4,0.5,0.6,1.1,0.6S260.2,131.1,260.4,130.7z"/>
		<path fill="#FFFFFF" d="M273.3,115.3h4.1v7.5h2.9v-7.5h4.1v18.6h-4.1v-8.1h-2.9v8.1h-4.1V115.3z"/>
		<path fill="#FFFFFF" d="M288.3,132.6c-0.9-1-1.3-2.6-1.3-4.6v-6.9c0-2,0.4-3.5,1.3-4.6c0.9-1,2.3-1.5,4.3-1.5c2,0,3.5,0.5,4.3,1.5
			s1.3,2.5,1.3,4.6v6.9c0,2-0.4,3.6-1.3,4.6s-2.3,1.6-4.3,1.6C290.6,134.2,289.2,133.7,288.3,132.6z M293.8,130.7
			c0.2-0.4,0.3-0.9,0.3-1.6v-9c0-0.7-0.1-1.2-0.3-1.6c-0.2-0.4-0.6-0.6-1.2-0.6c-0.6,0-0.9,0.2-1.1,0.6c-0.2,0.4-0.3,0.9-0.3,1.6v9
			c0,0.7,0.1,1.2,0.3,1.6c0.2,0.4,0.5,0.6,1.1,0.6S293.6,131.1,293.8,130.7z"/>
		<path fill="#FFFFFF" d="M302.7,126.3l-3.5-11h3.9l1.8,5.9l1.6-5.9h3.7l-3.5,11v7.6h-4V126.3z"/>
		<path fill="#FFFFFF" d="M200.1,142.9h4.7c1.6,0,2.9,0.2,3.8,0.6c0.9,0.4,1.5,1,1.9,1.9c0.4,0.9,0.6,2,0.6,3.4v6.8
			c0,1.4-0.2,2.6-0.6,3.5c-0.4,0.9-1,1.5-1.9,1.9c-0.9,0.4-2.1,0.6-3.7,0.6h-4.8V142.9z M204.9,158.7c0.6,0,1-0.1,1.3-0.3
			c0.3-0.2,0.5-0.4,0.5-0.8s0.1-0.8,0.1-1.5v-8.1c0-0.6,0-1.1-0.1-1.4c-0.1-0.3-0.3-0.5-0.6-0.7s-0.7-0.2-1.3-0.2h-0.6v12.9H204.9z"
			/>
		<path fill="#FFFFFF" d="M213.6,142.9h8.4v2.8h-4.3v4.6h3.2v2.9h-3.2v5.6h4.3v2.8h-8.4V142.9z"/>
		<path fill="#FFFFFF" d="M229.7,142.9h4.1v15.8h4.3v2.8h-8.4V142.9z"/>
		<path fill="#FFFFFF" d="M242.5,142.9h4.7l3.5,18.6h-3.8l-0.6-3.9h-2.7l-0.6,3.9H239L242.5,142.9z M245.9,155.1l-1-7.3l-1,7.3
			H245.9z"/>
		<path fill="#FFFFFF" d="M258.5,142.9h6.3c1.6,0,2.9,0.5,3.7,1.4c0.8,0.9,1.2,2.3,1.2,4c0,2-0.5,3.4-1.4,4.2s-2.3,1.2-4,1.2h-1.7
			v7.9h-4.1V142.9z M264,150.7c0.7,0,1.2-0.2,1.4-0.6s0.4-1,0.4-1.9c0-0.8-0.1-1.4-0.3-1.8c-0.2-0.4-0.7-0.6-1.5-0.6h-1.4v4.9H264z"
			/>
		<path fill="#FFFFFF" d="M271.6,142.9h4.1v15.8h4.3v2.8h-8.4V142.9z"/>
		<path fill="#FFFFFF" d="M284.4,142.9h4.7l3.5,18.6h-3.8l-0.6-3.9h-2.7l-0.6,3.9h-3.9L284.4,142.9z M287.8,155.1l-1-7.3l-1,7.3
			H287.8z"/>
		<path fill="#FFFFFF" d="M295.2,145.9h-2.8v-3.1h9.7v3.1h-2.8v15.6h-4.1V145.9z"/>
		<path fill="#FFFFFF" d="M305.5,142.9h4.7l3.5,18.6h-3.8l-0.6-3.9h-2.7l-0.6,3.9H302L305.5,142.9z M308.9,155.1l-1-7.3l-1,7.3
			H308.9z"/>
	</g>
</g>
<g>
	<g>
		<path fill="#FFFFFF" d="M170.4,15.6h4.1v15.8h4.3v2.8h-8.4V15.6z"/>
		<path fill="#FFFFFF" d="M183.2,15.6h4.7l3.5,18.6h-3.8l-0.6-3.9h-2.7l-0.6,3.9h-3.9L183.2,15.6z M186.6,27.8l-1-7.3l-1,7.3H186.6z
			"/>
		<path fill="#FFFFFF" d="M199.2,15.6h2.9l3.8,9v-9h3.4v18.6h-2.8l-3.8-9.7v9.7h-3.5V15.6z"/>
		<path fill="#FFFFFF" d="M214.7,15.6h4.7l3.5,18.6h-3.8l-0.6-3.9h-2.7l-0.6,3.9h-3.9L214.7,15.6z M218,27.8l-1-7.3l-1,7.3H218z"/>
		<path fill="#FFFFFF" d="M225.5,32.9c-0.9-1.1-1.3-2.6-1.3-4.6v-6.7c0-2.1,0.4-3.6,1.3-4.7c0.8-1,2.3-1.6,4.3-1.6
			c1.9,0,3.3,0.5,4.1,1.4c0.8,0.9,1.2,2.3,1.2,4v1.6h-4v-1.9c0-0.7-0.1-1.3-0.2-1.7c-0.2-0.4-0.5-0.6-1.1-0.6s-1,0.2-1.1,0.6
			s-0.3,1-0.3,1.7v8.8c0,0.7,0.1,1.3,0.3,1.7c0.2,0.4,0.6,0.6,1.1,0.6s0.9-0.2,1.1-0.6c0.2-0.4,0.2-1,0.2-1.7v-2h4v1.6
			c0,1.7-0.4,3.1-1.2,4.1c-0.8,1-2.2,1.5-4.1,1.5C227.8,34.5,226.3,33.9,225.5,32.9z"/>
		<path fill="#FFFFFF" d="M237.4,15.6h4.1v18.6h-4.1V15.6z"/>
		<path fill="#FFFFFF" d="M245.3,32.9c-0.9-1-1.3-2.6-1.3-4.6v-6.9c0-2,0.4-3.5,1.3-4.6c0.9-1,2.3-1.5,4.3-1.5c2,0,3.5,0.5,4.3,1.5
			c0.9,1,1.3,2.5,1.3,4.6v6.9c0,2-0.4,3.6-1.3,4.6s-2.3,1.6-4.3,1.6C247.6,34.5,246.2,33.9,245.3,32.9z M250.8,31
			c0.2-0.4,0.3-0.9,0.3-1.6v-9c0-0.7-0.1-1.2-0.3-1.6c-0.2-0.4-0.6-0.6-1.2-0.6c-0.6,0-0.9,0.2-1.1,0.6c-0.2,0.4-0.3,0.9-0.3,1.6v9
			c0,0.7,0.1,1.2,0.3,1.6c0.2,0.4,0.5,0.6,1.1,0.6S250.6,31.3,250.8,31z M249.9,9.5h3.8l-2.9,4.6h-2.4L249.9,9.5z"/>
		<path fill="#FFFFFF" d="M257.8,15.6h2.9l3.8,9v-9h3.4v18.6h-2.8l-3.8-9.7v9.7h-3.5V15.6z"/>
		<path fill="#FFFFFF" d="M172.1,46.2h-2.8v-3.1h9.7v3.1h-2.8v15.6h-4.1V46.2z"/>
		<path fill="#FFFFFF" d="M182.7,61.4c-0.8-0.5-1.4-1.1-1.7-2s-0.5-2-0.5-3.4V43.2h4.1v13.5c0,0.8,0.1,1.3,0.3,1.8
			c0.2,0.4,0.6,0.7,1.2,0.7c0.6,0,1-0.2,1.1-0.7c0.2-0.4,0.3-1,0.3-1.8V43.2h4.1V56c0,1.4-0.2,2.5-0.5,3.4s-0.9,1.5-1.7,2
			s-1.9,0.7-3.3,0.7C184.6,62.1,183.5,61.8,182.7,61.4z"/>
		<path fill="#FFFFFF" d="M194.2,43.2h5.1c2,0,3.6,0.4,4.6,1.1c1,0.7,1.6,2,1.6,3.8c0,1.2-0.2,2.2-0.5,3c-0.3,0.7-0.9,1.3-1.8,1.7
			l2.6,9h-4.3l-2-8.3h-1.2v8.3h-4.1V43.2z M199.4,51.1c0.8,0,1.4-0.2,1.7-0.7c0.3-0.4,0.5-1.1,0.5-2c0-0.8-0.2-1.5-0.5-1.9
			s-0.8-0.6-1.6-0.6h-1.3v5.2H199.4z"/>
		<path fill="#FFFFFF" d="M208,43.2h4.1v18.6H208V43.2z"/>
		<path fill="#FFFFFF" d="M215.9,60.7c-0.9-0.9-1.3-2.4-1.4-4.5l3.5-0.5c0,1.2,0.2,2,0.4,2.5c0.3,0.5,0.7,0.8,1.2,0.8
			c0.7,0,1-0.5,1-1.4c0-0.7-0.2-1.3-0.5-1.9c-0.3-0.5-0.8-1.1-1.6-1.7l-1.6-1.4c-0.8-0.7-1.4-1.4-1.9-2.2c-0.4-0.8-0.7-1.7-0.7-2.7
			c0-1.6,0.5-2.8,1.4-3.6c0.9-0.8,2.2-1.3,3.8-1.3c1.8,0,3,0.5,3.6,1.5c0.6,1,1,2.3,1,3.7l-3.5,0.4c0-1-0.1-1.7-0.3-2.1
			c-0.1-0.4-0.5-0.6-1-0.6c-0.4,0-0.6,0.1-0.8,0.4s-0.3,0.6-0.3,1c0,0.6,0.1,1.2,0.4,1.6c0.3,0.4,0.7,0.9,1.4,1.5l1.5,1.4
			c0.9,0.8,1.6,1.6,2.1,2.5c0.5,0.9,0.8,1.9,0.8,3.1c0,0.9-0.2,1.7-0.6,2.4s-1,1.3-1.7,1.7s-1.6,0.6-2.6,0.6
			C218.1,62.1,216.7,61.6,215.9,60.7z"/>
		<path fill="#FFFFFF" d="M226.8,43.2h4.4l2,10.8l2.2-10.8h4.3l0.3,18.6h-2.9l-0.3-12.4l-2.2,12.4H232l-2.3-12.5l-0.3,12.5h-3
			L226.8,43.2z"/>
		<path fill="#FFFFFF" d="M243.8,60.5c-0.9-1-1.3-2.6-1.3-4.6V49c0-2,0.4-3.5,1.3-4.6c0.9-1,2.3-1.5,4.3-1.5c2,0,3.5,0.5,4.3,1.5
			s1.3,2.5,1.3,4.6v6.9c0,2-0.4,3.6-1.3,4.6s-2.3,1.6-4.3,1.6C246.1,62.1,244.6,61.5,243.8,60.5z M249.2,58.6
			c0.2-0.4,0.3-0.9,0.3-1.6v-9c0-0.7-0.1-1.2-0.3-1.6c-0.2-0.4-0.6-0.6-1.2-0.6c-0.6,0-0.9,0.2-1.1,0.6c-0.2,0.4-0.3,0.9-0.3,1.6v9
			c0,0.7,0.1,1.2,0.3,1.6c0.2,0.4,0.5,0.6,1.1,0.6S249,58.9,249.2,58.6z"/>
		<path fill="#FFFFFF" d="M171.3,88.1c-0.8-1-1.3-2.3-1.4-4l2.3-0.6c0.1,1.2,0.3,2.2,0.7,2.9c0.4,0.7,1,1.1,1.9,1.1
			c0.7,0,1.2-0.2,1.5-0.6c0.3-0.4,0.5-0.9,0.5-1.6c0-0.8-0.2-1.4-0.5-1.9c-0.3-0.5-0.8-1.1-1.5-1.7l-3.1-2.8
			c-0.6-0.6-1.1-1.1-1.4-1.8c-0.3-0.6-0.4-1.4-0.4-2.3c0-1.4,0.4-2.4,1.2-3.2c0.8-0.8,1.8-1.1,3.2-1.1c1.5,0,2.6,0.4,3.3,1.2
			c0.8,0.8,1.2,2,1.4,3.6l-2.2,0.6c-0.1-1.1-0.3-1.9-0.6-2.5c-0.3-0.6-1-0.9-1.9-0.9c-0.7,0-1.2,0.2-1.5,0.5
			c-0.4,0.3-0.5,0.9-0.5,1.5c0,0.6,0.1,1,0.3,1.4c0.2,0.4,0.5,0.8,0.9,1.1l3.2,2.8c0.8,0.7,1.5,1.5,1.9,2.3c0.5,0.8,0.7,1.8,0.7,2.9
			c0,1.4-0.4,2.4-1.2,3.2c-0.8,0.8-1.9,1.2-3.2,1.2C173.3,89.6,172.1,89.1,171.3,88.1z"/>
		<path fill="#FFFFFF" d="M184.3,70.8h2.5l4,18.6h-2.5l-0.9-4.7h-3.8l-0.9,4.7h-2.4L184.3,70.8z M187.1,82.8l-1.6-8.4l-1.5,8.4
			H187.1z"/>
		<path fill="#FFFFFF" d="M192.7,70.8h2.6v16.8h4.8v1.9h-7.4V70.8z"/>
		<path fill="#FFFFFF" d="M204.8,70.8h2.5l4,18.6h-2.5l-0.9-4.7h-3.8l-0.9,4.7h-2.4L204.8,70.8z M207.6,82.8l-1.6-8.4l-1.5,8.4
			H207.6z"/>
		<path fill="#FFFFFF" d="M217.5,70.8h2.4l2.9,13.7l2.8-13.7h2.4l-4.1,18.6h-2.3L217.5,70.8z"/>
		<path fill="#FFFFFF" d="M230.1,70.8h2.6v18.6h-2.6V70.8z"/>
		<path fill="#FFFFFF" d="M235.7,70.8h4.6c1.6,0,2.8,0.4,3.5,1.3c0.7,0.9,1.1,2.2,1.1,3.8c0,1.5-0.4,2.7-1.2,3.5
			c-0.8,0.8-1.9,1.3-3.4,1.3h-2v8.7h-2.6V70.8z M239.5,78.9c0.8,0,1.4-0.1,1.8-0.3c0.4-0.2,0.7-0.5,0.9-0.9c0.2-0.4,0.3-1,0.3-1.8
			c0-1-0.1-1.6-0.2-2.1c-0.1-0.4-0.4-0.8-0.8-0.9c-0.4-0.2-1-0.3-1.9-0.3h-1.2v6.2H239.5z"/>
	</g>
</g>
<g>
	<g>
		<path fill="#FFFFFF" d="M328.4,32.9c-0.9-1.1-1.3-2.6-1.3-4.6v-6.7c0-2.1,0.4-3.6,1.3-4.7c0.8-1,2.3-1.6,4.3-1.6
			c1.9,0,3.3,0.5,4.1,1.4c0.8,0.9,1.2,2.3,1.2,4v1.6h-4v-1.9c0-0.7-0.1-1.3-0.2-1.7c-0.2-0.4-0.5-0.6-1.1-0.6s-1,0.2-1.1,0.6
			s-0.3,1-0.3,1.7v8.8c0,0.7,0.1,1.3,0.3,1.7c0.2,0.4,0.6,0.6,1.1,0.6s0.9-0.2,1.1-0.6c0.2-0.4,0.2-1,0.2-1.7v-2h4v1.6
			c0,1.7-0.4,3.1-1.2,4.1c-0.8,1-2.2,1.5-4.1,1.5C330.7,34.5,329.3,33.9,328.4,32.9z"/>
		<path fill="#FFFFFF" d="M340.4,15.6h4.1v15.8h4.3v2.8h-8.4V15.6z"/>
		<path fill="#FFFFFF" d="M353.2,15.6h4.7l3.5,18.6h-3.8l-0.6-3.9h-2.7l-0.6,3.9h-3.9L353.2,15.6z M356.5,27.8l-1-7.3l-1,7.3H356.5z
			"/>
		<path fill="#FFFFFF" d="M363.2,15.6h5.1c2,0,3.6,0.4,4.6,1.1c1,0.7,1.6,2,1.6,3.8c0,1.2-0.2,2.2-0.5,3c-0.3,0.7-0.9,1.3-1.8,1.7
			l2.6,9h-4.3l-2-8.3h-1.2v8.3h-4.1V15.6z M368.5,23.5c0.8,0,1.4-0.2,1.7-0.7s0.5-1.1,0.5-2c0-0.8-0.2-1.5-0.5-1.9
			c-0.3-0.4-0.8-0.6-1.6-0.6h-1.3v5.2H368.5z"/>
		<path fill="#FFFFFF" d="M377,15.6h4.1v18.6H377V15.6z M379.3,9.5h3.8l-2.9,4.6h-2.4L379.3,9.5z"/>
		<path fill="#FFFFFF" d="M383.9,15.6h2.9l3.8,9v-9h3.4v18.6h-2.8l-3.8-9.7v9.7h-3.5V15.6z"/>
		<path fill="#FFFFFF" d="M396.5,30.6h3.5v3.5h-3.5V30.6z"/>
		<path fill="#FFFFFF" d="M403.5,32.9c-0.9-1.1-1.3-2.6-1.3-4.6v-6.7c0-2.1,0.4-3.6,1.3-4.7c0.8-1,2.3-1.6,4.3-1.6
			c1.9,0,3.3,0.5,4.1,1.4c0.8,0.9,1.2,2.3,1.2,4v1.6h-4v-1.9c0-0.7-0.1-1.3-0.2-1.7c-0.2-0.4-0.5-0.6-1.1-0.6s-1,0.2-1.1,0.6
			s-0.3,1-0.3,1.7v8.8c0,0.7,0.1,1.3,0.3,1.7c0.2,0.4,0.6,0.6,1.1,0.6s0.9-0.2,1.1-0.6c0.2-0.4,0.2-1,0.2-1.7v-2h4v1.6
			c0,1.7-0.4,3.1-1.2,4.1c-0.8,1-2.2,1.5-4.1,1.5C405.8,34.5,404.3,33.9,403.5,32.9z"/>
		<path fill="#FFFFFF" d="M416.4,32.9c-0.9-1-1.3-2.6-1.3-4.6v-6.9c0-2,0.4-3.5,1.3-4.6c0.9-1,2.3-1.5,4.3-1.5c2,0,3.5,0.5,4.3,1.5
			c0.9,1,1.3,2.5,1.3,4.6v6.9c0,2-0.4,3.6-1.3,4.6s-2.3,1.6-4.3,1.6C418.7,34.5,417.3,33.9,416.4,32.9z M421.9,31
			c0.2-0.4,0.3-0.9,0.3-1.6v-9c0-0.7-0.1-1.2-0.3-1.6c-0.2-0.4-0.6-0.6-1.2-0.6c-0.6,0-0.9,0.2-1.1,0.6c-0.2,0.4-0.3,0.9-0.3,1.6v9
			c0,0.7,0.1,1.2,0.3,1.6c0.2,0.4,0.5,0.6,1.1,0.6S421.7,31.3,421.9,31z"/>
		<path fill="#FFFFFF" d="M429.1,15.6h4.4l2,10.8l2.2-10.8h4.3l0.3,18.6h-2.9l-0.3-12.4L437,34.2h-2.6l-2.3-12.5l-0.3,12.5h-3
			L429.1,15.6z"/>
	</g>
</g>
<g>
	<g>
		<path fill="#FFFFFF" d="M487.7,32.9c-0.9-1-1.3-2.6-1.3-4.6v-6.9c0-2,0.4-3.5,1.3-4.6s2.3-1.5,4.3-1.5c2,0,3.5,0.5,4.3,1.5
			c0.9,1,1.3,2.5,1.3,4.6v6.9c0,2-0.4,3.6-1.3,4.6s-2.3,1.6-4.3,1.6C490,34.5,488.6,33.9,487.7,32.9z M493.2,31
			c0.2-0.4,0.3-0.9,0.3-1.6v-9c0-0.7-0.1-1.2-0.3-1.6c-0.2-0.4-0.6-0.6-1.2-0.6c-0.6,0-0.9,0.2-1.1,0.6c-0.2,0.4-0.3,0.9-0.3,1.6v9
			c0,0.7,0.1,1.2,0.3,1.6c0.2,0.4,0.5,0.6,1.1,0.6C492.6,31.5,493,31.3,493.2,31z"/>
		<path fill="#FFFFFF" d="M500.2,15.6h4.1v15.8h4.3v2.8h-8.4V15.6z"/>
		<path fill="#FFFFFF" d="M510.4,15.6h8.4v2.8h-4.3V23h3.2v2.9h-3.2v5.6h4.3v2.8h-8.4V15.6z M514.8,9.5h3.8l-2.9,4.6h-2.4L514.8,9.5
			z"/>
	</g>
</g>
<g>
	<g>
		<path fill="#FFFFFF" d="M646.7,15.6h4.1v18.6h-4.1V15.6z"/>
		<path fill="#FFFFFF" d="M653.6,15.6h2.9l3.8,9v-9h3.4v18.6H661l-3.8-9.7v9.7h-3.5V15.6z"/>
		<path fill="#FFFFFF" d="M666.5,15.6h8v2.8h-3.9V23h3.4v2.9h-3.4v8.3h-4.1V15.6z"/>
		<path fill="#FFFFFF" d="M677.5,32.9c-0.9-1-1.3-2.6-1.3-4.6v-6.9c0-2,0.4-3.5,1.3-4.6s2.3-1.5,4.3-1.5c2,0,3.5,0.5,4.3,1.5
			c0.9,1,1.3,2.5,1.3,4.6v6.9c0,2-0.4,3.6-1.3,4.6s-2.3,1.6-4.3,1.6C679.8,34.5,678.4,33.9,677.5,32.9z M683,31
			c0.2-0.4,0.3-0.9,0.3-1.6v-9c0-0.7-0.1-1.2-0.3-1.6c-0.2-0.4-0.6-0.6-1.2-0.6c-0.6,0-0.9,0.2-1.1,0.6c-0.2,0.4-0.3,0.9-0.3,1.6v9
			c0,0.7,0.1,1.2,0.3,1.6c0.2,0.4,0.5,0.6,1.1,0.6C682.4,31.5,682.8,31.3,683,31z"/>
		<path fill="#FFFFFF" d="M690,15.6h4.9c1.2,0,2.2,0.1,3.1,0.4c0.9,0.3,1.5,0.7,2.1,1.5c0.5,0.7,0.8,1.7,0.8,3c0,1.1-0.2,2-0.7,2.6
			c-0.5,0.6-1.1,1-2,1.2c1.1,0.1,1.9,0.6,2.5,1.4c0.6,0.8,0.9,1.8,0.9,3.1c0,3.7-1.9,5.5-5.6,5.5H690V15.6z M694.9,23
			c0.9,0,1.5-0.2,1.8-0.6c0.3-0.4,0.5-1,0.5-1.9c0-0.7-0.2-1.3-0.6-1.7c-0.4-0.4-1-0.6-1.7-0.6h-0.7V23H694.9z M695,31.3
			c0.9,0,1.5-0.2,1.9-0.7c0.4-0.4,0.5-1.1,0.5-2.1c0-1.1-0.2-1.8-0.5-2.2s-1-0.6-1.9-0.6h-0.9v5.6H695z"/>
		<path fill="#FFFFFF" d="M706.1,15.6h4.7l3.5,18.6h-3.8l-0.6-3.9h-2.7l-0.6,3.9h-3.9L706.1,15.6z M709.4,27.8l-1-7.3l-1,7.3H709.4z
			"/>
		<path fill="#FFFFFF" d="M716.1,15.6h8.4v2.8h-4.3V23h3.2v2.9h-3.2v5.6h4.3v2.8h-8.4V15.6z"/>
	</g>
</g>
<g>
	<g>
		<path fill="#FFFFFF" d="M808.6,32.8c-0.8-1.1-1.2-2.7-1.2-4.8v-6.3c0-2.1,0.4-3.7,1.3-4.8c0.9-1.1,2.3-1.7,4.3-1.7
			c1.9,0,3.3,0.5,4.2,1.4c0.8,1,1.3,2.3,1.3,4V22h-4v-1.5c0-0.7-0.1-1.3-0.3-1.7c-0.2-0.4-0.5-0.6-1.1-0.6c-0.6,0-1,0.2-1.2,0.6
			c-0.2,0.4-0.3,1-0.3,1.7v8.6c0,0.7,0.1,1.3,0.3,1.7c0.2,0.4,0.6,0.6,1.2,0.6c1.1,0,1.6-0.8,1.6-2.4v-2.2h-1.7v-2.4h5.4v9.7h-2.7
			l-0.2-1.5c-0.6,1.2-1.6,1.8-3,1.8C810.7,34.5,809.4,33.9,808.6,32.8z"/>
		<path fill="#FFFFFF" d="M821.1,15.6h8.4v2.8h-4.3V23h3.2v2.9h-3.2v5.6h4.3v2.8h-8.4V15.6z"/>
		<path fill="#FFFFFF" d="M831.4,15.6h2.9l3.8,9v-9h3.4v18.6h-2.8l-3.8-9.7v9.7h-3.5V15.6z"/>
		<path fill="#FFFFFF" d="M846,18.6h-2.8v-3.1h9.7v3.1h-2.8v15.6H846V18.6z"/>
		<path fill="#FFFFFF" d="M854.5,15.6h8.4v2.8h-4.3V23h3.2v2.9h-3.2v5.6h4.3v2.8h-8.4V15.6z"/>
	</g>
</g>
<g>
</g>
<g>
</g>
<g>
</g>
<g>
</g>
<g>
</g>
<g>
</g>
<g>
</g>
<g>
</g>
<g>
</g>
<g>
</g>
<g>
</g>
<g>
</g>
<g>
</g>
<g>
</g>
<g>
</g>
</svg>
