<?xml version="1.0" encoding="utf-8"?>
<!-- Generator: Adobe Illustrator 18.0.0, SVG Export Plug-In . SVG Version: 6.00 Build 0)  -->
<!DOCTYPE svg PUBLIC "-//W3C//DTD SVG 1.1//EN" "http://www.w3.org/Graphics/SVG/1.1/DTD/svg11.dtd">
<svg version="1.1" id="Capa_1" xmlns="http://www.w3.org/2000/svg" xmlns:xlink="http://www.w3.org/1999/xlink" x="0px" y="0px"
	 viewBox="0 0 953.8 160.9" enable-background="new 0 0 953.8 160.9" xml:space="preserve">
<rect x="2.5" y="0" fill="#FFFFFF" width="187" height="78"/>
<rect x="193.6" y="0" fill="#FFFFFF" width="187" height="78"/>
<rect x="384.7" y="0" fill="#FFFFFF" width="187" height="78"/>
<rect x="575.8" y="0" fill="#FFFFFF" width="187" height="78"/>
<rect x="766.8" y="0" fill="#FFFFFF" width="187" height="78"/>
<g>
	<g>
		<path fill="#0000F2" d="M15.6,15.3h-3.2v-1.9h8.8v1.9h-3.1V32h-2.6V15.3z"/>
		<path fill="#0000F2" d="M23,13.3h1.8l5.3,12.4V13.3h2.2V32h-1.7l-5.4-12.7V32H23V13.3z"/>
		<path fill="#0000F2" d="M37.2,15.3h-3.2v-1.9h8.8v1.9h-3.1V32h-2.6V15.3z"/>
		<path fill="#0000F2" d="M50.7,30.6c-0.8-1.1-1.1-2.6-1.1-4.7v-6.2c0-1.4,0.1-2.6,0.4-3.6c0.3-0.9,0.8-1.6,1.5-2.1
			c0.7-0.5,1.7-0.7,3-0.7c1.7,0,3,0.4,3.7,1.3c0.8,0.9,1.1,2.2,1.1,4.1v0.7H57v-0.6c0-0.9-0.1-1.6-0.2-2.1c-0.1-0.5-0.3-0.8-0.7-1.1
			c-0.3-0.2-0.9-0.4-1.5-0.4c-0.7,0-1.3,0.2-1.6,0.5c-0.4,0.3-0.6,0.8-0.7,1.3c-0.1,0.6-0.1,1.3-0.1,2.2v6.9c0,1.4,0.2,2.5,0.5,3.1
			c0.3,0.6,1,0.9,2,0.9c1,0,1.6-0.3,2-1c0.4-0.7,0.5-1.8,0.5-3.2v-1.3h-2.4v-1.8h4.7V32h-1.6l-0.3-2.1c-0.6,1.6-1.7,2.4-3.3,2.4
			C52.7,32.2,51.5,31.6,50.7,30.6z"/>
		<path fill="#0000F2" d="M63.1,30.6c-0.8-1-1.2-2.5-1.2-4.5V19c0-1.9,0.4-3.4,1.2-4.4c0.8-1,2.1-1.5,3.9-1.5c1.8,0,3.1,0.5,3.9,1.5
			c0.8,1,1.2,2.5,1.2,4.4v7.1c0,1.9-0.4,3.4-1.2,4.5c-0.8,1-2.1,1.6-3.9,1.6C65.2,32.2,63.9,31.6,63.1,30.6z M69,29.3
			c0.3-0.6,0.5-1.4,0.5-2.6v-8.2c0-1.1-0.2-2-0.5-2.5c-0.3-0.5-1-0.8-2-0.8c-1,0-1.6,0.3-2,0.8c-0.3,0.5-0.5,1.4-0.5,2.5v8.2
			c0,1.2,0.2,2,0.5,2.6s1,0.9,2,0.9C68,30.1,68.6,29.8,69,29.3z"/>
		<path fill="#0000F2" d="M74.6,13.3h2.6v16.8H82V32h-7.4V13.3z"/>
	</g>
</g>
<g>
	<g>
		<path fill="#0000F2" d="M202.2,13.3h7.2v1.9h-4.6v6.2h3.6v1.8h-3.6V32h-2.6V13.3z"/>
		<path fill="#0000F2" d="M213,31.4c-0.7-0.5-1.2-1.3-1.5-2.2c-0.3-0.9-0.4-2.1-0.4-3.5V13.3h2.5v12.5c0,1.4,0.2,2.5,0.5,3.2
			c0.3,0.7,1,1.1,2,1.1s1.7-0.4,2-1.1c0.3-0.7,0.5-1.8,0.5-3.2V13.3h2.5v12.4c0,1.4-0.1,2.6-0.4,3.5c-0.3,0.9-0.8,1.7-1.5,2.2
			s-1.7,0.8-3,0.8S213.7,31.9,213,31.4z M216.7,7.7h2.5l-2.6,4.6h-1.2L216.7,7.7z"/>
		<path fill="#0000F2" d="M225.7,15.3h-3.2v-1.9h8.8v1.9h-3.1V32h-2.6V15.3z"/>
		<path fill="#0000F2" d="M233.2,13.3h4.3c1.7,0,2.9,0.4,3.7,1.1c0.8,0.8,1.2,1.9,1.2,3.5c0,2.4-0.9,3.7-2.7,3.9
			c1.1,0.3,1.9,0.8,2.4,1.6c0.5,0.8,0.8,1.8,0.8,3.2c0,1.7-0.4,3-1.2,3.9c-0.8,0.9-2,1.4-3.6,1.4h-5V13.3z M237.3,21.1
			c1.1,0,1.8-0.2,2.2-0.7c0.4-0.5,0.6-1.3,0.6-2.4c0-0.8-0.1-1.4-0.4-1.8c-0.3-0.4-0.6-0.6-1.1-0.7c-0.5-0.1-1.3-0.2-2.3-0.2h-0.6
			v5.8H237.3z M237.5,30.1c0.8,0,1.4-0.1,1.8-0.4c0.4-0.2,0.7-0.6,0.9-1.1c0.2-0.5,0.3-1.2,0.3-2c0-1.2-0.2-2.1-0.7-2.7
			c-0.5-0.6-1.3-0.9-2.4-0.9h-1.5v7H237.5z"/>
		<path fill="#0000F2" d="M246.1,30.6c-0.8-1-1.2-2.5-1.2-4.5V19c0-1.9,0.4-3.4,1.2-4.4c0.8-1,2.1-1.5,3.9-1.5
			c1.8,0,3.1,0.5,3.9,1.5c0.8,1,1.2,2.5,1.2,4.4v7.1c0,1.9-0.4,3.4-1.2,4.5c-0.8,1-2.1,1.6-3.9,1.6
			C248.2,32.2,246.9,31.6,246.1,30.6z M252,29.3c0.3-0.6,0.5-1.4,0.5-2.6v-8.2c0-1.1-0.2-2-0.5-2.5c-0.3-0.5-1-0.8-2-0.8
			c-1,0-1.6,0.3-2,0.8c-0.3,0.5-0.5,1.4-0.5,2.5v8.2c0,1.2,0.2,2,0.5,2.6s1,0.9,2,0.9C251,30.1,251.6,29.8,252,29.3z"/>
		<path fill="#0000F2" d="M257.6,13.3h2.6v16.8h4.8V32h-7.4V13.3z"/>
		<path fill="#0000F2" d="M272,13.3h7.2v1.9h-4.6v6.2h3.7v1.8h-3.7v6.8h4.7V32H272V13.3z"/>
		<path fill="#0000F2" d="M281.4,13.3h1.8l5.3,12.4V13.3h2.2V32H289l-5.4-12.7V32h-2.2V13.3z"/>
		<path fill="#0000F2" d="M297.9,13.3h2.4l2.9,13.7l2.8-13.7h2.4L304.3,32H302L297.9,13.3z"/>
		<path fill="#0000F2" d="M310.6,13.3h2.6V32h-2.6V13.3z"/>
		<path fill="#0000F2" d="M315.2,13.3h2.4l2.9,13.7l2.8-13.7h2.4L321.6,32h-2.3L315.2,13.3z"/>
		<path fill="#0000F2" d="M328.4,30.6c-0.8-1-1.2-2.5-1.2-4.5V19c0-1.9,0.4-3.4,1.2-4.4c0.8-1,2.1-1.5,3.9-1.5
			c1.8,0,3.1,0.5,3.9,1.5c0.8,1,1.2,2.5,1.2,4.4v7.1c0,1.9-0.4,3.4-1.2,4.5c-0.8,1-2.1,1.6-3.9,1.6
			C330.5,32.2,329.2,31.6,328.4,30.6z M334.3,29.3c0.3-0.6,0.5-1.4,0.5-2.6v-8.2c0-1.1-0.2-2-0.5-2.5c-0.3-0.5-1-0.8-2-0.8
			c-1,0-1.6,0.3-2,0.8c-0.3,0.5-0.5,1.4-0.5,2.5v8.2c0,1.2,0.2,2,0.5,2.6s1,0.9,2,0.9C333.3,30.1,333.9,29.8,334.3,29.3z"/>
		<path fill="#0000F2" d="M203.9,62.4c-0.7-1.1-1.1-2.4-1.2-4s-0.2-3.6-0.2-6c0-2.5,0.1-4.5,0.2-6c0.2-1.6,0.6-2.9,1.2-4
			c0.7-1.1,1.7-1.6,3-1.6v1.7c-0.6,0-1.1,0.5-1.4,1.3s-0.5,1.9-0.6,3.2c-0.1,1.3-0.1,2.9-0.1,4.9v1.6c0,1.9,0,3.4,0.1,4.6
			s0.3,2.2,0.6,3.1c0.3,0.8,0.8,1.2,1.4,1.2V64C205.6,64,204.6,63.5,203.9,62.4z"/>
		<path fill="#0000F2" d="M209.9,58.3c-0.8-1-1.3-2.3-1.4-4l2.3-0.6c0.1,1.2,0.3,2.2,0.7,2.9c0.4,0.7,1,1.1,1.9,1.1
			c0.7,0,1.2-0.2,1.5-0.6c0.3-0.4,0.5-0.9,0.5-1.6c0-0.8-0.2-1.4-0.5-1.9c-0.3-0.5-0.8-1.1-1.5-1.7l-3.1-2.8
			c-0.6-0.6-1.1-1.1-1.4-1.8c-0.3-0.6-0.4-1.4-0.4-2.3c0-1.4,0.4-2.4,1.2-3.2c0.8-0.8,1.8-1.1,3.2-1.1c1.5,0,2.6,0.4,3.3,1.2
			c0.8,0.8,1.2,2,1.4,3.6l-2.2,0.6c-0.1-1.1-0.3-1.9-0.6-2.5c-0.3-0.6-1-0.9-1.9-0.9c-0.7,0-1.2,0.2-1.5,0.5
			c-0.4,0.3-0.5,0.9-0.5,1.5c0,0.6,0.1,1,0.3,1.4c0.2,0.4,0.5,0.8,0.9,1.1l3.2,2.8c0.8,0.7,1.5,1.5,1.9,2.3c0.5,0.8,0.7,1.8,0.7,2.9
			c0,1.4-0.4,2.4-1.2,3.2c-0.8,0.8-1.9,1.2-3.2,1.2C211.9,59.8,210.7,59.3,209.9,58.3z"/>
		<path fill="#0000F2" d="M221.7,59c-0.7-0.5-1.2-1.2-1.5-2.2c-0.3-0.9-0.4-2.1-0.4-3.5V40.9h2.5v12.5c0,1.4,0.2,2.5,0.5,3.2
			c0.3,0.7,1,1.1,2,1.1s1.7-0.4,2-1.1c0.3-0.7,0.5-1.8,0.5-3.2V40.9h2.5v12.4c0,1.4-0.1,2.6-0.4,3.5s-0.8,1.7-1.5,2.2
			c-0.7,0.5-1.7,0.8-3,0.8S222.4,59.5,221.7,59z"/>
		<path fill="#0000F2" d="M232.4,40.9h4.6c1.6,0,2.8,0.4,3.5,1.3c0.7,0.9,1.1,2.2,1.1,3.8c0,1.5-0.4,2.7-1.2,3.5
			c-0.8,0.8-1.9,1.3-3.4,1.3h-2v8.7h-2.6V40.9z M236.2,49c0.8,0,1.4-0.1,1.8-0.3c0.4-0.2,0.7-0.5,0.9-0.9s0.3-1,0.3-1.8
			c0-1-0.1-1.6-0.2-2.1c-0.1-0.4-0.4-0.8-0.8-0.9c-0.4-0.2-1-0.3-1.9-0.3H235V49H236.2z"/>
		<path fill="#0000F2" d="M243.5,40.9h7.2v1.9h-4.6V49h3.7v1.8h-3.7v6.8h4.7v1.9h-7.3V40.9z"/>
		<path fill="#0000F2" d="M252.8,40.9h3.7c1.9,0,3.3,0.4,4.2,1.2c0.9,0.8,1.3,2,1.3,3.8c0,2.4-0.8,3.8-2.3,4.3l2.6,9.3h-2.5
			l-2.4-8.7h-2v8.7h-2.6V40.9z M256.4,48.9c1.1,0,1.9-0.2,2.4-0.7c0.5-0.4,0.7-1.3,0.7-2.4c0-0.8-0.1-1.4-0.3-1.8
			c-0.2-0.4-0.5-0.8-0.9-1c-0.4-0.2-1-0.3-1.8-0.3h-1.2v6.2H256.4z"/>
		<path fill="#0000F2" d="M264.8,40.9h2.6v16.8h4.8v1.9h-7.4V40.9z"/>
		<path fill="#0000F2" d="M274,40.9h2.6v18.6H274V40.9z"/>
		<path fill="#0000F2" d="M280.4,58.2c-0.8-1.1-1.1-2.6-1.1-4.8v-6.2c0-1.4,0.1-2.6,0.4-3.6c0.3-0.9,0.8-1.6,1.5-2.1
			c0.7-0.5,1.7-0.7,3-0.7c1.7,0,3,0.4,3.7,1.3c0.8,0.9,1.1,2.2,1.1,4.1v0.7h-2.4v-0.6c0-0.9-0.1-1.6-0.2-2.1
			c-0.1-0.5-0.3-0.8-0.7-1.1c-0.3-0.2-0.9-0.4-1.5-0.4c-0.7,0-1.3,0.2-1.6,0.5c-0.4,0.3-0.6,0.8-0.7,1.3c-0.1,0.6-0.1,1.3-0.1,2.2
			v6.9c0,1.4,0.2,2.4,0.5,3.1c0.3,0.6,1,0.9,2,0.9c1,0,1.6-0.3,2-1c0.4-0.7,0.5-1.8,0.5-3.2v-1.3h-2.4v-1.8h4.7v9.2h-1.6l-0.3-2.1
			c-0.6,1.6-1.7,2.4-3.3,2.4C282.4,59.8,281.1,59.2,280.4,58.2z"/>
		<path fill="#0000F2" d="M294.9,40.9h2.5l4,18.6h-2.5l-0.9-4.7h-3.8l-0.9,4.7h-2.4L294.9,40.9z M297.7,53l-1.6-8.4l-1.5,8.4H297.7z
			"/>
		<path fill="#0000F2" d="M302.4,62.4c0.6,0,1.1-0.5,1.4-1.3c0.3-0.9,0.5-1.9,0.6-3.2c0.1-1.3,0.1-2.9,0.1-4.9v-1.6
			c0-1.9,0-3.4-0.1-4.6c-0.1-1.2-0.3-2.2-0.6-3.1c-0.3-0.8-0.8-1.2-1.4-1.2v-1.6c1.4,0,2.4,0.5,3,1.6s1.1,2.4,1.2,4
			c0.2,1.6,0.2,3.6,0.2,6c0,2.5-0.1,4.5-0.2,6c-0.2,1.6-0.6,2.9-1.2,4s-1.7,1.6-3,1.6V62.4z"/>
	</g>
</g>
<g>
	<g>
		<path fill="#0000F2" d="M395.2,13.3h2.6v8.1h4.8v-8.1h2.6V32h-2.6v-8.7h-4.8V32h-2.6V13.3z"/>
		<path fill="#0000F2" d="M411.1,13.3h2.5l4,18.6h-2.5l-0.9-4.7h-3.8l-0.9,4.7h-2.4L411.1,13.3z M413.9,25.4l-1.6-8.4l-1.5,8.4
			H413.9z"/>
		<path fill="#0000F2" d="M419.4,13.3h2.6v16.8h4.8V32h-7.4V13.3z"/>
		<path fill="#0000F2" d="M429.2,30.5c-0.8-1.1-1.1-2.6-1.1-4.5v-6.6c0-2,0.4-3.6,1.1-4.6c0.7-1.1,2-1.6,3.9-1.6
			c1.7,0,2.9,0.5,3.6,1.4c0.7,0.9,1.1,2.2,1.1,4V20h-2.5v-1.3c0-0.9,0-1.5-0.1-2c-0.1-0.5-0.3-0.8-0.6-1.1c-0.3-0.3-0.8-0.4-1.5-0.4
			c-0.7,0-1.2,0.1-1.6,0.4c-0.3,0.3-0.6,0.7-0.7,1.2c-0.1,0.5-0.2,1.2-0.2,2.1v7.4c0,1,0.1,1.7,0.2,2.2c0.2,0.5,0.4,0.9,0.7,1.2
			c0.3,0.2,0.8,0.3,1.4,0.3c0.7,0,1.1-0.1,1.5-0.4s0.5-0.7,0.6-1.2s0.1-1.2,0.1-2.1V25h2.5v1.4c0,1.9-0.3,3.3-1,4.3
			c-0.7,1-1.9,1.5-3.6,1.5C431.2,32.2,430,31.6,429.2,30.5z"/>
		<path fill="#0000F2" d="M441.1,30.6c-0.8-1-1.2-2.5-1.2-4.5V19c0-1.9,0.4-3.4,1.2-4.4c0.8-1,2.1-1.5,3.9-1.5s3.1,0.5,3.9,1.5
			c0.8,1,1.2,2.5,1.2,4.4v7.1c0,1.9-0.4,3.4-1.2,4.5c-0.8,1-2.1,1.6-3.9,1.6C443.2,32.2,441.9,31.6,441.1,30.6z M447,29.3
			c0.3-0.6,0.5-1.4,0.5-2.6v-8.2c0-1.1-0.2-2-0.5-2.5c-0.3-0.5-1-0.8-2-0.8c-1,0-1.6,0.3-2,0.8c-0.3,0.5-0.5,1.4-0.5,2.5v8.2
			c0,1.2,0.2,2,0.5,2.6c0.3,0.6,1,0.9,2,0.9C446,30.1,446.6,29.8,447,29.3z"/>
		<path fill="#0000F2" d="M452.7,13.3h1.8l5.3,12.4V13.3h2.2V32h-1.7l-5.4-12.7V32h-2.2V13.3z"/>
		<path fill="#0000F2" d="M464.8,13.3h7.2v1.9h-4.6v6.2h3.7v1.8h-3.7v6.8h4.7V32h-7.3V13.3z"/>
		<path fill="#0000F2" d="M475,30.7c-0.8-1-1.3-2.3-1.4-4l2.3-0.6c0.1,1.2,0.3,2.2,0.7,2.9c0.4,0.7,1,1.1,1.9,1.1
			c0.7,0,1.2-0.2,1.5-0.6c0.3-0.4,0.5-0.9,0.5-1.6c0-0.8-0.2-1.4-0.5-1.9c-0.3-0.5-0.8-1.1-1.5-1.7l-3.1-2.8
			c-0.6-0.6-1.1-1.1-1.4-1.8c-0.3-0.6-0.4-1.4-0.4-2.3c0-1.4,0.4-2.4,1.2-3.2c0.8-0.8,1.8-1.1,3.2-1.1c1.5,0,2.6,0.4,3.3,1.2
			s1.2,2,1.4,3.6l-2.2,0.6c-0.1-1.1-0.3-1.9-0.6-2.5c-0.3-0.6-1-0.9-1.9-0.9c-0.7,0-1.2,0.2-1.5,0.5c-0.4,0.3-0.5,0.9-0.5,1.5
			c0,0.6,0.1,1,0.3,1.4c0.2,0.4,0.5,0.8,0.9,1.1l3.2,2.8c0.8,0.7,1.5,1.5,1.9,2.3c0.5,0.8,0.7,1.8,0.7,2.9c0,1.4-0.4,2.4-1.2,3.2
			c-0.8,0.8-1.9,1.2-3.2,1.2C477,32.2,475.8,31.7,475,30.7z"/>
		<path fill="#0000F2" d="M398.1,53l-4-12.1h2.4l2.9,9l2.8-9h2.4l-4,12.1v6.6h-2.5V53z"/>
		<path fill="#0000F2" d="M411.5,40.9h4.6c1.6,0,2.8,0.4,3.5,1.3c0.7,0.9,1.1,2.2,1.1,3.8c0,1.5-0.4,2.7-1.2,3.5
			c-0.8,0.8-1.9,1.3-3.4,1.3h-2v8.7h-2.6V40.9z M415.3,49c0.8,0,1.4-0.1,1.8-0.3c0.4-0.2,0.7-0.5,0.9-0.9c0.2-0.4,0.3-1,0.3-1.8
			c0-1-0.1-1.6-0.2-2.1c-0.1-0.4-0.4-0.8-0.8-0.9c-0.4-0.2-1-0.3-1.9-0.3h-1.2V49H415.3z"/>
		<path fill="#0000F2" d="M424.6,40.9h2.5l4,18.6h-2.5l-0.9-4.7H424l-0.9,4.7h-2.4L424.6,40.9z M427.5,53l-1.6-8.4l-1.5,8.4H427.5z"
			/>
		<path fill="#0000F2" d="M433,40.9h2.6v16.8h4.8v1.9H433V40.9z"/>
		<path fill="#0000F2" d="M442.9,58.2c-0.8-1-1.2-2.5-1.2-4.5v-7.1c0-1.9,0.4-3.4,1.2-4.4c0.8-1,2.1-1.5,3.9-1.5s3.1,0.5,3.9,1.5
			c0.8,1,1.2,2.5,1.2,4.4v7.1c0,1.9-0.4,3.4-1.2,4.5c-0.8,1-2.1,1.6-3.9,1.6C444.9,59.8,443.6,59.2,442.9,58.2z M448.7,56.9
			c0.3-0.6,0.5-1.4,0.5-2.6v-8.2c0-1.1-0.2-2-0.5-2.5s-1-0.8-2-0.8c-1,0-1.6,0.3-2,0.8c-0.3,0.5-0.5,1.4-0.5,2.5v8.2
			c0,1.2,0.2,2,0.5,2.6c0.3,0.6,1,0.9,2,0.9C447.7,57.7,448.4,57.4,448.7,56.9z"/>
		<path fill="#0000F2" d="M454.7,40.9h2.6l3.3,15.1l3.3-15.1h2.5l0.3,18.6h-2.1L464.4,46l-3.2,13.5h-1.5L456.7,46l-0.2,13.5h-2.1
			L454.7,40.9z"/>
		<path fill="#0000F2" d="M472.5,40.9h2.5l4,18.6h-2.5l-0.9-4.7h-3.8l-0.9,4.7h-2.4L472.5,40.9z M475.4,53l-1.6-8.4l-1.5,8.4H475.4z
			"/>
		<path fill="#0000F2" d="M481.7,58.3c-0.8-1-1.3-2.3-1.4-4l2.3-0.6c0.1,1.2,0.3,2.2,0.7,2.9c0.4,0.7,1,1.1,1.9,1.1
			c0.7,0,1.2-0.2,1.5-0.6s0.5-0.9,0.5-1.6c0-0.8-0.2-1.4-0.5-1.9c-0.3-0.5-0.8-1.1-1.5-1.7l-3.1-2.8c-0.6-0.6-1.1-1.1-1.4-1.8
			c-0.3-0.6-0.4-1.4-0.4-2.3c0-1.4,0.4-2.4,1.2-3.2c0.8-0.8,1.8-1.1,3.2-1.1c1.5,0,2.6,0.4,3.3,1.2s1.2,2,1.4,3.6l-2.2,0.6
			c-0.1-1.1-0.3-1.9-0.6-2.5s-1-0.9-1.9-0.9c-0.7,0-1.2,0.2-1.5,0.5c-0.4,0.3-0.5,0.9-0.5,1.5c0,0.6,0.1,1,0.3,1.4
			c0.2,0.4,0.5,0.8,0.9,1.1l3.2,2.8c0.8,0.7,1.5,1.5,1.9,2.3c0.5,0.8,0.7,1.8,0.7,2.9c0,1.4-0.4,2.4-1.2,3.2
			c-0.8,0.8-1.9,1.2-3.2,1.2C483.7,59.8,482.5,59.3,481.7,58.3z"/>
	</g>
</g>
<g>
	<g>
		<path fill="#0000F2" d="M586,28.4c-0.8-1.1-1.1-2.6-1.1-4.5v-6.6c0-2,0.4-3.6,1.1-4.6c0.7-1.1,2-1.6,3.9-1.6
			c1.7,0,2.9,0.5,3.6,1.4c0.7,0.9,1.1,2.2,1.1,4v1.5h-2.5v-1.3c0-0.9,0-1.5-0.1-2c-0.1-0.5-0.3-0.8-0.6-1.1
			c-0.3-0.3-0.8-0.4-1.5-0.4c-0.7,0-1.2,0.1-1.6,0.4c-0.3,0.3-0.6,0.7-0.7,1.2c-0.1,0.5-0.2,1.2-0.2,2.1v7.4c0,1,0.1,1.7,0.2,2.2
			c0.2,0.5,0.4,0.9,0.7,1.2c0.3,0.2,0.8,0.3,1.4,0.3c0.7,0,1.2-0.1,1.5-0.4s0.5-0.7,0.6-1.2s0.1-1.2,0.1-2.1v-1.4h2.5v1.4
			c0,1.9-0.3,3.3-1,4.3c-0.7,1-1.9,1.5-3.6,1.5C588,30,586.7,29.5,586,28.4z"/>
		<path fill="#0000F2" d="M597.1,11.2h2.6v16.8h4.8v1.9h-7.4V11.2z"/>
		<path fill="#0000F2" d="M607.9,29.2c-0.7-0.5-1.2-1.3-1.5-2.2c-0.3-0.9-0.4-2.1-0.4-3.5V11.2h2.5v12.5c0,1.4,0.2,2.5,0.5,3.2
			c0.3,0.7,1,1.1,2,1.1s1.7-0.4,2-1.1c0.3-0.7,0.5-1.8,0.5-3.2V11.2h2.5v12.4c0,1.4-0.1,2.6-0.4,3.5c-0.3,0.9-0.8,1.7-1.5,2.2
			s-1.7,0.8-3,0.8S608.7,29.8,607.9,29.2z"/>
		<path fill="#0000F2" d="M618.7,11.2h4.3c1.7,0,2.9,0.4,3.8,1.1c0.8,0.8,1.2,1.9,1.2,3.5c0,2.4-0.9,3.7-2.7,3.9
			c1.1,0.3,1.9,0.8,2.4,1.6c0.5,0.8,0.8,1.8,0.8,3.2c0,1.7-0.4,3-1.2,3.9s-2,1.4-3.6,1.4h-5V11.2z M622.8,19c1.1,0,1.8-0.2,2.2-0.7
			c0.4-0.5,0.6-1.3,0.6-2.4c0-0.8-0.1-1.4-0.4-1.8c-0.3-0.4-0.6-0.6-1.1-0.7c-0.5-0.1-1.3-0.2-2.3-0.2h-0.6V19H622.8z M623,27.9
			c0.8,0,1.4-0.1,1.8-0.4s0.7-0.6,0.9-1.1c0.2-0.5,0.3-1.2,0.3-2c0-1.2-0.2-2.1-0.7-2.7c-0.5-0.6-1.3-0.9-2.4-0.9h-1.5v7H623z"/>
		<path fill="#0000F2" d="M588.2,38.8h2.5l4,18.6h-2.5l-0.9-4.7h-3.8l-0.9,4.7h-2.4L588.2,38.8z M591,50.9l-1.6-8.4l-1.5,8.4H591z"
			/>
		<path fill="#0000F2" d="M597.8,40.7h-3.2v-1.9h8.8v1.9h-3.1v16.7h-2.6V40.7z"/>
		<path fill="#0000F2" d="M605.3,38.8h2.6v16.8h4.8v1.9h-7.4V38.8z"/>
		<path fill="#0000F2" d="M614.4,38.8h7.2v1.9H617v6.2h3.7v1.8H617v6.8h4.7v1.9h-7.3V38.8z M618.8,33.1h2.5l-2.6,4.6h-1.2
			L618.8,33.1z"/>
		<path fill="#0000F2" d="M625.8,40.7h-3.2v-1.9h8.8v1.9h-3.1v16.7h-2.6V40.7z"/>
		<path fill="#0000F2" d="M633.4,38.8h2.6v18.6h-2.6V38.8z"/>
		<path fill="#0000F2" d="M639.8,56c-0.8-1.1-1.1-2.6-1.1-4.5v-6.6c0-2,0.4-3.6,1.1-4.6c0.7-1.1,2-1.6,3.9-1.6
			c1.7,0,2.9,0.5,3.6,1.4c0.7,0.9,1.1,2.2,1.1,4v1.5h-2.5v-1.3c0-0.9,0-1.5-0.1-2s-0.3-0.8-0.6-1.1c-0.3-0.3-0.8-0.4-1.5-0.4
			c-0.7,0-1.2,0.2-1.6,0.4c-0.3,0.3-0.6,0.7-0.7,1.2c-0.1,0.5-0.2,1.2-0.2,2.1v7.4c0,1,0.1,1.7,0.2,2.2c0.2,0.5,0.4,0.9,0.7,1.1
			c0.3,0.2,0.8,0.3,1.4,0.3c0.7,0,1.2-0.1,1.5-0.4c0.3-0.3,0.5-0.7,0.6-1.2c0.1-0.5,0.1-1.2,0.1-2.1v-1.4h2.5v1.4
			c0,1.9-0.3,3.3-1,4.3c-0.7,1-1.9,1.5-3.6,1.5C641.8,57.6,640.5,57.1,639.8,56z"/>
		<path fill="#0000F2" d="M651.7,56.1c-0.8-1-1.2-2.5-1.2-4.5v-7.1c0-1.9,0.4-3.4,1.2-4.4c0.8-1,2.1-1.5,3.9-1.5
			c1.8,0,3.1,0.5,3.9,1.5c0.8,1,1.2,2.5,1.2,4.4v7.1c0,1.9-0.4,3.4-1.2,4.5c-0.8,1-2.1,1.6-3.9,1.6
			C653.8,57.6,652.5,57.1,651.7,56.1z M657.5,54.7c0.3-0.6,0.5-1.4,0.5-2.6V44c0-1.1-0.2-2-0.5-2.5c-0.3-0.5-1-0.8-2-0.8
			c-1,0-1.6,0.3-2,0.8s-0.5,1.4-0.5,2.5v8.2c0,1.2,0.2,2,0.5,2.6c0.3,0.6,1,0.9,2,0.9C656.6,55.6,657.2,55.3,657.5,54.7z"/>
		<path fill="#0000F2" d="M670.5,40.7h-3.2v-1.9h8.8v1.9h-3.1v16.7h-2.6V40.7z"/>
		<path fill="#0000F2" d="M678,38.8h1.8l5.3,12.4V38.8h2.2v18.6h-1.7l-5.4-12.7v12.7H678V38.8z"/>
		<path fill="#0000F2" d="M692.2,40.7H689v-1.9h8.8v1.9h-3.1v16.7h-2.6V40.7z"/>
	</g>
</g>
<g>
	<g>
		<path fill="#0000F2" d="M777.3,13.1h-3.2v-1.9h8.8v1.9h-3.1v16.7h-2.6V13.1z"/>
		<path fill="#0000F2" d="M784.7,11.2h1.8l5.3,12.4V11.2h2.2v18.6h-1.7l-5.4-12.7v12.7h-2.2V11.2z"/>
		<path fill="#0000F2" d="M798.9,13.1h-3.2v-1.9h8.8v1.9h-3.1v16.7h-2.6V13.1z"/>
		<path fill="#0000F2" d="M811.6,11.2h4c2,0,3.4,0.5,4.3,1.4s1.3,2.4,1.3,4.3v6.9c0,2.1-0.4,3.6-1.2,4.6c-0.8,1-2.2,1.5-4.1,1.5
			h-4.3V11.2z M815.7,27.9c0.9,0,1.6-0.2,2-0.5c0.4-0.4,0.7-0.8,0.8-1.4s0.1-1.5,0.1-2.7v-6c0-1.1-0.1-1.9-0.2-2.4
			c-0.1-0.6-0.4-1-0.8-1.2c-0.4-0.3-1.1-0.4-1.9-0.4h-1.4v14.8H815.7z"/>
		<path fill="#0000F2" d="M826.7,11.2h2.5l4,18.6h-2.5l-0.9-4.7h-3.8l-0.9,4.7h-2.4L826.7,11.2z M829.5,23.3l-1.6-8.4l-1.5,8.4
			H829.5z"/>
		<path fill="#0000F2" d="M836.4,13.1h-3.2v-1.9h8.8v1.9H839v16.7h-2.6V13.1z"/>
		<path fill="#0000F2" d="M846.7,11.2h2.5l4,18.6h-2.5l-0.9-4.7h-3.8l-0.9,4.7h-2.4L846.7,11.2z M849.5,23.3l-1.6-8.4l-1.5,8.4
			H849.5z"/>
		<path fill="#0000F2" d="M776,56.2c-0.8-1-1.3-2.3-1.4-4l2.3-0.6c0.1,1.2,0.3,2.2,0.7,2.9c0.4,0.7,1,1.1,1.9,1.1
			c0.7,0,1.2-0.2,1.5-0.6c0.3-0.4,0.5-0.9,0.5-1.6c0-0.8-0.2-1.4-0.5-1.9s-0.8-1.1-1.5-1.7l-3.1-2.8c-0.6-0.6-1.1-1.1-1.4-1.8
			c-0.3-0.6-0.4-1.4-0.4-2.3c0-1.4,0.4-2.4,1.2-3.2c0.8-0.8,1.8-1.1,3.2-1.1c1.5,0,2.6,0.4,3.3,1.2c0.8,0.8,1.2,2,1.4,3.6l-2.2,0.6
			c-0.1-1.1-0.3-1.9-0.6-2.5c-0.3-0.6-1-0.9-1.9-0.9c-0.7,0-1.2,0.2-1.5,0.5c-0.4,0.3-0.5,0.9-0.5,1.5c0,0.6,0.1,1,0.3,1.4
			c0.2,0.4,0.5,0.8,0.9,1.1l3.2,2.8c0.8,0.7,1.5,1.5,1.9,2.3c0.5,0.8,0.7,1.8,0.7,2.9c0,1.4-0.4,2.4-1.2,3.2
			c-0.8,0.8-1.9,1.2-3.2,1.2C778,57.6,776.8,57.1,776,56.2z"/>
		<path fill="#0000F2" d="M786.1,38.8h4.6c1.6,0,2.8,0.4,3.5,1.3c0.7,0.9,1.1,2.2,1.1,3.8c0,1.5-0.4,2.7-1.2,3.5
			c-0.8,0.8-1.9,1.3-3.4,1.3h-2v8.7h-2.6V38.8z M789.9,46.9c0.8,0,1.4-0.1,1.8-0.3c0.4-0.2,0.7-0.5,0.9-0.9c0.2-0.4,0.3-1,0.3-1.8
			c0-1-0.1-1.6-0.2-2.1c-0.1-0.4-0.4-0.8-0.8-0.9c-0.4-0.2-1-0.3-1.9-0.3h-1.2v6.2H789.9z"/>
		<path fill="#0000F2" d="M798,56.1c-0.8-1-1.2-2.5-1.2-4.5v-7.1c0-1.9,0.4-3.4,1.2-4.4s2.1-1.5,3.9-1.5c1.8,0,3.1,0.5,3.9,1.5
			c0.8,1,1.2,2.5,1.2,4.4v7.1c0,1.9-0.4,3.4-1.2,4.5c-0.8,1-2.1,1.6-3.9,1.6C800.1,57.6,798.8,57.1,798,56.1z M803.8,54.7
			c0.3-0.6,0.5-1.4,0.5-2.6V44c0-1.1-0.2-2-0.5-2.5c-0.3-0.5-1-0.8-2-0.8c-1,0-1.6,0.3-2,0.8c-0.3,0.5-0.5,1.4-0.5,2.5v8.2
			c0,1.2,0.2,2,0.5,2.6c0.3,0.6,1,0.9,2,0.9C802.9,55.6,803.5,55.3,803.8,54.7z"/>
		<path fill="#0000F2" d="M809.5,38.8h3.7c1.9,0,3.3,0.4,4.2,1.2c0.9,0.8,1.3,2,1.3,3.8c0,2.4-0.8,3.8-2.3,4.3l2.6,9.3h-2.5
			l-2.4-8.7h-2v8.7h-2.6V38.8z M813.1,46.8c1.1,0,1.9-0.2,2.4-0.7c0.5-0.4,0.7-1.3,0.7-2.4c0-0.8-0.1-1.4-0.3-1.8
			c-0.2-0.4-0.5-0.8-0.9-1s-1-0.3-1.8-0.3h-1.2v6.2H813.1z"/>
		<path fill="#0000F2" d="M823.5,40.7h-3.2v-1.9h8.8v1.9h-3.1v16.7h-2.6V40.7z"/>
		<path fill="#0000F2" d="M831.8,56.2c-0.8-1-1.3-2.3-1.4-4l2.3-0.6c0.1,1.2,0.3,2.2,0.7,2.9c0.4,0.7,1,1.1,1.9,1.1
			c0.7,0,1.2-0.2,1.5-0.6c0.3-0.4,0.5-0.9,0.5-1.6c0-0.8-0.2-1.4-0.5-1.9c-0.3-0.5-0.8-1.1-1.5-1.7l-3.1-2.8
			c-0.6-0.6-1.1-1.1-1.4-1.8s-0.4-1.4-0.4-2.3c0-1.4,0.4-2.4,1.2-3.2c0.8-0.8,1.8-1.1,3.2-1.1c1.5,0,2.6,0.4,3.3,1.2
			c0.8,0.8,1.2,2,1.4,3.6l-2.2,0.6c-0.1-1.1-0.3-1.9-0.6-2.5c-0.3-0.6-1-0.9-1.9-0.9c-0.7,0-1.2,0.2-1.5,0.5s-0.5,0.9-0.5,1.5
			c0,0.6,0.1,1,0.3,1.4c0.2,0.4,0.5,0.8,0.9,1.1l3.2,2.8c0.8,0.7,1.5,1.5,1.9,2.3c0.5,0.8,0.7,1.8,0.7,2.9c0,1.4-0.4,2.4-1.2,3.2
			c-0.8,0.8-1.9,1.2-3.2,1.2C833.8,57.6,832.6,57.1,831.8,56.2z"/>
	</g>
</g>
<rect x="2.5" y="82.9" fill="#FFFFFF" width="187" height="78"/>
<rect x="193.6" y="82.9" fill="#FFFFFF" width="187" height="78"/>
<rect x="384.7" y="82.9" fill="#FFFFFF" width="187" height="78"/>
<rect x="575.8" y="82.9" fill="#FFFFFF" width="187" height="78"/>
<rect x="766.8" y="82.9" fill="#FFFFFF" width="187" height="78"/>
<g>
	<g>
		<path fill="#0000F2" d="M13.5,96.3h4c2,0,3.4,0.5,4.3,1.4c0.8,0.9,1.3,2.4,1.3,4.3v6.9c0,2.1-0.4,3.6-1.2,4.6
			c-0.8,1-2.2,1.5-4.1,1.5h-4.3V96.3z M17.6,113c0.9,0,1.6-0.2,2-0.5c0.4-0.4,0.7-0.8,0.8-1.4c0.1-0.6,0.1-1.5,0.1-2.7v-6
			c0-1.1-0.1-1.9-0.2-2.4c-0.1-0.6-0.4-1-0.8-1.2c-0.4-0.3-1.1-0.4-1.9-0.4h-1.4V113H17.6z"/>
		<path fill="#0000F2" d="M25.7,96.3h7.2v1.9h-4.6v6.2H32v1.8h-3.7v6.8h4.7v1.9h-7.3V96.3z"/>
		<path fill="#0000F2" d="M35.8,113.6c-0.8-1-1.3-2.3-1.4-4l2.3-0.6c0.1,1.2,0.3,2.2,0.7,2.9c0.4,0.7,1,1.1,1.9,1.1
			c0.7,0,1.2-0.2,1.5-0.6c0.3-0.4,0.5-0.9,0.5-1.6c0-0.8-0.2-1.4-0.5-1.9c-0.3-0.5-0.8-1.1-1.5-1.7l-3.1-2.8
			c-0.6-0.6-1.1-1.1-1.4-1.8c-0.3-0.6-0.4-1.4-0.4-2.3c0-1.4,0.4-2.4,1.2-3.2c0.8-0.8,1.8-1.1,3.2-1.1c1.5,0,2.6,0.4,3.3,1.2
			c0.8,0.8,1.2,2,1.4,3.6l-2.2,0.6c-0.1-1.1-0.3-1.9-0.6-2.5c-0.3-0.6-1-0.9-1.9-0.9c-0.7,0-1.2,0.2-1.5,0.5
			c-0.4,0.3-0.5,0.9-0.5,1.5c0,0.6,0.1,1,0.3,1.4c0.2,0.4,0.5,0.8,0.9,1.1l3.2,2.8c0.8,0.7,1.5,1.5,1.9,2.3c0.5,0.8,0.7,1.8,0.7,2.9
			c0,1.4-0.4,2.4-1.2,3.2c-0.8,0.8-1.9,1.2-3.2,1.2C37.8,115.1,36.6,114.6,35.8,113.6z"/>
		<path fill="#0000F2" d="M45.9,96.3h4c2,0,3.4,0.5,4.3,1.4c0.8,0.9,1.3,2.4,1.3,4.3v6.9c0,2.1-0.4,3.6-1.2,4.6
			c-0.8,1-2.2,1.5-4.1,1.5h-4.3V96.3z M50,113c0.9,0,1.6-0.2,2-0.5c0.4-0.4,0.7-0.8,0.8-1.4c0.1-0.6,0.1-1.5,0.1-2.7v-6
			c0-1.1-0.1-1.9-0.2-2.4c-0.1-0.6-0.4-1-0.8-1.2c-0.4-0.3-1.1-0.4-1.9-0.4h-1.4V113H50z"/>
		<path fill="#0000F2" d="M58,96.3h7.2v1.9h-4.6v6.2h3.7v1.8h-3.7v6.8h4.7v1.9H58V96.3z"/>
		<path fill="#0000F2" d="M13.5,123.9h2.6v16.8h4.8v1.9h-7.4V123.9z"/>
		<path fill="#0000F2" d="M25.6,123.9h2.5l4,18.6h-2.5l-0.9-4.7H25l-0.9,4.7h-2.4L25.6,123.9z M28.4,135.9l-1.6-8.4l-1.5,8.4H28.4z"
			/>
		<path fill="#0000F2" d="M40.1,141.2c-0.8-1-1.3-2.3-1.4-4l2.3-0.6c0.1,1.2,0.3,2.2,0.7,2.9s1,1.1,1.9,1.1c0.7,0,1.2-0.2,1.5-0.6
			c0.3-0.4,0.5-0.9,0.5-1.6c0-0.8-0.2-1.4-0.5-1.9c-0.3-0.5-0.8-1.1-1.5-1.7l-3.1-2.8c-0.6-0.6-1.1-1.1-1.4-1.8
			c-0.3-0.6-0.4-1.4-0.4-2.3c0-1.4,0.4-2.4,1.2-3.2c0.8-0.8,1.8-1.1,3.2-1.1c1.5,0,2.6,0.4,3.3,1.2c0.8,0.8,1.2,2,1.4,3.6l-2.2,0.6
			c-0.1-1.1-0.3-1.9-0.6-2.5c-0.3-0.6-1-0.9-1.9-0.9c-0.7,0-1.2,0.2-1.5,0.5c-0.4,0.3-0.5,0.9-0.5,1.5c0,0.6,0.1,1,0.3,1.4
			c0.2,0.4,0.5,0.8,0.9,1.1l3.2,2.8c0.8,0.7,1.5,1.5,1.9,2.3c0.5,0.8,0.7,1.8,0.7,2.9c0,1.4-0.4,2.4-1.2,3.2s-1.9,1.2-3.2,1.2
			C42.1,142.7,40.9,142.2,40.1,141.2z"/>
		<path fill="#0000F2" d="M53.1,123.9h2.5l4,18.6h-2.5l-0.9-4.7h-3.8l-0.9,4.7h-2.4L53.1,123.9z M55.9,135.9l-1.6-8.4l-1.5,8.4H55.9
			z"/>
		<path fill="#0000F2" d="M61.4,123.9H64v16.8h4.8v1.9h-7.4V123.9z"/>
		<path fill="#0000F2" d="M73.5,123.9H76l4,18.6h-2.5l-0.9-4.7h-3.8l-0.9,4.7h-2.4L73.5,123.9z M76.3,135.9l-1.6-8.4l-1.5,8.4H76.3z
			"/>
	</g>
</g>
<g>
	<g>
		<path fill="#0000F2" d="M202.2,96.3h2.6V113h4.8v1.9h-7.4V96.3z"/>
		<path fill="#0000F2" d="M214.3,96.3h2.5l4,18.6h-2.5l-0.9-4.7h-3.8l-0.9,4.7h-2.4L214.3,96.3z M217.1,108.3l-1.6-8.4l-1.5,8.4
			H217.1z"/>
		<path fill="#0000F2" d="M228.7,113.4c-0.8-1.1-1.1-2.6-1.1-4.5v-6.6c0-2,0.4-3.6,1.1-4.6s2-1.6,3.9-1.6c1.7,0,2.9,0.5,3.6,1.4
			c0.7,0.9,1.1,2.2,1.1,4v1.5h-2.5v-1.3c0-0.9,0-1.5-0.1-2s-0.3-0.8-0.6-1.1c-0.3-0.3-0.8-0.4-1.5-0.4c-0.7,0-1.2,0.2-1.6,0.4
			c-0.3,0.3-0.6,0.7-0.7,1.2c-0.1,0.5-0.2,1.2-0.2,2.1v7.4c0,1,0.1,1.7,0.2,2.2c0.2,0.5,0.4,0.9,0.7,1.1c0.3,0.2,0.8,0.3,1.4,0.3
			c0.7,0,1.1-0.1,1.5-0.4c0.3-0.3,0.5-0.7,0.6-1.2c0.1-0.5,0.1-1.2,0.1-2.1V108h2.5v1.4c0,1.9-0.3,3.3-1,4.3c-0.7,1-1.9,1.5-3.6,1.5
			C230.8,115.1,229.5,114.5,228.7,113.4z"/>
		<path fill="#0000F2" d="M240.6,113.5c-0.8-1-1.2-2.5-1.2-4.5V102c0-1.9,0.4-3.4,1.2-4.4s2.1-1.5,3.9-1.5c1.8,0,3.1,0.5,3.9,1.5
			c0.8,1,1.2,2.5,1.2,4.4v7.1c0,1.9-0.4,3.4-1.2,4.5c-0.8,1-2.1,1.6-3.9,1.6C242.7,115.1,241.4,114.6,240.6,113.5z M246.5,112.2
			c0.3-0.6,0.5-1.4,0.5-2.6v-8.2c0-1.1-0.2-2-0.5-2.5c-0.3-0.5-1-0.8-2-0.8c-1,0-1.6,0.3-2,0.8s-0.5,1.4-0.5,2.5v8.2
			c0,1.2,0.2,2,0.5,2.6c0.3,0.6,1,0.9,2,0.9C245.5,113,246.1,112.8,246.5,112.2z"/>
		<path fill="#0000F2" d="M252.5,96.3h2.6l3.3,15.1l3.3-15.1h2.5l0.3,18.6h-2.1l-0.2-13.5l-3.2,13.5h-1.5l-3.1-13.5l-0.2,13.5h-2.1
			L252.5,96.3z"/>
		<path fill="#0000F2" d="M267.3,96.3h7.2v1.9h-4.6v6.2h3.7v1.8h-3.7v6.8h4.7v1.9h-7.3V96.3z"/>
		<path fill="#0000F2" d="M276.7,96.3h4c2,0,3.4,0.5,4.3,1.4c0.8,0.9,1.3,2.4,1.3,4.3v6.9c0,2.1-0.4,3.6-1.2,4.6
			c-0.8,1-2.2,1.5-4.1,1.5h-4.3V96.3z M280.8,113c0.9,0,1.6-0.2,2-0.5c0.4-0.4,0.7-0.8,0.8-1.4c0.1-0.6,0.1-1.5,0.1-2.7v-6
			c0-1.1-0.1-1.9-0.2-2.4c-0.1-0.6-0.4-1-0.8-1.2c-0.4-0.3-1.1-0.4-1.9-0.4h-1.4V113H280.8z"/>
		<path fill="#0000F2" d="M289,96.3h2.6v18.6H289V96.3z"/>
		<path fill="#0000F2" d="M297.5,96.3h2.5l4,18.6h-2.5l-0.9-4.7h-3.8l-0.9,4.7h-2.4L297.5,96.3z M300.3,108.3l-1.6-8.4l-1.5,8.4
			H300.3z"/>
		<path fill="#0000F2" d="M202.2,123.9h1.8l5.3,12.4v-12.4h2.2v18.6h-1.7l-5.4-12.7v12.7h-2.2V123.9z"/>
		<path fill="#0000F2" d="M215.2,141.1c-0.8-1-1.2-2.5-1.2-4.5v-7.1c0-1.9,0.4-3.4,1.2-4.4c0.8-1,2.1-1.5,3.9-1.5
			c1.8,0,3.1,0.5,3.9,1.5c0.8,1,1.2,2.5,1.2,4.4v7.1c0,1.9-0.4,3.4-1.2,4.5c-0.8,1-2.1,1.6-3.9,1.6
			C217.3,142.7,216,142.2,215.2,141.1z M221.1,139.8c0.3-0.6,0.5-1.4,0.5-2.6v-8.2c0-1.1-0.2-2-0.5-2.5c-0.3-0.5-1-0.8-2-0.8
			c-1,0-1.6,0.3-2,0.8c-0.3,0.5-0.5,1.4-0.5,2.5v8.2c0,1.2,0.2,2,0.5,2.6s1,0.9,2,0.9C220.1,140.6,220.7,140.4,221.1,139.8z"/>
		<path fill="#0000F2" d="M232.8,141.2c-0.8-1-1.3-2.3-1.4-4l2.3-0.6c0.1,1.2,0.3,2.2,0.7,2.9s1,1.1,1.9,1.1c0.7,0,1.2-0.2,1.5-0.6
			c0.3-0.4,0.5-0.9,0.5-1.6c0-0.8-0.2-1.4-0.5-1.9c-0.3-0.5-0.8-1.1-1.5-1.7l-3.1-2.8c-0.6-0.6-1.1-1.1-1.4-1.8
			c-0.3-0.6-0.4-1.4-0.4-2.3c0-1.4,0.4-2.4,1.2-3.2c0.8-0.8,1.8-1.1,3.2-1.1c1.5,0,2.6,0.4,3.3,1.2c0.8,0.8,1.2,2,1.4,3.6l-2.2,0.6
			c-0.1-1.1-0.3-1.9-0.6-2.5c-0.3-0.6-1-0.9-1.9-0.9c-0.7,0-1.2,0.2-1.5,0.5c-0.4,0.3-0.5,0.9-0.5,1.5c0,0.6,0.1,1,0.3,1.4
			c0.2,0.4,0.5,0.8,0.9,1.1l3.2,2.8c0.8,0.7,1.5,1.5,1.9,2.3c0.5,0.8,0.7,1.8,0.7,2.9c0,1.4-0.4,2.4-1.2,3.2s-1.9,1.2-3.2,1.2
			C234.8,142.7,233.7,142.2,232.8,141.2z"/>
		<path fill="#0000F2" d="M242.9,123.9h7.2v1.9h-4.6v6.2h3.7v1.8h-3.7v6.8h4.7v1.9h-7.3V123.9z"/>
		<path fill="#0000F2" d="M257.8,123.9h2.6l3.3,15.1l3.3-15.1h2.5l0.3,18.6h-2.1l-0.2-13.5l-3.2,13.5h-1.5l-3.1-13.5l-0.2,13.5h-2.1
			L257.8,123.9z"/>
		<path fill="#0000F2" d="M275.6,123.9h2.5l4,18.6h-2.5l-0.9-4.7H275l-0.9,4.7h-2.4L275.6,123.9z M278.5,135.9l-1.6-8.4l-1.5,8.4
			H278.5z"/>
		<path fill="#0000F2" d="M284,123.9h1.8l5.3,12.4v-12.4h2.2v18.6h-1.7l-5.4-12.7v12.7H284V123.9z"/>
		<path fill="#0000F2" d="M296.9,141c-0.8-1.1-1.1-2.6-1.1-4.5v-6.6c0-2,0.4-3.6,1.1-4.6c0.7-1.1,2-1.6,3.9-1.6
			c1.7,0,2.9,0.5,3.6,1.4c0.7,0.9,1.1,2.2,1.1,4v1.5h-2.5v-1.3c0-0.9,0-1.5-0.1-2c-0.1-0.5-0.3-0.8-0.6-1.1
			c-0.3-0.3-0.8-0.4-1.5-0.4c-0.7,0-1.2,0.1-1.6,0.4c-0.3,0.3-0.6,0.7-0.7,1.2c-0.1,0.5-0.2,1.2-0.2,2.1v7.4c0,1,0.1,1.7,0.2,2.2
			c0.2,0.5,0.4,0.9,0.7,1.1c0.3,0.2,0.8,0.3,1.4,0.3c0.7,0,1.1-0.1,1.5-0.4c0.3-0.3,0.5-0.7,0.6-1.2c0.1-0.5,0.1-1.2,0.1-2.1v-1.4
			h2.5v1.4c0,1.9-0.3,3.3-1,4.3c-0.7,1-1.9,1.5-3.6,1.5C299,142.7,297.7,142.1,296.9,141z"/>
		<path fill="#0000F2" d="M308,123.9h2.6v8h4.8v-8h2.6v18.6h-2.6v-8.7h-4.8v8.7H308V123.9z"/>
		<path fill="#0000F2" d="M323.9,123.9h2.5l4,18.6h-2.5l-0.9-4.7h-3.8l-0.9,4.7h-2.4L323.9,123.9z M326.7,135.9l-1.6-8.4l-1.5,8.4
			H326.7z"/>
	</g>
</g>
<g>
	<g>
		<path fill="#0000F2" d="M397.3,98.2h-3.2v-1.9h8.8v1.9h-3.1v16.7h-2.6V98.2z"/>
		<path fill="#0000F2" d="M404.7,96.3h1.8l5.3,12.4V96.3h2.2v18.6h-1.7l-5.4-12.7v12.7h-2.2V96.3z"/>
		<path fill="#0000F2" d="M418.9,98.2h-3.2v-1.9h8.8v1.9h-3.1v16.7h-2.6V98.2z"/>
		<path fill="#0000F2" d="M431.6,96.3h4.3c1.7,0,2.9,0.4,3.7,1.1c0.8,0.8,1.2,1.9,1.2,3.5c0,2.4-0.9,3.7-2.7,3.9
			c1.1,0.3,1.9,0.8,2.4,1.6s0.8,1.8,0.8,3.2c0,1.7-0.4,3-1.2,3.9c-0.8,0.9-2,1.4-3.6,1.4h-5V96.3z M435.8,104c1.1,0,1.8-0.2,2.2-0.7
			s0.6-1.3,0.6-2.4c0-0.8-0.1-1.4-0.4-1.8c-0.3-0.4-0.6-0.6-1.1-0.7c-0.5-0.1-1.3-0.2-2.3-0.2h-0.6v5.8H435.8z M436,113
			c0.8,0,1.4-0.1,1.8-0.4c0.4-0.2,0.7-0.6,0.9-1.1c0.2-0.5,0.3-1.2,0.3-2c0-1.2-0.2-2.1-0.7-2.7c-0.5-0.6-1.3-0.9-2.4-0.9h-1.5v7
			H436z"/>
		<path fill="#0000F2" d="M444.5,113.5c-0.8-1-1.2-2.5-1.2-4.5V102c0-1.9,0.4-3.4,1.2-4.4c0.8-1,2.1-1.5,3.9-1.5
			c1.8,0,3.1,0.5,3.9,1.5c0.8,1,1.2,2.5,1.2,4.4v7.1c0,1.9-0.4,3.4-1.2,4.5c-0.8,1-2.1,1.6-3.9,1.6
			C446.6,115.1,445.3,114.6,444.5,113.5z M450.4,112.2c0.3-0.6,0.5-1.4,0.5-2.6v-8.2c0-1.1-0.2-2-0.5-2.5c-0.3-0.5-1-0.8-2-0.8
			c-1,0-1.6,0.3-2,0.8c-0.3,0.5-0.5,1.4-0.5,2.5v8.2c0,1.2,0.2,2,0.5,2.6c0.3,0.6,1,0.9,2,0.9C449.4,113,450,112.8,450.4,112.2z"/>
		<path fill="#0000F2" d="M458.8,105.1l-3.8-8.9h2.4l2.8,6.6l2.6-6.6h2.4l-3.9,9.1l4.1,9.5H463l-3-7l-2.6,7h-2.4L458.8,105.1z"/>
	</g>
</g>
<g>
	<g>
		<path fill="#0000F2" d="M585.5,94.1h2.6l3.3,15.1l3.3-15.1h2.5l0.3,18.6h-2.1l-0.2-13.5l-3.2,13.5h-1.5l-3.1-13.5l-0.2,13.5h-2.1
			L585.5,94.1z"/>
		<path fill="#0000F2" d="M602.1,112.2c-0.7-0.5-1.2-1.2-1.5-2.2s-0.4-2.1-0.4-3.5V94.1h2.5v12.5c0,1.4,0.2,2.5,0.5,3.2
			c0.3,0.7,1,1.1,2,1.1s1.7-0.4,2-1.1c0.3-0.7,0.5-1.8,0.5-3.2V94.1h2.5v12.4c0,1.4-0.1,2.6-0.4,3.5s-0.8,1.7-1.5,2.2
			c-0.7,0.5-1.7,0.8-3,0.8S602.9,112.7,602.1,112.2z"/>
		<path fill="#0000F2" d="M612.9,94.1h1.8l5.3,12.4V94.1h2.2v18.6h-1.7l-5.4-12.7v12.7h-2.2V94.1z"/>
		<path fill="#0000F2" d="M625,94.1h4c2,0,3.4,0.5,4.3,1.4s1.3,2.4,1.3,4.3v6.9c0,2.1-0.4,3.6-1.2,4.6c-0.8,1-2.2,1.5-4.1,1.5H625
			V94.1z M629.1,110.9c0.9,0,1.6-0.2,2-0.5c0.4-0.4,0.7-0.8,0.8-1.4c0.1-0.6,0.1-1.5,0.1-2.7v-6c0-1.1-0.1-1.9-0.2-2.4
			s-0.4-1-0.8-1.2c-0.4-0.3-1.1-0.4-1.9-0.4h-1.4v14.8H629.1z"/>
		<path fill="#0000F2" d="M638,111.4c-0.8-1-1.2-2.5-1.2-4.5v-7.1c0-1.9,0.4-3.4,1.2-4.4s2.1-1.5,3.9-1.5s3.1,0.5,3.9,1.5
			c0.8,1,1.2,2.5,1.2,4.4v7.1c0,1.9-0.4,3.4-1.2,4.5c-0.8,1-2.1,1.6-3.9,1.6C640.1,112.9,638.8,112.4,638,111.4z M643.9,110.1
			c0.3-0.6,0.5-1.4,0.5-2.6v-8.2c0-1.1-0.2-2-0.5-2.5s-1-0.8-2-0.8c-1,0-1.6,0.3-2,0.8c-0.3,0.5-0.5,1.4-0.5,2.5v8.2
			c0,1.2,0.2,2,0.5,2.6c0.3,0.6,1,0.9,2,0.9C642.9,110.9,643.5,110.6,643.9,110.1z"/>
		<path fill="#0000F2" d="M585.2,121.7h4.6c1.6,0,2.8,0.4,3.5,1.3c0.7,0.9,1.1,2.2,1.1,3.8c0,1.5-0.4,2.7-1.2,3.5
			c-0.8,0.8-1.9,1.3-3.4,1.3h-2v8.7h-2.6V121.7z M589,129.8c0.8,0,1.4-0.1,1.8-0.3c0.4-0.2,0.7-0.5,0.9-0.9c0.2-0.4,0.3-1,0.3-1.8
			c0-1-0.1-1.6-0.2-2.1c-0.1-0.4-0.4-0.8-0.8-0.9c-0.4-0.2-1-0.3-1.9-0.3h-1.2v6.2H589z"/>
		<path fill="#0000F2" d="M598.3,121.7h2.5l4,18.6h-2.5l-0.9-4.7h-3.8l-0.9,4.7h-2.4L598.3,121.7z M601.1,133.8l-1.6-8.4l-1.5,8.4
			H601.1z M600.3,116.1h2.5l-2.6,4.6h-1.2L600.3,116.1z"/>
		<path fill="#0000F2" d="M606.7,121.7h4c2,0,3.4,0.5,4.3,1.4c0.8,0.9,1.3,2.4,1.3,4.3v6.9c0,2.1-0.4,3.6-1.2,4.6
			c-0.8,1-2.2,1.5-4.1,1.5h-4.3V121.7z M610.8,138.5c0.9,0,1.6-0.2,2-0.5s0.7-0.8,0.8-1.4c0.1-0.6,0.1-1.5,0.1-2.7v-6
			c0-1.1-0.1-1.9-0.2-2.4c-0.1-0.6-0.4-1-0.8-1.2c-0.4-0.3-1.1-0.4-1.9-0.4h-1.4v14.8H610.8z"/>
		<path fill="#0000F2" d="M618.8,121.7h7.2v1.9h-4.6v6.2h3.7v1.8h-3.7v6.8h4.7v1.9h-7.3V121.7z"/>
		<path fill="#0000F2" d="M628.2,121.7h2.6v16.8h4.8v1.9h-7.4V121.7z"/>
	</g>
</g>
<g>
	<g>
		<path fill="#0000F2" d="M775.2,94.1h7.2V96h-4.6v6.2h3.6v1.8h-3.6v8.7h-2.6V94.1z"/>
		<path fill="#0000F2" d="M786,112.2c-0.7-0.5-1.2-1.2-1.5-2.2c-0.3-0.9-0.4-2.1-0.4-3.5V94.1h2.5v12.5c0,1.4,0.2,2.5,0.5,3.2
			c0.3,0.7,1,1.1,2,1.1c1,0,1.7-0.4,2-1.1c0.3-0.7,0.5-1.8,0.5-3.2V94.1h2.5v12.4c0,1.4-0.1,2.6-0.4,3.5c-0.3,0.9-0.8,1.7-1.5,2.2
			c-0.7,0.5-1.7,0.8-3,0.8C787.7,112.9,786.7,112.7,786,112.2z"/>
		<path fill="#0000F2" d="M798.7,96h-3.2v-1.9h8.8V96h-3.1v16.7h-2.6V96z"/>
		<path fill="#0000F2" d="M807,111.5c-0.8-1-1.3-2.3-1.4-4l2.3-0.6c0.1,1.2,0.3,2.2,0.7,2.9c0.4,0.7,1,1.1,1.9,1.1
			c0.7,0,1.2-0.2,1.5-0.6c0.3-0.4,0.5-0.9,0.5-1.6c0-0.8-0.2-1.4-0.5-1.9s-0.8-1.1-1.5-1.7l-3.1-2.8c-0.6-0.6-1.1-1.1-1.4-1.8
			c-0.3-0.6-0.4-1.4-0.4-2.3c0-1.4,0.4-2.4,1.2-3.2c0.8-0.8,1.8-1.1,3.2-1.1c1.5,0,2.6,0.4,3.3,1.2c0.8,0.8,1.2,2,1.4,3.6l-2.2,0.6
			c-0.1-1.1-0.3-1.9-0.6-2.5c-0.3-0.6-1-0.9-1.9-0.9c-0.7,0-1.2,0.2-1.5,0.5c-0.4,0.3-0.5,0.9-0.5,1.5c0,0.6,0.1,1,0.3,1.4
			c0.2,0.4,0.5,0.8,0.9,1.1l3.2,2.8c0.8,0.7,1.5,1.5,1.9,2.3c0.5,0.8,0.7,1.8,0.7,2.9c0,1.4-0.4,2.4-1.2,3.2
			c-0.8,0.8-1.9,1.2-3.2,1.2C809,112.9,807.8,112.5,807,111.5z"/>
		<path fill="#0000F2" d="M820,94.1h2.5l4,18.6H824l-0.9-4.7h-3.8l-0.9,4.7h-2.4L820,94.1z M822.8,106.2l-1.6-8.4l-1.5,8.4H822.8z"
			/>
		<path fill="#0000F2" d="M828.4,94.1h2.6v16.8h4.8v1.9h-7.4V94.1z"/>
		<path fill="#0000F2" d="M775.2,121.7h7.2v1.9h-4.6v6.2h3.7v1.8h-3.7v6.8h4.7v1.9h-7.3V121.7z"/>
		<path fill="#0000F2" d="M784.6,121.7h1.8l5.3,12.4v-12.4h2.2v18.6h-1.7l-5.4-12.7v12.7h-2.2V121.7z"/>
		<path fill="#0000F2" d="M801.1,121.7h2.4l2.9,13.7l2.8-13.7h2.4l-4.1,18.6h-2.3L801.1,121.7z"/>
		<path fill="#0000F2" d="M813.7,121.7h2.6v18.6h-2.6V121.7z"/>
		<path fill="#0000F2" d="M818.4,121.7h2.4l2.9,13.7l2.8-13.7h2.4l-4.1,18.6h-2.3L818.4,121.7z"/>
		<path fill="#0000F2" d="M831.6,139c-0.8-1-1.2-2.5-1.2-4.5v-7.1c0-1.9,0.4-3.4,1.2-4.4c0.8-1,2.1-1.5,3.9-1.5
			c1.8,0,3.1,0.5,3.9,1.5c0.8,1,1.2,2.5,1.2,4.4v7.1c0,1.9-0.4,3.4-1.2,4.5c-0.8,1-2.1,1.6-3.9,1.6C833.7,140.5,832.4,140,831.6,139
			z M837.4,137.7c0.3-0.6,0.5-1.4,0.5-2.6v-8.2c0-1.1-0.2-2-0.5-2.5c-0.3-0.5-1-0.8-2-0.8c-1,0-1.6,0.3-2,0.8
			c-0.3,0.5-0.5,1.4-0.5,2.5v8.2c0,1.2,0.2,2,0.5,2.6s1,0.9,2,0.9C836.5,138.5,837.1,138.2,837.4,137.7z"/>
	</g>
</g>
<g>
</g>
<g>
</g>
<g>
</g>
<g>
</g>
<g>
</g>
<g>
</g>
<g>
</g>
<g>
</g>
<g>
</g>
<g>
</g>
<g>
</g>
<g>
</g>
<g>
</g>
<g>
</g>
<g>
</g>
</svg>
