<?xml version="1.0" encoding="utf-8"?>
<!-- Generator: Adobe Illustrator 18.0.0, SVG Export Plug-In . SVG Version: 6.00 Build 0)  -->
<!DOCTYPE svg PUBLIC "-//W3C//DTD SVG 1.1//EN" "http://www.w3.org/Graphics/SVG/1.1/DTD/svg11.dtd">
<svg version="1.1" id="Capa_1" xmlns="http://www.w3.org/2000/svg" xmlns:xlink="http://www.w3.org/1999/xlink" x="0px" y="0px"
	 viewBox="0 0 959.9 267.5" enable-background="new 0 0 959.9 267.5" xml:space="preserve">
<rect x="0" y="0" fill="#0000F0" width="235" height="102.2"/>
<rect x="241.6" y="0" fill="#0000F0" width="235" height="102.2"/>
<rect x="483.2" y="0" fill="#0000F0" width="235" height="102.2"/>
<rect x="724.9" y="0" fill="#0000F0" width="235" height="102.2"/>
<rect x="0" y="108.4" fill="#0000F0" width="235" height="159.1"/>
<rect x="241.6" y="108.4" fill="#0000F0" width="235" height="159.1"/>
<rect x="483.2" y="108.4" fill="#0000F0" width="235" height="159.1"/>
<rect x="724.9" y="108.4" fill="#0000F0" width="235" height="159.1"/>
<g>
	<g>
		<path fill="#FFFFFF" d="M13.5,17.1c-0.2,0.1-0.6,0.3-1.3,0.6c-0.1,0-0.3,0.1-0.6,0.2s-0.5,0.2-0.6,0.3v-2.9c1.8-1,3-1.6,3.4-2.1h3
			v18.6h-3.8V17.1z"/>
		<path fill="#FFFFFF" d="M11.9,40.9h4.6c1.6,0,2.8,0.4,3.5,1.3c0.7,0.9,1.1,2.2,1.1,3.8c0,1.5-0.4,2.7-1.2,3.5s-1.9,1.3-3.4,1.3h-2
			v8.7h-2.6V40.9z M15.6,49c0.8,0,1.4-0.1,1.8-0.3c0.4-0.2,0.7-0.5,0.9-0.9c0.2-0.4,0.3-1,0.3-1.8c0-1-0.1-1.6-0.2-2.1
			S18,43.2,17.6,43c-0.4-0.2-1-0.3-1.9-0.3h-1.2V49H15.6z"/>
		<path fill="#FFFFFF" d="M22.9,40.9h2.6v16.8h4.8v1.9h-7.4V40.9z"/>
		<path fill="#FFFFFF" d="M35,40.9h2.5l4,18.6H39l-0.9-4.7h-3.8l-0.9,4.7H31L35,40.9z M37.8,53l-1.6-8.4L34.7,53H37.8z"/>
		<path fill="#FFFFFF" d="M43.3,40.9h1.8l5.3,12.4V40.9h2.2v18.6h-1.7l-5.4-12.7v12.7h-2.2V40.9z"/>
		<path fill="#FFFFFF" d="M60.8,40.9h4c2,0,3.4,0.5,4.3,1.4s1.3,2.4,1.3,4.3v6.9c0,2.1-0.4,3.6-1.2,4.6c-0.8,1-2.2,1.5-4.1,1.5h-4.3
			V40.9z M64.8,57.7c0.9,0,1.6-0.2,2-0.5c0.4-0.4,0.7-0.8,0.8-1.4c0.1-0.6,0.1-1.5,0.1-2.7v-6c0-1.1-0.1-1.9-0.2-2.4
			c-0.1-0.6-0.4-1-0.8-1.2c-0.4-0.3-1.1-0.4-1.9-0.4h-1.4v14.8H64.8z"/>
		<path fill="#FFFFFF" d="M72.9,40.9h7.2v1.9h-4.6V49h3.7v1.8h-3.7v6.8h4.7v1.9h-7.3V40.9z"/>
		<path fill="#FFFFFF" d="M12.6,85.7c-0.8-1.1-1.1-2.6-1.1-4.5v-6.6c0-2,0.4-3.6,1.1-4.6s2-1.6,3.9-1.6c1.7,0,2.9,0.5,3.6,1.4
			c0.7,0.9,1.1,2.2,1.1,4v1.5h-2.5v-1.3c0-0.9,0-1.5-0.1-2c-0.1-0.5-0.3-0.8-0.6-1.1c-0.3-0.3-0.8-0.4-1.5-0.4
			c-0.7,0-1.2,0.1-1.6,0.4c-0.3,0.3-0.6,0.7-0.7,1.2c-0.1,0.5-0.2,1.2-0.2,2.1v7.4c0,1,0.1,1.7,0.2,2.2c0.2,0.5,0.4,0.9,0.7,1.1
			c0.3,0.2,0.8,0.3,1.4,0.3c0.7,0,1.1-0.1,1.5-0.4c0.3-0.3,0.5-0.7,0.6-1.2c0.1-0.5,0.1-1.2,0.1-2.1v-1.4h2.5v1.4
			c0,1.9-0.3,3.3-1,4.3c-0.7,1-1.9,1.5-3.6,1.5C14.7,87.3,13.4,86.8,12.6,85.7z"/>
		<path fill="#FFFFFF" d="M24.5,85.8c-0.8-1-1.2-2.5-1.2-4.5v-7.1c0-1.9,0.4-3.4,1.2-4.4c0.8-1,2.1-1.5,3.9-1.5
			c1.8,0,3.1,0.5,3.9,1.5c0.8,1,1.2,2.5,1.2,4.4v7.1c0,1.9-0.4,3.4-1.2,4.5c-0.8,1-2.1,1.6-3.9,1.6C26.6,87.3,25.3,86.8,24.5,85.8z
			 M30.4,84.4c0.3-0.6,0.5-1.4,0.5-2.6v-8.2c0-1.1-0.2-2-0.5-2.5c-0.3-0.5-1-0.8-2-0.8c-1,0-1.6,0.3-2,0.8c-0.3,0.5-0.5,1.4-0.5,2.5
			v8.2c0,1.1,0.2,2,0.5,2.6c0.3,0.6,1,0.9,2,0.9C29.4,85.3,30.1,85,30.4,84.4z"/>
		<path fill="#FFFFFF" d="M36.4,68.5h2.6l3.3,15.1l3.3-15.1h2.5l0.3,18.6h-2.1l-0.2-13.5L43,87.1h-1.5l-3.1-13.5l-0.2,13.5h-2.1
			L36.4,68.5z"/>
		<path fill="#FFFFFF" d="M53,86.6c-0.7-0.5-1.2-1.2-1.5-2.2c-0.3-0.9-0.4-2.1-0.4-3.5V68.5h2.5V81c0,1.4,0.2,2.5,0.5,3.2
			c0.3,0.7,1,1.1,2,1.1c1,0,1.7-0.4,2-1.1c0.3-0.7,0.5-1.8,0.5-3.2V68.5H61v12.4c0,1.4-0.1,2.6-0.4,3.5c-0.3,0.9-0.8,1.7-1.5,2.2
			c-0.7,0.5-1.7,0.8-3,0.8S53.8,87.1,53,86.6z"/>
		<path fill="#FFFFFF" d="M63.8,68.5h1.8l5.3,12.4V68.5H73v18.6h-1.7L66,74.4v12.7h-2.2V68.5z"/>
		<path fill="#FFFFFF" d="M76,68.5h2.6v18.6H76V68.5z"/>
		<path fill="#FFFFFF" d="M82.4,85.7c-0.8-1.1-1.1-2.6-1.1-4.5v-6.6c0-2,0.4-3.6,1.1-4.6c0.7-1.1,2-1.6,3.9-1.6
			c1.7,0,2.9,0.5,3.6,1.4c0.7,0.9,1.1,2.2,1.1,4v1.5h-2.5v-1.3c0-0.9,0-1.5-0.1-2c-0.1-0.5-0.3-0.8-0.6-1.1
			c-0.3-0.3-0.8-0.4-1.5-0.4c-0.7,0-1.2,0.1-1.6,0.4c-0.3,0.3-0.6,0.7-0.7,1.2c-0.1,0.5-0.2,1.2-0.2,2.1v7.4c0,1,0.1,1.7,0.2,2.2
			c0.2,0.5,0.4,0.9,0.7,1.1c0.3,0.2,0.8,0.3,1.4,0.3c0.7,0,1.2-0.1,1.5-0.4c0.3-0.3,0.5-0.7,0.6-1.2c0.1-0.5,0.1-1.2,0.1-2.1v-1.4
			H91v1.4c0,1.9-0.3,3.3-1,4.3c-0.7,1-1.9,1.5-3.6,1.5C84.4,87.3,83.1,86.8,82.4,85.7z"/>
		<path fill="#FFFFFF" d="M96.4,68.5h2.5l4,18.6h-2.5l-0.9-4.7h-3.8l-0.9,4.7h-2.4L96.4,68.5z M99.2,80.6l-1.6-8.4l-1.5,8.4H99.2z"
			/>
		<path fill="#FFFFFF" d="M105.5,85.7c-0.8-1.1-1.1-2.6-1.1-4.5v-6.6c0-2,0.4-3.6,1.1-4.6c0.7-1.1,2-1.6,3.9-1.6
			c1.7,0,2.9,0.5,3.6,1.4c0.7,0.9,1.1,2.2,1.1,4v1.5h-2.5v-1.3c0-0.9,0-1.5-0.1-2c-0.1-0.5-0.3-0.8-0.6-1.1s-0.8-0.4-1.5-0.4
			c-0.7,0-1.2,0.1-1.6,0.4c-0.3,0.3-0.6,0.7-0.7,1.2c-0.1,0.5-0.2,1.2-0.2,2.1v7.4c0,1,0.1,1.7,0.2,2.2c0.2,0.5,0.4,0.9,0.7,1.1
			c0.3,0.2,0.8,0.3,1.4,0.3c0.7,0,1.1-0.1,1.5-0.4c0.3-0.3,0.5-0.7,0.6-1.2c0.1-0.5,0.1-1.2,0.1-2.1v-1.4h2.5v1.4
			c0,1.9-0.3,3.3-1,4.3c-0.7,1-1.9,1.5-3.6,1.5C107.5,87.3,106.2,86.8,105.5,85.7z"/>
		<path fill="#FFFFFF" d="M116.7,68.5h2.6v18.6h-2.6V68.5z"/>
		<path fill="#FFFFFF" d="M123.1,85.8c-0.8-1-1.2-2.5-1.2-4.5v-7.1c0-1.9,0.4-3.4,1.2-4.4s2.1-1.5,3.9-1.5c1.8,0,3.1,0.5,3.9,1.5
			c0.8,1,1.2,2.5,1.2,4.4v7.1c0,1.9-0.4,3.4-1.2,4.5c-0.8,1-2.1,1.6-3.9,1.6C125.2,87.3,123.9,86.8,123.1,85.8z M128.9,84.4
			c0.3-0.6,0.5-1.4,0.5-2.6v-8.2c0-1.1-0.2-2-0.5-2.5c-0.3-0.5-1-0.8-2-0.8c-1,0-1.6,0.3-2,0.8c-0.3,0.5-0.5,1.4-0.5,2.5v8.2
			c0,1.1,0.2,2,0.5,2.6s1,0.9,2,0.9C128,85.3,128.6,85,128.9,84.4z M127.7,62.9h2.5l-2.6,4.6h-1.2L127.7,62.9z"/>
		<path fill="#FFFFFF" d="M134.6,68.5h1.8l5.3,12.4V68.5h2.2v18.6h-1.7l-5.4-12.7v12.7h-2.2V68.5z"/>
	</g>
</g>
<g>
	<g>
		<path fill="#FFFFFF" d="M253,29.2l4.5-6.9l0.3-0.4c0.6-0.9,1-1.6,1.3-2.2c0.3-0.6,0.4-1.2,0.4-1.9c0-0.5-0.1-0.9-0.3-1.2
			s-0.5-0.4-0.9-0.4c-0.6,0-1,0.2-1.2,0.7c-0.2,0.5-0.3,1.1-0.3,1.9v0.9h-3.7v-1c0-1.7,0.4-3.1,1.3-4.2c0.9-1,2.2-1.6,3.9-1.6
			c1.6,0,2.9,0.4,3.8,1.3c0.9,0.9,1.3,2.1,1.3,3.6c0,0.7-0.1,1.4-0.3,2c-0.2,0.6-0.5,1.2-0.8,1.7c-0.3,0.5-0.8,1.2-1.4,2.2l-3.4,5.1
			h5.5v3H253V29.2z"/>
		<path fill="#FFFFFF" d="M253.5,40.9h7.2v1.9h-4.6V49h3.7v1.8h-3.7v6.8h4.7v1.9h-7.3V40.9z"/>
		<path fill="#FFFFFF" d="M262.8,40.9h1.8l5.3,12.4V40.9h2.2v18.6h-1.7L265,46.8v12.7h-2.2V40.9z"/>
		<path fill="#FFFFFF" d="M277,42.8h-3.2v-1.9h8.8v1.9h-3.1v16.7H277V42.8z"/>
		<path fill="#FFFFFF" d="M284.5,40.9h3.7c1.9,0,3.3,0.4,4.2,1.2c0.9,0.8,1.3,2,1.3,3.8c0,2.4-0.8,3.8-2.3,4.3l2.6,9.3h-2.5
			l-2.4-8.7h-2v8.7h-2.6V40.9z M288.1,48.9c1.1,0,1.9-0.2,2.4-0.7c0.5-0.4,0.7-1.2,0.7-2.4c0-0.8-0.1-1.4-0.3-1.8
			c-0.2-0.4-0.5-0.8-0.9-1c-0.4-0.2-1-0.3-1.8-0.3h-1.1v6.2H288.1z"/>
		<path fill="#FFFFFF" d="M296.4,40.9h7.2v1.9H299V49h3.7v1.8H299v6.8h4.7v1.9h-7.3V40.9z"/>
		<path fill="#FFFFFF" d="M305.8,40.9h1.8l5.3,12.4V40.9h2.2v18.6h-1.7L308,46.8v12.7h-2.2V40.9z"/>
		<path fill="#FFFFFF" d="M320.9,40.9h2.5l4,18.6h-2.5l-0.9-4.7h-3.8l-0.9,4.7h-2.4L320.9,40.9z M323.7,53l-1.6-8.4l-1.5,8.4H323.7z
			"/>
		<path fill="#FFFFFF" d="M329.5,40.9h2.6l3.3,15.1l3.3-15.1h2.5l0.3,18.6h-2.1L339.3,46l-3.2,13.5h-1.5L331.5,46l-0.2,13.5h-2.1
			L329.5,40.9z"/>
		<path fill="#FFFFFF" d="M344.6,40.9h2.6v18.6h-2.6V40.9z"/>
		<path fill="#FFFFFF" d="M350.1,40.9h7.2v1.9h-4.6V49h3.7v1.8h-3.7v6.8h4.7v1.9h-7.3V40.9z"/>
		<path fill="#FFFFFF" d="M359.5,40.9h1.8l5.3,12.4V40.9h2.2v18.6H367l-5.4-12.7v12.7h-2.2V40.9z"/>
		<path fill="#FFFFFF" d="M373.7,42.8h-3.2v-1.9h8.8v1.9h-3.1v16.7h-2.6V42.8z"/>
		<path fill="#FFFFFF" d="M382,58.2c-0.8-1-1.2-2.5-1.2-4.5v-7.1c0-1.9,0.4-3.4,1.2-4.4c0.8-1,2.1-1.5,3.9-1.5
			c1.8,0,3.1,0.5,3.9,1.5c0.8,1,1.2,2.5,1.2,4.4v7.1c0,1.9-0.4,3.4-1.2,4.5c-0.8,1-2.1,1.6-3.9,1.6C384.1,59.7,382.8,59.2,382,58.2z
			 M387.8,56.8c0.3-0.6,0.5-1.4,0.5-2.6v-8.2c0-1.1-0.2-2-0.5-2.5c-0.3-0.5-1-0.8-2-0.8c-1,0-1.6,0.3-2,0.8
			c-0.3,0.5-0.5,1.4-0.5,2.5v8.2c0,1.1,0.2,2,0.5,2.6c0.3,0.6,1,0.9,2,0.9C386.8,57.7,387.5,57.4,387.8,56.8z"/>
		<path fill="#FFFFFF" d="M253.5,68.5h4c2,0,3.4,0.5,4.3,1.4s1.3,2.4,1.3,4.3V81c0,2.1-0.4,3.6-1.2,4.6s-2.2,1.5-4.1,1.5h-4.3V68.5z
			 M257.5,85.3c0.9,0,1.6-0.2,2-0.5c0.4-0.4,0.7-0.8,0.8-1.4c0.1-0.6,0.1-1.5,0.1-2.7v-6c0-1.1-0.1-1.9-0.2-2.4
			c-0.1-0.6-0.4-1-0.8-1.2c-0.4-0.3-1.1-0.4-1.9-0.4h-1.4v14.8H257.5z"/>
		<path fill="#FFFFFF" d="M265.6,68.5h7.2v1.9h-4.6v6.2h3.7v1.8h-3.7v6.8h4.7v1.9h-7.3V68.5z"/>
		<path fill="#FFFFFF" d="M279.3,68.5h2.4l2.9,13.7l2.8-13.7h2.4l-4.1,18.6h-2.3L279.3,68.5z"/>
		<path fill="#FFFFFF" d="M292.5,85.8c-0.8-1-1.2-2.5-1.2-4.5v-7.1c0-1.9,0.4-3.4,1.2-4.4s2.1-1.5,3.9-1.5c1.8,0,3.1,0.5,3.9,1.5
			c0.8,1,1.2,2.5,1.2,4.4v7.1c0,1.9-0.4,3.4-1.2,4.5c-0.8,1-2.1,1.6-3.9,1.6C294.6,87.3,293.3,86.8,292.5,85.8z M298.4,84.4
			c0.3-0.6,0.5-1.4,0.5-2.6v-8.2c0-1.1-0.2-2-0.5-2.5c-0.3-0.5-1-0.8-2-0.8c-1,0-1.6,0.3-2,0.8c-0.3,0.5-0.5,1.4-0.5,2.5v8.2
			c0,1.1,0.2,2,0.5,2.6c0.3,0.6,1,0.9,2,0.9C297.4,85.3,298,85,298.4,84.4z"/>
		<path fill="#FFFFFF" d="M304.8,85.7c-0.8-1.1-1.1-2.6-1.1-4.5v-6.6c0-2,0.4-3.6,1.1-4.6s2-1.6,3.9-1.6c1.7,0,2.9,0.5,3.6,1.4
			c0.7,0.9,1.1,2.2,1.1,4v1.5h-2.5v-1.3c0-0.9,0-1.5-0.1-2c-0.1-0.5-0.3-0.8-0.6-1.1c-0.3-0.3-0.8-0.4-1.5-0.4
			c-0.7,0-1.2,0.1-1.6,0.4c-0.3,0.3-0.6,0.7-0.7,1.2c-0.1,0.5-0.2,1.2-0.2,2.1v7.4c0,1,0.1,1.7,0.2,2.2c0.2,0.5,0.4,0.9,0.7,1.1
			c0.3,0.2,0.8,0.3,1.4,0.3c0.7,0,1.1-0.1,1.5-0.4c0.3-0.3,0.5-0.7,0.6-1.2c0.1-0.5,0.1-1.2,0.1-2.1v-1.4h2.5v1.4
			c0,1.9-0.3,3.3-1,4.3c-0.7,1-1.9,1.5-3.6,1.5C306.9,87.3,305.6,86.8,304.8,85.7z"/>
		<path fill="#FFFFFF" d="M315.9,68.5h7.2v1.9h-4.6v6.2h3.7v1.8h-3.7v6.8h4.7v1.9h-7.3V68.5z"/>
		<path fill="#FFFFFF" d="M325.3,68.5h3.7c1.9,0,3.3,0.4,4.2,1.2s1.3,2,1.3,3.8c0,2.4-0.8,3.8-2.3,4.3l2.6,9.3h-2.5l-2.4-8.7h-2v8.7
			h-2.6V68.5z M328.8,76.5c1.1,0,1.9-0.2,2.4-0.7c0.5-0.4,0.7-1.2,0.7-2.4c0-0.8-0.1-1.4-0.3-1.8s-0.5-0.8-0.9-1s-1-0.3-1.8-0.3
			h-1.1v6.2H328.8z"/>
		<path fill="#FFFFFF" d="M338,85.8c-0.8-1-1.2-2.5-1.2-4.5v-7.1c0-1.9,0.4-3.4,1.2-4.4c0.8-1,2.1-1.5,3.9-1.5
			c1.8,0,3.1,0.5,3.9,1.5c0.8,1,1.2,2.5,1.2,4.4v7.1c0,1.9-0.4,3.4-1.2,4.5c-0.8,1-2.1,1.6-3.9,1.6C340.1,87.3,338.8,86.8,338,85.8z
			 M343.9,84.4c0.3-0.6,0.5-1.4,0.5-2.6v-8.2c0-1.1-0.2-2-0.5-2.5c-0.3-0.5-1-0.8-2-0.8c-1,0-1.6,0.3-2,0.8
			c-0.3,0.5-0.5,1.4-0.5,2.5v8.2c0,1.1,0.2,2,0.5,2.6c0.3,0.6,1,0.9,2,0.9C342.9,85.3,343.6,85,343.9,84.4z"/>
		<path fill="#FFFFFF" d="M350.4,85.9c-0.8-1-1.3-2.3-1.4-4l2.3-0.6c0.1,1.2,0.3,2.2,0.7,2.9c0.4,0.7,1,1.1,1.9,1.1
			c0.7,0,1.2-0.2,1.5-0.6s0.5-0.9,0.5-1.6c0-0.8-0.2-1.4-0.5-1.9c-0.3-0.5-0.8-1.1-1.5-1.7l-3.1-2.8c-0.6-0.6-1.1-1.1-1.4-1.8
			c-0.3-0.6-0.4-1.4-0.4-2.3c0-1.4,0.4-2.4,1.2-3.2c0.8-0.8,1.8-1.1,3.2-1.1c1.5,0,2.6,0.4,3.3,1.2c0.8,0.8,1.2,2,1.4,3.6l-2.2,0.6
			c-0.1-1.1-0.3-1.9-0.6-2.5s-1-0.9-1.9-0.9c-0.7,0-1.2,0.2-1.5,0.5c-0.4,0.3-0.5,0.9-0.5,1.5c0,0.6,0.1,1,0.3,1.4
			c0.2,0.4,0.5,0.8,0.9,1.1l3.2,2.8c0.8,0.7,1.5,1.5,1.9,2.3s0.7,1.8,0.7,2.9c0,1.4-0.4,2.4-1.2,3.2c-0.8,0.8-1.9,1.2-3.2,1.2
			C352.4,87.3,351.2,86.9,350.4,85.9z"/>
	</g>
</g>
<g>
	<g>
		<path fill="#FFFFFF" d="M496.1,30.8c-0.8-1-1.2-2.5-1.2-4.3v-0.7h3.8v0.7c0,1,0.1,1.6,0.3,2s0.5,0.6,1.1,0.6c0.5,0,0.8-0.2,1-0.6
			c0.2-0.4,0.3-1,0.3-1.9c0-1-0.1-1.7-0.4-2.2c-0.3-0.5-0.8-0.7-1.5-0.7h-0.7v-2.6h0.6c0.8,0,1.3-0.2,1.6-0.6
			c0.3-0.4,0.4-1.1,0.4-2.1c0-0.8-0.1-1.3-0.3-1.7c-0.2-0.4-0.6-0.6-1.1-0.6c-0.5,0-0.8,0.2-1,0.6c-0.2,0.4-0.3,1-0.3,1.7v1h-3.8
			v-1.1c0-1.7,0.4-3,1.3-3.9c0.9-0.9,2.1-1.3,3.7-1.3c1.6,0,2.9,0.4,3.8,1.3c0.9,0.9,1.4,2.1,1.4,3.7c0,1.1-0.2,2-0.6,2.7
			c-0.4,0.7-1,1.2-1.6,1.4c0.7,0.3,1.3,0.7,1.7,1.4c0.4,0.7,0.6,1.6,0.6,2.9c0,1.8-0.4,3.2-1.2,4.3c-0.8,1-2.1,1.6-3.9,1.6
			C498.2,32.3,496.9,31.8,496.1,30.8z"/>
		<path fill="#FFFFFF" d="M496.3,58.2c-0.8-1-1.2-2.5-1.2-4.5v-7.1c0-1.9,0.4-3.4,1.2-4.4c0.8-1,2.1-1.5,3.9-1.5
			c1.8,0,3.1,0.5,3.9,1.5c0.8,1,1.2,2.5,1.2,4.4v7.1c0,1.9-0.4,3.4-1.2,4.5c-0.8,1-2.1,1.6-3.9,1.6
			C498.4,59.7,497.1,59.2,496.3,58.2z M502.2,56.8c0.3-0.6,0.5-1.4,0.5-2.6v-8.2c0-1.1-0.2-2-0.5-2.5c-0.3-0.5-1-0.8-2-0.8
			c-1,0-1.6,0.3-2,0.8c-0.3,0.5-0.5,1.4-0.5,2.5v8.2c0,1.1,0.2,2,0.5,2.6s1,0.9,2,0.9C501.2,57.7,501.9,57.4,502.2,56.8z"/>
		<path fill="#FFFFFF" d="M507.9,40.9h3.7c1.9,0,3.3,0.4,4.2,1.2c0.9,0.8,1.3,2,1.3,3.8c0,2.4-0.8,3.8-2.3,4.3l2.6,9.3h-2.5
			l-2.4-8.7h-2v8.7h-2.6V40.9z M511.5,48.9c1.1,0,1.9-0.2,2.4-0.7c0.5-0.4,0.7-1.2,0.7-2.4c0-0.8-0.1-1.4-0.3-1.8
			c-0.2-0.4-0.5-0.8-0.9-1c-0.4-0.2-1-0.3-1.8-0.3h-1.1v6.2H511.5z"/>
		<path fill="#FFFFFF" d="M520.6,58.2c-0.8-1.1-1.1-2.6-1.1-4.7v-6.2c0-1.4,0.1-2.6,0.4-3.6c0.3-0.9,0.8-1.6,1.5-2.1
			c0.7-0.5,1.7-0.7,3-0.7c1.7,0,3,0.4,3.7,1.3s1.1,2.2,1.1,4.1v0.7h-2.4v-0.6c0-0.9-0.1-1.6-0.2-2.1s-0.3-0.8-0.7-1.1
			c-0.3-0.2-0.9-0.4-1.5-0.4c-0.7,0-1.3,0.2-1.6,0.5c-0.4,0.3-0.6,0.8-0.7,1.3c-0.1,0.6-0.1,1.3-0.1,2.2v6.9c0,1.4,0.2,2.4,0.5,3.1
			s1,0.9,2,0.9c1,0,1.6-0.3,2-1c0.4-0.7,0.5-1.8,0.5-3.2v-1.3h-2.4v-1.8h4.7v9.2h-1.6l-0.3-2.1c-0.6,1.6-1.7,2.4-3.3,2.4
			C522.6,59.8,521.3,59.2,520.6,58.2z"/>
		<path fill="#FFFFFF" d="M535.1,40.9h2.5l4,18.6h-2.5l-0.9-4.7h-3.8l-0.9,4.7h-2.4L535.1,40.9z M537.9,53l-1.6-8.4l-1.5,8.4H537.9z
			"/>
		<path fill="#FFFFFF" d="M543.4,40.9h1.8l5.3,12.4V40.9h2.2v18.6H551l-5.4-12.7v12.7h-2.2V40.9z"/>
		<path fill="#FFFFFF" d="M555.7,40.9h2.6v18.6h-2.6V40.9z"/>
		<path fill="#FFFFFF" d="M560.7,57.7l5.5-14.9H561v-1.9h7.9V42l-5.8,15.6h5.8v1.9h-8.2V57.7z"/>
		<path fill="#FFFFFF" d="M573.8,40.9h2.5l4,18.6h-2.5l-0.9-4.7h-3.8l-0.9,4.7h-2.4L573.8,40.9z M576.6,53l-1.6-8.4l-1.5,8.4H576.6z
			"/>
		<path fill="#FFFFFF" d="M582.9,58.1c-0.8-1.1-1.1-2.6-1.1-4.5V47c0-2,0.4-3.6,1.1-4.6s2-1.6,3.9-1.6c1.7,0,2.9,0.5,3.6,1.4
			c0.7,0.9,1.1,2.2,1.1,4v1.5H589v-1.3c0-0.9,0-1.5-0.1-2c-0.1-0.5-0.3-0.8-0.6-1.1s-0.8-0.4-1.5-0.4c-0.7,0-1.2,0.1-1.6,0.4
			c-0.3,0.3-0.6,0.7-0.7,1.2c-0.1,0.5-0.2,1.2-0.2,2.1V54c0,1,0.1,1.7,0.2,2.2c0.2,0.5,0.4,0.9,0.7,1.1s0.8,0.3,1.4,0.3
			c0.7,0,1.2-0.1,1.5-0.4c0.3-0.3,0.5-0.7,0.6-1.2c0.1-0.5,0.1-1.2,0.1-2.1v-1.4h2.5V54c0,1.9-0.3,3.3-1,4.3c-0.7,1-1.9,1.5-3.6,1.5
			C584.9,59.7,583.6,59.2,582.9,58.1z"/>
		<path fill="#FFFFFF" d="M594.1,40.9h2.6v18.6h-2.6V40.9z"/>
		<path fill="#FFFFFF" d="M600.5,58.2c-0.8-1-1.2-2.5-1.2-4.5v-7.1c0-1.9,0.4-3.4,1.2-4.4c0.8-1,2.1-1.5,3.9-1.5
			c1.8,0,3.1,0.5,3.9,1.5c0.8,1,1.2,2.5,1.2,4.4v7.1c0,1.9-0.4,3.4-1.2,4.5c-0.8,1-2.1,1.6-3.9,1.6
			C602.6,59.7,601.3,59.2,600.5,58.2z M606.4,56.8c0.3-0.6,0.5-1.4,0.5-2.6v-8.2c0-1.1-0.2-2-0.5-2.5c-0.3-0.5-1-0.8-2-0.8
			c-1,0-1.6,0.3-2,0.8c-0.3,0.5-0.5,1.4-0.5,2.5v8.2c0,1.1,0.2,2,0.5,2.6c0.3,0.6,1,0.9,2,0.9C605.4,57.7,606,57.4,606.4,56.8z
			 M605.1,35.3h2.5l-2.6,4.6h-1.2L605.1,35.3z"/>
		<path fill="#FFFFFF" d="M612,40.9h1.8l5.3,12.4V40.9h2.2v18.6h-1.7l-5.4-12.7v12.7H612V40.9z"/>
		<path fill="#FFFFFF" d="M629.4,40.9h7.2v1.9H632V49h3.8v1.8H632v6.8h4.7v1.9h-7.3V40.9z"/>
		<path fill="#FFFFFF" d="M637.9,40.9h2.4l2.9,13.7l2.8-13.7h2.4l-4.1,18.6H642L637.9,40.9z"/>
		<path fill="#FFFFFF" d="M650.4,40.9h7.2v1.9H653V49h3.7v1.8H653v6.8h4.7v1.9h-7.3V40.9z"/>
		<path fill="#FFFFFF" d="M659.8,40.9h1.8l5.3,12.4V40.9h2.2v18.6h-1.7L662,46.8v12.7h-2.2V40.9z"/>
		<path fill="#FFFFFF" d="M674,42.8h-3.2v-1.9h8.8v1.9h-3.1v16.7H674V42.8z"/>
		<path fill="#FFFFFF" d="M682.3,58.2c-0.8-1-1.2-2.5-1.2-4.5v-7.1c0-1.9,0.4-3.4,1.2-4.4c0.8-1,2.1-1.5,3.9-1.5s3.1,0.5,3.9,1.5
			c0.8,1,1.2,2.5,1.2,4.4v7.1c0,1.9-0.4,3.4-1.2,4.5c-0.8,1-2.1,1.6-3.9,1.6C684.4,59.7,683.1,59.2,682.3,58.2z M688.1,56.8
			c0.3-0.6,0.5-1.4,0.5-2.6v-8.2c0-1.1-0.2-2-0.5-2.5c-0.3-0.5-1-0.8-2-0.8c-1,0-1.6,0.3-2,0.8c-0.3,0.5-0.5,1.4-0.5,2.5v8.2
			c0,1.1,0.2,2,0.5,2.6c0.3,0.6,1,0.9,2,0.9C687.2,57.7,687.8,57.4,688.1,56.8z"/>
		<path fill="#FFFFFF" d="M495.5,68.5h2.6v16.8h4.8v1.9h-7.4V68.5z"/>
		<path fill="#FFFFFF" d="M507.5,68.5h2.5l4,18.6h-2.5l-0.9-4.7h-3.8l-0.9,4.7h-2.4L507.5,68.5z M510.4,80.6l-1.6-8.4l-1.5,8.4
			H510.4z"/>
		<path fill="#FFFFFF" d="M515.9,68.5h1.8l5.3,12.4V68.5h2.2v18.6h-1.7l-5.4-12.7v12.7h-2.2V68.5z"/>
		<path fill="#FFFFFF" d="M527.5,85.3l5.5-14.9h-5.1v-1.9h7.9v1.1l-5.8,15.6h5.8v1.9h-8.2V85.3z"/>
		<path fill="#FFFFFF" d="M540.6,68.5h2.5l4,18.6h-2.5l-0.9-4.7H540l-0.9,4.7h-2.4L540.6,68.5z M543.4,80.6l-1.6-8.4l-1.5,8.4H543.4
			z"/>
		<path fill="#FFFFFF" d="M549.3,68.5h2.6l3.3,15.1l3.3-15.1h2.5l0.3,18.6h-2.1L559,73.6l-3.2,13.5h-1.5l-3.1-13.5L551,87.1h-2.1
			L549.3,68.5z"/>
		<path fill="#FFFFFF" d="M564.3,68.5h2.6v18.6h-2.6V68.5z"/>
		<path fill="#FFFFFF" d="M569.9,68.5h7.2v1.9h-4.6v6.2h3.7v1.8h-3.7v6.8h4.7v1.9h-7.3V68.5z"/>
		<path fill="#FFFFFF" d="M579.2,68.5h1.8l5.3,12.4V68.5h2.2v18.6h-1.7l-5.4-12.7v12.7h-2.2V68.5z"/>
		<path fill="#FFFFFF" d="M593.4,70.4h-3.2v-1.9h8.8v1.9H596v16.7h-2.6V70.4z"/>
		<path fill="#FFFFFF" d="M601.7,85.8c-0.8-1-1.2-2.5-1.2-4.5v-7.1c0-1.9,0.4-3.4,1.2-4.4s2.1-1.5,3.9-1.5c1.8,0,3.1,0.5,3.9,1.5
			c0.8,1,1.2,2.5,1.2,4.4v7.1c0,1.9-0.4,3.4-1.2,4.5c-0.8,1-2.1,1.6-3.9,1.6C603.8,87.3,602.5,86.8,601.7,85.8z M607.6,84.4
			c0.3-0.6,0.5-1.4,0.5-2.6v-8.2c0-1.1-0.2-2-0.5-2.5c-0.3-0.5-1-0.8-2-0.8c-1,0-1.6,0.3-2,0.8c-0.3,0.5-0.5,1.4-0.5,2.5v8.2
			c0,1.1,0.2,2,0.5,2.6c0.3,0.6,1,0.9,2,0.9C606.6,85.3,607.2,85,607.6,84.4z"/>
		<path fill="#FFFFFF" d="M619.3,85.9c-0.8-1-1.3-2.3-1.4-4l2.3-0.6c0.1,1.2,0.3,2.2,0.7,2.9c0.4,0.7,1,1.1,1.9,1.1
			c0.7,0,1.2-0.2,1.5-0.6s0.5-0.9,0.5-1.6c0-0.8-0.2-1.4-0.5-1.9s-0.8-1.1-1.5-1.7l-3.1-2.8c-0.6-0.6-1.1-1.1-1.4-1.8
			c-0.3-0.6-0.4-1.4-0.4-2.3c0-1.4,0.4-2.4,1.2-3.2c0.8-0.8,1.8-1.1,3.2-1.1c1.5,0,2.6,0.4,3.3,1.2c0.8,0.8,1.2,2,1.4,3.6l-2.2,0.6
			c-0.1-1.1-0.3-1.9-0.6-2.5s-1-0.9-1.9-0.9c-0.7,0-1.2,0.2-1.5,0.5c-0.4,0.3-0.5,0.9-0.5,1.5c0,0.6,0.1,1,0.3,1.4
			c0.2,0.4,0.5,0.8,0.9,1.1l3.2,2.8c0.8,0.7,1.5,1.5,1.9,2.3c0.5,0.8,0.7,1.8,0.7,2.9c0,1.4-0.4,2.4-1.2,3.2s-1.9,1.2-3.2,1.2
			C621.3,87.3,620.2,86.9,619.3,85.9z"/>
		<path fill="#FFFFFF" d="M631.2,86.6c-0.7-0.5-1.2-1.2-1.5-2.2c-0.3-0.9-0.4-2.1-0.4-3.5V68.5h2.5V81c0,1.4,0.2,2.5,0.5,3.2
			c0.3,0.7,1,1.1,2,1.1c1,0,1.7-0.4,2-1.1c0.3-0.7,0.5-1.8,0.5-3.2V68.5h2.5v12.4c0,1.4-0.1,2.6-0.4,3.5c-0.3,0.9-0.8,1.7-1.5,2.2
			c-0.7,0.5-1.7,0.8-3,0.8C632.9,87.3,631.9,87.1,631.2,86.6z"/>
		<path fill="#FFFFFF" d="M641.9,68.5h4.6c1.6,0,2.8,0.4,3.5,1.3s1.1,2.2,1.1,3.8c0,1.5-0.4,2.7-1.2,3.5s-1.9,1.3-3.4,1.3h-2v8.7
			h-2.6V68.5z M645.7,76.6c0.8,0,1.4-0.1,1.8-0.3c0.4-0.2,0.7-0.5,0.9-0.9c0.2-0.4,0.3-1,0.3-1.8c0-1-0.1-1.6-0.2-2.1
			s-0.4-0.8-0.8-0.9c-0.4-0.2-1-0.3-1.9-0.3h-1.2v6.2H645.7z"/>
		<path fill="#FFFFFF" d="M652.9,68.5h7.2v1.9h-4.6v6.2h3.7v1.8h-3.7v6.8h4.7v1.9h-7.3V68.5z"/>
		<path fill="#FFFFFF" d="M662.3,68.5h3.7c1.9,0,3.3,0.4,4.2,1.2c0.9,0.8,1.3,2,1.3,3.8c0,2.4-0.8,3.8-2.3,4.3l2.6,9.3h-2.5
			l-2.4-8.7h-2v8.7h-2.6V68.5z M665.9,76.5c1.1,0,1.9-0.2,2.4-0.7c0.5-0.4,0.7-1.2,0.7-2.4c0-0.8-0.1-1.4-0.3-1.8
			c-0.2-0.4-0.5-0.8-0.9-1c-0.4-0.2-1-0.3-1.8-0.3h-1.1v6.2H665.9z"/>
		<path fill="#FFFFFF" d="M674.2,68.5h2.6v16.8h4.8v1.9h-7.4V68.5z"/>
		<path fill="#FFFFFF" d="M683.5,68.5h2.6v18.6h-2.6V68.5z"/>
		<path fill="#FFFFFF" d="M689.8,85.8c-0.8-1.1-1.1-2.6-1.1-4.7v-6.2c0-1.4,0.1-2.6,0.4-3.6s0.8-1.6,1.5-2.1c0.7-0.5,1.7-0.7,3-0.7
			c1.7,0,3,0.4,3.7,1.3c0.8,0.9,1.1,2.2,1.1,4.1v0.7h-2.4v-0.6c0-0.9-0.1-1.6-0.2-2.1c-0.1-0.5-0.3-0.8-0.7-1.1
			c-0.3-0.2-0.9-0.4-1.5-0.4c-0.7,0-1.3,0.2-1.6,0.5c-0.4,0.3-0.6,0.8-0.7,1.3c-0.1,0.6-0.1,1.3-0.1,2.2v6.9c0,1.4,0.2,2.4,0.5,3.1
			s1,0.9,2,0.9c1,0,1.6-0.3,2-1c0.4-0.7,0.5-1.8,0.5-3.2v-1.3H694v-1.8h4.7v9.2h-1.6l-0.3-2.1c-0.6,1.6-1.7,2.4-3.3,2.4
			C691.8,87.4,690.6,86.8,689.8,85.8z"/>
		<path fill="#FFFFFF" d="M704.3,68.5h2.5l4,18.6h-2.5l-0.9-4.7h-3.8l-0.9,4.7h-2.4L704.3,68.5z M707.1,80.6l-1.6-8.4l-1.5,8.4
			H707.1z"/>
	</g>
</g>
<g>
	<g>
		<path fill="#FFFFFF" d="M742.3,27.8h-5.7v-2.8l4.9-11.6h4.5v11.6h1.7v2.9h-1.7v4.2h-3.6V27.8z M742.3,24.9v-7.8l-2.8,7.8H742.3z"
			/>
		<path fill="#FFFFFF" d="M737.5,40.9h4.6c1.6,0,2.8,0.4,3.5,1.3c0.7,0.9,1.1,2.2,1.1,3.8c0,1.5-0.4,2.7-1.2,3.5
			c-0.8,0.8-1.9,1.3-3.4,1.3h-2v8.7h-2.6V40.9z M741.3,49c0.8,0,1.4-0.1,1.8-0.3c0.4-0.2,0.7-0.5,0.9-0.9c0.2-0.4,0.3-1,0.3-1.8
			c0-1-0.1-1.6-0.2-2.1c-0.1-0.4-0.4-0.8-0.8-0.9c-0.4-0.2-1-0.3-1.9-0.3h-1.2V49H741.3z"/>
		<path fill="#FFFFFF" d="M748.5,40.9h2.6v8h4.8v-8h2.6v18.6h-2.6v-8.7h-4.8v8.7h-2.6V40.9z"/>
		<path fill="#FFFFFF" d="M762.3,58.2c-0.8-1-1.2-2.5-1.2-4.5v-7.1c0-1.9,0.4-3.4,1.2-4.4c0.8-1,2.1-1.5,3.9-1.5
			c1.8,0,3.1,0.5,3.9,1.5c0.8,1,1.2,2.5,1.2,4.4v7.1c0,1.9-0.4,3.4-1.2,4.5c-0.8,1-2.1,1.6-3.9,1.6C764.4,59.7,763,59.2,762.3,58.2z
			 M768.1,56.8c0.3-0.6,0.5-1.4,0.5-2.6v-8.2c0-1.1-0.2-2-0.5-2.5c-0.3-0.5-1-0.8-2-0.8c-1,0-1.6,0.3-2,0.8
			c-0.3,0.5-0.5,1.4-0.5,2.5v8.2c0,1.1,0.2,2,0.5,2.6c0.3,0.6,1,0.9,2,0.9C767.1,57.7,767.8,57.4,768.1,56.8z"/>
		<path fill="#FFFFFF" d="M775.9,42.8h-3.2v-1.9h8.8v1.9h-3.1v16.7h-2.6V42.8z"/>
		<path fill="#FFFFFF" d="M784.2,58.2c-0.8-1-1.2-2.5-1.2-4.5v-7.1c0-1.9,0.4-3.4,1.2-4.4c0.8-1,2.1-1.5,3.9-1.5
			c1.8,0,3.1,0.5,3.9,1.5c0.8,1,1.2,2.5,1.2,4.4v7.1c0,1.9-0.4,3.4-1.2,4.5c-0.8,1-2.1,1.6-3.9,1.6
			C786.2,59.7,784.9,59.2,784.2,58.2z M790,56.8c0.3-0.6,0.5-1.4,0.5-2.6v-8.2c0-1.1-0.2-2-0.5-2.5c-0.3-0.5-1-0.8-2-0.8
			c-1,0-1.6,0.3-2,0.8c-0.3,0.5-0.5,1.4-0.5,2.5v8.2c0,1.1,0.2,2,0.5,2.6s1,0.9,2,0.9C789,57.7,789.7,57.4,790,56.8z"/>
		<path fill="#FFFFFF" d="M801.8,58.3c-0.8-1-1.3-2.3-1.4-4l2.3-0.6c0.1,1.2,0.3,2.2,0.7,2.9c0.4,0.7,1,1.1,1.9,1.1
			c0.7,0,1.2-0.2,1.5-0.6c0.3-0.4,0.5-0.9,0.5-1.6c0-0.8-0.2-1.4-0.5-1.9s-0.8-1.1-1.5-1.7l-3.1-2.8c-0.6-0.6-1.1-1.1-1.4-1.8
			c-0.3-0.6-0.4-1.4-0.4-2.3c0-1.4,0.4-2.4,1.2-3.2c0.8-0.8,1.8-1.1,3.2-1.1c1.5,0,2.6,0.4,3.3,1.2c0.8,0.8,1.2,2,1.4,3.6l-2.2,0.6
			c-0.1-1.1-0.3-1.9-0.6-2.5c-0.3-0.6-1-0.9-1.9-0.9c-0.7,0-1.2,0.2-1.5,0.5c-0.4,0.3-0.5,0.9-0.5,1.5c0,0.6,0.1,1,0.3,1.4
			c0.2,0.4,0.5,0.8,0.9,1.1l3.2,2.8c0.8,0.7,1.5,1.5,1.9,2.3c0.5,0.8,0.7,1.8,0.7,2.9c0,1.4-0.4,2.4-1.2,3.2
			c-0.8,0.8-1.9,1.2-3.2,1.2C803.8,59.7,802.6,59.3,801.8,58.3z"/>
		<path fill="#FFFFFF" d="M811.9,40.9h2.6v8h4.8v-8h2.6v18.6h-2.6v-8.7h-4.8v8.7h-2.6V40.9z"/>
		<path fill="#FFFFFF" d="M825.6,58.2c-0.8-1-1.2-2.5-1.2-4.5v-7.1c0-1.9,0.4-3.4,1.2-4.4c0.8-1,2.1-1.5,3.9-1.5
			c1.8,0,3.1,0.5,3.9,1.5c0.8,1,1.2,2.5,1.2,4.4v7.1c0,1.9-0.4,3.4-1.2,4.5c-0.8,1-2.1,1.6-3.9,1.6
			C827.7,59.7,826.4,59.2,825.6,58.2z M831.5,56.8c0.3-0.6,0.5-1.4,0.5-2.6v-8.2c0-1.1-0.2-2-0.5-2.5c-0.3-0.5-1-0.8-2-0.8
			c-1,0-1.6,0.3-2,0.8c-0.3,0.5-0.5,1.4-0.5,2.5v8.2c0,1.1,0.2,2,0.5,2.6s1,0.9,2,0.9C830.5,57.7,831.1,57.4,831.5,56.8z"/>
		<path fill="#FFFFFF" d="M838,58.2c-0.8-1-1.2-2.5-1.2-4.5v-7.1c0-1.9,0.4-3.4,1.2-4.4c0.8-1,2.1-1.5,3.9-1.5
			c1.8,0,3.1,0.5,3.9,1.5c0.8,1,1.2,2.5,1.2,4.4v7.1c0,1.9-0.4,3.4-1.2,4.5c-0.8,1-2.1,1.6-3.9,1.6C840.1,59.7,838.8,59.2,838,58.2z
			 M843.9,56.8c0.3-0.6,0.5-1.4,0.5-2.6v-8.2c0-1.1-0.2-2-0.5-2.5c-0.3-0.5-1-0.8-2-0.8c-1,0-1.6,0.3-2,0.8
			c-0.3,0.5-0.5,1.4-0.5,2.5v8.2c0,1.1,0.2,2,0.5,2.6s1,0.9,2,0.9C842.9,57.7,843.5,57.4,843.9,56.8z"/>
		<path fill="#FFFFFF" d="M851.6,42.8h-3.2v-1.9h8.8v1.9h-3.1v16.7h-2.6V42.8z"/>
		<path fill="#FFFFFF" d="M859.2,40.9h2.6v18.6h-2.6V40.9z"/>
		<path fill="#FFFFFF" d="M864.8,40.9h1.8l5.3,12.4V40.9h2.2v18.6h-1.7L867,46.8v12.7h-2.2V40.9z"/>
		<path fill="#FFFFFF" d="M877.7,58.2c-0.8-1.1-1.1-2.6-1.1-4.7v-6.2c0-1.4,0.1-2.6,0.4-3.6c0.3-0.9,0.8-1.6,1.5-2.1
			c0.7-0.5,1.7-0.7,3-0.7c1.7,0,3,0.4,3.7,1.3c0.8,0.9,1.1,2.2,1.1,4.1v0.7H884v-0.6c0-0.9-0.1-1.6-0.2-2.1s-0.3-0.8-0.7-1.1
			c-0.3-0.2-0.9-0.4-1.5-0.4c-0.7,0-1.3,0.2-1.6,0.5c-0.4,0.3-0.6,0.8-0.7,1.3c-0.1,0.6-0.2,1.3-0.2,2.2v6.9c0,1.4,0.2,2.4,0.5,3.1
			c0.3,0.6,1,0.9,2,0.9c1,0,1.6-0.3,2-1c0.4-0.7,0.5-1.8,0.5-3.2v-1.3h-2.4v-1.8h4.7v9.2h-1.6l-0.3-2.1c-0.6,1.6-1.7,2.4-3.3,2.4
			C879.6,59.8,878.4,59.2,877.7,58.2z"/>
		<path fill="#FFFFFF" d="M739.5,70.4h-3.2v-1.9h8.8v1.9h-3.1v16.7h-2.6V70.4z"/>
		<path fill="#FFFFFF" d="M749.9,68.5h2.5l4,18.6h-2.5l-0.9-4.7h-3.8l-0.9,4.7h-2.4L749.9,68.5z M752.7,80.6l-1.6-8.4l-1.5,8.4
			H752.7z"/>
		<path fill="#FFFFFF" d="M758.2,68.5h2.6v16.8h4.8v1.9h-7.4V68.5z"/>
		<path fill="#FFFFFF" d="M767.4,68.5h7.2v1.9H770v6.2h3.7v1.8H770v6.8h4.7v1.9h-7.3V68.5z"/>
		<path fill="#FFFFFF" d="M776.7,68.5h1.8l5.3,12.4V68.5h2.2v18.6h-1.7l-5.4-12.7v12.7h-2.2V68.5z"/>
		<path fill="#FFFFFF" d="M790.9,70.4h-3.2v-1.9h8.8v1.9h-3.1v16.7h-2.6V70.4z"/>
		<path fill="#FFFFFF" d="M799.2,85.8c-0.8-1-1.2-2.5-1.2-4.5v-7.1c0-1.9,0.4-3.4,1.2-4.4c0.8-1,2.1-1.5,3.9-1.5s3.1,0.5,3.9,1.5
			c0.8,1,1.2,2.5,1.2,4.4v7.1c0,1.9-0.4,3.4-1.2,4.5c-0.8,1-2.1,1.6-3.9,1.6C801.3,87.3,800,86.8,799.2,85.8z M805.1,84.4
			c0.3-0.6,0.5-1.4,0.5-2.6v-8.2c0-1.1-0.2-2-0.5-2.5c-0.3-0.5-1-0.8-2-0.8c-1,0-1.6,0.3-2,0.8c-0.3,0.5-0.5,1.4-0.5,2.5v8.2
			c0,1.1,0.2,2,0.5,2.6c0.3,0.6,1,0.9,2,0.9C804.1,85.3,804.8,85,805.1,84.4z"/>
		<path fill="#FFFFFF" d="M811.6,85.9c-0.8-1-1.3-2.3-1.4-4l2.3-0.6c0.1,1.2,0.3,2.2,0.7,2.9c0.4,0.7,1,1.1,1.9,1.1
			c0.7,0,1.2-0.2,1.5-0.6s0.5-0.9,0.5-1.6c0-0.8-0.2-1.4-0.5-1.9s-0.8-1.1-1.5-1.7l-3.1-2.8c-0.6-0.6-1.1-1.1-1.4-1.8
			c-0.3-0.6-0.4-1.4-0.4-2.3c0-1.4,0.4-2.4,1.2-3.2c0.8-0.8,1.8-1.1,3.2-1.1c1.5,0,2.6,0.4,3.3,1.2c0.8,0.8,1.2,2,1.4,3.6l-2.2,0.6
			c-0.1-1.1-0.3-1.9-0.6-2.5s-1-0.9-1.9-0.9c-0.7,0-1.2,0.2-1.5,0.5c-0.4,0.3-0.5,0.9-0.5,1.5c0,0.6,0.1,1,0.3,1.4
			c0.2,0.4,0.5,0.8,0.9,1.1l3.2,2.8c0.8,0.7,1.5,1.5,1.9,2.3c0.5,0.8,0.7,1.8,0.7,2.9c0,1.4-0.4,2.4-1.2,3.2s-1.9,1.2-3.2,1.2
			C813.6,87.3,812.4,86.9,811.6,85.9z"/>
	</g>
</g>
<g>
	<g>
		<path fill="#FFFFFF" d="M13.2,136.6c-0.7-0.5-1.2-1.1-1.4-1.9c-0.3-0.8-0.4-1.9-0.4-3.2h3.7c0,1.1,0.1,1.9,0.3,2.3
			c0.2,0.4,0.5,0.7,1,0.7c0.4,0,0.7-0.1,0.9-0.4c0.2-0.3,0.3-0.7,0.4-1.2s0.1-1.3,0.1-2.3c0-1-0.1-1.8-0.3-2.4
			c-0.2-0.5-0.6-0.8-1.1-0.8c-0.8,0-1.3,0.6-1.5,1.7h-3.3l0.3-10.7h8.7v3.2h-5.6l-0.2,3.8c0.2-0.2,0.5-0.5,1.1-0.6
			c0.5-0.2,1.1-0.3,1.7-0.3c1.3,0,2.2,0.5,2.9,1.6c0.7,1,1,2.5,1,4.4c0,1.5-0.1,2.7-0.4,3.7s-0.8,1.7-1.5,2.3s-1.8,0.8-3.2,0.8
			C15,137.3,13.9,137,13.2,136.6z"/>
		<path fill="#FFFFFF" d="M11.9,145.9h4.6c1.6,0,2.8,0.4,3.5,1.3c0.7,0.9,1.1,2.2,1.1,3.8c0,1.5-0.4,2.7-1.2,3.5s-1.9,1.3-3.4,1.3
			h-2v8.7h-2.6V145.9z M15.6,154c0.8,0,1.4-0.1,1.8-0.3c0.4-0.2,0.7-0.5,0.9-0.9c0.2-0.4,0.3-1,0.3-1.8c0-1-0.1-1.6-0.2-2.1
			s-0.4-0.8-0.8-0.9c-0.4-0.2-1-0.3-1.9-0.3h-1.2v6.2H15.6z"/>
		<path fill="#FFFFFF" d="M22.9,145.9h2.6v16.8h4.8v1.9h-7.4V145.9z"/>
		<path fill="#FFFFFF" d="M35,145.9h2.5l4,18.6H39l-0.9-4.7h-3.8l-0.9,4.7H31L35,145.9z M37.8,158l-1.6-8.4l-1.5,8.4H37.8z"/>
		<path fill="#FFFFFF" d="M43.3,145.9h1.8l5.3,12.4v-12.4h2.2v18.6h-1.7l-5.4-12.7v12.7h-2.2V145.9z"/>
		<path fill="#FFFFFF" d="M61.5,163.1c-0.8-1.1-1.1-2.6-1.1-4.5V152c0-2,0.4-3.6,1.1-4.6c0.7-1.1,2-1.6,3.9-1.6
			c1.7,0,2.9,0.5,3.6,1.4c0.7,0.9,1.1,2.2,1.1,4v1.5h-2.5v-1.3c0-0.9,0-1.5-0.1-2c-0.1-0.5-0.3-0.8-0.6-1.1s-0.8-0.4-1.5-0.4
			c-0.7,0-1.2,0.1-1.6,0.4c-0.3,0.3-0.6,0.7-0.7,1.2c-0.1,0.5-0.2,1.2-0.2,2.1v7.4c0,1,0.1,1.7,0.2,2.2c0.2,0.5,0.4,0.9,0.7,1.1
			c0.3,0.2,0.8,0.3,1.4,0.3c0.7,0,1.1-0.1,1.5-0.4c0.3-0.3,0.5-0.7,0.6-1.2c0.1-0.5,0.1-1.2,0.1-2.1v-1.4h2.5v1.4
			c0,1.9-0.3,3.3-1,4.3c-0.7,1-1.9,1.5-3.6,1.5C63.6,164.7,62.3,164.2,61.5,163.1z"/>
		<path fill="#FFFFFF" d="M73.4,163.2c-0.8-1-1.2-2.5-1.2-4.5v-7.1c0-1.9,0.4-3.4,1.2-4.4c0.8-1,2.1-1.5,3.9-1.5s3.1,0.5,3.9,1.5
			c0.8,1,1.2,2.5,1.2,4.4v7.1c0,1.9-0.4,3.4-1.2,4.5c-0.8,1-2.1,1.6-3.9,1.6C75.5,164.7,74.2,164.2,73.4,163.2z M79.3,161.8
			c0.3-0.6,0.5-1.4,0.5-2.6v-8.2c0-1.1-0.2-2-0.5-2.5c-0.3-0.5-1-0.8-2-0.8c-1,0-1.6,0.3-2,0.8c-0.3,0.5-0.5,1.4-0.5,2.5v8.2
			c0,1.1,0.2,2,0.5,2.6c0.3,0.6,1,0.9,2,0.9C78.3,162.7,79,162.4,79.3,161.8z"/>
		<path fill="#FFFFFF" d="M85.3,145.9h2.6l3.3,15.1l3.3-15.1H97l0.3,18.6h-2.1L95,151l-3.2,13.5h-1.5L87.3,151l-0.2,13.5h-2.1
			L85.3,145.9z"/>
		<path fill="#FFFFFF" d="M101.9,164c-0.7-0.5-1.2-1.2-1.5-2.2c-0.3-0.9-0.4-2.1-0.4-3.5v-12.4h2.5v12.5c0,1.4,0.2,2.5,0.5,3.2
			c0.3,0.7,1,1.1,2,1.1c1,0,1.7-0.4,2-1.1c0.3-0.7,0.5-1.8,0.5-3.2v-12.5h2.5v12.4c0,1.4-0.1,2.6-0.4,3.5c-0.3,0.9-0.8,1.7-1.5,2.2
			c-0.7,0.5-1.7,0.8-3,0.8C103.7,164.7,102.7,164.5,101.9,164z"/>
		<path fill="#FFFFFF" d="M112.7,145.9h1.8l5.3,12.4v-12.4h2.2v18.6h-1.7l-5.4-12.7v12.7h-2.2V145.9z"/>
		<path fill="#FFFFFF" d="M124.9,145.9h2.6v18.6h-2.6V145.9z"/>
		<path fill="#FFFFFF" d="M131.3,163.1c-0.8-1.1-1.1-2.6-1.1-4.5V152c0-2,0.4-3.6,1.1-4.6s2-1.6,3.9-1.6c1.7,0,2.9,0.5,3.6,1.4
			c0.7,0.9,1.1,2.2,1.1,4v1.5h-2.5v-1.3c0-0.9,0-1.5-0.1-2c-0.1-0.5-0.3-0.8-0.6-1.1c-0.3-0.3-0.8-0.4-1.5-0.4
			c-0.7,0-1.2,0.1-1.6,0.4c-0.3,0.3-0.6,0.7-0.7,1.2c-0.1,0.5-0.2,1.2-0.2,2.1v7.4c0,1,0.1,1.7,0.2,2.2c0.2,0.5,0.4,0.9,0.7,1.1
			c0.3,0.2,0.8,0.3,1.4,0.3c0.7,0,1.1-0.1,1.5-0.4c0.3-0.3,0.5-0.7,0.6-1.2c0.1-0.5,0.1-1.2,0.1-2.1v-1.4h2.5v1.4
			c0,1.9-0.3,3.3-1,4.3c-0.7,1-1.9,1.5-3.6,1.5C133.3,164.7,132,164.2,131.3,163.1z"/>
		<path fill="#FFFFFF" d="M145.3,145.9h2.5l4,18.6h-2.5l-0.9-4.7h-3.8l-0.9,4.7h-2.4L145.3,145.9z M148.1,158l-1.6-8.4L145,158
			H148.1z"/>
		<path fill="#FFFFFF" d="M154.4,163.1c-0.8-1.1-1.1-2.6-1.1-4.5V152c0-2,0.4-3.6,1.1-4.6c0.7-1.1,2-1.6,3.9-1.6
			c1.7,0,2.9,0.5,3.6,1.4c0.7,0.9,1.1,2.2,1.1,4v1.5h-2.5v-1.3c0-0.9,0-1.5-0.1-2c-0.1-0.5-0.3-0.8-0.6-1.1
			c-0.3-0.3-0.8-0.4-1.5-0.4c-0.7,0-1.2,0.1-1.6,0.4c-0.3,0.3-0.6,0.7-0.7,1.2c-0.1,0.5-0.2,1.2-0.2,2.1v7.4c0,1,0.1,1.7,0.2,2.2
			c0.2,0.5,0.4,0.9,0.7,1.1c0.3,0.2,0.8,0.3,1.4,0.3c0.7,0,1.2-0.1,1.5-0.4c0.3-0.3,0.5-0.7,0.6-1.2c0.1-0.5,0.1-1.2,0.1-2.1v-1.4
			h2.5v1.4c0,1.9-0.3,3.3-1,4.3c-0.7,1-1.9,1.5-3.6,1.5C156.4,164.7,155.1,164.2,154.4,163.1z"/>
		<path fill="#FFFFFF" d="M165.6,145.9h2.6v18.6h-2.6V145.9z"/>
		<path fill="#FFFFFF" d="M172,163.2c-0.8-1-1.2-2.5-1.2-4.5v-7.1c0-1.9,0.4-3.4,1.2-4.4c0.8-1,2.1-1.5,3.9-1.5
			c1.8,0,3.1,0.5,3.9,1.5c0.8,1,1.2,2.5,1.2,4.4v7.1c0,1.9-0.4,3.4-1.2,4.5c-0.8,1-2.1,1.6-3.9,1.6
			C174.1,164.7,172.8,164.2,172,163.2z M177.8,161.8c0.3-0.6,0.5-1.4,0.5-2.6v-8.2c0-1.1-0.2-2-0.5-2.5c-0.3-0.5-1-0.8-2-0.8
			c-1,0-1.6,0.3-2,0.8c-0.3,0.5-0.5,1.4-0.5,2.5v8.2c0,1.1,0.2,2,0.5,2.6c0.3,0.6,1,0.9,2,0.9C176.9,162.7,177.5,162.4,177.8,161.8z
			 M176.6,140.3h2.5l-2.6,4.6h-1.2L176.6,140.3z"/>
		<path fill="#FFFFFF" d="M183.5,145.9h1.8l5.3,12.4v-12.4h2.2v18.6h-1.7l-5.4-12.7v12.7h-2.2V145.9z"/>
		<path fill="#FFFFFF" d="M11.9,173.5h4.6c1.6,0,2.8,0.4,3.5,1.3c0.7,0.9,1.1,2.2,1.1,3.8c0,1.5-0.4,2.7-1.2,3.5s-1.9,1.3-3.4,1.3
			h-2v8.7h-2.6V173.5z M15.6,181.6c0.8,0,1.4-0.1,1.8-0.3c0.4-0.2,0.7-0.5,0.9-0.9c0.2-0.4,0.3-1,0.3-1.8c0-1-0.1-1.6-0.2-2.1
			s-0.4-0.8-0.8-0.9c-0.4-0.2-1-0.3-1.9-0.3h-1.2v6.2H15.6z"/>
		<path fill="#FFFFFF" d="M25,173.5h2.5l4,18.6H29l-0.9-4.7h-3.8l-0.9,4.7H21L25,173.5z M27.8,185.6l-1.6-8.4l-1.5,8.4H27.8z"/>
		<path fill="#FFFFFF" d="M33.3,173.5h3.7c1.9,0,3.3,0.4,4.2,1.2c0.9,0.8,1.3,2,1.3,3.8c0,2.4-0.8,3.8-2.3,4.3l2.6,9.3h-2.5
			l-2.4-8.7h-2v8.7h-2.6V173.5z M36.9,181.5c1.1,0,1.9-0.2,2.4-0.7c0.5-0.4,0.7-1.2,0.7-2.4c0-0.8-0.1-1.4-0.3-1.8
			c-0.2-0.4-0.5-0.8-0.9-1c-0.4-0.2-1-0.3-1.8-0.3h-1.1v6.2H36.9z"/>
		<path fill="#FFFFFF" d="M48.2,173.5h2.5l4,18.6h-2.5l-0.9-4.7h-3.8l-0.9,4.7h-2.4L48.2,173.5z M51,185.6l-1.6-8.4l-1.5,8.4H51z"/>
		<path fill="#FFFFFF" d="M61.9,173.5h4c2,0,3.4,0.5,4.3,1.4c0.8,0.9,1.3,2.4,1.3,4.3v6.9c0,2.1-0.4,3.6-1.2,4.6s-2.2,1.5-4.1,1.5
			h-4.3V173.5z M65.9,190.3c0.9,0,1.6-0.2,2-0.5c0.4-0.4,0.7-0.8,0.8-1.4c0.1-0.6,0.1-1.5,0.1-2.7v-6c0-1.1-0.1-1.9-0.2-2.4
			c-0.1-0.6-0.4-1-0.8-1.2c-0.4-0.3-1.1-0.4-1.9-0.4h-1.4v14.8H65.9z"/>
		<path fill="#FFFFFF" d="M74.1,173.5h2.6v18.6h-2.6V173.5z"/>
		<path fill="#FFFFFF" d="M79.7,173.5h7.2v1.9h-4.6v6.2h3.6v1.8h-3.6v8.7h-2.6V173.5z"/>
		<path fill="#FFFFFF" d="M90.4,191.6c-0.7-0.5-1.2-1.2-1.5-2.2c-0.3-0.9-0.4-2.1-0.4-3.5v-12.4H91V186c0,1.4,0.2,2.5,0.5,3.2
			c0.3,0.7,1,1.1,2,1.1c1,0,1.7-0.4,2-1.1c0.3-0.7,0.5-1.8,0.5-3.2v-12.5h2.5v12.4c0,1.4-0.1,2.6-0.4,3.5c-0.3,0.9-0.8,1.7-1.5,2.2
			c-0.7,0.5-1.7,0.8-3,0.8C92.2,192.3,91.2,192.1,90.4,191.6z"/>
		<path fill="#FFFFFF" d="M102,190.9c-0.8-1-1.3-2.3-1.4-4l2.3-0.6c0.1,1.2,0.3,2.2,0.7,2.9c0.4,0.7,1,1.1,1.9,1.1
			c0.7,0,1.2-0.2,1.5-0.6s0.5-0.9,0.5-1.6c0-0.8-0.2-1.4-0.5-1.9c-0.3-0.5-0.8-1.1-1.5-1.7l-3.1-2.8c-0.6-0.6-1.1-1.1-1.4-1.8
			c-0.3-0.6-0.4-1.4-0.4-2.3c0-1.4,0.4-2.4,1.2-3.2c0.8-0.8,1.8-1.1,3.2-1.1c1.5,0,2.6,0.4,3.3,1.2c0.8,0.8,1.2,2,1.4,3.6l-2.2,0.6
			c-0.1-1.1-0.3-1.9-0.6-2.5s-1-0.9-1.9-0.9c-0.7,0-1.2,0.2-1.5,0.5c-0.4,0.3-0.5,0.9-0.5,1.5c0,0.6,0.1,1,0.3,1.4
			c0.2,0.4,0.5,0.8,0.9,1.1l3.2,2.8c0.8,0.7,1.5,1.5,1.9,2.3c0.5,0.8,0.7,1.8,0.7,2.9c0,1.4-0.4,2.4-1.2,3.2s-1.9,1.2-3.2,1.2
			C104,192.3,102.8,191.9,102,190.9z"/>
		<path fill="#FFFFFF" d="M112.2,173.5h2.6v18.6h-2.6V173.5z"/>
		<path fill="#FFFFFF" d="M118.6,190.8c-0.8-1-1.2-2.5-1.2-4.5v-7.1c0-1.9,0.4-3.4,1.2-4.4c0.8-1,2.1-1.5,3.9-1.5
			c1.8,0,3.1,0.5,3.9,1.5c0.8,1,1.2,2.5,1.2,4.4v7.1c0,1.9-0.4,3.4-1.2,4.5c-0.8,1-2.1,1.6-3.9,1.6
			C120.7,192.3,119.4,191.8,118.6,190.8z M124.5,189.4c0.3-0.6,0.5-1.4,0.5-2.6v-8.2c0-1.1-0.2-2-0.5-2.5c-0.3-0.5-1-0.8-2-0.8
			c-1,0-1.6,0.3-2,0.8c-0.3,0.5-0.5,1.4-0.5,2.5v8.2c0,1.1,0.2,2,0.5,2.6c0.3,0.6,1,0.9,2,0.9C123.5,190.3,124.1,190,124.5,189.4z
			 M123.2,167.9h2.5l-2.6,4.6h-1.2L123.2,167.9z"/>
		<path fill="#FFFFFF" d="M130.1,173.5h1.8l5.3,12.4v-12.4h2.2v18.6h-1.7l-5.4-12.7v12.7h-2.2V173.5z"/>
		<path fill="#FFFFFF" d="M11.9,201.1h4c2,0,3.4,0.5,4.3,1.4s1.3,2.4,1.3,4.3v6.9c0,2.1-0.4,3.6-1.2,4.6c-0.8,1-2.2,1.5-4.1,1.5
			h-4.3V201.1z M15.9,217.9c0.9,0,1.6-0.2,2-0.5c0.4-0.4,0.7-0.8,0.8-1.4c0.1-0.6,0.1-1.5,0.1-2.7v-6c0-1.1-0.1-1.9-0.2-2.4
			c-0.1-0.6-0.4-1-0.8-1.2c-0.4-0.3-1.1-0.4-1.9-0.4h-1.4v14.8H15.9z"/>
		<path fill="#FFFFFF" d="M24,201.1h7.2v1.9h-4.6v6.2h3.7v1.8h-3.7v6.8h4.7v1.9H24V201.1z"/>
		<path fill="#FFFFFF" d="M39.4,218.3c-0.8-1.1-1.1-2.6-1.1-4.5v-6.6c0-2,0.4-3.6,1.1-4.6c0.7-1.1,2-1.6,3.9-1.6
			c1.7,0,2.9,0.5,3.6,1.4c0.7,0.9,1.1,2.2,1.1,4v1.5h-2.5v-1.3c0-0.9,0-1.5-0.1-2s-0.3-0.8-0.6-1.1c-0.3-0.3-0.8-0.4-1.5-0.4
			c-0.7,0-1.2,0.1-1.6,0.4c-0.3,0.3-0.6,0.7-0.7,1.2c-0.1,0.5-0.2,1.2-0.2,2.1v7.4c0,1,0.1,1.7,0.2,2.2s0.4,0.9,0.7,1.1
			c0.3,0.2,0.8,0.3,1.4,0.3c0.7,0,1.1-0.1,1.5-0.4c0.3-0.3,0.5-0.7,0.6-1.2c0.1-0.5,0.1-1.2,0.1-2.1v-1.4H48v1.4
			c0,1.9-0.3,3.3-1,4.3c-0.7,1-1.9,1.5-3.6,1.5C41.4,219.9,40.1,219.4,39.4,218.3z"/>
		<path fill="#FFFFFF" d="M51.3,218.4c-0.8-1-1.2-2.5-1.2-4.5v-7.1c0-1.9,0.4-3.4,1.2-4.4c0.8-1,2.1-1.5,3.9-1.5
			c1.8,0,3.1,0.5,3.9,1.5c0.8,1,1.2,2.5,1.2,4.4v7.1c0,1.9-0.4,3.4-1.2,4.5c-0.8,1-2.1,1.6-3.9,1.6
			C53.4,219.9,52.1,219.4,51.3,218.4z M57.2,217c0.3-0.6,0.5-1.4,0.5-2.6v-8.2c0-1.1-0.2-2-0.5-2.5c-0.3-0.5-1-0.8-2-0.8
			c-1,0-1.6,0.3-2,0.8c-0.3,0.5-0.5,1.4-0.5,2.5v8.2c0,1.2,0.2,2,0.5,2.6c0.3,0.6,1,0.9,2,0.9C56.2,217.9,56.8,217.6,57.2,217z"/>
		<path fill="#FFFFFF" d="M62.8,201.1h1.8l5.3,12.4v-12.4h2.2v18.6h-1.7L65.1,207v12.7h-2.2V201.1z"/>
		<path fill="#FFFFFF" d="M77,203h-3.2v-1.9h8.8v1.9h-3.1v16.7H77V203z"/>
		<path fill="#FFFFFF" d="M84.5,201.1h7.2v1.9h-4.6v6.2h3.7v1.8h-3.7v6.8h4.7v1.9h-7.3V201.1z"/>
		<path fill="#FFFFFF" d="M93.8,201.1h1.8l5.3,12.4v-12.4h2.2v18.6h-1.7L96.1,207v12.7h-2.2V201.1z"/>
		<path fill="#FFFFFF" d="M106.1,201.1h2.6v18.6h-2.6V201.1z"/>
		<path fill="#FFFFFF" d="M111.7,201.1h4c2,0,3.4,0.5,4.3,1.4s1.3,2.4,1.3,4.3v6.9c0,2.1-0.4,3.6-1.2,4.6c-0.8,1-2.2,1.5-4.1,1.5
			h-4.3V201.1z M115.8,217.9c0.9,0,1.6-0.2,2-0.5c0.4-0.4,0.7-0.8,0.8-1.4c0.1-0.6,0.1-1.5,0.1-2.7v-6c0-1.1-0.1-1.9-0.2-2.4
			c-0.1-0.6-0.4-1-0.8-1.2c-0.4-0.3-1.1-0.4-1.9-0.4h-1.4v14.8H115.8z"/>
		<path fill="#FFFFFF" d="M124.7,218.4c-0.8-1-1.2-2.5-1.2-4.5v-7.1c0-1.9,0.4-3.4,1.2-4.4c0.8-1,2.1-1.5,3.9-1.5
			c1.8,0,3.1,0.5,3.9,1.5c0.8,1,1.2,2.5,1.2,4.4v7.1c0,1.9-0.4,3.4-1.2,4.5c-0.8,1-2.1,1.6-3.9,1.6
			C126.8,219.9,125.4,219.4,124.7,218.4z M130.5,217c0.3-0.6,0.5-1.4,0.5-2.6v-8.2c0-1.1-0.2-2-0.5-2.5c-0.3-0.5-1-0.8-2-0.8
			c-1,0-1.6,0.3-2,0.8c-0.3,0.5-0.5,1.4-0.5,2.5v8.2c0,1.2,0.2,2,0.5,2.6s1,0.9,2,0.9C129.5,217.9,130.2,217.6,130.5,217z"/>
		<path fill="#FFFFFF" d="M137,218.5c-0.8-1-1.3-2.3-1.4-4l2.3-0.6c0.1,1.2,0.3,2.2,0.7,2.9c0.4,0.7,1,1.1,1.9,1.1
			c0.7,0,1.2-0.2,1.5-0.6c0.3-0.4,0.5-0.9,0.5-1.6c0-0.8-0.2-1.4-0.5-1.9s-0.8-1.1-1.5-1.7l-3.1-2.8c-0.6-0.6-1.1-1.1-1.4-1.8
			c-0.3-0.6-0.4-1.4-0.4-2.3c0-1.4,0.4-2.4,1.2-3.2c0.8-0.8,1.8-1.1,3.2-1.1c1.5,0,2.6,0.4,3.3,1.2c0.8,0.8,1.2,2,1.4,3.6l-2.2,0.6
			c-0.1-1.1-0.3-1.9-0.6-2.5c-0.3-0.6-1-0.9-1.9-0.9c-0.7,0-1.2,0.2-1.5,0.5c-0.4,0.3-0.5,0.9-0.5,1.5c0,0.6,0.1,1,0.3,1.4
			c0.2,0.4,0.5,0.8,0.9,1.1l3.2,2.8c0.8,0.7,1.5,1.5,1.9,2.3c0.5,0.8,0.7,1.8,0.7,2.9c0,1.4-0.4,2.4-1.2,3.2
			c-0.8,0.8-1.9,1.2-3.2,1.2C139,219.9,137.9,219.5,137,218.5z"/>
		<path fill="#FFFFFF" d="M146.6,221.7c0.4-0.1,0.7-0.4,1-0.7c0.2-0.3,0.4-0.8,0.4-1.2h-1.3v-2.6h2.5v2.6c0,0.8-0.2,1.5-0.5,1.9
			c-0.4,0.5-0.9,0.9-1.6,1.1L146.6,221.7z"/>
		<path fill="#FFFFFF" d="M11.9,228.7h4.6c1.6,0,2.8,0.4,3.5,1.3c0.7,0.9,1.1,2.2,1.1,3.8c0,1.5-0.4,2.7-1.2,3.5
			c-0.8,0.8-1.9,1.3-3.4,1.3h-2v8.7h-2.6V228.7z M15.6,236.8c0.8,0,1.4-0.1,1.8-0.3c0.4-0.2,0.7-0.5,0.9-0.9c0.2-0.4,0.3-1,0.3-1.8
			c0-1-0.1-1.6-0.2-2.1c-0.1-0.4-0.4-0.8-0.8-0.9c-0.4-0.2-1-0.3-1.9-0.3h-1.2v6.2H15.6z"/>
		<path fill="#FFFFFF" d="M22.9,228.7h3.7c1.9,0,3.3,0.4,4.2,1.2s1.3,2,1.3,3.8c0,2.4-0.8,3.8-2.3,4.3l2.6,9.3H30l-2.4-8.7h-2v8.7
			h-2.6V228.7z M26.5,236.7c1.1,0,1.9-0.2,2.4-0.7c0.5-0.4,0.7-1.3,0.7-2.4c0-0.8-0.1-1.4-0.3-1.8c-0.2-0.4-0.5-0.8-0.9-1
			s-1-0.3-1.8-0.3h-1.1v6.2H26.5z"/>
		<path fill="#FFFFFF" d="M35.7,246c-0.8-1-1.2-2.5-1.2-4.5v-7.1c0-1.9,0.4-3.4,1.2-4.4c0.8-1,2.1-1.5,3.9-1.5
			c1.8,0,3.1,0.5,3.9,1.5c0.8,1,1.2,2.5,1.2,4.4v7.1c0,1.9-0.4,3.4-1.2,4.5c-0.8,1-2.1,1.6-3.9,1.6C37.8,247.5,36.5,247,35.7,246z
			 M41.5,244.6c0.3-0.6,0.5-1.4,0.5-2.6v-8.2c0-1.1-0.2-2-0.5-2.5c-0.3-0.5-1-0.8-2-0.8c-1,0-1.6,0.3-2,0.8
			c-0.3,0.5-0.5,1.4-0.5,2.5v8.2c0,1.1,0.2,2,0.5,2.6c0.3,0.6,1,0.9,2,0.9C40.6,245.5,41.2,245.2,41.5,244.6z"/>
		<path fill="#FFFFFF" d="M48,246c-0.8-1.1-1.1-2.6-1.1-4.8V235c0-1.4,0.1-2.6,0.4-3.6c0.3-0.9,0.8-1.6,1.5-2.1
			c0.7-0.5,1.7-0.7,3-0.7c1.7,0,3,0.4,3.7,1.3s1.1,2.2,1.1,4.1v0.7h-2.4v-0.6c0-0.9-0.1-1.6-0.2-2.1c-0.1-0.5-0.3-0.8-0.7-1.1
			s-0.9-0.4-1.5-0.4c-0.7,0-1.3,0.2-1.6,0.5c-0.4,0.3-0.6,0.8-0.7,1.3c-0.1,0.6-0.1,1.3-0.1,2.2v6.9c0,1.4,0.2,2.4,0.5,3.1
			c0.3,0.6,1,0.9,2,0.9c1,0,1.6-0.3,2-1s0.5-1.8,0.5-3.2V240h-2.4v-1.8h4.7v9.2h-1.6l-0.3-2.1c-0.6,1.6-1.7,2.4-3.3,2.4
			C50,247.6,48.8,247,48,246z"/>
		<path fill="#FFFFFF" d="M59.5,228.7h3.7c1.9,0,3.3,0.4,4.2,1.2c0.9,0.8,1.3,2,1.3,3.8c0,2.4-0.8,3.8-2.3,4.3l2.6,9.3h-2.5
			l-2.4-8.7h-2v8.7h-2.6V228.7z M63.1,236.7c1.1,0,1.9-0.2,2.4-0.7c0.5-0.4,0.7-1.3,0.7-2.4c0-0.8-0.1-1.4-0.3-1.8
			c-0.2-0.4-0.5-0.8-0.9-1c-0.4-0.2-1-0.3-1.8-0.3h-1.2v6.2H63.1z"/>
		<path fill="#FFFFFF" d="M74.4,228.7h2.5l4,18.6h-2.5l-0.9-4.7h-3.8l-0.9,4.7h-2.4L74.4,228.7z M77.2,240.8l-1.6-8.4l-1.5,8.4H77.2
			z"/>
		<path fill="#FFFFFF" d="M83.1,228.7h2.6l3.3,15.1l3.3-15.1h2.5l0.3,18.6H93l-0.2-13.5l-3.2,13.5h-1.5l-3.1-13.5l-0.2,13.5h-2.1
			L83.1,228.7z"/>
		<path fill="#FFFFFF" d="M100.9,228.7h2.5l4,18.6h-2.5l-0.9-4.7h-3.8l-0.9,4.7H97L100.9,228.7z M103.7,240.8l-1.6-8.4l-1.5,8.4
			H103.7z"/>
		<path fill="#FFFFFF" d="M110.1,246.1c-0.8-1-1.3-2.3-1.4-4l2.3-0.6c0.1,1.2,0.3,2.2,0.7,2.9c0.4,0.7,1,1.1,1.9,1.1
			c0.7,0,1.2-0.2,1.5-0.6c0.3-0.4,0.5-0.9,0.5-1.6c0-0.8-0.2-1.4-0.5-1.9s-0.8-1.1-1.5-1.7l-3.1-2.8c-0.6-0.6-1.1-1.1-1.4-1.8
			c-0.3-0.6-0.4-1.4-0.4-2.3c0-1.4,0.4-2.4,1.2-3.2c0.8-0.8,1.8-1.1,3.2-1.1c1.5,0,2.6,0.4,3.3,1.2c0.8,0.8,1.2,2,1.4,3.6l-2.2,0.6
			c-0.1-1.1-0.3-1.9-0.6-2.5c-0.3-0.6-1-0.9-1.9-0.9c-0.7,0-1.2,0.2-1.5,0.5s-0.5,0.9-0.5,1.5c0,0.6,0.1,1,0.3,1.4
			c0.2,0.4,0.5,0.8,0.9,1.1l3.2,2.8c0.8,0.7,1.5,1.5,1.9,2.3c0.5,0.8,0.7,1.8,0.7,2.9c0,1.4-0.4,2.4-1.2,3.2
			c-0.8,0.8-1.9,1.2-3.2,1.2C112.1,247.5,110.9,247.1,110.1,246.1z"/>
		<path fill="#FFFFFF" d="M128.3,240.8l-4-12.1h2.4l2.9,9l2.8-9h2.4l-4,12.1v6.6h-2.5V240.8z"/>
		<path fill="#FFFFFF" d="M143.8,230.6h-3.2v-1.9h8.8v1.9h-3.1v16.7h-2.6V230.6z"/>
		<path fill="#FFFFFF" d="M154.2,228.7h2.5l4,18.6h-2.5l-0.9-4.7h-3.8l-0.9,4.7h-2.4L154.2,228.7z M157,240.8l-1.6-8.4l-1.5,8.4H157
			z"/>
		<path fill="#FFFFFF" d="M162.5,228.7h2.6v16.8h4.8v1.9h-7.4V228.7z"/>
		<path fill="#FFFFFF" d="M171.7,228.7h7.2v1.9h-4.6v6.2h3.7v1.8h-3.7v6.8h4.7v1.9h-7.3V228.7z"/>
		<path fill="#FFFFFF" d="M181,228.7h1.8l5.3,12.4v-12.4h2.2v18.6h-1.7l-5.4-12.7v12.7H181V228.7z"/>
		<path fill="#FFFFFF" d="M195.2,230.6h-3.2v-1.9h8.8v1.9h-3.1v16.7h-2.6V230.6z"/>
		<path fill="#FFFFFF" d="M203.5,246c-0.8-1-1.2-2.5-1.2-4.5v-7.1c0-1.9,0.4-3.4,1.2-4.4c0.8-1,2.1-1.5,3.9-1.5s3.1,0.5,3.9,1.5
			s1.2,2.5,1.2,4.4v7.1c0,1.9-0.4,3.4-1.2,4.5c-0.8,1-2.1,1.6-3.9,1.6C205.6,247.5,204.3,247,203.5,246z M209.4,244.6
			c0.3-0.6,0.5-1.4,0.5-2.6v-8.2c0-1.1-0.2-2-0.5-2.5s-1-0.8-2-0.8c-1,0-1.6,0.3-2,0.8c-0.3,0.5-0.5,1.4-0.5,2.5v8.2
			c0,1.1,0.2,2,0.5,2.6c0.3,0.6,1,0.9,2,0.9C208.4,245.5,209,245.2,209.4,244.6z"/>
		<path fill="#FFFFFF" d="M215.9,246.1c-0.8-1-1.3-2.3-1.4-4l2.3-0.6c0.1,1.2,0.3,2.2,0.7,2.9c0.4,0.7,1,1.1,1.9,1.1
			c0.7,0,1.2-0.2,1.5-0.6c0.3-0.4,0.5-0.9,0.5-1.6c0-0.8-0.2-1.4-0.5-1.9c-0.3-0.5-0.8-1.1-1.5-1.7l-3.1-2.8
			c-0.6-0.6-1.1-1.1-1.4-1.8c-0.3-0.6-0.4-1.4-0.4-2.3c0-1.4,0.4-2.4,1.2-3.2c0.8-0.8,1.8-1.1,3.2-1.1c1.5,0,2.6,0.4,3.3,1.2
			c0.8,0.8,1.2,2,1.4,3.6l-2.2,0.6c-0.1-1.1-0.3-1.9-0.6-2.5c-0.3-0.6-1-0.9-1.9-0.9c-0.7,0-1.2,0.2-1.5,0.5
			c-0.4,0.3-0.5,0.9-0.5,1.5c0,0.6,0.1,1,0.3,1.4c0.2,0.4,0.5,0.8,0.9,1.1l3.2,2.8c0.8,0.7,1.5,1.5,1.9,2.3c0.5,0.8,0.7,1.8,0.7,2.9
			c0,1.4-0.4,2.4-1.2,3.2c-0.8,0.8-1.9,1.2-3.2,1.2C217.9,247.5,216.7,247.1,215.9,246.1z"/>
	</g>
</g>
<g>
	<g>
		<path fill="#FFFFFF" d="M254.5,135.6c-0.8-1.1-1.3-2.6-1.3-4.5v-6.7c0-2,0.4-3.6,1.1-4.7c0.7-1.1,2.1-1.6,4-1.6
			c1.7,0,2.9,0.4,3.7,1.2c0.7,0.8,1.1,2,1.1,3.6l0,0.3h-3.6c0-0.8-0.1-1.4-0.2-1.7c-0.1-0.3-0.4-0.5-0.9-0.5c-0.4,0-0.6,0.1-0.8,0.3
			c-0.2,0.2-0.3,0.6-0.4,1.1s-0.1,1.3-0.1,2.3v1.7c0.2-0.3,0.5-0.6,0.9-0.8c0.4-0.2,0.9-0.3,1.5-0.3c1.3,0,2.3,0.5,3,1.5
			c0.6,1,0.9,2.3,0.9,3.9c0,2.1-0.4,3.7-1.2,4.9s-2.1,1.7-3.9,1.7C256.6,137.2,255.3,136.7,254.5,135.6z M259.4,133.7
			c0.1-0.5,0.2-1.3,0.2-2.4c0-0.8,0-1.3-0.1-1.7c0-0.4-0.2-0.7-0.3-0.9c-0.2-0.2-0.4-0.4-0.8-0.4c-0.3,0-0.5,0.1-0.7,0.2
			c-0.2,0.2-0.4,0.3-0.5,0.5v3c0,1.6,0.4,2.4,1.3,2.4C258.9,134.4,259.2,134.1,259.4,133.7z"/>
		<path fill="#FFFFFF" d="M254.3,163.1c-0.8-1.1-1.1-2.6-1.1-4.5V152c0-2,0.4-3.6,1.1-4.6s2-1.6,3.9-1.6c1.7,0,2.9,0.5,3.6,1.4
			c0.7,0.9,1.1,2.2,1.1,4v1.5h-2.5v-1.3c0-0.9,0-1.5-0.1-2c-0.1-0.5-0.3-0.8-0.6-1.1c-0.3-0.3-0.8-0.4-1.5-0.4
			c-0.7,0-1.2,0.1-1.6,0.4c-0.3,0.3-0.6,0.7-0.7,1.2c-0.1,0.5-0.2,1.2-0.2,2.1v7.4c0,1,0.1,1.7,0.2,2.2c0.2,0.5,0.4,0.9,0.7,1.1
			c0.3,0.2,0.8,0.3,1.4,0.3c0.7,0,1.1-0.1,1.5-0.4c0.3-0.3,0.5-0.7,0.6-1.2c0.1-0.5,0.1-1.2,0.1-2.1v-1.4h2.5v1.4
			c0,1.9-0.3,3.3-1,4.3c-0.7,1-1.9,1.5-3.6,1.5C256.3,164.7,255,164.2,254.3,163.1z"/>
		<path fill="#FFFFFF" d="M266.2,163.2c-0.8-1-1.2-2.5-1.2-4.5v-7.1c0-1.9,0.4-3.4,1.2-4.4c0.8-1,2.1-1.5,3.9-1.5
			c1.8,0,3.1,0.5,3.9,1.5c0.8,1,1.2,2.5,1.2,4.4v7.1c0,1.9-0.4,3.4-1.2,4.5c-0.8,1-2.1,1.6-3.9,1.6
			C268.3,164.7,266.9,164.2,266.2,163.2z M272,161.8c0.3-0.6,0.5-1.4,0.5-2.6v-8.2c0-1.1-0.2-2-0.5-2.5c-0.3-0.5-1-0.8-2-0.8
			c-1,0-1.6,0.3-2,0.8c-0.3,0.5-0.5,1.4-0.5,2.5v8.2c0,1.1,0.2,2,0.5,2.6c0.3,0.6,1,0.9,2,0.9C271,162.7,271.7,162.4,272,161.8z"/>
		<path fill="#FFFFFF" d="M278,145.9h2.6l3.3,15.1l3.3-15.1h2.5l0.3,18.6h-2.1l-0.2-13.5l-3.2,13.5h-1.5L280,151l-0.2,13.5h-2.1
			L278,145.9z"/>
		<path fill="#FFFFFF" d="M294.7,164c-0.7-0.5-1.2-1.2-1.5-2.2c-0.3-0.9-0.4-2.1-0.4-3.5v-12.4h2.5v12.5c0,1.4,0.2,2.5,0.5,3.2
			c0.3,0.7,1,1.1,2,1.1c1,0,1.7-0.4,2-1.1c0.3-0.7,0.5-1.8,0.5-3.2v-12.5h2.5v12.4c0,1.4-0.1,2.6-0.4,3.5c-0.3,0.9-0.8,1.7-1.5,2.2
			c-0.7,0.5-1.7,0.8-3,0.8S295.4,164.5,294.7,164z"/>
		<path fill="#FFFFFF" d="M305.4,145.9h1.8l5.3,12.4v-12.4h2.2v18.6H313l-5.4-12.7v12.7h-2.2V145.9z"/>
		<path fill="#FFFFFF" d="M317.7,145.9h2.6v18.6h-2.6V145.9z"/>
		<path fill="#FFFFFF" d="M324,163.1c-0.8-1.1-1.1-2.6-1.1-4.5V152c0-2,0.4-3.6,1.1-4.6c0.7-1.1,2-1.6,3.9-1.6
			c1.7,0,2.9,0.5,3.6,1.4c0.7,0.9,1.1,2.2,1.1,4v1.5h-2.5v-1.3c0-0.9,0-1.5-0.1-2c-0.1-0.5-0.3-0.8-0.6-1.1
			c-0.3-0.3-0.8-0.4-1.5-0.4c-0.7,0-1.2,0.1-1.6,0.4c-0.3,0.3-0.6,0.7-0.7,1.2c-0.1,0.5-0.2,1.2-0.2,2.1v7.4c0,1,0.1,1.7,0.2,2.2
			c0.2,0.5,0.4,0.9,0.7,1.1c0.3,0.2,0.8,0.3,1.4,0.3c0.7,0,1.2-0.1,1.5-0.4c0.3-0.3,0.5-0.7,0.6-1.2c0.1-0.5,0.1-1.2,0.1-2.1v-1.4
			h2.5v1.4c0,1.9-0.3,3.3-1,4.3c-0.7,1-1.9,1.5-3.6,1.5C326.1,164.7,324.8,164.2,324,163.1z"/>
		<path fill="#FFFFFF" d="M338,145.9h2.5l4,18.6H342l-0.9-4.7h-3.8l-0.9,4.7h-2.4L338,145.9z M340.8,158l-1.6-8.4l-1.5,8.4H340.8z"
			/>
		<path fill="#FFFFFF" d="M347.1,163.1c-0.8-1.1-1.1-2.6-1.1-4.5V152c0-2,0.4-3.6,1.1-4.6c0.7-1.1,2-1.6,3.9-1.6
			c1.7,0,2.9,0.5,3.6,1.4c0.7,0.9,1.1,2.2,1.1,4v1.5h-2.5v-1.3c0-0.9,0-1.5-0.1-2c-0.1-0.5-0.3-0.8-0.6-1.1s-0.8-0.4-1.5-0.4
			c-0.7,0-1.2,0.1-1.6,0.4c-0.3,0.3-0.6,0.7-0.7,1.2c-0.1,0.5-0.2,1.2-0.2,2.1v7.4c0,1,0.1,1.7,0.2,2.2c0.2,0.5,0.4,0.9,0.7,1.1
			c0.3,0.2,0.8,0.3,1.4,0.3c0.7,0,1.1-0.1,1.5-0.4c0.3-0.3,0.5-0.7,0.6-1.2c0.1-0.5,0.1-1.2,0.1-2.1v-1.4h2.5v1.4
			c0,1.9-0.3,3.3-1,4.3c-0.7,1-1.9,1.5-3.6,1.5C349.1,164.7,347.8,164.2,347.1,163.1z"/>
		<path fill="#FFFFFF" d="M358.3,145.9h2.6v18.6h-2.6V145.9z"/>
		<path fill="#FFFFFF" d="M364.7,163.2c-0.8-1-1.2-2.5-1.2-4.5v-7.1c0-1.9,0.4-3.4,1.2-4.4s2.1-1.5,3.9-1.5c1.8,0,3.1,0.5,3.9,1.5
			c0.8,1,1.2,2.5,1.2,4.4v7.1c0,1.9-0.4,3.4-1.2,4.5c-0.8,1-2.1,1.6-3.9,1.6C366.8,164.7,365.5,164.2,364.7,163.2z M370.6,161.8
			c0.3-0.6,0.5-1.4,0.5-2.6v-8.2c0-1.1-0.2-2-0.5-2.5c-0.3-0.5-1-0.8-2-0.8c-1,0-1.6,0.3-2,0.8c-0.3,0.5-0.5,1.4-0.5,2.5v8.2
			c0,1.1,0.2,2,0.5,2.6s1,0.9,2,0.9C369.6,162.7,370.2,162.4,370.6,161.8z M369.3,140.3h2.5l-2.6,4.6H368L369.3,140.3z"/>
		<path fill="#FFFFFF" d="M376.2,145.9h1.8l5.3,12.4v-12.4h2.2v18.6h-1.7l-5.4-12.7v12.7h-2.2V145.9z"/>
		<path fill="#FFFFFF" d="M253.5,173.5h4c2,0,3.4,0.5,4.3,1.4s1.3,2.4,1.3,4.3v6.9c0,2.1-0.4,3.6-1.2,4.6s-2.2,1.5-4.1,1.5h-4.3
			V173.5z M257.5,190.3c0.9,0,1.6-0.2,2-0.5c0.4-0.4,0.7-0.8,0.8-1.4c0.1-0.6,0.1-1.5,0.1-2.7v-6c0-1.1-0.1-1.9-0.2-2.4
			c-0.1-0.6-0.4-1-0.8-1.2c-0.4-0.3-1.1-0.4-1.9-0.4h-1.4v14.8H257.5z"/>
		<path fill="#FFFFFF" d="M265.6,173.5h7.2v1.9h-4.6v6.2h3.7v1.8h-3.7v6.8h4.7v1.9h-7.3V173.5z"/>
		<path fill="#FFFFFF" d="M275,173.5h2.6v16.8h4.8v1.9H275V173.5z"/>
		<path fill="#FFFFFF" d="M289.4,173.5h4.6c1.6,0,2.8,0.4,3.5,1.3s1.1,2.2,1.1,3.8c0,1.5-0.4,2.7-1.2,3.5c-0.8,0.8-1.9,1.3-3.4,1.3
			h-2v8.7h-2.6V173.5z M293.1,181.6c0.8,0,1.4-0.1,1.8-0.3c0.4-0.2,0.7-0.5,0.9-0.9c0.2-0.4,0.3-1,0.3-1.8c0-1-0.1-1.6-0.2-2.1
			c-0.1-0.4-0.4-0.8-0.8-0.9c-0.4-0.2-1-0.3-1.9-0.3H292v6.2H293.1z"/>
		<path fill="#FFFFFF" d="M300.4,173.5h3.7c1.9,0,3.3,0.4,4.2,1.2c0.9,0.8,1.3,2,1.3,3.8c0,2.4-0.8,3.8-2.3,4.3l2.6,9.3h-2.5
			l-2.4-8.7h-2v8.7h-2.6V173.5z M304,181.5c1.1,0,1.9-0.2,2.4-0.7c0.5-0.4,0.7-1.2,0.7-2.4c0-0.8-0.1-1.4-0.3-1.8
			c-0.2-0.4-0.5-0.8-0.9-1c-0.4-0.2-1-0.3-1.8-0.3H303v6.2H304z"/>
		<path fill="#FFFFFF" d="M312.5,173.5h2.6v18.6h-2.6V173.5z"/>
		<path fill="#FFFFFF" d="M318.3,173.5h2.6l3.3,15.1l3.3-15.1h2.5l0.3,18.6h-2.1l-0.2-13.5l-3.2,13.5h-1.5l-3.1-13.5l-0.2,13.5H318
			L318.3,173.5z"/>
		<path fill="#FFFFFF" d="M333.2,173.5h7.2v1.9h-4.6v6.2h3.7v1.8h-3.7v6.8h4.7v1.9h-7.3V173.5z"/>
		<path fill="#FFFFFF" d="M342.6,173.5h3.7c1.9,0,3.3,0.4,4.2,1.2s1.3,2,1.3,3.8c0,2.4-0.8,3.8-2.3,4.3l2.6,9.3h-2.5l-2.4-8.7h-2
			v8.7h-2.6V173.5z M346.2,181.5c1.1,0,1.9-0.2,2.4-0.7c0.5-0.4,0.7-1.2,0.7-2.4c0-0.8-0.1-1.4-0.3-1.8s-0.5-0.8-0.9-1
			s-1-0.3-1.8-0.3h-1.1v6.2H346.2z"/>
		<path fill="#FFFFFF" d="M254.3,218.5c-0.8-1-1.3-2.3-1.4-4l2.3-0.6c0.1,1.2,0.3,2.2,0.7,2.9c0.4,0.7,1,1.1,1.9,1.1
			c0.7,0,1.2-0.2,1.5-0.6c0.3-0.4,0.5-0.9,0.5-1.6c0-0.8-0.2-1.4-0.5-1.9c-0.3-0.5-0.8-1.1-1.5-1.7l-3.1-2.8
			c-0.6-0.6-1.1-1.1-1.4-1.8c-0.3-0.6-0.4-1.4-0.4-2.3c0-1.4,0.4-2.4,1.2-3.2c0.8-0.8,1.8-1.1,3.2-1.1c1.5,0,2.6,0.4,3.3,1.2
			c0.8,0.8,1.2,2,1.4,3.6l-2.2,0.6c-0.1-1.1-0.3-1.9-0.6-2.5c-0.3-0.6-1-0.9-1.9-0.9c-0.7,0-1.2,0.2-1.5,0.5
			c-0.4,0.3-0.5,0.9-0.5,1.5c0,0.6,0.1,1,0.3,1.4s0.5,0.8,0.9,1.1l3.2,2.8c0.8,0.7,1.5,1.5,1.9,2.3c0.5,0.8,0.7,1.8,0.7,2.9
			c0,1.4-0.4,2.4-1.2,3.2c-0.8,0.8-1.9,1.2-3.2,1.2C256.3,219.9,255.1,219.5,254.3,218.5z"/>
		<path fill="#FFFFFF" d="M266.1,219.2c-0.7-0.5-1.2-1.3-1.5-2.2c-0.3-0.9-0.4-2.1-0.4-3.5v-12.4h2.5v12.5c0,1.4,0.2,2.5,0.5,3.2
			c0.3,0.7,1,1.1,2,1.1c1,0,1.7-0.4,2-1.1c0.3-0.7,0.5-1.8,0.5-3.2v-12.5h2.5v12.4c0,1.4-0.1,2.6-0.4,3.5c-0.3,0.9-0.8,1.7-1.5,2.2
			c-0.7,0.5-1.7,0.8-3,0.8C267.9,219.9,266.8,219.7,266.1,219.2z"/>
		<path fill="#FFFFFF" d="M276.8,201.1h4.6c1.6,0,2.8,0.4,3.5,1.3c0.7,0.9,1.1,2.2,1.1,3.8c0,1.5-0.4,2.7-1.2,3.5
			c-0.8,0.8-1.9,1.3-3.4,1.3h-2v8.7h-2.6V201.1z M280.6,209.2c0.8,0,1.4-0.1,1.8-0.3s0.7-0.5,0.9-0.9s0.3-1,0.3-1.8
			c0-1-0.1-1.6-0.2-2.1c-0.1-0.4-0.4-0.8-0.8-0.9s-1-0.3-1.9-0.3h-1.2v6.2H280.6z"/>
		<path fill="#FFFFFF" d="M287.9,201.1h7.2v1.9h-4.6v6.2h3.7v1.8h-3.7v6.8h4.7v1.9h-7.3V201.1z"/>
		<path fill="#FFFFFF" d="M297.2,201.1h3.7c1.9,0,3.3,0.4,4.2,1.2c0.9,0.8,1.3,2,1.3,3.8c0,2.4-0.8,3.8-2.3,4.3l2.6,9.3h-2.5
			l-2.4-8.7h-2v8.7h-2.6V201.1z M300.8,209.1c1.1,0,1.9-0.2,2.4-0.7c0.5-0.4,0.7-1.2,0.7-2.4c0-0.8-0.1-1.4-0.3-1.8
			c-0.2-0.4-0.5-0.8-0.9-1c-0.4-0.2-1-0.3-1.8-0.3h-1.1v6.2H300.8z"/>
		<path fill="#FFFFFF" d="M310,218.3c-0.8-1.1-1.1-2.6-1.1-4.5v-6.6c0-2,0.4-3.6,1.1-4.6c0.7-1.1,2-1.6,3.9-1.6
			c1.7,0,2.9,0.5,3.6,1.4c0.7,0.9,1.1,2.2,1.1,4v1.5h-2.5v-1.3c0-0.9,0-1.5-0.1-2s-0.3-0.8-0.6-1.1c-0.3-0.3-0.8-0.4-1.5-0.4
			c-0.7,0-1.2,0.1-1.6,0.4c-0.3,0.3-0.6,0.7-0.7,1.2c-0.1,0.5-0.2,1.2-0.2,2.1v7.4c0,1,0.1,1.7,0.2,2.2s0.4,0.9,0.7,1.1
			c0.3,0.2,0.8,0.3,1.4,0.3c0.7,0,1.1-0.1,1.5-0.4c0.3-0.3,0.5-0.7,0.6-1.2c0.1-0.5,0.1-1.2,0.1-2.1v-1.4h2.5v1.4
			c0,1.9-0.3,3.3-1,4.3c-0.7,1-1.9,1.5-3.6,1.5C312,219.9,310.7,219.4,310,218.3z"/>
		<path fill="#FFFFFF" d="M321,201.1h2.6v16.8h4.8v1.9H321V201.1z"/>
		<path fill="#FFFFFF" d="M333.1,201.1h2.5l4,18.6h-2.5l-0.9-4.7h-3.8l-0.9,4.7h-2.4L333.1,201.1z M335.9,213.2l-1.6-8.4l-1.5,8.4
			H335.9z M335.1,195.4h2.5L335,200h-1.2L335.1,195.4z"/>
		<path fill="#FFFFFF" d="M342.3,218.5c-0.8-1-1.3-2.3-1.4-4l2.3-0.6c0.1,1.2,0.3,2.2,0.7,2.9s1,1.1,1.9,1.1c0.7,0,1.2-0.2,1.5-0.6
			c0.3-0.4,0.5-0.9,0.5-1.6c0-0.8-0.2-1.4-0.5-1.9c-0.3-0.5-0.8-1.1-1.5-1.7l-3.1-2.8c-0.6-0.6-1.1-1.1-1.4-1.8
			c-0.3-0.6-0.4-1.4-0.4-2.3c0-1.4,0.4-2.4,1.2-3.2c0.8-0.8,1.8-1.1,3.2-1.1c1.5,0,2.6,0.4,3.3,1.2c0.8,0.8,1.2,2,1.4,3.6l-2.2,0.6
			c-0.1-1.1-0.3-1.9-0.6-2.5c-0.3-0.6-1-0.9-1.9-0.9c-0.7,0-1.2,0.2-1.5,0.5c-0.4,0.3-0.5,0.9-0.5,1.5c0,0.6,0.1,1,0.3,1.4
			s0.5,0.8,0.9,1.1l3.2,2.8c0.8,0.7,1.5,1.5,1.9,2.3c0.5,0.8,0.7,1.8,0.7,2.9c0,1.4-0.4,2.4-1.2,3.2c-0.8,0.8-1.9,1.2-3.2,1.2
			C344.3,219.9,343.1,219.5,342.3,218.5z"/>
		<path fill="#FFFFFF" d="M352.5,201.1h2.6v18.6h-2.6V201.1z"/>
		<path fill="#FFFFFF" d="M358.8,218.3c-0.8-1.1-1.1-2.6-1.1-4.5v-6.6c0-2,0.4-3.6,1.1-4.6c0.7-1.1,2-1.6,3.9-1.6
			c1.7,0,2.9,0.5,3.6,1.4c0.7,0.9,1.1,2.2,1.1,4v1.5H365v-1.3c0-0.9,0-1.5-0.1-2s-0.3-0.8-0.6-1.1c-0.3-0.3-0.8-0.4-1.5-0.4
			c-0.7,0-1.2,0.1-1.6,0.4c-0.3,0.3-0.6,0.7-0.7,1.2c-0.1,0.5-0.2,1.2-0.2,2.1v7.4c0,1,0.1,1.7,0.2,2.2s0.4,0.9,0.7,1.1
			c0.3,0.2,0.8,0.3,1.4,0.3c0.7,0,1.1-0.1,1.5-0.4c0.3-0.3,0.5-0.7,0.6-1.2c0.1-0.5,0.1-1.2,0.1-2.1v-1.4h2.5v1.4
			c0,1.9-0.3,3.3-1,4.3c-0.7,1-1.9,1.5-3.6,1.5C360.9,219.9,359.6,219.4,358.8,218.3z"/>
		<path fill="#FFFFFF" d="M370.7,218.4c-0.8-1-1.2-2.5-1.2-4.5v-7.1c0-1.9,0.4-3.4,1.2-4.4c0.8-1,2.1-1.5,3.9-1.5
			c1.8,0,3.1,0.5,3.9,1.5c0.8,1,1.2,2.5,1.2,4.4v7.1c0,1.9-0.4,3.4-1.2,4.5c-0.8,1-2.1,1.6-3.9,1.6
			C372.8,219.9,371.5,219.4,370.7,218.4z M376.6,217c0.3-0.6,0.5-1.4,0.5-2.6v-8.2c0-1.1-0.2-2-0.5-2.5c-0.3-0.5-1-0.8-2-0.8
			c-1,0-1.6,0.3-2,0.8c-0.3,0.5-0.5,1.4-0.5,2.5v8.2c0,1.2,0.2,2,0.5,2.6c0.3,0.6,1,0.9,2,0.9C375.6,217.9,376.3,217.6,376.6,217z"
			/>
		<path fill="#FFFFFF" d="M387.6,201.1h7.2v1.9h-4.6v6.2h3.7v1.8h-3.7v6.8h4.7v1.9h-7.3V201.1z"/>
		<path fill="#FFFFFF" d="M396.9,201.1h1.8l5.3,12.4v-12.4h2.2v18.6h-1.7l-5.4-12.7v12.7h-2.2V201.1z"/>
		<path fill="#FFFFFF" d="M255.5,230.6h-3.2v-1.9h8.8v1.9h-3.1v16.7h-2.6V230.6z"/>
		<path fill="#FFFFFF" d="M263,228.7h1.8l5.3,12.4v-12.4h2.2v18.6h-1.7l-5.4-12.7v12.7H263V228.7z"/>
		<path fill="#FFFFFF" d="M277.2,230.6H274v-1.9h8.8v1.9h-3.1v16.7h-2.6V230.6z"/>
		<path fill="#FFFFFF" d="M290.7,246.1c-0.8-1-1.3-2.3-1.4-4l2.3-0.6c0.1,1.2,0.3,2.2,0.7,2.9c0.4,0.7,1,1.1,1.9,1.1
			c0.7,0,1.2-0.2,1.5-0.6c0.3-0.4,0.5-0.9,0.5-1.6c0-0.8-0.2-1.4-0.5-1.9s-0.8-1.1-1.5-1.7l-3.1-2.8c-0.6-0.6-1.1-1.1-1.4-1.8
			c-0.3-0.6-0.4-1.4-0.4-2.3c0-1.4,0.4-2.4,1.2-3.2c0.8-0.8,1.8-1.1,3.2-1.1c1.5,0,2.6,0.4,3.3,1.2c0.8,0.8,1.2,2,1.4,3.6l-2.2,0.6
			c-0.1-1.1-0.3-1.9-0.6-2.5c-0.3-0.6-1-0.9-1.9-0.9c-0.7,0-1.2,0.2-1.5,0.5c-0.4,0.3-0.5,0.9-0.5,1.5c0,0.6,0.1,1,0.3,1.4
			c0.2,0.4,0.5,0.8,0.9,1.1l3.2,2.8c0.8,0.7,1.5,1.5,1.9,2.3c0.5,0.8,0.7,1.8,0.7,2.9c0,1.4-0.4,2.4-1.2,3.2
			c-0.8,0.8-1.9,1.2-3.2,1.2C292.7,247.5,291.5,247.1,290.7,246.1z"/>
		<path fill="#FFFFFF" d="M300.8,228.7h4.6c1.6,0,2.8,0.4,3.5,1.3s1.1,2.2,1.1,3.8c0,1.5-0.4,2.7-1.2,3.5c-0.8,0.8-1.9,1.3-3.4,1.3
			h-2v8.7h-2.6V228.7z M304.6,236.8c0.8,0,1.4-0.1,1.8-0.3c0.4-0.2,0.7-0.5,0.9-0.9c0.2-0.4,0.3-1,0.3-1.8c0-1-0.1-1.6-0.2-2.1
			c-0.1-0.4-0.4-0.8-0.8-0.9c-0.4-0.2-1-0.3-1.9-0.3h-1.2v6.2H304.6z"/>
		<path fill="#FFFFFF" d="M312.6,246c-0.8-1-1.2-2.5-1.2-4.5v-7.1c0-1.9,0.4-3.4,1.2-4.4c0.8-1,2.1-1.5,3.9-1.5s3.1,0.5,3.9,1.5
			s1.2,2.5,1.2,4.4v7.1c0,1.9-0.4,3.4-1.2,4.5c-0.8,1-2.1,1.6-3.9,1.6C314.7,247.5,313.4,247,312.6,246z M318.5,244.6
			c0.3-0.6,0.5-1.4,0.5-2.6v-8.2c0-1.1-0.2-2-0.5-2.5s-1-0.8-2-0.8c-1,0-1.6,0.3-2,0.8c-0.3,0.5-0.5,1.4-0.5,2.5v8.2
			c0,1.1,0.2,2,0.5,2.6c0.3,0.6,1,0.9,2,0.9C317.5,245.5,318.2,245.2,318.5,244.6z"/>
		<path fill="#FFFFFF" d="M324.2,228.7h3.7c1.9,0,3.3,0.4,4.2,1.2c0.9,0.8,1.3,2,1.3,3.8c0,2.4-0.8,3.8-2.3,4.3l2.6,9.3h-2.5
			l-2.4-8.7h-2v8.7h-2.6V228.7z M327.8,236.7c1.1,0,1.9-0.2,2.4-0.7c0.5-0.4,0.7-1.3,0.7-2.4c0-0.8-0.1-1.4-0.3-1.8
			c-0.2-0.4-0.5-0.8-0.9-1c-0.4-0.2-1-0.3-1.8-0.3h-1.1v6.2H327.8z"/>
		<path fill="#FFFFFF" d="M338.2,230.6H335v-1.9h8.8v1.9h-3.1v16.7h-2.6V230.6z"/>
		<path fill="#FFFFFF" d="M346.4,246.1c-0.8-1-1.3-2.3-1.4-4l2.3-0.6c0.1,1.2,0.3,2.2,0.7,2.9c0.4,0.7,1,1.1,1.9,1.1
			c0.7,0,1.2-0.2,1.5-0.6c0.3-0.4,0.5-0.9,0.5-1.6c0-0.8-0.2-1.4-0.5-1.9c-0.3-0.5-0.8-1.1-1.5-1.7l-3.1-2.8
			c-0.6-0.6-1.1-1.1-1.4-1.8c-0.3-0.6-0.4-1.4-0.4-2.3c0-1.4,0.4-2.4,1.2-3.2c0.8-0.8,1.8-1.1,3.2-1.1c1.5,0,2.6,0.4,3.3,1.2
			c0.8,0.8,1.2,2,1.4,3.6L352,234c-0.1-1.1-0.3-1.9-0.6-2.5c-0.3-0.6-1-0.9-1.9-0.9c-0.7,0-1.2,0.2-1.5,0.5s-0.5,0.9-0.5,1.5
			c0,0.6,0.1,1,0.3,1.4c0.2,0.4,0.5,0.8,0.9,1.1l3.2,2.8c0.8,0.7,1.5,1.5,1.9,2.3c0.5,0.8,0.7,1.8,0.7,2.9c0,1.4-0.4,2.4-1.2,3.2
			c-0.8,0.8-1.9,1.2-3.2,1.2C348.5,247.5,347.3,247.1,346.4,246.1z"/>
	</g>
</g>
<g>
	<g>
		<path fill="#FFFFFF" d="M499.6,121.2h-5.1v-2.9h8.8v2.6l-4,16h-3.7L499.6,121.2z"/>
		<path fill="#FFFFFF" d="M496.3,163.1c-0.8-1.1-1.1-2.6-1.1-4.5V152c0-2,0.4-3.6,1.1-4.6s2-1.6,3.9-1.6c1.7,0,2.9,0.5,3.6,1.4
			c0.7,0.9,1.1,2.2,1.1,4v1.5h-2.5v-1.3c0-0.9,0-1.5-0.1-2s-0.3-0.8-0.6-1.1s-0.8-0.4-1.5-0.4c-0.7,0-1.2,0.1-1.6,0.4
			c-0.3,0.3-0.6,0.7-0.7,1.2c-0.1,0.5-0.2,1.2-0.2,2.1v7.4c0,1,0.1,1.7,0.2,2.2c0.2,0.5,0.4,0.9,0.7,1.1c0.3,0.2,0.8,0.3,1.4,0.3
			c0.7,0,1.2-0.1,1.5-0.4c0.3-0.3,0.5-0.7,0.6-1.2c0.1-0.5,0.1-1.2,0.1-2.1v-1.4h2.5v1.4c0,1.9-0.3,3.3-1,4.3
			c-0.7,1-1.9,1.5-3.6,1.5C498.3,164.7,497,164.2,496.3,163.1z"/>
		<path fill="#FFFFFF" d="M510.3,145.9h2.5l4,18.6h-2.5l-0.9-4.7h-3.8l-0.9,4.7h-2.4L510.3,145.9z M513.1,158l-1.6-8.4L510,158
			H513.1z"/>
		<path fill="#FFFFFF" d="M518.9,145.9h2.6l3.3,15.1l3.3-15.1h2.5l0.3,18.6h-2.1l-0.2-13.5l-3.2,13.5H524l-3.1-13.5l-0.2,13.5h-2.1
			L518.9,145.9z"/>
		<path fill="#FFFFFF" d="M533.8,145.9h4.6c1.6,0,2.8,0.4,3.5,1.3c0.7,0.9,1.1,2.2,1.1,3.8c0,1.5-0.4,2.7-1.2,3.5s-1.9,1.3-3.4,1.3
			h-2v8.7h-2.6V145.9z M537.6,154c0.8,0,1.4-0.1,1.8-0.3c0.4-0.2,0.7-0.5,0.9-0.9c0.2-0.4,0.3-1,0.3-1.8c0-1-0.1-1.6-0.2-2.1
			c-0.1-0.4-0.4-0.8-0.8-0.9c-0.4-0.2-1-0.3-1.9-0.3h-1.2v6.2H537.6z"/>
		<path fill="#FFFFFF" d="M546.9,145.9h2.5l4,18.6h-2.5l-0.9-4.7h-3.8l-0.9,4.7H543L546.9,145.9z M549.8,158l-1.6-8.4l-1.5,8.4
			H549.8z"/>
		<path fill="#FFFFFF" d="M555.3,145.9h1.8l5.3,12.4v-12.4h2.2v18.6h-1.7l-5.4-12.7v12.7h-2.2V145.9z M560.8,142.9
			c-0.3-0.1-0.5-0.3-0.9-0.5c-0.3-0.2-0.6-0.3-0.7-0.4c-0.2-0.1-0.4-0.1-0.6-0.1c-0.3,0-0.5,0.1-0.6,0.2c-0.1,0.1-0.2,0.4-0.2,0.7
			h-1.4c0-1.7,0.6-2.5,1.8-2.5c0.3,0,0.5,0,0.7,0.1c0.2,0.1,0.5,0.2,0.8,0.4c0.3,0.2,0.6,0.3,0.7,0.4c0.2,0.1,0.4,0.1,0.6,0.1
			c0.3,0,0.5-0.1,0.6-0.2c0.1-0.1,0.2-0.4,0.2-0.7h1.4c0,0.8-0.1,1.4-0.4,1.9c-0.3,0.5-0.7,0.7-1.3,0.7
			C561.4,143.1,561.1,143,560.8,142.9z"/>
		<path fill="#FFFFFF" d="M570.4,145.9h2.5l4,18.6h-2.5l-0.9-4.7h-3.8l-0.9,4.7h-2.4L570.4,145.9z M573.2,158l-1.6-8.4l-1.5,8.4
			H573.2z"/>
		<path fill="#FFFFFF" d="M495.5,173.5h4c2,0,3.4,0.5,4.3,1.4s1.3,2.4,1.3,4.3v6.9c0,2.1-0.4,3.6-1.2,4.6s-2.2,1.5-4.1,1.5h-4.3
			V173.5z M499.5,190.3c0.9,0,1.6-0.2,2-0.5c0.4-0.4,0.7-0.8,0.8-1.4c0.1-0.6,0.1-1.5,0.1-2.7v-6c0-1.1-0.1-1.9-0.2-2.4
			c-0.1-0.6-0.4-1-0.8-1.2c-0.4-0.3-1.1-0.4-1.9-0.4h-1.4v14.8H499.5z"/>
		<path fill="#FFFFFF" d="M507.6,173.5h7.2v1.9h-4.6v6.2h3.8v1.8h-3.8v6.8h4.7v1.9h-7.3V173.5z"/>
		<path fill="#FFFFFF" d="M523,190.7c-0.8-1.1-1.1-2.6-1.1-4.5v-6.6c0-2,0.4-3.6,1.1-4.6s2-1.6,3.9-1.6c1.7,0,2.9,0.5,3.6,1.4
			c0.7,0.9,1.1,2.2,1.1,4v1.5h-2.5v-1.3c0-0.9,0-1.5-0.1-2c-0.1-0.5-0.3-0.8-0.6-1.1s-0.8-0.4-1.5-0.4c-0.7,0-1.2,0.1-1.6,0.4
			c-0.3,0.3-0.6,0.7-0.7,1.2c-0.1,0.5-0.2,1.2-0.2,2.1v7.4c0,1,0.1,1.7,0.2,2.2c0.2,0.5,0.4,0.9,0.7,1.1c0.3,0.2,0.8,0.3,1.4,0.3
			c0.7,0,1.2-0.1,1.5-0.4c0.3-0.3,0.5-0.7,0.6-1.2c0.1-0.5,0.1-1.2,0.1-2.1v-1.4h2.5v1.4c0,1.9-0.3,3.3-1,4.3
			c-0.7,1-1.9,1.5-3.6,1.5C525.1,192.3,523.8,191.8,523,190.7z"/>
		<path fill="#FFFFFF" d="M534.9,190.8c-0.8-1-1.2-2.5-1.2-4.5v-7.1c0-1.9,0.4-3.4,1.2-4.4c0.8-1,2.1-1.5,3.9-1.5
			c1.8,0,3.1,0.5,3.9,1.5c0.8,1,1.2,2.5,1.2,4.4v7.1c0,1.9-0.4,3.4-1.2,4.5c-0.8,1-2.1,1.6-3.9,1.6
			C537,192.3,535.7,191.8,534.9,190.8z M540.8,189.4c0.3-0.6,0.5-1.4,0.5-2.6v-8.2c0-1.1-0.2-2-0.5-2.5c-0.3-0.5-1-0.8-2-0.8
			c-1,0-1.6,0.3-2,0.8c-0.3,0.5-0.5,1.4-0.5,2.5v8.2c0,1.1,0.2,2,0.5,2.6c0.3,0.6,1,0.9,2,0.9C539.8,190.3,540.4,190,540.8,189.4z"
			/>
		<path fill="#FFFFFF" d="M546.8,173.5h2.6l3.3,15.1l3.3-15.1h2.5l0.3,18.6h-2.1l-0.2-13.5l-3.2,13.5h-1.5l-3.1-13.5l-0.2,13.5h-2.1
			L546.8,173.5z"/>
		<path fill="#FFFFFF" d="M563.4,191.6c-0.7-0.5-1.2-1.2-1.5-2.2c-0.3-0.9-0.4-2.1-0.4-3.5v-12.4h2.5V186c0,1.4,0.2,2.5,0.5,3.2
			c0.3,0.7,1,1.1,2,1.1c1,0,1.7-0.4,2-1.1c0.3-0.7,0.5-1.8,0.5-3.2v-12.5h2.5v12.4c0,1.4-0.1,2.6-0.4,3.5c-0.3,0.9-0.8,1.7-1.5,2.2
			c-0.7,0.5-1.7,0.8-3,0.8C565.1,192.3,564.1,192.1,563.4,191.6z"/>
		<path fill="#FFFFFF" d="M574.1,173.5h1.8l5.3,12.4v-12.4h2.2v18.6h-1.7l-5.4-12.7v12.7h-2.2V173.5z"/>
		<path fill="#FFFFFF" d="M586.4,173.5h2.6v18.6h-2.6V173.5z"/>
		<path fill="#FFFFFF" d="M592.8,190.7c-0.8-1.1-1.1-2.6-1.1-4.5v-6.6c0-2,0.4-3.6,1.1-4.6c0.7-1.1,2-1.6,3.9-1.6
			c1.7,0,2.9,0.5,3.6,1.4c0.7,0.9,1.1,2.2,1.1,4v1.5h-2.5v-1.3c0-0.9,0-1.5-0.1-2c-0.1-0.5-0.3-0.8-0.6-1.1s-0.8-0.4-1.5-0.4
			c-0.7,0-1.2,0.1-1.6,0.4c-0.3,0.3-0.6,0.7-0.7,1.2c-0.1,0.5-0.2,1.2-0.2,2.1v7.4c0,1,0.1,1.7,0.2,2.2c0.2,0.5,0.4,0.9,0.7,1.1
			c0.3,0.2,0.8,0.3,1.4,0.3c0.7,0,1.1-0.1,1.5-0.4c0.3-0.3,0.5-0.7,0.6-1.2c0.1-0.5,0.1-1.2,0.1-2.1v-1.4h2.5v1.4
			c0,1.9-0.3,3.3-1,4.3c-0.7,1-1.9,1.5-3.6,1.5C594.8,192.3,593.5,191.8,592.8,190.7z"/>
		<path fill="#FFFFFF" d="M606.8,173.5h2.5l4,18.6h-2.5l-0.9-4.7h-3.8l-0.9,4.7h-2.4L606.8,173.5z M609.6,185.6l-1.6-8.4l-1.5,8.4
			H609.6z"/>
		<path fill="#FFFFFF" d="M615.8,190.7c-0.8-1.1-1.1-2.6-1.1-4.5v-6.6c0-2,0.4-3.6,1.1-4.6s2-1.6,3.9-1.6c1.7,0,2.9,0.5,3.6,1.4
			c0.7,0.9,1.1,2.2,1.1,4v1.5h-2.5v-1.3c0-0.9,0-1.5-0.1-2c-0.1-0.5-0.3-0.8-0.6-1.1s-0.8-0.4-1.5-0.4c-0.7,0-1.2,0.1-1.6,0.4
			c-0.3,0.3-0.6,0.7-0.7,1.2c-0.1,0.5-0.2,1.2-0.2,2.1v7.4c0,1,0.1,1.7,0.2,2.2c0.2,0.5,0.4,0.9,0.7,1.1s0.8,0.3,1.4,0.3
			c0.7,0,1.2-0.1,1.5-0.4c0.3-0.3,0.5-0.7,0.6-1.2c0.1-0.5,0.1-1.2,0.1-2.1v-1.4h2.5v1.4c0,1.9-0.3,3.3-1,4.3
			c-0.7,1-1.9,1.5-3.6,1.5C617.9,192.3,616.6,191.8,615.8,190.7z"/>
		<path fill="#FFFFFF" d="M627,173.5h2.6v18.6H627V173.5z"/>
		<path fill="#FFFFFF" d="M633.4,190.8c-0.8-1-1.2-2.5-1.2-4.5v-7.1c0-1.9,0.4-3.4,1.2-4.4c0.8-1,2.1-1.5,3.9-1.5
			c1.8,0,3.1,0.5,3.9,1.5c0.8,1,1.2,2.5,1.2,4.4v7.1c0,1.9-0.4,3.4-1.2,4.5c-0.8,1-2.1,1.6-3.9,1.6
			C635.5,192.3,634.2,191.8,633.4,190.8z M639.3,189.4c0.3-0.6,0.5-1.4,0.5-2.6v-8.2c0-1.1-0.2-2-0.5-2.5c-0.3-0.5-1-0.8-2-0.8
			c-1,0-1.6,0.3-2,0.8c-0.3,0.5-0.5,1.4-0.5,2.5v8.2c0,1.1,0.2,2,0.5,2.6c0.3,0.6,1,0.9,2,0.9C638.3,190.3,639,190,639.3,189.4z
			 M638.1,167.9h2.5l-2.6,4.6h-1.2L638.1,167.9z"/>
		<path fill="#FFFFFF" d="M645,173.5h1.8l5.3,12.4v-12.4h2.2v18.6h-1.7l-5.4-12.7v12.7H645V173.5z"/>
		<path fill="#FFFFFF" d="M495.5,201.1h4.6c1.6,0,2.8,0.4,3.5,1.3c0.7,0.9,1.1,2.2,1.1,3.8c0,1.5-0.4,2.7-1.2,3.5
			c-0.8,0.8-1.9,1.3-3.4,1.3h-2v8.7h-2.6V201.1z M499.3,209.2c0.8,0,1.4-0.1,1.8-0.3c0.4-0.2,0.7-0.5,0.9-0.9c0.2-0.4,0.3-1,0.3-1.8
			c0-1-0.1-1.6-0.2-2.1c-0.1-0.4-0.4-0.8-0.8-0.9c-0.4-0.2-1-0.3-1.9-0.3h-1.2v6.2H499.3z"/>
		<path fill="#FFFFFF" d="M508.6,201.1h2.5l4,18.6h-2.5l-0.9-4.7H508l-0.9,4.7h-2.4L508.6,201.1z M511.4,213.2l-1.6-8.4l-1.5,8.4
			H511.4z"/>
		<path fill="#FFFFFF" d="M517.6,218.3c-0.8-1.1-1.1-2.6-1.1-4.5v-6.6c0-2,0.4-3.6,1.1-4.6c0.7-1.1,2-1.6,3.9-1.6
			c1.7,0,2.9,0.5,3.6,1.4c0.7,0.9,1.1,2.2,1.1,4v1.5h-2.5v-1.3c0-0.9,0-1.5-0.1-2c-0.1-0.5-0.3-0.8-0.6-1.1
			c-0.3-0.3-0.8-0.4-1.5-0.4c-0.7,0-1.2,0.1-1.6,0.4c-0.3,0.3-0.6,0.7-0.7,1.2c-0.1,0.5-0.2,1.2-0.2,2.1v7.4c0,1,0.1,1.7,0.2,2.2
			c0.2,0.5,0.4,0.9,0.7,1.1c0.3,0.2,0.8,0.3,1.4,0.3c0.7,0,1.2-0.1,1.5-0.4c0.3-0.3,0.5-0.7,0.6-1.2c0.1-0.5,0.1-1.2,0.1-2.1v-1.4
			h2.5v1.4c0,1.9-0.3,3.3-1,4.3c-0.7,1-1.9,1.5-3.6,1.5C519.7,219.9,518.4,219.4,517.6,218.3z"/>
		<path fill="#FFFFFF" d="M528.7,201.1h2.6v8.8l4.3-8.8h2.4l-3.7,8.2l4.3,10.4h-2.5l-3.6-8.7l-1.2,2.2v6.6h-2.6V201.1z"/>
		<path fill="#FFFFFF" d="M545.4,201.1h7.2v1.9H548v6.2h3.6v1.8H548v8.7h-2.6V201.1z"/>
		<path fill="#FFFFFF" d="M556.1,219.2c-0.7-0.5-1.2-1.3-1.5-2.2c-0.3-0.9-0.4-2.1-0.4-3.5v-12.4h2.5v12.5c0,1.4,0.2,2.5,0.5,3.2
			c0.3,0.7,1,1.1,2,1.1c1,0,1.7-0.4,2-1.1c0.3-0.7,0.5-1.8,0.5-3.2v-12.5h2.5v12.4c0,1.4-0.1,2.6-0.4,3.5c-0.3,0.9-0.8,1.7-1.5,2.2
			c-0.7,0.5-1.7,0.8-3,0.8C557.9,219.9,556.8,219.7,556.1,219.2z M559.9,195.4h2.5l-2.6,4.6h-1.2L559.9,195.4z"/>
		<path fill="#FFFFFF" d="M568.9,203h-3.2v-1.9h8.8v1.9h-3.1v16.7h-2.6V203z"/>
		<path fill="#FFFFFF" d="M576.3,201.1h4.3c1.7,0,2.9,0.4,3.7,1.1c0.8,0.8,1.2,1.9,1.2,3.5c0,2.4-0.9,3.7-2.7,3.9
			c1.1,0.3,1.9,0.8,2.4,1.6s0.8,1.8,0.8,3.2c0,1.7-0.4,3-1.2,3.9c-0.8,0.9-2,1.4-3.6,1.4h-5V201.1z M580.5,208.9
			c1.1,0,1.8-0.2,2.2-0.7s0.6-1.3,0.6-2.4c0-0.8-0.1-1.4-0.4-1.8c-0.3-0.4-0.6-0.6-1.1-0.7c-0.5-0.1-1.3-0.2-2.3-0.2h-0.6v5.8H580.5
			z M580.7,217.9c0.8,0,1.4-0.1,1.8-0.4c0.4-0.2,0.7-0.6,0.9-1.1c0.2-0.5,0.3-1.2,0.3-2c0-1.2-0.2-2.1-0.7-2.7
			c-0.5-0.6-1.3-0.9-2.4-0.9h-1.5v7H580.7z"/>
		<path fill="#FFFFFF" d="M589.2,218.4c-0.8-1-1.2-2.5-1.2-4.5v-7.1c0-1.9,0.4-3.4,1.2-4.4c0.8-1,2.1-1.5,3.9-1.5s3.1,0.5,3.9,1.5
			c0.8,1,1.2,2.5,1.2,4.4v7.1c0,1.9-0.4,3.4-1.2,4.5c-0.8,1-2.1,1.6-3.9,1.6C591.3,219.9,590,219.4,589.2,218.4z M595.1,217
			c0.3-0.6,0.5-1.4,0.5-2.6v-8.2c0-1.1-0.2-2-0.5-2.5c-0.3-0.5-1-0.8-2-0.8c-1,0-1.6,0.3-2,0.8c-0.3,0.5-0.5,1.4-0.5,2.5v8.2
			c0,1.2,0.2,2,0.5,2.6c0.3,0.6,1,0.9,2,0.9C594.1,217.9,594.8,217.6,595.1,217z"/>
		<path fill="#FFFFFF" d="M600.8,201.1h2.6v16.8h4.8v1.9h-7.4V201.1z"/>
	</g>
</g>
<g>
	<g>
		<path fill="#FFFFFF" d="M738.1,135.7c-0.8-1-1.2-2.4-1.2-4.2c0-1,0.2-1.9,0.5-2.7s0.9-1.3,1.6-1.7c-0.5-0.4-1-1-1.3-1.7
			c-0.4-0.7-0.5-1.6-0.5-2.6c0-1.5,0.4-2.7,1.3-3.6s2-1.3,3.6-1.3s2.7,0.4,3.5,1.3c0.8,0.8,1.2,2,1.2,3.5c0,1.1-0.2,2-0.5,2.7
			c-0.3,0.7-0.8,1.3-1.3,1.6c0.7,0.4,1.3,0.9,1.6,1.7s0.5,1.7,0.5,2.8c0,1.7-0.4,3.1-1.2,4.1c-0.8,1-2.1,1.5-3.9,1.5
			C740.2,137.2,738.9,136.7,738.1,135.7z M742.9,133.9c0.2-0.3,0.3-0.7,0.3-1.1c0-0.4,0.1-0.9,0.1-1.5c0-0.8-0.1-1.4-0.3-1.9
			c-0.2-0.5-0.5-0.7-1-0.7c-0.5,0-0.9,0.3-1.1,0.8c-0.2,0.5-0.3,1.2-0.3,2.1c0,0.8,0.1,1.4,0.3,1.9c0.2,0.5,0.5,0.8,1.1,0.8
			C742.4,134.4,742.7,134.2,742.9,133.9z M743.2,123c0-0.6-0.1-1.1-0.3-1.5s-0.5-0.6-0.9-0.6c-0.4,0-0.7,0.2-0.9,0.5
			s-0.3,0.9-0.3,1.5c0,1.9,0.4,2.8,1.2,2.8C742.8,125.8,743.2,124.8,743.2,123z"/>
		<path fill="#FFFFFF" d="M737.5,145.9h7.2v1.9h-4.6v6.2h3.6v1.8h-3.6v8.7h-2.6V145.9z"/>
		<path fill="#FFFFFF" d="M746.6,145.9h2.6v18.6h-2.6V145.9z"/>
		<path fill="#FFFFFF" d="M752.2,145.9h1.8l5.3,12.4v-12.4h2.2v18.6h-1.7l-5.4-12.7v12.7h-2.2V145.9z"/>
		<path fill="#FFFFFF" d="M767.3,145.9h2.5l4,18.6h-2.5l-0.9-4.7h-3.8l-0.9,4.7h-2.4L767.3,145.9z M770.1,158l-1.6-8.4L767,158
			H770.1z"/>
		<path fill="#FFFFFF" d="M775.6,145.9h2.6v16.8h4.8v1.9h-7.4V145.9z"/>
		<path fill="#FFFFFF" d="M790,145.9h4c2,0,3.4,0.5,4.3,1.4s1.3,2.4,1.3,4.3v6.9c0,2.1-0.4,3.6-1.2,4.6s-2.2,1.5-4.1,1.5H790V145.9z
			 M794.1,162.7c0.9,0,1.6-0.2,2-0.5c0.4-0.4,0.7-0.8,0.8-1.4c0.1-0.6,0.1-1.5,0.1-2.7v-6c0-1.1-0.1-1.9-0.2-2.4
			c-0.1-0.6-0.4-1-0.8-1.2c-0.4-0.3-1.1-0.4-1.9-0.4h-1.4v14.8H794.1z"/>
		<path fill="#FFFFFF" d="M802.1,145.9h7.2v1.9h-4.6v6.2h3.7v1.8h-3.7v6.8h4.7v1.9h-7.3V145.9z"/>
		<path fill="#FFFFFF" d="M737.5,173.5h4.3c1.7,0,2.9,0.4,3.7,1.1c0.8,0.8,1.2,1.9,1.2,3.5c0,2.4-0.9,3.7-2.7,3.9
			c1.1,0.3,1.9,0.8,2.4,1.6c0.5,0.8,0.8,1.8,0.8,3.2c0,1.7-0.4,3-1.2,3.9c-0.8,0.9-2,1.4-3.6,1.4h-5V173.5z M741.6,181.3
			c1.1,0,1.8-0.2,2.2-0.7c0.4-0.5,0.6-1.3,0.6-2.4c0-0.8-0.1-1.4-0.4-1.8c-0.3-0.4-0.6-0.6-1.1-0.7c-0.5-0.1-1.3-0.2-2.3-0.2h-0.6
			v5.8H741.6z M741.8,190.3c0.8,0,1.4-0.1,1.8-0.4c0.4-0.2,0.7-0.6,0.9-1.1c0.2-0.5,0.3-1.2,0.3-2c0-1.2-0.2-2.1-0.7-2.7
			c-0.5-0.6-1.3-0.9-2.4-0.9h-1.5v7H741.8z"/>
		<path fill="#FFFFFF" d="M750.4,190.8c-0.8-1-1.2-2.5-1.2-4.5v-7.1c0-1.9,0.4-3.4,1.2-4.4c0.8-1,2.1-1.5,3.9-1.5
			c1.8,0,3.1,0.5,3.9,1.5c0.8,1,1.2,2.5,1.2,4.4v7.1c0,1.9-0.4,3.4-1.2,4.5c-0.8,1-2.1,1.6-3.9,1.6
			C752.5,192.3,751.2,191.8,750.4,190.8z M756.2,189.4c0.3-0.6,0.5-1.4,0.5-2.6v-8.2c0-1.1-0.2-2-0.5-2.5c-0.3-0.5-1-0.8-2-0.8
			c-1,0-1.6,0.3-2,0.8c-0.3,0.5-0.5,1.4-0.5,2.5v8.2c0,1.1,0.2,2,0.5,2.6c0.3,0.6,1,0.9,2,0.9C755.3,190.3,755.9,190,756.2,189.4z"
			/>
		<path fill="#FFFFFF" d="M761.9,173.5h1.8l5.3,12.4v-12.4h2.2v18.6h-1.7l-5.4-12.7v12.7h-2.2V173.5z"/>
		<path fill="#FFFFFF" d="M774.2,173.5h2.6v18.6h-2.6V173.5z"/>
		<path fill="#FFFFFF" d="M779.8,173.5h7.2v1.9h-4.6v6.2h3.6v1.8h-3.6v8.7h-2.6V173.5z"/>
		<path fill="#FFFFFF" d="M788.9,173.5h2.6v18.6h-2.6V173.5z"/>
		<path fill="#FFFFFF" d="M795.2,190.7c-0.8-1.1-1.1-2.6-1.1-4.5v-6.6c0-2,0.4-3.6,1.1-4.6c0.7-1.1,2-1.6,3.9-1.6
			c1.7,0,2.9,0.5,3.6,1.4c0.7,0.9,1.1,2.2,1.1,4v1.5h-2.5v-1.3c0-0.9,0-1.5-0.1-2s-0.3-0.8-0.6-1.1c-0.3-0.3-0.8-0.4-1.5-0.4
			c-0.7,0-1.2,0.1-1.6,0.4c-0.3,0.3-0.6,0.7-0.7,1.2c-0.1,0.5-0.2,1.2-0.2,2.1v7.4c0,1,0.1,1.7,0.2,2.2c0.2,0.5,0.4,0.9,0.7,1.1
			c0.3,0.2,0.8,0.3,1.4,0.3c0.7,0,1.2-0.1,1.5-0.4c0.3-0.3,0.5-0.7,0.6-1.2c0.1-0.5,0.1-1.2,0.1-2.1v-1.4h2.5v1.4
			c0,1.9-0.3,3.3-1,4.3c-0.7,1-1.9,1.5-3.6,1.5C797.3,192.3,796,191.8,795.2,190.7z"/>
		<path fill="#FFFFFF" d="M809.3,173.5h2.5l4,18.6h-2.5l-0.9-4.7h-3.8l-0.9,4.7h-2.4L809.3,173.5z M812.1,185.6l-1.6-8.4l-1.5,8.4
			H812.1z"/>
		<path fill="#FFFFFF" d="M818.3,190.7c-0.8-1.1-1.1-2.6-1.1-4.5v-6.6c0-2,0.4-3.6,1.1-4.6c0.7-1.1,2-1.6,3.9-1.6
			c1.7,0,2.9,0.5,3.6,1.4c0.7,0.9,1.1,2.2,1.1,4v1.5h-2.5v-1.3c0-0.9,0-1.5-0.1-2c-0.1-0.5-0.3-0.8-0.6-1.1s-0.8-0.4-1.5-0.4
			c-0.7,0-1.2,0.1-1.6,0.4c-0.3,0.3-0.6,0.7-0.7,1.2c-0.1,0.5-0.2,1.2-0.2,2.1v7.4c0,1,0.1,1.7,0.2,2.2c0.2,0.5,0.4,0.9,0.7,1.1
			c0.3,0.2,0.8,0.3,1.4,0.3c0.7,0,1.1-0.1,1.5-0.4c0.3-0.3,0.5-0.7,0.6-1.2c0.1-0.5,0.1-1.2,0.1-2.1v-1.4h2.5v1.4
			c0,1.9-0.3,3.3-1,4.3c-0.7,1-1.9,1.5-3.6,1.5C820.4,192.3,819.1,191.8,818.3,190.7z"/>
		<path fill="#FFFFFF" d="M829.5,173.5h2.6v18.6h-2.6V173.5z"/>
		<path fill="#FFFFFF" d="M835.9,190.8c-0.8-1-1.2-2.5-1.2-4.5v-7.1c0-1.9,0.4-3.4,1.2-4.4s2.1-1.5,3.9-1.5s3.1,0.5,3.9,1.5
			c0.8,1,1.2,2.5,1.2,4.4v7.1c0,1.9-0.4,3.4-1.2,4.5c-0.8,1-2.1,1.6-3.9,1.6C838,192.3,836.7,191.8,835.9,190.8z M841.8,189.4
			c0.3-0.6,0.5-1.4,0.5-2.6v-8.2c0-1.1-0.2-2-0.5-2.5c-0.3-0.5-1-0.8-2-0.8c-1,0-1.6,0.3-2,0.8c-0.3,0.5-0.5,1.4-0.5,2.5v8.2
			c0,1.1,0.2,2,0.5,2.6c0.3,0.6,1,0.9,2,0.9C840.8,190.3,841.5,190,841.8,189.4z M840.6,167.9h2.5l-2.6,4.6h-1.2L840.6,167.9z"/>
		<path fill="#FFFFFF" d="M847.5,173.5h1.8l5.3,12.4v-12.4h2.2v18.6H855l-5.4-12.7v12.7h-2.2V173.5z"/>
		<path fill="#FFFFFF" d="M867.7,185.6l-4-12.1h2.4l2.9,9l2.8-9h2.4l-4,12.1v6.6h-2.5V185.6z"/>
		<path fill="#FFFFFF" d="M738.3,218.3c-0.8-1.1-1.1-2.6-1.1-4.5v-6.6c0-2,0.4-3.6,1.1-4.6c0.7-1.1,2-1.6,3.9-1.6
			c1.7,0,2.9,0.5,3.6,1.4c0.7,0.9,1.1,2.2,1.1,4v1.5h-2.5v-1.3c0-0.9,0-1.5-0.1-2s-0.3-0.8-0.6-1.1c-0.3-0.3-0.8-0.4-1.5-0.4
			c-0.7,0-1.2,0.1-1.6,0.4c-0.3,0.3-0.6,0.7-0.7,1.2c-0.1,0.5-0.2,1.2-0.2,2.1v7.4c0,1,0.1,1.7,0.2,2.2s0.4,0.9,0.7,1.1
			c0.3,0.2,0.8,0.3,1.4,0.3c0.7,0,1.2-0.1,1.5-0.4c0.3-0.3,0.5-0.7,0.6-1.2c0.1-0.5,0.1-1.2,0.1-2.1v-1.4h2.5v1.4
			c0,1.9-0.3,3.3-1,4.3c-0.7,1-1.9,1.5-3.6,1.5C740.3,219.9,739,219.4,738.3,218.3z"/>
		<path fill="#FFFFFF" d="M750.2,218.4c-0.8-1-1.2-2.5-1.2-4.5v-7.1c0-1.9,0.4-3.4,1.2-4.4c0.8-1,2.1-1.5,3.9-1.5
			c1.8,0,3.1,0.5,3.9,1.5c0.8,1,1.2,2.5,1.2,4.4v7.1c0,1.9-0.4,3.4-1.2,4.5c-0.8,1-2.1,1.6-3.9,1.6
			C752.3,219.9,750.9,219.4,750.2,218.4z M756,217c0.3-0.6,0.5-1.4,0.5-2.6v-8.2c0-1.1-0.2-2-0.5-2.5c-0.3-0.5-1-0.8-2-0.8
			c-1,0-1.6,0.3-2,0.8c-0.3,0.5-0.5,1.4-0.5,2.5v8.2c0,1.2,0.2,2,0.5,2.6c0.3,0.6,1,0.9,2,0.9C755,217.9,755.7,217.6,756,217z"/>
		<path fill="#FFFFFF" d="M761.7,201.1h1.8l5.3,12.4v-12.4h2.2v18.6h-1.7l-5.4-12.7v12.7h-2.2V201.1z"/>
		<path fill="#FFFFFF" d="M773.9,201.1h7.2v1.9h-4.6v6.2h3.6v1.8h-3.6v8.7h-2.6V201.1z"/>
		<path fill="#FFFFFF" d="M782.9,201.1h2.6v16.8h4.8v1.9h-7.4V201.1z"/>
		<path fill="#FFFFFF" d="M792.1,201.1h2.6v18.6h-2.6V201.1z"/>
		<path fill="#FFFFFF" d="M798.5,218.3c-0.8-1.1-1.1-2.6-1.1-4.5v-6.6c0-2,0.4-3.6,1.1-4.6c0.7-1.1,2-1.6,3.9-1.6
			c1.7,0,2.9,0.5,3.6,1.4c0.7,0.9,1.1,2.2,1.1,4v1.5h-2.5v-1.3c0-0.9,0-1.5-0.1-2s-0.3-0.8-0.6-1.1c-0.3-0.3-0.8-0.4-1.5-0.4
			c-0.7,0-1.2,0.1-1.6,0.4c-0.3,0.3-0.6,0.7-0.7,1.2c-0.1,0.5-0.2,1.2-0.2,2.1v7.4c0,1,0.1,1.7,0.2,2.2s0.4,0.9,0.7,1.1
			c0.3,0.2,0.8,0.3,1.4,0.3c0.7,0,1.2-0.1,1.5-0.4c0.3-0.3,0.5-0.7,0.6-1.2c0.1-0.5,0.1-1.2,0.1-2.1v-1.4h2.5v1.4
			c0,1.9-0.3,3.3-1,4.3c-0.7,1-1.9,1.5-3.6,1.5C800.5,219.9,799.2,219.4,798.5,218.3z"/>
		<path fill="#FFFFFF" d="M811.6,203h-3.2v-1.9h8.8v1.9h-3.1v16.7h-2.6V203z"/>
		<path fill="#FFFFFF" d="M819.9,218.4c-0.8-1-1.2-2.5-1.2-4.5v-7.1c0-1.9,0.4-3.4,1.2-4.4c0.8-1,2.1-1.5,3.9-1.5
			c1.8,0,3.1,0.5,3.9,1.5c0.8,1,1.2,2.5,1.2,4.4v7.1c0,1.9-0.4,3.4-1.2,4.5c-0.8,1-2.1,1.6-3.9,1.6
			C822,219.9,820.7,219.4,819.9,218.4z M825.7,217c0.3-0.6,0.5-1.4,0.5-2.6v-8.2c0-1.1-0.2-2-0.5-2.5c-0.3-0.5-1-0.8-2-0.8
			c-1,0-1.6,0.3-2,0.8c-0.3,0.5-0.5,1.4-0.5,2.5v8.2c0,1.2,0.2,2,0.5,2.6s1,0.9,2,0.9C824.8,217.9,825.4,217.6,825.7,217z"/>
		<path fill="#FFFFFF" d="M837.5,218.3c-0.8-1.1-1.1-2.6-1.1-4.5v-6.6c0-2,0.4-3.6,1.1-4.6c0.7-1.1,2-1.6,3.9-1.6
			c1.7,0,2.9,0.5,3.6,1.4c0.7,0.9,1.1,2.2,1.1,4v1.5h-2.5v-1.3c0-0.9,0-1.5-0.1-2c-0.1-0.5-0.3-0.8-0.6-1.1
			c-0.3-0.3-0.8-0.4-1.5-0.4c-0.7,0-1.2,0.1-1.6,0.4c-0.3,0.3-0.6,0.7-0.7,1.2c-0.1,0.5-0.2,1.2-0.2,2.1v7.4c0,1,0.1,1.7,0.2,2.2
			s0.4,0.9,0.7,1.1c0.3,0.2,0.8,0.3,1.4,0.3c0.7,0,1.1-0.1,1.5-0.4c0.3-0.3,0.5-0.7,0.6-1.2c0.1-0.5,0.1-1.2,0.1-2.1v-1.4h2.5v1.4
			c0,1.9-0.3,3.3-1,4.3c-0.7,1-1.9,1.5-3.6,1.5C839.5,219.9,838.2,219.4,837.5,218.3z"/>
		<path fill="#FFFFFF" d="M849.4,218.4c-0.8-1-1.2-2.5-1.2-4.5v-7.1c0-1.9,0.4-3.4,1.2-4.4c0.8-1,2.1-1.5,3.9-1.5s3.1,0.5,3.9,1.5
			c0.8,1,1.2,2.5,1.2,4.4v7.1c0,1.9-0.4,3.4-1.2,4.5c-0.8,1-2.1,1.6-3.9,1.6C851.5,219.9,850.2,219.4,849.4,218.4z M855.3,217
			c0.3-0.6,0.5-1.4,0.5-2.6v-8.2c0-1.1-0.2-2-0.5-2.5c-0.3-0.5-1-0.8-2-0.8c-1,0-1.6,0.3-2,0.8c-0.3,0.5-0.5,1.4-0.5,2.5v8.2
			c0,1.2,0.2,2,0.5,2.6c0.3,0.6,1,0.9,2,0.9C854.3,217.9,854.9,217.6,855.3,217z"/>
		<path fill="#FFFFFF" d="M860.9,201.1h1.8l5.3,12.4v-12.4h2.2v18.6h-1.7l-5.4-12.7v12.7h-2.2V201.1z"/>
		<path fill="#FFFFFF" d="M880.4,203h-3.2v-1.9h8.8v1.9H883v16.7h-2.6V203z"/>
		<path fill="#FFFFFF" d="M887.8,201.1h4c2,0,3.4,0.5,4.3,1.4c0.8,0.9,1.3,2.4,1.3,4.3v6.9c0,2.1-0.4,3.6-1.2,4.6
			c-0.8,1-2.2,1.5-4.1,1.5h-4.3V201.1z M891.9,217.9c0.9,0,1.6-0.2,2-0.5c0.4-0.4,0.7-0.8,0.8-1.4c0.1-0.6,0.1-1.5,0.1-2.7v-6
			c0-1.1-0.1-1.9-0.2-2.4c-0.1-0.6-0.4-1-0.8-1.2c-0.4-0.3-1.1-0.4-1.9-0.4h-1.4v14.8H891.9z"/>
		<path fill="#FFFFFF" d="M902.9,201.1h2.5l4,18.6h-2.5l-0.9-4.7h-3.8l-0.9,4.7H899L902.9,201.1z M905.7,213.2l-1.6-8.4l-1.5,8.4
			H905.7z"/>
	</g>
</g>
<g>
</g>
<g>
</g>
<g>
</g>
<g>
</g>
<g>
</g>
<g>
</g>
<g>
</g>
<g>
</g>
<g>
</g>
<g>
</g>
<g>
</g>
<g>
</g>
<g>
</g>
<g>
</g>
<g>
</g>
</svg>
