<?xml version="1.0" encoding="utf-8"?>
<!-- Generator: Adobe Illustrator 18.0.0, SVG Export Plug-In . SVG Version: 6.00 Build 0)  -->
<!DOCTYPE svg PUBLIC "-//W3C//DTD SVG 1.1//EN" "http://www.w3.org/Graphics/SVG/1.1/DTD/svg11.dtd">
<svg version="1.1" id="Capa_1" xmlns="http://www.w3.org/2000/svg" xmlns:xlink="http://www.w3.org/1999/xlink" x="0px" y="0px"
	 viewBox="0 0 956.5 224" enable-background="new 0 0 956.5 224" xml:space="preserve">
<rect x="0" fill="#FFFFFF" width="253.2" height="109"/>
<rect x="263.6" fill="#0000F5" width="266.5" height="109"/>
<rect x="541.1" fill="#FFFFFF" width="415.4" height="109"/>
<rect x="0" y="114.9" fill="#FFFFFF" width="473.9" height="109"/>
<rect x="481.6" y="114.9" fill="#0000F5" width="474.9" height="109"/>
<g>
	<path fill="#0000F5" d="M37.7,21.4H50L59,70h-9.9l-1.6-10.3h-7.1L38.7,70H28.5L37.7,21.4z M46.5,53.3l-2.6-19l-2.6,19H46.5z"/>
	<path fill="#0000F5" d="M63.9,21.4h13.4c5.3,0,9.3,0.9,12.1,2.8c2.7,1.9,4.1,5.2,4.1,10c0,3.2-0.4,5.8-1.3,7.7
		c-0.8,1.9-2.4,3.4-4.7,4.5L94.2,70H83.1l-5.3-21.8h-3.1V70H63.9V21.4z M77.7,42c2.2,0,3.7-0.6,4.5-1.7c0.9-1.1,1.3-2.9,1.3-5.1
		c0-2.2-0.4-3.8-1.2-5c-0.8-1.1-2.2-1.7-4.1-1.7h-3.5V42H77.7z"/>
	<path fill="#0000F5" d="M99.9,21.4h13.4c5.3,0,9.3,0.9,12.1,2.8c2.7,1.9,4.1,5.2,4.1,10c0,3.2-0.4,5.8-1.3,7.7
		c-0.8,1.9-2.4,3.4-4.7,4.5l6.7,23.5h-11.1l-5.3-21.8h-3.1V70H99.9V21.4z M113.7,42c2.2,0,3.7-0.6,4.5-1.7c0.9-1.1,1.3-2.9,1.3-5.1
		c0-2.2-0.4-3.8-1.2-5c-0.8-1.1-2.2-1.7-4.1-1.7h-3.5V42H113.7z"/>
	<path fill="#0000F5" d="M138.2,66.7c-2.2-2.7-3.4-6.7-3.4-12V36.6c0-5.3,1.1-9.2,3.4-11.9c2.2-2.7,6-4,11.2-4c5.3,0,9,1.3,11.3,4
		c2.3,2.7,3.4,6.6,3.4,11.9v18.1c0,5.3-1.1,9.3-3.4,12c-2.3,2.7-6,4-11.3,4C144.2,70.7,140.5,69.4,138.2,66.7z M152.4,61.6
		c0.5-1,0.7-2.4,0.7-4.2V34c0-1.8-0.2-3.2-0.7-4.2c-0.5-1-1.5-1.5-3-1.5c-1.4,0-2.4,0.5-2.9,1.5c-0.5,1-0.7,2.4-0.7,4.2v23.4
		c0,1.8,0.2,3.2,0.7,4.2c0.4,1,1.4,1.5,2.9,1.5C151,63.1,152,62.6,152.4,61.6z"/>
	<path fill="#0000F5" d="M168.7,21.4h9.1l2.9,28.3l3.7-28.3h7.1l3.8,28.1l2.9-28.1h9L201.5,70h-9.4L188,40.6L184.1,70h-9.5
		L168.7,21.4z"/>
</g>
<g>
	<path fill="#0000F5" d="M30.9,139.2h13.4c5.3,0,9.3,0.9,12.1,2.8c2.7,1.9,4.1,5.2,4.1,10c0,3.2-0.4,5.8-1.3,7.7
		c-0.8,1.9-2.4,3.4-4.7,4.5l6.7,23.5H50L44.7,166h-3.1v21.8H30.9V139.2z M44.6,159.9c2.2,0,3.7-0.6,4.5-1.7c0.9-1.1,1.3-2.9,1.3-5.1
		c0-2.2-0.4-3.8-1.2-5c-0.8-1.1-2.2-1.7-4.1-1.7h-3.5v13.4H44.6z"/>
	<path fill="#0000F5" d="M66.9,139.2h10.7v48.6H66.9V139.2z"/>
	<path fill="#0000F5" d="M82.7,139.2h9.2l5.2,33l4.9-33h9.7l-8.9,48.6H91.4L82.7,139.2z"/>
	<path fill="#0000F5" d="M116.5,139.2h21.8v7.3h-11.1v12.1h8.5v7.4h-8.5v14.5h11.2v7.3h-22V139.2z"/>
	<path fill="#0000F5" d="M143.3,139.2h13.4c5.3,0,9.3,0.9,12.1,2.8c2.7,1.9,4.1,5.2,4.1,10c0,3.2-0.4,5.8-1.3,7.7
		c-0.8,1.9-2.4,3.4-4.7,4.5l6.7,23.5h-11.1l-5.3-21.8h-3.1v21.8h-10.7V139.2z M157.1,159.9c2.2,0,3.7-0.6,4.5-1.7
		c0.9-1.1,1.3-2.9,1.3-5.1c0-2.2-0.4-3.8-1.2-5c-0.8-1.1-2.2-1.7-4.1-1.7h-3.5v13.4H157.1z"/>
	<path fill="#0000F5" d="M179.3,139.2h12.3c4.2,0,7.5,0.5,9.8,1.6c2.4,1,4,2.7,5,4.9c1,2.2,1.5,5.2,1.5,8.9v17.6
		c0,3.8-0.5,6.8-1.5,9c-1,2.2-2.6,3.9-5,5s-5.6,1.6-9.8,1.6h-12.4V139.2z M191.7,180.4c1.6,0,2.7-0.2,3.5-0.7c0.7-0.5,1.2-1.1,1.4-2
		c0.2-0.9,0.3-2.1,0.3-3.8v-21.2c0-1.6-0.1-2.7-0.3-3.6c-0.2-0.8-0.7-1.4-1.4-1.8c-0.7-0.4-1.9-0.6-3.5-0.6h-1.6v33.7H191.7z"/>
	<path fill="#0000F5" d="M220.7,139.2h12.2l9.1,48.6h-9.9l-1.6-10.3h-7.1l-1.7,10.3h-10.1L220.7,139.2z M229.4,171.1l-2.6-19
		l-2.6,19H229.4z"/>
	<path fill="#0000F5" d="M246.9,139.2h10.7v41.3h11.2v7.3h-21.9V139.2z"/>
	<path fill="#0000F5" d="M273.5,139.2h21.8v7.3h-11.1v12.1h8.5v7.4h-8.5v14.5h11.2v7.3h-22V139.2z"/>
</g>
<g>
	<path fill="#FFFFFF" d="M519.7,147.2h-7.3v-8h25.4v8h-7.3v40.6h-10.8V147.2z"/>
	<path fill="#FFFFFF" d="M542.2,139.2h10.7v19.7h7.5v-19.7h10.8v48.6h-10.8v-21.2h-7.5v21.2h-10.7V139.2z"/>
	<path fill="#FFFFFF" d="M578.6,139.2h21.8v7.3h-11.1v12.1h8.5v7.4h-8.5v14.5h11.2v7.3h-22V139.2z"/>
	<path fill="#FFFFFF" d="M625.2,149.1c-0.4,0.2-1.6,0.8-3.5,1.6c-0.3,0.1-0.8,0.3-1.5,0.6c-0.7,0.3-1.2,0.5-1.7,0.8v-7.4
		c4.8-2.5,7.7-4.3,8.8-5.4h7.9v48.6h-10V149.1z"/>
	<path fill="#FFFFFF" d="M647.2,184.9c-2.3-2.5-3.4-5.9-3.4-10.1v-22c0-4.4,1.1-7.9,3.3-10.5c2.2-2.5,5.5-3.8,9.9-3.8
		c4.4,0,7.7,1.3,9.9,3.8c2.2,2.5,3.3,6,3.3,10.5v22c0,4.2-1.2,7.6-3.5,10.1c-2.3,2.5-5.5,3.8-9.8,3.8
		C652.8,188.7,649.5,187.5,647.2,184.9z M659.5,178.2c0.4-1,0.6-2.3,0.6-3.7V153c0-1.6-0.2-2.9-0.5-4c-0.3-1.1-1.2-1.6-2.5-1.6
		s-2.2,0.5-2.5,1.6c-0.3,1-0.5,2.4-0.5,4v21.5c0,3.5,1,5.2,3,5.2C658.3,179.8,659.1,179.3,659.5,178.2z"/>
	<path fill="#FFFFFF" d="M680.2,184.9c-2.3-2.5-3.4-5.9-3.4-10.1v-22c0-4.4,1.1-7.9,3.3-10.5c2.2-2.5,5.5-3.8,9.9-3.8
		c4.4,0,7.7,1.3,9.9,3.8c2.2,2.5,3.3,6,3.3,10.5v22c0,4.2-1.2,7.6-3.5,10.1c-2.3,2.5-5.5,3.8-9.8,3.8
		C685.8,188.7,682.5,187.5,680.2,184.9z M692.5,178.2c0.4-1,0.6-2.3,0.6-3.7V153c0-1.6-0.2-2.9-0.5-4c-0.3-1.1-1.2-1.6-2.5-1.6
		s-2.2,0.5-2.5,1.6c-0.3,1-0.5,2.4-0.5,4v21.5c0,3.5,1,5.2,3,5.2C691.3,179.8,692.1,179.3,692.5,178.2z"/>
</g>
<g>
	<path fill="#FFFFFF" d="M311.3,21.4h21v7.3h-10.3v12.2h8.9v7.5h-8.9V70h-10.7V21.4z"/>
	<path fill="#FFFFFF" d="M337.4,21.4h10.7v41.3h11.2V70h-21.9V21.4z"/>
	<path fill="#FFFFFF" d="M370.8,21.4H383l9.1,48.6h-9.9l-1.6-10.3h-7.1L371.7,70h-10.1L370.8,21.4z M379.5,53.3l-2.6-19l-2.6,19
		H379.5z"/>
	<path fill="#FFFFFF" d="M399.1,67c-2.3-2.5-3.5-6.4-3.6-11.7l9.2-1.4c0,3.1,0.4,5.3,1.1,6.6c0.7,1.3,1.7,2,3.1,2
		c1.8,0,2.7-1.2,2.7-3.5c0-1.9-0.4-3.5-1.3-4.9c-0.9-1.4-2.2-2.8-4-4.4l-4.2-3.7c-2.1-1.8-3.7-3.6-4.8-5.6c-1.1-2-1.7-4.3-1.7-7
		c0-4.1,1.2-7.2,3.6-9.4c2.4-2.2,5.8-3.3,10-3.3c4.6,0,7.7,1.3,9.4,4c1.7,2.7,2.6,5.9,2.7,9.8l-9.2,1.1c-0.1-2.5-0.3-4.3-0.7-5.4
		c-0.4-1.1-1.2-1.7-2.5-1.7c-0.9,0-1.6,0.4-2.1,1.2c-0.5,0.8-0.8,1.7-0.8,2.6c0,1.6,0.4,3,1.1,4.1c0.7,1.1,1.9,2.4,3.6,3.8l4,3.5
		c2.4,2,4.3,4.2,5.6,6.5s2,5,2,8.1c0,2.3-0.5,4.4-1.6,6.2c-1.1,1.9-2.5,3.3-4.5,4.4s-4.1,1.6-6.7,1.6
		C404.8,70.7,401.3,69.5,399.1,67z"/>
	<path fill="#FFFFFF" d="M427.5,21.4h10.7v19.7h7.5V21.4h10.8V70h-10.8V48.7h-7.5V70h-10.7V21.4z"/>
</g>
<g>
	<path fill="#0000F5" d="M560,68.5c-2.3-2.5-3.5-6.4-3.6-11.7l9.2-1.4c0,3.1,0.4,5.3,1.1,6.6c0.7,1.3,1.8,2,3.2,2
		c1.8,0,2.7-1.2,2.7-3.5c0-1.9-0.4-3.5-1.3-4.9c-0.9-1.4-2.2-2.8-4-4.4l-4.2-3.7c-2.1-1.8-3.7-3.6-4.8-5.6s-1.7-4.3-1.7-7
		c0-4.1,1.2-7.2,3.6-9.4c2.4-2.2,5.8-3.3,10-3.3c4.6,0,7.7,1.3,9.4,4c1.7,2.7,2.5,5.9,2.7,9.8l-9.2,1.1c-0.1-2.5-0.3-4.3-0.7-5.4
		c-0.4-1.1-1.2-1.7-2.5-1.7c-0.9,0-1.6,0.4-2.1,1.2c-0.5,0.8-0.8,1.7-0.8,2.6c0,1.6,0.4,3,1.1,4.1c0.7,1.1,1.9,2.4,3.6,3.8l4,3.5
		c2.4,2,4.3,4.2,5.6,6.5c1.3,2.3,2,5,2,8.1c0,2.3-0.5,4.4-1.6,6.2c-1.1,1.9-2.5,3.3-4.5,4.4s-4.1,1.6-6.7,1.6
		C565.8,72.2,562.3,71,560,68.5z"/>
	<path fill="#0000F5" d="M593.7,70.4c-2.1-1.2-3.6-2.9-4.5-5.2c-0.9-2.3-1.3-5.2-1.3-8.8V22.9h10.6V58c0,2,0.2,3.5,0.8,4.7
		c0.5,1.2,1.5,1.7,3,1.7s2.5-0.6,3-1.7c0.5-1.2,0.7-2.7,0.7-4.7V22.9h10.7v33.5c0,3.6-0.4,6.5-1.3,8.8c-0.9,2.3-2.4,4-4.5,5.2
		c-2.1,1.2-5,1.8-8.6,1.8S595.9,71.6,593.7,70.4z"/>
	<path fill="#0000F5" d="M623.6,22.9h16.3c4.3,0,7.5,1.2,9.6,3.6c2.1,2.4,3.2,5.9,3.2,10.5c0,5.2-1.2,8.8-3.7,10.8s-5.9,3-10.3,3
		h-4.3v20.6h-10.7V22.9z M638,43.3c1.9,0,3.1-0.5,3.8-1.5c0.6-1,0.9-2.7,0.9-5c0-2.2-0.3-3.8-0.9-4.8c-0.6-1-1.9-1.6-3.8-1.6h-3.5
		v12.9H638z"/>
	<path fill="#0000F5" d="M657.9,22.9h21.8v7.3h-11.1v12.1h8.5v7.4h-8.5v14.5h11.2v7.3h-22V22.9z"/>
	<path fill="#0000F5" d="M684.7,22.9h13.4c5.3,0,9.3,0.9,12.1,2.8c2.7,1.9,4.1,5.2,4.1,10c0,3.2-0.4,5.8-1.3,7.7
		c-0.8,1.9-2.4,3.4-4.7,4.5l6.7,23.5h-11.1l-5.3-21.8h-3.1v21.8h-10.7V22.9z M698.4,43.5c2.2,0,3.7-0.6,4.5-1.7
		c0.9-1.1,1.3-2.9,1.3-5.1c0-2.2-0.4-3.8-1.2-5c-0.8-1.1-2.2-1.7-4.1-1.7h-3.5v13.4H698.4z"/>
	<path fill="#0000F5" d="M720.7,22.9h7.6l10,23.4V22.9h8.9v48.6h-7.3l-10-25.2v25.2h-9.2V22.9z"/>
	<path fill="#0000F5" d="M761.2,22.9h12.2l9.1,48.6h-9.9L771,61.2h-7.1l-1.7,10.3H752L761.2,22.9z M770,54.8l-2.6-19l-2.6,19H770z"
		/>
	<path fill="#0000F5" d="M789.2,30.9h-7.3v-8h25.4v8H800v40.6h-10.8V30.9z"/>
	<path fill="#0000F5" d="M816.9,70.4c-2.1-1.2-3.6-2.9-4.5-5.2c-0.9-2.3-1.3-5.2-1.3-8.8V22.9h10.6V58c0,2,0.2,3.5,0.8,4.7
		c0.5,1.2,1.5,1.7,3,1.7s2.5-0.6,3-1.7c0.5-1.2,0.7-2.7,0.7-4.7V22.9H840v33.5c0,3.6-0.4,6.5-1.3,8.8c-0.9,2.3-2.4,4-4.5,5.2
		c-2.1,1.2-5,1.8-8.6,1.8S819.1,71.6,816.9,70.4z"/>
	<path fill="#0000F5" d="M846.8,22.9h13.4c5.3,0,9.3,0.9,12.1,2.8c2.7,1.9,4.1,5.2,4.1,10c0,3.2-0.4,5.8-1.3,7.7
		c-0.8,1.9-2.4,3.4-4.7,4.5l6.7,23.5H866l-5.3-21.8h-3.1v21.8h-10.7V22.9z M860.6,43.5c2.2,0,3.7-0.6,4.5-1.7
		c0.9-1.1,1.3-2.9,1.3-5.1c0-2.2-0.4-3.8-1.2-5c-0.8-1.1-2.2-1.7-4.1-1.7h-3.5v13.4H860.6z"/>
	<path fill="#0000F5" d="M889.7,22.9h12.2l9.1,48.6h-9.9l-1.6-10.3h-7.1l-1.7,10.3h-10.1L889.7,22.9z M898.4,54.8l-2.6-19l-2.6,19
		H898.4z"/>
	<path fill="#0000F5" d="M915.9,22.9h10.7v41.3h11.2v7.3h-21.9V22.9z"/>
</g>
<g>
</g>
<g>
</g>
<g>
</g>
<g>
</g>
<g>
</g>
<g>
</g>
<g>
</g>
<g>
</g>
<g>
</g>
<g>
</g>
<g>
</g>
<g>
</g>
<g>
</g>
<g>
</g>
<g>
</g>
</svg>
