<?xml version="1.0" encoding="utf-8"?>
<!-- Generator: Adobe Illustrator 18.0.0, SVG Export Plug-In . SVG Version: 6.00 Build 0)  -->
<!DOCTYPE svg PUBLIC "-//W3C//DTD SVG 1.1//EN" "http://www.w3.org/Graphics/SVG/1.1/DTD/svg11.dtd">
<svg version="1.1" id="Capa_1" xmlns="http://www.w3.org/2000/svg" xmlns:xlink="http://www.w3.org/1999/xlink" x="0px" y="0px"
	 viewBox="0 0 712.2 168.8" enable-background="new 0 0 712.2 168.8" xml:space="preserve">
<g>
	<rect x="0" y="0" fill="#0000F5" width="228.2" height="168.8"/>
	<rect x="242" y="0" fill="#0000F5" width="228.2" height="168.8"/>
	<rect x="484.1" y="0" fill="#0000F5" width="228.2" height="168.8"/>
	<g>
		<g>
			<path fill="#FFFFFF" d="M265.4,54.7h4.7v18h4.9v3.2h-9.5V54.7z"/>
			<path fill="#FFFFFF" d="M279.9,54.7h5.3l3.9,21.1h-4.3l-0.7-4.5h-3.1l-0.7,4.5h-4.4L279.9,54.7z M283.7,68.6l-1.1-8.2l-1.1,8.2
				H283.7z"/>
			<path fill="#FFFFFF" d="M292.1,58.2h-3.2v-3.5h11v3.5h-3.2v17.7h-4.7V58.2z"/>
			<path fill="#FFFFFF" d="M301.8,54.7h4.7v21.1h-4.7V54.7z"/>
			<path fill="#FFFFFF" d="M309.7,54.7h3.3l4.3,10.2V54.7h3.9v21.1H318l-4.3-11v11h-4V54.7z"/>
			<path fill="#FFFFFF" d="M266.4,103.9c-0.9-1.3-1.3-3.1-1.3-5.4v-7.1c0-2.4,0.5-4.2,1.4-5.5s2.6-1.9,4.9-1.9
				c2.2,0,3.8,0.5,4.8,1.6s1.4,2.6,1.4,4.6v1.4H273v-1.7c0-0.8-0.1-1.5-0.3-1.9s-0.6-0.6-1.3-0.6c-0.7,0-1.1,0.2-1.3,0.7
				c-0.2,0.5-0.3,1.1-0.3,2v9.8c0,0.8,0.1,1.5,0.4,2c0.3,0.5,0.7,0.7,1.4,0.7c1.2,0,1.8-0.9,1.8-2.7v-2.5h-1.9v-2.7h6.1v11h-3.1
				l-0.3-1.7c-0.7,1.4-1.8,2.1-3.4,2.1C268.8,105.8,267.3,105.2,266.4,103.9z"/>
			<path fill="#FFFFFF" d="M280.6,84.3h5.8c2.3,0,4.1,0.4,5.2,1.2c1.2,0.8,1.8,2.3,1.8,4.4c0,1.4-0.2,2.5-0.5,3.4
				c-0.4,0.8-1,1.5-2,2l2.9,10.2h-4.8l-2.3-9.5h-1.3v9.5h-4.7V84.3z M286.5,93.3c0.9,0,1.6-0.2,2-0.7s0.6-1.2,0.6-2.2
				c0-1-0.2-1.7-0.5-2.2c-0.3-0.5-0.9-0.7-1.8-0.7h-1.5v5.8H286.5z"/>
			<path fill="#FFFFFF" d="M299.2,84.3h5.3l3.9,21.1h-4.3l-0.7-4.5h-3.1l-0.7,4.5h-4.4L299.2,84.3z M303,98.2l-1.1-8.2l-1.1,8.2H303
				z"/>
			<path fill="#FFFFFF" d="M310.9,84.3h5l2.3,12.3l2.5-12.3h4.8l0.4,21.1h-3.3l-0.4-14.1l-2.5,14.1h-3l-2.6-14.2l-0.3,14.2h-3.4
				L310.9,84.3z"/>
			<path fill="#FFFFFF" d="M329.3,84.3h5l2.3,12.3l2.5-12.3h4.8l0.4,21.1H341l-0.4-14.1l-2.5,14.1h-3l-2.6-14.2l-0.3,14.2h-3.4
				L329.3,84.3z"/>
			<path fill="#FFFFFF" d="M349.8,96.8l-4-12.5h4.4l2,6.7l1.8-6.7h4.2l-3.9,12.5v8.6h-4.5V96.8z"/>
		</g>
	</g>
	<g>
		<g>
			<path fill="#FFFFFF" d="M496.4,54.7h9.5v3.2H501v5.2h3.7v3.2H501v6.3h4.9v3.2h-9.6V54.7z"/>
			<path fill="#FFFFFF" d="M508.3,54.7h5l2.3,12.3l2.5-12.3h4.8l0.4,21.1H520l-0.4-14.1l-2.5,14.1h-3l-2.6-14.2l-0.3,14.2h-3.4
				L508.3,54.7z"/>
			<path fill="#FFFFFF" d="M526.7,54.7h5L534,67l2.5-12.3h4.8l0.4,21.1h-3.3L538,61.8l-2.5,14.1h-3L530,61.7l-0.3,14.2h-3.4
				L526.7,54.7z"/>
			<path fill="#FFFFFF" d="M547.2,67.2l-4-12.5h4.4l2,6.7l1.8-6.7h4.2l-3.9,12.5v8.6h-4.5V67.2z"/>
			<path fill="#FFFFFF" d="M499.3,84.3h5.3l3.9,21.1h-4.3l-0.7-4.5h-3.1l-0.7,4.5h-4.4L499.3,84.3z M503.1,98.2L502,90l-1.1,8.2
				H503.1z"/>
			<path fill="#FFFFFF" d="M509.4,84.3h4l1.3,12.3l1.6-12.3h3.1l1.7,12.2l1.3-12.2h3.9l-2.5,21.1h-4.1l-1.8-12.8l-1.7,12.8H512
				L509.4,84.3z"/>
			<path fill="#FFFFFF" d="M530.9,84.3h5.3l3.9,21.1h-4.3l-0.7-4.5H532l-0.7,4.5h-4.4L530.9,84.3z M534.7,98.2l-1.1-8.2l-1.1,8.2
				H534.7z"/>
			<path fill="#FFFFFF" d="M542.3,84.3h5.8c2.3,0,4.1,0.4,5.2,1.2c1.2,0.8,1.8,2.3,1.8,4.4c0,1.4-0.2,2.5-0.5,3.4
				c-0.4,0.8-1,1.5-2,2l2.9,10.2h-4.8l-2.3-9.5H547v9.5h-4.7V84.3z M548.3,93.3c0.9,0,1.6-0.2,2-0.7s0.6-1.2,0.6-2.2
				c0-1-0.2-1.7-0.5-2.2c-0.3-0.5-0.9-0.7-1.8-0.7H547v5.8H548.3z"/>
			<path fill="#FFFFFF" d="M558,84.3h5.4c1.8,0,3.3,0.2,4.3,0.7c1,0.5,1.8,1.2,2.2,2.1c0.4,1,0.6,2.3,0.6,3.9v7.7
				c0,1.6-0.2,2.9-0.6,3.9c-0.4,1-1.1,1.7-2.2,2.2c-1,0.5-2.4,0.7-4.2,0.7H558V84.3z M563.4,102.2c0.7,0,1.2-0.1,1.5-0.3
				c0.3-0.2,0.5-0.5,0.6-0.9s0.1-0.9,0.1-1.7v-9.2c0-0.7,0-1.2-0.1-1.6c-0.1-0.4-0.3-0.6-0.6-0.8c-0.3-0.2-0.8-0.3-1.5-0.3h-0.7
				v14.6H563.4z"/>
			<path fill="#FFFFFF" d="M574.4,104.2c-1-1.1-1.5-2.8-1.6-5.1l4-0.6c0,1.3,0.2,2.3,0.5,2.9c0.3,0.6,0.8,0.9,1.4,0.9
				c0.8,0,1.2-0.5,1.2-1.5c0-0.8-0.2-1.5-0.6-2.1c-0.4-0.6-1-1.2-1.8-1.9l-1.8-1.6c-0.9-0.8-1.6-1.6-2.1-2.4s-0.7-1.9-0.7-3.1
				c0-1.8,0.5-3.1,1.6-4.1c1.1-1,2.5-1.4,4.3-1.4c2,0,3.4,0.6,4.1,1.7s1.1,2.6,1.2,4.3l-4,0.5c0-1.1-0.1-1.9-0.3-2.4
				c-0.2-0.5-0.5-0.7-1.1-0.7c-0.4,0-0.7,0.2-0.9,0.5c-0.2,0.3-0.3,0.7-0.3,1.1c0,0.7,0.2,1.3,0.5,1.8s0.8,1,1.6,1.7l1.7,1.5
				c1,0.9,1.9,1.8,2.4,2.8c0.6,1,0.9,2.2,0.9,3.5c0,1-0.2,1.9-0.7,2.7c-0.5,0.8-1.1,1.4-1.9,1.9c-0.8,0.5-1.8,0.7-2.9,0.7
				C576.8,105.8,575.3,105.3,574.4,104.2z"/>
		</g>
	</g>
	<g>
		<path fill="#FFFFFF" d="M18.3,27.3h7.1c1.9,0,3.3,0.5,4.2,1.6s1.4,2.6,1.4,4.6c0,2.3-0.5,3.8-1.6,4.7s-2.6,1.3-4.5,1.3H23v9h-4.7
			V27.3z M24.6,36.2c0.8,0,1.4-0.2,1.6-0.7c0.3-0.4,0.4-1.2,0.4-2.2c0-0.9-0.1-1.6-0.4-2.1c-0.3-0.5-0.8-0.7-1.7-0.7H23v5.6H24.6z"
			/>
		<path fill="#FFFFFF" d="M33.2,27.3h5.8c2.3,0,4.1,0.4,5.2,1.2c1.2,0.8,1.8,2.3,1.8,4.4c0,1.4-0.2,2.5-0.5,3.4c-0.4,0.8-1,1.5-2,2
			l2.9,10.2h-4.8L39.3,39h-1.3v9.5h-4.7V27.3z M39.2,36.3c0.9,0,1.6-0.2,2-0.7c0.4-0.5,0.6-1.2,0.6-2.2c0-1-0.2-1.7-0.5-2.2
			c-0.3-0.5-0.9-0.7-1.8-0.7h-1.5v5.8H39.2z"/>
		<path fill="#FFFFFF" d="M48.9,27.3h9.5v3.2h-4.8v5.2h3.7V39h-3.7v6.3h4.9v3.2h-9.6V27.3z"/>
		<path fill="#FFFFFF" d="M60.9,27.3h5l2.3,12.3l2.5-12.3h4.8l0.4,21.1h-3.3l-0.4-14.1l-2.5,14.1h-3l-2.6-14.2l-0.3,14.2h-3.4
			L60.9,27.3z"/>
		<path fill="#FFFFFF" d="M79,27.3h4.7v21.1H79V27.3z"/>
		<path fill="#FFFFFF" d="M88,47c-1-1.2-1.5-2.9-1.5-5.2v-7.9c0-2.3,0.5-4,1.5-5.2c1-1.2,2.6-1.7,4.9-1.7c2.3,0,3.9,0.6,4.9,1.7
			s1.5,2.9,1.5,5.2v7.9c0,2.3-0.5,4-1.5,5.2c-1,1.2-2.6,1.8-4.9,1.8C90.6,48.8,89,48.2,88,47z M94.2,44.8c0.2-0.4,0.3-1,0.3-1.8
			V32.8c0-0.8-0.1-1.4-0.3-1.8c-0.2-0.4-0.6-0.7-1.3-0.7c-0.6,0-1,0.2-1.3,0.7c-0.2,0.4-0.3,1-0.3,1.8V43c0,0.8,0.1,1.4,0.3,1.8
			c0.2,0.4,0.6,0.7,1.3,0.7C93.5,45.4,94,45.2,94.2,44.8z"/>
		<path fill="#FFFFFF" d="M103.2,47.2c-1-1.1-1.5-2.8-1.6-5.1l4-0.6c0,1.3,0.2,2.3,0.5,2.9c0.3,0.6,0.8,0.9,1.4,0.9
			c0.8,0,1.2-0.5,1.2-1.5c0-0.8-0.2-1.5-0.6-2.1c-0.4-0.6-1-1.2-1.8-1.9l-1.8-1.6c-0.9-0.8-1.6-1.6-2.1-2.4s-0.7-1.9-0.7-3.1
			c0-1.8,0.5-3.1,1.6-4.1c1.1-1,2.5-1.4,4.3-1.4c2,0,3.4,0.6,4.1,1.7c0.7,1.2,1.1,2.6,1.2,4.3l-4,0.5c0-1.1-0.1-1.9-0.3-2.4
			s-0.5-0.7-1.1-0.7c-0.4,0-0.7,0.2-0.9,0.5c-0.2,0.3-0.3,0.7-0.3,1.1c0,0.7,0.2,1.3,0.5,1.8s0.8,1,1.6,1.7l1.7,1.5
			c1,0.9,1.9,1.8,2.4,2.8c0.6,1,0.9,2.2,0.9,3.5c0,1-0.2,1.9-0.7,2.7c-0.5,0.8-1.1,1.4-1.9,1.9s-1.8,0.7-2.9,0.7
			C105.7,48.8,104.2,48.2,103.2,47.2z"/>
		<path fill="#FFFFFF" d="M18.3,56.9h7.1c1.9,0,3.3,0.5,4.2,1.6S31,61,31,63c0,2.3-0.5,3.8-1.6,4.7s-2.6,1.3-4.5,1.3H23v9h-4.7V56.9
			z M24.6,65.8c0.8,0,1.4-0.2,1.6-0.7c0.3-0.4,0.4-1.2,0.4-2.2c0-0.9-0.1-1.6-0.4-2.1c-0.3-0.5-0.8-0.7-1.7-0.7H23v5.6H24.6z"/>
		<path fill="#FFFFFF" d="M33.2,56.9h4.7v18h4.9V78h-9.5V56.9z"/>
		<path fill="#FFFFFF" d="M47.8,56.9h5.3L57.1,78h-4.3L52,73.6h-3.1L48.2,78h-4.4L47.8,56.9z M51.6,70.8l-1.1-8.2l-1.1,8.2H51.6z"/>
		<path fill="#FFFFFF" d="M60,60.4h-3.2v-3.5h11v3.5h-3.2V78H60V60.4z"/>
		<path fill="#FFFFFF" d="M69.7,56.9h4.7V78h-4.7V56.9z"/>
		<path fill="#FFFFFF" d="M77.5,56.9h3.3l4.3,10.2V56.9H89V78h-3.2l-4.3-11v11h-4V56.9z"/>
		<path fill="#FFFFFF" d="M93.4,76.6c-1-1.2-1.5-2.9-1.5-5.2v-7.9c0-2.3,0.5-4,1.5-5.2c1-1.2,2.6-1.7,4.9-1.7c2.3,0,3.9,0.6,4.9,1.7
			s1.5,2.9,1.5,5.2v7.9c0,2.3-0.5,4-1.5,5.2c-1,1.2-2.6,1.8-4.9,1.8C96,78.3,94.3,77.8,93.4,76.6z M99.5,74.4c0.2-0.4,0.3-1,0.3-1.8
			V62.4c0-0.8-0.1-1.4-0.3-1.8c-0.2-0.4-0.6-0.7-1.3-0.7c-0.6,0-1,0.2-1.3,0.7c-0.2,0.4-0.3,1-0.3,1.8v10.2c0,0.8,0.1,1.4,0.3,1.8
			c0.2,0.4,0.6,0.7,1.3,0.7C98.9,75,99.3,74.8,99.5,74.4z"/>
		<path fill="#FFFFFF" d="M18.3,86.5h5.3c1.8,0,3.3,0.2,4.3,0.7s1.8,1.2,2.2,2.1s0.6,2.3,0.6,3.9v7.7c0,1.6-0.2,2.9-0.6,3.9
			s-1.1,1.7-2.2,2.2s-2.4,0.7-4.2,0.7h-5.4V86.5z M23.7,104.4c0.7,0,1.2-0.1,1.5-0.3c0.3-0.2,0.5-0.5,0.6-0.9
			c0.1-0.4,0.1-0.9,0.1-1.7v-9.2c0-0.7,0-1.2-0.1-1.6s-0.3-0.6-0.6-0.8c-0.3-0.2-0.8-0.3-1.5-0.3H23v14.6H23.7z"/>
		<path fill="#FFFFFF" d="M33.6,86.5h9.5v3.2h-4.8v5.2H42v3.2h-3.7v6.3h4.9v3.2h-9.6V86.5z"/>
		<path fill="#FFFFFF" d="M45.3,86.5H50v18h4.9v3.2h-9.5V86.5z"/>
		<path fill="#FFFFFF" d="M64.7,106.1c-1-1.2-1.4-3-1.4-5.2v-7.6c0-2.3,0.5-4.1,1.4-5.3c1-1.2,2.6-1.8,4.9-1.8
			c2.2,0,3.8,0.5,4.7,1.6c0.9,1.1,1.4,2.6,1.4,4.5v1.8h-4.6V92c0-0.8-0.1-1.4-0.3-1.9c-0.2-0.4-0.6-0.7-1.3-0.7
			c-0.7,0-1.1,0.2-1.3,0.7c-0.2,0.5-0.3,1.1-0.3,1.9v9.9c0,0.8,0.1,1.5,0.3,1.9c0.2,0.4,0.6,0.7,1.3,0.7c0.6,0,1.1-0.2,1.2-0.7
			c0.2-0.4,0.3-1.1,0.3-1.9v-2.2h4.6v1.8c0,2-0.5,3.5-1.4,4.6c-0.9,1.1-2.5,1.7-4.7,1.7C67.3,107.9,65.7,107.3,64.7,106.1z"/>
		<path fill="#FFFFFF" d="M78.3,86.5h4.7v21.1h-4.7V86.5z"/>
		<path fill="#FFFFFF" d="M86.1,86.5h3.3l4.3,10.2V86.5h3.9v21.1h-3.2l-4.3-11v11h-4V86.5z"/>
		<path fill="#FFFFFF" d="M100.7,86.5h9.5v3.2h-4.8v5.2h3.7v3.2h-3.7v6.3h4.9v3.2h-9.6V86.5z"/>
		<path fill="#FFFFFF" d="M18.4,116.1H23v21.1h-4.7V116.1z"/>
		<path fill="#FFFFFF" d="M26.2,116.1h5.5c1.4,0,2.5,0.1,3.5,0.4c1,0.3,1.7,0.8,2.3,1.7c0.6,0.8,0.9,2,0.9,3.4
			c0,1.3-0.3,2.2-0.8,2.9c-0.5,0.7-1.3,1.1-2.3,1.3c1.2,0.2,2.2,0.7,2.8,1.5c0.6,0.9,1,2.1,1,3.5c0,4.2-2.1,6.3-6.4,6.3h-6.5V116.1z
			 M31.8,124.5c1,0,1.7-0.2,2-0.7c0.4-0.5,0.5-1.2,0.5-2.1c0-0.8-0.2-1.5-0.7-1.9c-0.5-0.4-1.1-0.6-2-0.6h-0.8v5.3H31.8z
			 M31.9,133.9c1,0,1.7-0.2,2.1-0.7c0.4-0.5,0.6-1.3,0.6-2.3c0-1.2-0.2-2-0.6-2.5c-0.4-0.5-1.1-0.7-2.1-0.7h-1v6.3H31.9z"/>
		<path fill="#FFFFFF" d="M41.5,116.1h9.5v3.2h-4.8v5.2h3.7v3.2h-3.7v6.3h4.9v3.2h-9.6V116.1z"/>
		<path fill="#FFFFFF" d="M53.2,116.1H59c2.3,0,4.1,0.4,5.2,1.2c1.2,0.8,1.8,2.3,1.8,4.4c0,1.4-0.2,2.5-0.5,3.4c-0.4,0.8-1,1.5-2,2
			l2.9,10.2h-4.8l-2.3-9.5h-1.3v9.5h-4.7V116.1z M59.2,125c0.9,0,1.6-0.2,2-0.7c0.4-0.5,0.6-1.2,0.6-2.2c0-1-0.2-1.7-0.5-2.2
			s-0.9-0.7-1.8-0.7h-1.5v5.8H59.2z"/>
		<path fill="#FFFFFF" d="M69.8,135.7c-1-1.2-1.5-2.9-1.5-5.2v-7.9c0-2.3,0.5-4,1.5-5.2c1-1.2,2.6-1.7,4.9-1.7
			c2.3,0,3.9,0.6,4.9,1.7c1,1.2,1.5,2.9,1.5,5.2v7.9c0,2.3-0.5,4-1.5,5.2c-1,1.2-2.6,1.8-4.9,1.8C72.4,137.5,70.8,136.9,69.8,135.7z
			 M76,133.5c0.2-0.4,0.3-1,0.3-1.8v-10.2c0-0.8-0.1-1.4-0.3-1.8c-0.2-0.4-0.6-0.7-1.3-0.7c-0.6,0-1,0.2-1.3,0.7
			c-0.2,0.4-0.3,1-0.3,1.8v10.2c0,0.8,0.1,1.4,0.3,1.8c0.2,0.4,0.6,0.7,1.3,0.7C75.4,134.2,75.8,134,76,133.5z"/>
		<path fill="#FFFFFF" d="M86.6,116.1H92l3.9,21.1h-4.3l-0.7-4.5h-3.1l-0.7,4.5h-4.4L86.6,116.1z M90.4,129.9l-1.1-8.2l-1.1,8.2
			H90.4z"/>
		<path fill="#FFFFFF" d="M98.3,116.1h5l2.3,12.3l2.5-12.3h4.8l0.4,21.1H110l-0.4-14.1l-2.5,14.1h-2.9l-2.6-14.2l-0.3,14.2H98
			L98.3,116.1z"/>
		<path fill="#FFFFFF" d="M116.4,116.1h9.5v3.2h-4.8v5.2h3.7v3.2h-3.7v6.3h4.9v3.2h-9.6V116.1z"/>
		<path fill="#FFFFFF" d="M128.1,116.1h5.8c2.3,0,4.1,0.4,5.2,1.2c1.2,0.8,1.8,2.3,1.8,4.4c0,1.4-0.2,2.5-0.5,3.4
			c-0.4,0.8-1,1.5-2,2l2.9,10.2h-4.8l-2.3-9.5h-1.3v9.5h-4.7V116.1z M134.1,125c0.9,0,1.6-0.2,2-0.7c0.4-0.5,0.6-1.2,0.6-2.2
			c0-1-0.2-1.7-0.5-2.2c-0.3-0.5-0.9-0.7-1.8-0.7h-1.5v5.8H134.1z"/>
		<path fill="#FFFFFF" d="M143.8,116.1h4.7v21.1h-4.7V116.1z"/>
		<path fill="#FFFFFF" d="M152.8,135.7c-1-1.2-1.4-3-1.4-5.2v-7.6c0-2.3,0.5-4.1,1.4-5.3s2.6-1.8,4.9-1.8c2.2,0,3.8,0.5,4.7,1.6
			c0.9,1.1,1.4,2.6,1.4,4.5v1.8h-4.6v-2.1c0-0.8-0.1-1.4-0.3-1.9c-0.2-0.4-0.6-0.7-1.3-0.7c-0.7,0-1.1,0.2-1.3,0.7
			c-0.2,0.5-0.3,1.1-0.3,1.9v9.9c0,0.8,0.1,1.5,0.3,1.9c0.2,0.4,0.6,0.7,1.3,0.7c0.6,0,1.1-0.2,1.2-0.7c0.2-0.4,0.3-1.1,0.3-1.9
			v-2.2h4.6v1.8c0,2-0.5,3.5-1.4,4.6c-0.9,1.1-2.5,1.7-4.7,1.7C155.4,137.5,153.7,136.9,152.8,135.7z"/>
		<path fill="#FFFFFF" d="M169.3,116.1h5.3l3.9,21.1h-4.3l-0.7-4.5h-3.1l-0.7,4.5h-4.4L169.3,116.1z M173.1,129.9l-1.1-8.2l-1.1,8.2
			H173.1z"/>
		<path fill="#FFFFFF" d="M180.7,116.1h3.3l4.3,10.2v-10.2h3.9v21.1H189l-4.3-11v11h-4V116.1z"/>
		<path fill="#FFFFFF" d="M196.5,135.7c-1-1.2-1.5-2.9-1.5-5.2v-7.9c0-2.3,0.5-4,1.5-5.2c1-1.2,2.6-1.7,4.9-1.7
			c2.3,0,3.9,0.6,4.9,1.7c1,1.2,1.5,2.9,1.5,5.2v7.9c0,2.3-0.5,4-1.5,5.2c-1,1.2-2.6,1.8-4.9,1.8
			C199.1,137.5,197.5,136.9,196.5,135.7z M202.7,133.5c0.2-0.4,0.3-1,0.3-1.8v-10.2c0-0.8-0.1-1.4-0.3-1.8c-0.2-0.4-0.6-0.7-1.3-0.7
			c-0.6,0-1,0.2-1.3,0.7c-0.2,0.4-0.3,1-0.3,1.8v10.2c0,0.8,0.1,1.4,0.3,1.8c0.2,0.4,0.6,0.7,1.3,0.7
			C202,134.2,202.5,134,202.7,133.5z"/>
	</g>
</g>
<g>
</g>
<g>
</g>
<g>
</g>
<g>
</g>
<g>
</g>
<g>
</g>
<g>
</g>
<g>
</g>
<g>
</g>
<g>
</g>
<g>
</g>
<g>
</g>
<g>
</g>
<g>
</g>
<g>
</g>
</svg>
