<?xml version="1.0" encoding="utf-8"?>
<!-- Generator: Adobe Illustrator 18.0.0, SVG Export Plug-In . SVG Version: 6.00 Build 0)  -->
<!DOCTYPE svg PUBLIC "-//W3C//DTD SVG 1.1//EN" "http://www.w3.org/Graphics/SVG/1.1/DTD/svg11.dtd">
<svg version="1.1" id="Capa_1" xmlns="http://www.w3.org/2000/svg" xmlns:xlink="http://www.w3.org/1999/xlink" x="0px" y="0px"
	 viewBox="0 0 951.6 122.8" enable-background="new 0 0 951.6 122.8" xml:space="preserve">
<rect x="0" y="0" fill="#0000F9" width="310" height="122.8"/>
<rect x="320.8" y="0" fill="#0000F9" width="310" height="122.8"/>
<rect x="641.6" y="0" fill="#FFFFFF" width="310" height="122.8"/>
<g>
	<path fill="#FFFFFF" d="M11.7,13.5h13.2v2.6h-9.7v13.6H23v2.5h-7.9v15h9.8v2.6H11.7V13.5z"/>
	<path fill="#FFFFFF" d="M29.6,13.5h2.5l11.6,28.2V13.5h3v36.4h-2.4L32.5,21.3v28.6h-3V13.5z"/>
	<path fill="#FFFFFF" d="M57.4,16.1h-6.9v-2.6h17v2.6h-6.7v33.7h-3.4V16.1z"/>
	<path fill="#FFFFFF" d="M71.5,13.5h8.2c3.3,0,5.6,0.8,7,2.4c1.4,1.6,2.1,3.9,2.1,6.9c0,2.3-0.4,4.2-1.1,5.7
		c-0.7,1.5-2.1,2.4-3.9,2.8l5.6,18.6H86L80.6,32h-5.7v17.9h-3.4V13.5z M79.5,29.5c2.2,0,3.7-0.5,4.6-1.6s1.3-2.8,1.3-5.1
		c0-2.4-0.4-4.1-1.2-5.1c-0.8-1-2.3-1.6-4.6-1.6h-4.7v13.4H79.5z"/>
	<path fill="#FFFFFF" d="M94.5,13.5h13.2v2.6h-9.7v13.6h7.9v2.5h-7.9v15h9.8v2.6H94.5V13.5z"/>
	<path fill="#FFFFFF" d="M110.3,13.5h3.3l6.9,30.1l6.5-30.1h3.2l-8.2,36.4h-3.1L110.3,13.5z"/>
	<path fill="#FFFFFF" d="M134.4,13.5h3.4v36.4h-3.4V13.5z"/>
	<path fill="#FFFFFF" d="M145.5,47.7c-1.5-1.8-2.3-4.2-2.6-7.3l3-0.9c0.3,2.6,0.8,4.5,1.7,5.9c0.9,1.4,2.3,2.1,4.4,2.1
		c3.4,0,5.1-1.8,5.1-5.3c0-1.5-0.4-2.8-1.1-4c-0.7-1.1-1.8-2.4-3.4-3.9l-6.4-6.2c-1.2-1.1-2-2.2-2.5-3.4c-0.5-1.2-0.8-2.5-0.8-3.9
		c0-2.5,0.7-4.4,2.2-5.8c1.5-1.4,3.5-2,6-2c2.7,0,4.8,0.7,6.2,2.2s2.3,3.8,2.5,7l-2.9,0.8c-0.2-2.5-0.7-4.3-1.5-5.5
		c-0.9-1.2-2.3-1.8-4.2-1.8c-1.6,0-2.8,0.4-3.7,1.2c-0.9,0.8-1.4,2-1.4,3.6c0,1,0.2,1.9,0.6,2.7c0.4,0.8,1,1.7,2,2.6l6.4,6.1
		c1.6,1.6,2.9,3.2,3.9,4.8c0.9,1.6,1.4,3.4,1.4,5.3c0,2.6-0.8,4.7-2.3,6.1s-3.5,2.2-6.1,2.2C149.2,50.3,147,49.4,145.5,47.7z"/>
	<path fill="#FFFFFF" d="M169.4,16.1h-6.9v-2.6h17v2.6h-6.7v33.7h-3.4V16.1z"/>
	<path fill="#FFFFFF" d="M188.1,13.5h3.6l7.7,36.4H196l-1.8-9.7h-8.7l-1.8,9.7h-3.3L188.1,13.5z M193.8,37.6L189.9,18l-3.9,19.6
		H193.8z"/>
	<path fill="#FFFFFF" d="M205,47.7c-1.5-1.8-2.3-4.2-2.6-7.3l3-0.9c0.3,2.6,0.8,4.5,1.7,5.9c0.9,1.4,2.3,2.1,4.4,2.1
		c3.4,0,5.1-1.8,5.1-5.3c0-1.5-0.4-2.8-1.1-4c-0.7-1.1-1.8-2.4-3.4-3.9l-6.4-6.2c-1.2-1.1-2-2.2-2.5-3.4c-0.5-1.2-0.8-2.5-0.8-3.9
		c0-2.5,0.7-4.4,2.2-5.8c1.5-1.4,3.5-2,6-2c2.7,0,4.8,0.7,6.2,2.2s2.3,3.8,2.5,7l-2.9,0.8c-0.2-2.5-0.7-4.3-1.5-5.5
		c-0.9-1.2-2.3-1.8-4.2-1.8c-1.6,0-2.8,0.4-3.7,1.2c-0.9,0.8-1.4,2-1.4,3.6c0,1,0.2,1.9,0.6,2.7c0.4,0.8,1,1.7,2,2.6l6.4,6.1
		c1.6,1.6,2.9,3.2,3.9,4.8c0.9,1.6,1.4,3.4,1.4,5.3c0,2.6-0.8,4.7-2.3,6.1s-3.5,2.2-6.1,2.2C208.7,50.3,206.5,49.4,205,47.7z"/>
	<path fill="#FFFFFF" d="M238,17.9c-0.3,0.4-0.9,0.8-1.9,1.1c-0.9,0.3-2.2,0.8-3.7,1.2v-2.6c1.1-0.3,2.2-0.8,3.4-1.5
		c1.2-0.7,2.2-1.6,2.9-2.6h2.6v36.4H238V17.9z"/>
	<path fill="#FFFFFF" d="M250,26h3.5v4.8H250V26z M250,41.3h3.5v4.8H250V41.3z"/>
	<path fill="#FFFFFF" d="M263.1,17.9c-0.3,0.4-0.9,0.8-1.9,1.1c-0.9,0.3-2.2,0.8-3.7,1.2v-2.6c1.1-0.3,2.2-0.8,3.4-1.5
		c1.2-0.7,2.2-1.6,2.9-2.6h2.6v36.4h-3.3V17.9z"/>
	<path fill="#FFFFFF" d="M13,92.2c-1.4-2-2-4.8-2-8.4V69.4c0-3.7,0.7-6.5,2-8.4c1.4-2,3.7-2.9,7.2-2.9c3.1,0,5.3,0.9,6.6,2.6
		c1.3,1.8,2,4.3,2,7.7v2.2h-3.2v-2.1c0-1.7-0.1-3.1-0.4-4.2c-0.3-1.1-0.8-1.9-1.6-2.5c-0.8-0.6-1.9-0.9-3.4-0.9
		c-1.6,0-2.8,0.3-3.6,1c-0.8,0.7-1.4,1.6-1.7,2.7c-0.3,1.2-0.4,2.6-0.4,4.4v15.5c0,2.8,0.4,4.9,1.3,6.2c0.9,1.3,2.4,1.9,4.5,1.9
		c2.1,0,3.5-0.7,4.3-2c0.7-1.3,1.1-3.3,1.1-5.9v-2.4h3.2v2.2c0,3.5-0.6,6.2-1.9,8c-1.3,1.9-3.5,2.8-6.7,2.8
		C16.7,95.2,14.4,94.2,13,92.2z"/>
	<path fill="#FFFFFF" d="M35.5,92.3c-1.4-1.9-2.1-4.7-2.1-8.3V68.9c0-3.5,0.7-6.2,2.2-8.1c1.4-1.9,3.8-2.8,7.2-2.8
		c3.3,0,5.7,0.9,7.1,2.8s2.2,4.6,2.2,8.1V84c0,3.6-0.7,6.3-2.1,8.2c-1.4,1.9-3.8,2.9-7.2,2.9C39.3,95.2,36.9,94.2,35.5,92.3z
		 M47.3,90.5c0.8-1.3,1.3-3.2,1.3-5.7V68.3c0-2.5-0.4-4.4-1.2-5.7c-0.8-1.3-2.4-1.9-4.6-1.9c-2.3,0-3.8,0.6-4.7,1.9
		c-0.8,1.2-1.3,3.1-1.3,5.7v16.5c0,2.5,0.4,4.5,1.3,5.7c0.8,1.3,2.4,1.9,4.7,1.9C45,92.4,46.5,91.8,47.3,90.5z"/>
	<path fill="#FFFFFF" d="M57.7,58.4h2.5l11.6,28.2V58.4h3v36.4h-2.4L60.6,66.2v28.6h-3V58.4z"/>
	<path fill="#FFFFFF" d="M94.7,61h-6.9v-2.6h17V61h-6.7v33.7h-3.4V61z"/>
	<path fill="#FFFFFF" d="M113.4,58.4h3.6l7.7,36.4h-3.4l-1.8-9.7h-8.7l-1.8,9.7h-3.3L113.4,58.4z M119.1,82.5l-3.9-19.6l-3.9,19.6
		H119.1z"/>
	<path fill="#FFFFFF" d="M129.1,58.4h3.4v33.8h10.3v2.6h-13.7V58.4z"/>
	<path fill="#FFFFFF" d="M146.2,58.4h13.2V61h-9.7v13.6h7.9v2.5h-7.9v15h9.8v2.6h-13.2V58.4z"/>
	<path fill="#FFFFFF" d="M164.1,58.4h2.5l11.6,28.2V58.4h3v36.4h-2.4L167,66.2v28.6h-3V58.4z"/>
	<path fill="#FFFFFF" d="M191.9,61H185v-2.6h17V61h-6.7v33.7h-3.4V61z"/>
	<path fill="#FFFFFF" d="M207.4,92.3c-1.4-1.9-2.1-4.7-2.1-8.3V68.9c0-3.5,0.7-6.2,2.2-8.1c1.4-1.9,3.8-2.8,7.2-2.8
		c3.3,0,5.7,0.9,7.1,2.8s2.2,4.6,2.2,8.1V84c0,3.6-0.7,6.3-2.1,8.2c-1.4,1.9-3.8,2.9-7.2,2.9C211.2,95.2,208.8,94.2,207.4,92.3z
		 M219.2,90.5c0.8-1.3,1.3-3.2,1.3-5.7V68.3c0-2.5-0.4-4.4-1.2-5.7c-0.8-1.3-2.4-1.9-4.6-1.9c-2.3,0-3.8,0.6-4.7,1.9
		c-0.8,1.2-1.3,3.1-1.3,5.7v16.5c0,2.5,0.4,4.5,1.3,5.7c0.8,1.3,2.4,1.9,4.7,1.9C216.8,92.4,218.4,91.8,219.2,90.5z"/>
</g>
<g>
	<path fill="#FFFFFF" d="M332.6,13.5h8.7c3.1,0,5.3,0.8,6.6,2.5c1.3,1.7,2,4.1,2,7.1c0,2.8-0.7,5.1-2.1,6.9s-3.6,2.6-6.5,2.6h-5.3
		v17.2h-3.4V13.5z M340.4,30.1c2.2,0,3.8-0.5,4.8-1.5c0.9-1,1.4-2.8,1.4-5.4c0-1.9-0.2-3.3-0.5-4.3c-0.4-1-1-1.7-1.8-2.1
		c-0.9-0.4-2.1-0.6-3.8-0.6h-4.4v14.1H340.4z"/>
	<path fill="#FFFFFF" d="M354.3,13.5h8.2c3.3,0,5.6,0.8,7,2.4c1.4,1.6,2.1,3.9,2.1,6.9c0,2.3-0.4,4.2-1.1,5.7
		c-0.7,1.5-2.1,2.4-3.9,2.8l5.6,18.6h-3.3L363.4,32h-5.7v17.9h-3.4V13.5z M362.4,29.5c2.2,0,3.7-0.5,4.6-1.6s1.3-2.8,1.3-5.1
		c0-2.4-0.4-4.1-1.2-5.1c-0.8-1-2.3-1.6-4.6-1.6h-4.7v13.4H362.4z"/>
	<path fill="#FFFFFF" d="M377.3,13.5h13.2v2.6h-9.7v13.6h7.9v2.5h-7.9v15h9.8v2.6h-13.2V13.5z"/>
	<path fill="#FFFFFF" d="M396.4,47.7c-1.5-1.8-2.3-4.2-2.6-7.3l3-0.9c0.3,2.6,0.8,4.5,1.7,5.9c0.9,1.4,2.3,2.1,4.4,2.1
		c3.4,0,5.1-1.8,5.1-5.3c0-1.5-0.4-2.8-1.1-4c-0.7-1.1-1.8-2.4-3.4-3.9l-6.4-6.2c-1.2-1.1-2-2.2-2.5-3.4c-0.5-1.2-0.8-2.5-0.8-3.9
		c0-2.5,0.7-4.4,2.2-5.8c1.5-1.4,3.5-2,6-2c2.7,0,4.8,0.7,6.2,2.2s2.3,3.8,2.5,7l-2.9,0.8c-0.2-2.5-0.7-4.3-1.5-5.5
		c-0.9-1.2-2.3-1.8-4.2-1.8c-1.6,0-2.8,0.4-3.7,1.2c-0.9,0.8-1.4,2-1.4,3.6c0,1,0.2,1.9,0.6,2.7c0.4,0.8,1,1.7,2,2.6l6.4,6.1
		c1.6,1.6,2.9,3.2,3.9,4.8c0.9,1.6,1.4,3.4,1.4,5.3c0,2.6-0.8,4.7-2.3,6.1s-3.5,2.2-6.1,2.2C400.1,50.3,397.9,49.4,396.4,47.7z"/>
	<path fill="#FFFFFF" d="M415.8,13.5h13.2v2.6h-9.7v13.6h7.9v2.5h-7.9v15h9.8v2.6h-13.2V13.5z"/>
	<path fill="#FFFFFF" d="M433.7,13.5h2.5l11.6,28.2V13.5h3v36.4h-2.4l-11.6-28.6v28.6h-3V13.5z"/>
	<path fill="#FFFFFF" d="M461.5,16.1h-6.9v-2.6h17v2.6h-6.7v33.7h-3.4V16.1z"/>
	<path fill="#FFFFFF" d="M480.2,13.5h3.6l7.7,36.4h-3.4l-1.8-9.7h-8.7l-1.8,9.7h-3.3L480.2,13.5z M485.9,37.6L482,18l-3.9,19.6
		H485.9z"/>
	<path fill="#FFFFFF" d="M497.1,47.3c-1.4-2-2-4.8-2-8.4V24.5c0-3.7,0.7-6.5,2-8.4c1.4-2,3.7-2.9,7.2-2.9c3.1,0,5.3,0.9,6.6,2.6
		c1.3,1.8,2,4.3,2,7.7v2.2h-3.2v-2.1c0-1.7-0.1-3.1-0.4-4.2c-0.3-1.1-0.8-1.9-1.6-2.5c-0.8-0.6-1.9-0.9-3.4-0.9
		c-1.6,0-2.8,0.3-3.6,1c-0.8,0.7-1.4,1.6-1.7,2.7c-0.3,1.2-0.4,2.6-0.4,4.4v15.5c0,2.8,0.4,4.9,1.3,6.2c0.9,1.3,2.4,1.9,4.5,1.9
		c2.1,0,3.5-0.7,4.3-2c0.7-1.3,1.1-3.3,1.1-5.9v-2.4h3.2v2.2c0,3.5-0.6,6.2-1.9,8c-1.3,1.9-3.5,2.8-6.7,2.8
		C500.8,50.3,498.5,49.3,497.1,47.3z"/>
	<path fill="#FFFFFF" d="M518.3,13.5h3.4v36.4h-3.4V13.5z"/>
	<path fill="#FFFFFF" d="M529.6,47.4c-1.4-1.9-2.1-4.7-2.1-8.3V24c0-3.5,0.7-6.2,2.2-8.1c1.4-1.9,3.8-2.8,7.2-2.8
		c3.3,0,5.7,0.9,7.1,2.8s2.2,4.6,2.2,8.1v15.1c0,3.6-0.7,6.3-2.1,8.2c-1.4,1.9-3.8,2.9-7.2,2.9C533.4,50.3,531,49.3,529.6,47.4z
		 M541.4,45.6c0.8-1.3,1.3-3.2,1.3-5.7V23.4c0-2.5-0.4-4.4-1.2-5.7c-0.8-1.3-2.4-1.9-4.6-1.9c-2.3,0-3.8,0.6-4.7,1.9
		c-0.8,1.2-1.3,3.1-1.3,5.7v16.5c0,2.5,0.4,4.5,1.3,5.7c0.8,1.3,2.4,1.9,4.7,1.9C539,47.6,540.5,46.9,541.4,45.6z M538.8,2.5h3.3
		l-4.4,8.8H536L538.8,2.5z"/>
	<path fill="#FFFFFF" d="M551.8,13.5h2.5l11.6,28.2V13.5h3v36.4h-2.4l-11.6-28.6v28.6h-3V13.5z"/>
	<path fill="#FFFFFF" d="M337.1,61h-6.9v-2.6h17V61h-6.7v33.7h-3.4V61z"/>
	<path fill="#FFFFFF" d="M351.2,58.4h8.2c3.3,0,5.6,0.8,7,2.4c1.4,1.6,2.1,3.9,2.1,6.9c0,2.3-0.4,4.2-1.1,5.7
		c-0.7,1.5-2.1,2.4-3.9,2.8l5.6,18.6h-3.3l-5.3-17.9h-5.7v17.9h-3.4V58.4z M359.3,74.4c2.2,0,3.7-0.5,4.6-1.6s1.3-2.8,1.3-5.1
		c0-2.4-0.4-4.1-1.2-5.1c-0.8-1-2.3-1.6-4.6-1.6h-4.7v13.4H359.3z"/>
	<path fill="#FFFFFF" d="M379.9,58.4h3.6l7.7,36.4h-3.4l-1.8-9.7h-8.7l-1.8,9.7h-3.3L379.9,58.4z M385.6,82.5l-3.9-19.6l-3.9,19.6
		H385.6z"/>
	<path fill="#FFFFFF" d="M395.7,58.4h3.4v36.4h-3.4V58.4z"/>
	<path fill="#FFFFFF" d="M405.6,58.4h3.4v33.8h10.3v2.6h-13.7V58.4z"/>
	<path fill="#FFFFFF" d="M422.7,58.4h13.2V61h-9.7v13.6h7.9v2.5h-7.9v15h9.8v2.6h-13.2V58.4z"/>
	<path fill="#FFFFFF" d="M440.6,58.4h8.2c3.3,0,5.6,0.8,7,2.4c1.4,1.6,2.1,3.9,2.1,6.9c0,2.3-0.4,4.2-1.1,5.7
		c-0.7,1.5-2.1,2.4-3.9,2.8l5.6,18.6h-3.3l-5.3-17.9H444v17.9h-3.4V58.4z M448.6,74.4c2.2,0,3.7-0.5,4.6-1.6s1.3-2.8,1.3-5.1
		c0-2.4-0.4-4.1-1.2-5.1c-0.8-1-2.3-1.6-4.6-1.6H444v13.4H448.6z"/>
</g>
<g>
	<path fill="#0000F5" d="M652.1,13.5h13.2v2.6h-9.7v13.6h7.9v2.5h-7.9v15h9.8v2.6h-13.2V13.5z"/>
	<path fill="#0000F5" d="M670,13.5h2.5L684,41.7V13.5h3v36.4h-2.4L673,21.3v28.6h-3V13.5z"/>
	<path fill="#0000F5" d="M697.8,16.1H691v-2.6h17v2.6h-6.7v33.7h-3.4V16.1z"/>
	<path fill="#0000F5" d="M711.9,13.5h8.2c3.3,0,5.6,0.8,7,2.4c1.4,1.6,2.1,3.9,2.1,6.9c0,2.3-0.4,4.2-1.1,5.7
		c-0.7,1.5-2.1,2.4-3.9,2.8l5.6,18.6h-3.3L721,32h-5.7v17.9h-3.4V13.5z M720,29.5c2.2,0,3.7-0.5,4.6-1.6s1.3-2.8,1.3-5.1
		c0-2.4-0.4-4.1-1.2-5.1c-0.8-1-2.3-1.6-4.6-1.6h-4.7v13.4H720z"/>
	<path fill="#0000F5" d="M734.9,13.5H748v2.6h-9.7v13.6h7.9v2.5h-7.9v15h9.8v2.6h-13.2V13.5z"/>
	<path fill="#0000F5" d="M750.7,13.5h3.3l6.9,30.1l6.5-30.1h3.2l-8.2,36.4h-3.1L750.7,13.5z"/>
	<path fill="#0000F5" d="M774.8,13.5h3.4v36.4h-3.4V13.5z"/>
	<path fill="#0000F5" d="M785.9,47.7c-1.5-1.8-2.3-4.2-2.6-7.3l3-0.9c0.3,2.6,0.8,4.5,1.7,5.9c0.9,1.4,2.3,2.1,4.4,2.1
		c3.4,0,5.1-1.8,5.1-5.3c0-1.5-0.4-2.8-1.1-4c-0.7-1.1-1.8-2.4-3.4-3.9l-6.4-6.2c-1.2-1.1-2-2.2-2.5-3.4c-0.5-1.2-0.8-2.5-0.8-3.9
		c0-2.5,0.7-4.4,2.2-5.8c1.5-1.4,3.5-2,6-2c2.7,0,4.8,0.7,6.2,2.2s2.3,3.8,2.5,7l-2.9,0.8c-0.2-2.5-0.7-4.3-1.5-5.5
		c-0.9-1.2-2.3-1.8-4.2-1.8c-1.6,0-2.8,0.4-3.7,1.2c-0.9,0.8-1.4,2-1.4,3.6c0,1,0.2,1.9,0.6,2.7c0.4,0.8,1,1.7,2,2.6l6.4,6.1
		c1.6,1.6,2.9,3.2,3.9,4.8c0.9,1.6,1.4,3.4,1.4,5.3c0,2.6-0.8,4.7-2.3,6.1s-3.5,2.2-6.1,2.2C789.6,50.3,787.4,49.4,785.9,47.7z"/>
	<path fill="#0000F5" d="M809.8,16.1H803v-2.6h17v2.6h-6.7v33.7h-3.4V16.1z"/>
	<path fill="#0000F5" d="M828.5,13.5h3.6l7.7,36.4h-3.4l-1.8-9.7H826l-1.8,9.7h-3.3L828.5,13.5z M834.2,37.6L830.3,18l-3.9,19.6
		H834.2z"/>
	<path fill="#0000F5" d="M845.4,47.7c-1.5-1.8-2.3-4.2-2.6-7.3l3-0.9c0.3,2.6,0.8,4.5,1.7,5.9c0.9,1.4,2.3,2.1,4.4,2.1
		c3.4,0,5.1-1.8,5.1-5.3c0-1.5-0.4-2.8-1.1-4c-0.7-1.1-1.8-2.4-3.4-3.9l-6.4-6.2c-1.2-1.1-2-2.2-2.5-3.4c-0.5-1.2-0.8-2.5-0.8-3.9
		c0-2.5,0.7-4.4,2.2-5.8c1.5-1.4,3.5-2,6-2c2.7,0,4.8,0.7,6.2,2.2s2.3,3.8,2.5,7l-2.9,0.8c-0.2-2.5-0.7-4.3-1.5-5.5
		c-0.9-1.2-2.3-1.8-4.2-1.8c-1.6,0-2.8,0.4-3.7,1.2c-0.9,0.8-1.4,2-1.4,3.6c0,1,0.2,1.9,0.6,2.7c0.4,0.8,1,1.7,2,2.6L855,32
		c1.6,1.6,2.9,3.2,3.9,4.8c0.9,1.6,1.4,3.4,1.4,5.3c0,2.6-0.8,4.7-2.3,6.1s-3.5,2.2-6.1,2.2C849.1,50.3,846.9,49.4,845.4,47.7z"/>
	<path fill="#0000F5" d="M878.4,17.9c-0.3,0.4-0.9,0.8-1.9,1.1c-0.9,0.3-2.2,0.8-3.7,1.2v-2.6c1.1-0.3,2.2-0.8,3.4-1.5
		c1.2-0.7,2.2-1.6,2.9-2.6h2.6v36.4h-3.3V17.9z"/>
	<path fill="#0000F5" d="M890.4,26h3.5v4.8h-3.5V26z M890.4,41.3h3.5v4.8h-3.5V41.3z"/>
	<path fill="#0000F5" d="M903.5,17.9c-0.3,0.4-0.9,0.8-1.9,1.1c-0.9,0.3-2.2,0.8-3.7,1.2v-2.6c1.1-0.3,2.2-0.8,3.4-1.5
		c1.2-0.7,2.2-1.6,2.9-2.6h2.6v36.4h-3.3V17.9z"/>
	<path fill="#0000F5" d="M653.4,92.2c-1.4-2-2-4.8-2-8.4V69.4c0-3.7,0.7-6.5,2-8.4c1.4-2,3.7-2.9,7.2-2.9c3.1,0,5.3,0.9,6.6,2.6
		c1.3,1.8,2,4.3,2,7.7v2.2H666v-2.1c0-1.7-0.1-3.1-0.4-4.2c-0.3-1.1-0.8-1.9-1.6-2.5c-0.8-0.6-1.9-0.9-3.4-0.9c-1.6,0-2.8,0.3-3.6,1
		c-0.8,0.7-1.4,1.6-1.7,2.7c-0.3,1.2-0.4,2.6-0.4,4.4v15.5c0,2.8,0.4,4.9,1.3,6.2c0.9,1.3,2.4,1.9,4.5,1.9c2.1,0,3.5-0.7,4.3-2
		c0.7-1.3,1.1-3.3,1.1-5.9v-2.4h3.2v2.2c0,3.5-0.6,6.2-1.9,8c-1.3,1.9-3.5,2.8-6.7,2.8C657.2,95.2,654.8,94.2,653.4,92.2z"/>
	<path fill="#0000F5" d="M675.9,92.3c-1.4-1.9-2.1-4.7-2.1-8.3V68.9c0-3.5,0.7-6.2,2.2-8.1c1.4-1.9,3.8-2.8,7.2-2.8
		c3.3,0,5.7,0.9,7.1,2.8s2.2,4.6,2.2,8.1V84c0,3.6-0.7,6.3-2.1,8.2c-1.4,1.9-3.8,2.9-7.2,2.9C679.7,95.2,677.3,94.2,675.9,92.3z
		 M687.7,90.5c0.8-1.3,1.3-3.2,1.3-5.7V68.3c0-2.5-0.4-4.4-1.2-5.7c-0.8-1.3-2.4-1.9-4.6-1.9c-2.3,0-3.8,0.6-4.7,1.9
		c-0.8,1.2-1.3,3.1-1.3,5.7v16.5c0,2.5,0.4,4.5,1.3,5.7c0.8,1.3,2.4,1.9,4.7,1.9C685.4,92.4,686.9,91.8,687.7,90.5z"/>
	<path fill="#0000F5" d="M698.1,58.4h2.5l11.6,28.2V58.4h3v36.4h-2.4l-11.6-28.6v28.6h-3V58.4z"/>
	<path fill="#0000F5" d="M730.6,58.4h13.2V61H734v13.6h7.9v2.5H734v15h9.8v2.6h-13.2V58.4z"/>
	<path fill="#0000F5" d="M745.6,93.7c1.7,0,2.9-0.2,3.7-0.5c0.8-0.3,1.3-0.9,1.5-1.7c0.2-0.8,0.4-2.2,0.4-4.1v-29h3.4v29.2
		c0,2.2-0.2,3.8-0.6,5.1c-0.4,1.2-1.1,2.1-2.1,2.7c-1,0.6-2.6,0.9-4.6,0.9h-1.7V93.7z"/>
	<path fill="#0000F5" d="M760.9,58.4h13.2V61h-9.7v13.6h7.9v2.5h-7.9v15h9.8v2.6h-13.2V58.4z"/>
	<path fill="#0000F5" d="M780.1,92.2c-1.4-2-2-4.8-2-8.4V69.4c0-3.7,0.7-6.5,2-8.4c1.4-2,3.7-2.9,7.2-2.9c3.1,0,5.3,0.9,6.6,2.6
		c1.3,1.8,2,4.3,2,7.7v2.2h-3.2v-2.1c0-1.7-0.1-3.1-0.4-4.2c-0.3-1.1-0.8-1.9-1.6-2.5c-0.8-0.6-1.9-0.9-3.4-0.9
		c-1.6,0-2.8,0.3-3.6,1c-0.8,0.7-1.4,1.6-1.7,2.7c-0.3,1.2-0.4,2.6-0.4,4.4v15.5c0,2.8,0.4,4.9,1.3,6.2c0.9,1.3,2.4,1.9,4.5,1.9
		c2.1,0,3.5-0.7,4.3-2c0.7-1.3,1.1-3.3,1.1-5.9v-2.4h3.2v2.2c0,3.5-0.6,6.2-1.9,8c-1.3,1.9-3.5,2.8-6.7,2.8
		C783.9,95.2,781.5,94.2,780.1,92.2z"/>
	<path fill="#0000F5" d="M802.9,92.5c-1.3-1.8-2-4.3-2-7.7V58.4h3.3v26.5c0,2.4,0.4,4.3,1.3,5.6c0.9,1.3,2.4,2,4.7,2
		c2.2,0,3.7-0.7,4.6-2c0.9-1.3,1.3-3.2,1.3-5.5V58.4h3.3v26.4c0,3.3-0.7,5.8-2.1,7.7s-3.8,2.7-7.2,2.7
		C806.6,95.2,804.2,94.3,802.9,92.5z"/>
	<path fill="#0000F5" d="M829.9,61H823v-2.6h17V61h-6.7v33.7h-3.4V61z"/>
	<path fill="#0000F5" d="M844,58.4h3.4v36.4H844V58.4z"/>
	<path fill="#0000F5" d="M851.8,58.4h3.3l6.9,30.1l6.5-30.1h3.2l-8.2,36.4h-3.1L851.8,58.4z"/>
	<path fill="#0000F5" d="M877.1,92.3c-1.4-1.9-2.1-4.7-2.1-8.3V68.9c0-3.5,0.7-6.2,2.2-8.1c1.4-1.9,3.8-2.8,7.2-2.8
		c3.3,0,5.7,0.9,7.1,2.8s2.2,4.6,2.2,8.1V84c0,3.6-0.7,6.3-2.1,8.2c-1.4,1.9-3.8,2.9-7.2,2.9C880.9,95.2,878.5,94.2,877.1,92.3z
		 M888.9,90.5c0.8-1.3,1.3-3.2,1.3-5.7V68.3c0-2.5-0.4-4.4-1.2-5.7c-0.8-1.3-2.4-1.9-4.6-1.9c-2.3,0-3.8,0.6-4.7,1.9
		c-0.8,1.2-1.3,3.1-1.3,5.7v16.5c0,2.5,0.4,4.5,1.3,5.7c0.8,1.3,2.4,1.9,4.7,1.9C886.5,92.4,888,91.8,888.9,90.5z"/>
	<path fill="#0000F5" d="M900.5,92.6c-1.5-1.8-2.3-4.2-2.6-7.3l3-0.9c0.3,2.6,0.8,4.5,1.7,5.9c0.9,1.4,2.3,2.1,4.4,2.1
		c3.4,0,5.1-1.8,5.1-5.3c0-1.5-0.4-2.8-1.1-4c-0.7-1.1-1.8-2.4-3.4-3.9l-6.4-6.2c-1.2-1.1-2-2.2-2.5-3.4c-0.5-1.2-0.8-2.5-0.8-3.9
		c0-2.5,0.7-4.4,2.2-5.8c1.5-1.4,3.5-2,6-2c2.7,0,4.8,0.7,6.2,2.2s2.3,3.8,2.5,7L912,68c-0.2-2.5-0.7-4.3-1.5-5.5
		c-0.9-1.2-2.3-1.8-4.2-1.8c-1.6,0-2.8,0.4-3.7,1.2c-0.9,0.8-1.4,2-1.4,3.6c0,1,0.2,1.9,0.6,2.7c0.4,0.8,1,1.7,2,2.6l6.4,6.1
		c1.6,1.6,2.9,3.2,3.9,4.8c0.9,1.6,1.4,3.4,1.4,5.3c0,2.6-0.8,4.7-2.3,6.1s-3.5,2.2-6.1,2.2C904.1,95.2,902,94.3,900.5,92.6z"/>
</g>
<g>
</g>
<g>
</g>
<g>
</g>
<g>
</g>
<g>
</g>
<g>
</g>
<g>
</g>
<g>
</g>
<g>
</g>
<g>
</g>
<g>
</g>
<g>
</g>
<g>
</g>
<g>
</g>
<g>
</g>
</svg>
