<?xml version="1.0" encoding="utf-8"?>
<!-- Generator: Adobe Illustrator 18.0.0, SVG Export Plug-In . SVG Version: 6.00 Build 0)  -->
<!DOCTYPE svg PUBLIC "-//W3C//DTD SVG 1.1//EN" "http://www.w3.org/Graphics/SVG/1.1/DTD/svg11.dtd">
<svg version="1.1" id="Capa_1" xmlns="http://www.w3.org/2000/svg" xmlns:xlink="http://www.w3.org/1999/xlink" x="0px" y="0px"
	 viewBox="0 487 2000 225.9" enable-background="new 0 487 2000 225.9" xml:space="preserve">
<g>
	<rect y="487" fill="#0000F5" width="478.3" height="225.9"/>
	<rect x="507.2" y="487" fill="#0000F5" width="478.3" height="225.9"/>
	<rect x="1014.6" y="487" fill="#0000F5" width="478.3" height="225.9"/>
	<rect x="1521.7" y="487" fill="#0000F5" width="478.3" height="225.9"/>
	<g>
		<g>
			<path fill="#FFFFFF" d="M31.2,544.3h12.2c4.8,0,8.6,0.8,10.9,2.5c2.5,1.7,3.8,4.8,3.8,9.2c0,2.9-0.4,5.2-1,7.1
				c-0.8,1.7-2.1,3.1-4.2,4.2l5.9,21.2H48.6l-4.8-19.7h-2.7v19.9h-9.9C31.2,588.7,31.2,544.3,31.2,544.3z M43.8,563.1
				c1.9,0,3.4-0.4,4.2-1.5c0.8-1,1.3-2.5,1.3-4.6s-0.4-3.6-1-4.6c-0.6-1-1.9-1.5-3.8-1.5h-3.1v12.2
				C41.3,563.1,43.8,563.1,43.8,563.1z"/>
			<path fill="#FFFFFF" d="M66,585.5c-2.1-2.5-3.1-6.1-3.1-10.9v-16.6c0-4.8,1-8.4,3.1-10.9c2.1-2.5,5.4-3.6,10.3-3.6
				s8.2,1.3,10.3,3.6c2.1,2.5,3.1,6.1,3.1,10.9v16.6c0,4.8-1,8.4-3.1,10.9c-2.1,2.5-5.4,3.8-10.3,3.8
				C71.5,589.3,68.1,588.1,66,585.5z M79,580.9c0.4-0.8,0.6-2.1,0.6-3.8v-21.4c0-1.7-0.2-2.9-0.6-3.8c-0.4-0.8-1.3-1.5-2.7-1.5
				c-1.3,0-2.1,0.4-2.7,1.5c-0.4,0.8-0.6,2.1-0.6,3.8v21.4c0,1.7,0.2,2.9,0.6,3.8c0.4,0.8,1.3,1.5,2.7,1.5
				C77.8,582.4,78.6,581.8,79,580.9z"/>
			<path fill="#FFFFFF" d="M98.1,585.3c-2.1-2.5-2.9-6.3-2.9-10.9v-15.9c0-4.8,1-8.6,2.9-11.1c1.9-2.5,5.4-3.8,10.3-3.8
				c4.6,0,8,1,9.9,3.4s2.9,5.4,2.9,9.4v4h-9.6V556c0-1.7-0.2-2.9-0.6-4c-0.4-0.8-1.3-1.5-2.7-1.5c-1.5,0-2.3,0.4-2.7,1.5
				c-0.4,1-0.6,2.3-0.6,4v20.7c0,1.7,0.2,3.1,0.6,4c0.4,0.8,1.3,1.5,2.7,1.5c1.5,0,2.3-0.4,2.5-1.5c0.4-0.8,0.6-2.3,0.6-4v-4.6h9.6
				v3.8c0,4.2-1,7.3-2.9,9.6c-1.9,2.3-5.2,3.6-9.9,3.6C103.5,589.3,100.2,588.1,98.1,585.3z"/>
			<path fill="#FFFFFF" d="M126.4,544.3h9.9v18l7.5-18h9.6l-8.2,20.1l8.6,24.3h-10.1l-6.5-19.5l-1,1.5v17.8h-9.9V544.3z"/>
			<path fill="#FFFFFF" d="M32.9,648.4c-1.9-1.9-2.9-4.4-2.9-7.8c0-2.7,0.6-5,1.7-7.1c1-2.1,2.7-4.2,4.6-6.3
				c-1.5-2.5-2.5-4.6-3.4-6.5c-0.8-1.9-1-3.6-1-5.4c0-2.7,0.8-5,2.5-6.9c1.7-1.9,4-2.7,7.1-2.7c2.7,0,5,0.8,6.9,2.7
				c1.9,1.7,2.7,4,2.7,6.7c0,1.7-0.2,3.1-0.8,4.6s-1.3,2.5-2.1,3.6s-1.9,2.3-3.1,3.6l-1.3,1.5l5.2,9.6c0.4-0.8,0.8-2.1,1-4
				c0.2-1.9,0.4-3.6,0.6-5.2h5.9c0,2.9-0.2,5.7-0.8,7.8s-1.5,4.2-2.5,6.3c0.4,0.4,0.8,0.8,1.5,1.3s1.3,0.6,2.1,0.6v6.5
				c-0.2,0-0.4,0-0.6,0.2c-0.2,0.2-0.6,0-0.8,0c-1.3,0-2.5-0.4-3.8-1c-1.3-0.8-2.3-1.7-3.1-2.7c-1.9,2.5-4.6,3.8-8,3.8
				C37.3,651.1,34.8,650.3,32.9,648.4z M44.8,643l-5.4-10.1c-1.5,2.5-2.3,4.8-2.3,7.3c0,1.5,0.4,2.7,1,3.6c0.6,0.8,1.7,1.5,2.7,1.5
				C42.3,645.3,43.8,644.4,44.8,643z M43.4,619.3c0.6-1.7,1-3.1,1-4.6c0-0.8-0.2-1.7-0.8-2.1c-0.4-0.6-1-0.8-1.9-0.8s-1.5,0.4-1.9,1
				c-0.4,0.6-0.6,1.5-0.6,2.5c0,2.3,0.6,5,2.1,8.2C41.9,622.4,42.8,621.2,43.4,619.3z"/>
			<path fill="#FFFFFF" d="M76.3,606.3h14.9c4,0,6.9,1,8.8,3.4s2.9,5.4,2.9,9.6c0,4.8-1,8-3.4,9.9c-2.3,1.9-5.4,2.7-9.4,2.7h-4v18.9
				h-9.9V606.3z M89.5,624.9c1.7,0,2.9-0.4,3.4-1.5c0.6-0.8,0.8-2.5,0.8-4.6c0-1.9-0.2-3.4-0.8-4.4c-0.6-1-1.7-1.5-3.6-1.5h-3.1
				v11.7h3.4V624.9z"/>
			<path fill="#FFFFFF" d="M110,647.6c-2.1-2.5-3.1-6.1-3.1-10.9v-16.6c0-4.8,1-8.4,3.1-10.9c2.1-2.5,5.4-3.6,10.3-3.6
				c4.8,0,8.2,1.3,10.3,3.6c2.1,2.5,3.1,6.1,3.1,10.9v16.6c0,4.8-1,8.4-3.1,10.9c-2.1,2.5-5.4,3.8-10.3,3.8
				C115.5,651.1,112.1,650.1,110,647.6z M123,643c0.4-0.8,0.6-2.1,0.6-3.8v-21.4c0-1.7-0.2-2.9-0.6-3.8c-0.4-0.8-1.3-1.5-2.7-1.5
				c-1.3,0-2.1,0.4-2.7,1.5c-0.4,0.8-0.6,2.1-0.6,3.8v21.4c0,1.7,0.2,2.9,0.6,3.8c0.4,0.8,1.3,1.5,2.7,1.5
				C121.8,644.4,122.6,643.8,123,643z"/>
			<path fill="#FFFFFF" d="M139.6,606.3h14.9c4,0,6.9,1,8.8,3.4c1.9,2.3,2.9,5.4,2.9,9.6c0,4.8-1,8-3.4,9.9
				c-2.3,1.9-5.4,2.7-9.4,2.7h-4v18.9h-9.9V606.3z M152.8,624.9c1.7,0,2.9-0.4,3.4-1.5c0.6-0.8,0.8-2.5,0.8-4.6
				c0-1.9-0.2-3.4-0.8-4.4c-0.6-1-1.7-1.5-3.6-1.5h-3.1v11.7h3.4V624.9z"/>
		</g>
	</g>
	<g>
		<g>
			<path fill="#FFFFFF" d="M556.2,544.3h12.2c4.8,0,8.6,0.8,10.9,2.5c2.5,1.7,3.8,4.8,3.8,9.2c0,2.9-0.4,5.2-1,7.1
				c-0.8,1.7-2.1,3.1-4.2,4.2l6.1,21.4h-10.1l-4.8-19.9h-3.1v19.9H556v-44.4H556.2z M568.6,563.1c1.9,0,3.4-0.4,4.2-1.5
				c0.8-1,1.3-2.5,1.3-4.6s-0.4-3.6-1-4.6c-0.6-1-1.9-1.5-3.8-1.5h-3.4v12.2C565.9,563.1,568.6,563.1,568.6,563.1z"/>
			<path fill="#FFFFFF" d="M595.2,544.3h11.1l8.2,44.2h-8.8l-1.5-9.4h-6.5l-1.5,9.4h-9.4L595.2,544.3z M603.2,573.4l-2.3-17.2
				l-2.3,17.2H603.2z"/>
			<path fill="#FFFFFF" d="M619.1,544.3h11.3c3.8,0,6.9,0.4,9,1.5s3.8,2.5,4.6,4.4c0.8,2.1,1.3,4.8,1.3,8.2v16.1
				c0,3.4-0.4,6.1-1.3,8.2c-0.8,2.1-2.3,3.6-4.6,4.6c-2.1,1-5,1.5-8.8,1.5h-11.3v-44.4H619.1z M630.4,581.8c1.5,0,2.5-0.2,3.1-0.6
				c0.6-0.4,1-1,1.3-1.9s0.2-1.9,0.2-3.6v-19.3c0-1.5,0-2.5-0.2-3.4s-0.6-1.3-1.3-1.7c-0.6-0.4-1.7-0.6-3.1-0.6h-1.5v30.6h1.5V581.8
				z"/>
			<path fill="#FFFFFF" d="M651.2,544.3h9.9v44.2h-9.9V544.3z"/>
			<path fill="#FFFFFF" d="M670,585.5c-2.1-2.5-3.1-6.1-3.1-10.9v-16.6c0-4.8,1-8.4,3.1-10.9s5.4-3.6,10.3-3.6s8.2,1.3,10.3,3.6
				c2.1,2.5,3.1,6.1,3.1,10.9v16.6c0,4.8-1,8.4-3.1,10.9s-5.4,3.8-10.3,3.8C675.5,589.3,672.1,588.1,670,585.5z M683,580.9
				c0.4-0.8,0.6-2.1,0.6-3.8v-21.4c0-1.7-0.2-2.9-0.6-3.8c-0.4-0.8-1.3-1.5-2.7-1.5c-1.3,0-2.1,0.4-2.7,1.5
				c-0.4,0.8-0.6,2.1-0.6,3.8v21.4c0,1.7,0.2,2.9,0.6,3.8c0.4,0.8,1.3,1.5,2.7,1.5C681.8,582.4,682.6,581.8,683,580.9z"/>
			<path fill="#FFFFFF" d="M713.6,544.3h9.9V582h10.3v6.7h-19.9v-44.4H713.6z"/>
			<path fill="#FFFFFF" d="M744.2,544.3h11.1l8.2,44.2h-9L753,579h-6.5l-1.5,9.4h-9.2L744.2,544.3z M752.2,573.4l-2.3-17.2
				l-2.3,17.2H752.2z"/>
			<path fill="#FFFFFF" d="M782.1,544.3h12.2c4.8,0,8.6,0.8,10.9,2.5c2.5,1.7,3.8,4.8,3.8,9.2c0,2.9-0.4,5.2-1,7.1
				c-0.8,1.7-2.1,3.1-4.2,4.2l6.1,21.4h-10.1l-4.8-19.9h-2.7v19.9h-9.9v-44.4H782.1z M794.5,563.1c1.9,0,3.4-0.4,4.2-1.5
				c0.8-1,1.3-2.5,1.3-4.6s-0.4-3.6-1-4.6c-0.6-1-1.9-1.5-3.8-1.5H792v12.2C792,563.1,794.5,563.1,794.5,563.1z"/>
			<path fill="#FFFFFF" d="M814.8,544.3h19.9v6.7h-10.1v10.9h7.8v6.9h-7.8V582H835v6.7h-20.1V544.3z"/>
			<path fill="#FFFFFF" d="M839.4,544.3h11.3c3.8,0,6.9,0.4,9,1.5c2.1,1,3.8,2.5,4.6,4.4c0.8,2.1,1.3,4.8,1.3,8.2v16.1
				c0,3.4-0.4,6.1-1.3,8.2c-0.8,2.1-2.3,3.6-4.6,4.6c-2.1,1-5,1.5-8.8,1.5h-11.3v-44.4H839.4z M850.7,581.8c1.5,0,2.5-0.2,3.1-0.6
				c0.6-0.4,1-1,1.3-1.9s0.2-1.9,0.2-3.6v-19.3c0-1.5,0-2.5-0.2-3.4s-0.6-1.3-1.3-1.7c-0.6-0.4-1.7-0.6-3.1-0.6h-1.5v30.6h1.5V581.8
				z"/>
			<path fill="#FFFFFF" d="M560.8,656.8c-1.9-2.3-3.1-5.4-3.8-9.2c-0.6-3.8-0.8-8.6-0.8-14.3c0-6.1,0.2-10.9,0.8-14.7
				c0.6-3.8,1.9-6.9,3.8-9.2s4.8-3.6,8.6-3.6v6.3c-1.3,0-2.3,0.8-3.1,2.3c-0.6,1.7-1.3,4-1.5,6.9s-0.4,6.9-0.4,11.9
				c0,4.8,0.2,8.8,0.4,11.7s0.8,5.2,1.5,6.7c0.6,1.5,1.7,2.3,2.9,2.3v6.3C565.7,660.4,562.7,659.1,560.8,656.8z"/>
			<path fill="#FFFFFF" d="M574.7,606.3h14.9c4,0,6.9,1,8.8,3.4c1.9,2.3,2.9,5.4,2.9,9.6c0,4.8-1,8-3.4,9.9
				c-2.3,1.9-5.4,2.7-9.4,2.7h-4v18.9h-9.9V606.3z M587.7,624.9c1.7,0,2.9-0.4,3.4-1.5c0.6-0.8,0.8-2.5,0.8-4.6
				c0-1.9-0.2-3.4-0.8-4.4c-0.6-1-1.7-1.5-3.6-1.5h-3.1v11.7h3.4V624.9z"/>
			<path fill="#FFFFFF" d="M608.4,647.6c-2.1-2.5-3.1-6.1-3.1-10.9v-16.6c0-4.8,1-8.4,3.1-10.9c2.1-2.5,5.4-3.6,10.3-3.6
				s8.2,1.3,10.3,3.6c2.1,2.5,3.1,6.1,3.1,10.9v16.6c0,4.8-1,8.4-3.1,10.9c-2.1,2.5-5.4,3.8-10.3,3.8
				C613.9,651.1,610.3,650.1,608.4,647.6z M621.4,643c0.4-0.8,0.6-2.1,0.6-3.8v-21.4c0-1.7-0.2-2.9-0.6-3.8
				c-0.4-0.8-1.3-1.5-2.7-1.5c-1.3,0-2.1,0.4-2.7,1.5c-0.4,0.8-0.6,2.1-0.6,3.8v21.4c0,1.7,0.2,2.9,0.6,3.8c0.4,0.8,1.3,1.5,2.7,1.5
				C620.1,644.4,620.8,643.8,621.4,643z"/>
			<path fill="#FFFFFF" d="M638,606.3h9.9V644h10.3v6.5h-19.9v-44.2H638z"/>
			<path fill="#FFFFFF" d="M662.3,606.3h9.9V644h10.3v6.5h-20.1V606.3z"/>
			<path fill="#FFFFFF" d="M688.3,647.6c-2.1-2.5-3.1-6.1-3.1-10.9v-16.6c0-4.8,1-8.4,3.1-10.9c2.1-2.5,5.4-3.6,10.3-3.6
				s8.2,1.3,10.3,3.6c2.1,2.5,3.1,6.1,3.1,10.9v16.6c0,4.8-1,8.4-3.1,10.9c-2.1,2.5-5.4,3.8-10.3,3.8
				C693.7,651.1,690.1,650.1,688.3,647.6z M701,643c0.4-0.8,0.6-2.1,0.6-3.8v-21.4c0-1.7-0.2-2.9-0.6-3.8c-0.4-0.8-1.3-1.5-2.7-1.5
				c-1.3,0-2.1,0.4-2.7,1.5c-0.4,0.8-0.6,2.1-0.6,3.8v21.4c0,1.7,0.2,2.9,0.6,3.8c0.4,0.8,1.3,1.5,2.7,1.5
				C699.8,644.4,700.6,643.8,701,643z"/>
			<path fill="#FFFFFF" d="M737.9,606.3H749l8.2,44.2h-9l-1.5-9.4h-6.5l-1.5,9.4h-9.2L737.9,606.3z M744,591.8h9l-6.9,10.9h-5.7
				L744,591.8z M745.9,635.4l-2.3-17.2l-2.3,17.2H745.9z"/>
			<path fill="#FFFFFF" d="M761.8,606.3h9.9V644h10.3v6.5H762v-44.2H761.8z"/>
			<path fill="#FFFFFF" d="M780.9,606.3h8.4l4.8,30.2l4.4-30.2h8.8l-8.2,44.2h-10.3L780.9,606.3z"/>
			<path fill="#FFFFFF" d="M816.3,606.3h11.1l8.2,44.2h-9l-1.5-9.4h-6.5l-1.5,9.4h-9.2L816.3,606.3z M824.3,635.4l-2.3-17.2
				l-2.3,17.2H824.3z"/>
			<path fill="#FFFFFF" d="M840.2,606.3h12.2c4.8,0,8.6,0.8,10.9,2.5c2.5,1.7,3.8,4.8,3.8,9.2c0,2.9-0.4,5.2-1,7.1
				c-0.8,1.7-2.1,3.1-4.2,4.2l5.9,21.2h-10.1l-4.8-19.9H850v19.9h-9.9L840.2,606.3L840.2,606.3z M852.6,625.1c1.9,0,3.4-0.4,4.2-1.5
				c0.8-1,1.3-2.5,1.3-4.6c0-2.1-0.4-3.6-1-4.6c-0.6-1-1.9-1.5-3.8-1.5H850v12.2H852.6z"/>
			<path fill="#FFFFFF" d="M872.9,606.3h19.9v6.7h-10.1v10.9h7.8v6.7h-7.8v13.2H893v6.7h-20.1V606.3z"/>
			<path fill="#FFFFFF" d="M895.7,644.6l10.9-31.9h-10.3v-6.7h19.9v5.4l-10.9,32.1h11.1v6.9h-20.5v-5.9H895.7z"/>
			<path fill="#FFFFFF" d="M919.6,654.1c1.3,0,2.3-0.8,2.9-2.3c0.6-1.5,1.3-3.8,1.5-6.7s0.4-6.9,0.4-11.7c0-5-0.2-9-0.4-11.9
				c-0.2-2.9-0.8-5.2-1.5-6.9c-0.6-1.7-1.7-2.3-3.1-2.3v-6.3c3.8,0,6.7,1.3,8.6,3.6c1.9,2.3,3.1,5.4,3.8,9.2s0.8,8.8,0.8,14.7
				c0,5.7-0.2,10.5-0.8,14.3s-1.9,6.9-3.8,9.4c-1.9,2.3-4.8,3.6-8.6,3.6v-6.5H919.6z"/>
		</g>
	</g>
	<g>
		<g>
			<path fill="#FFFFFF" d="M1040.3,544.3h12.2c4.8,0,8.6,0.8,10.9,2.5c2.5,1.7,3.8,4.8,3.8,9.2c0,2.9-0.4,5.2-1,7.1
				c-0.8,1.7-2.1,3.1-4.2,4.2l6.1,21.4h-10.1l-4.8-19.9h-3.1v19.9h-9.9v-44.4H1040.3z M1052.7,563.1c1.9,0,3.4-0.4,4.2-1.5
				c0.8-1,1.3-2.5,1.3-4.6s-0.4-3.6-1-4.6c-0.6-1-1.9-1.5-3.8-1.5h-3.4v12.2C1050,563.1,1052.7,563.1,1052.7,563.1z"/>
			<path fill="#FFFFFF" d="M1079.3,544.3h11.1l8.2,44.2h-8.8l-1.5-9.4h-6.5l-1.5,9.4h-9.4L1079.3,544.3z M1087.3,573.4l-2.3-17.2
				l-2.3,17.2H1087.3z"/>
			<path fill="#FFFFFF" d="M1103.2,544.3h11.3c3.8,0,6.9,0.4,9,1.5s3.8,2.5,4.6,4.4c0.8,2.1,1.3,4.8,1.3,8.2v16.1
				c0,3.4-0.4,6.1-1.3,8.2c-0.8,2.1-2.3,3.6-4.6,4.6c-2.1,1-5,1.5-8.8,1.5h-11.3v-44.4H1103.2z M1114.5,581.8c1.5,0,2.5-0.2,3.1-0.6
				c0.6-0.4,1-1,1.3-1.9c0.2-0.8,0.2-1.9,0.2-3.6v-19.3c0-1.5,0-2.5-0.2-3.4c-0.2-0.8-0.6-1.3-1.3-1.7c-0.6-0.4-1.7-0.6-3.1-0.6
				h-1.5v30.6h1.5V581.8z"/>
			<path fill="#FFFFFF" d="M1135.3,544.3h9.9v44.2h-9.9V544.3z"/>
			<path fill="#FFFFFF" d="M1154.1,585.5c-2.1-2.5-3.1-6.1-3.1-10.9v-16.6c0-4.8,1-8.4,3.1-10.9c2.1-2.5,5.4-3.6,10.3-3.6
				c4.8,0,8.2,1.3,10.3,3.6c2.1,2.5,3.1,6.1,3.1,10.9v16.6c0,4.8-1,8.4-3.1,10.9c-2.1,2.5-5.4,3.8-10.3,3.8
				C1159.6,589.3,1156.2,588.1,1154.1,585.5z M1167.1,580.9c0.4-0.8,0.6-2.1,0.6-3.8v-21.4c0-1.7-0.2-2.9-0.6-3.8
				c-0.4-0.8-1.3-1.5-2.7-1.5c-1.3,0-2.1,0.4-2.7,1.5c-0.4,0.8-0.6,2.1-0.6,3.8v21.4c0,1.7,0.2,2.9,0.6,3.8s1.3,1.5,2.7,1.5
				S1166.7,581.8,1167.1,580.9z"/>
			<path fill="#FFFFFF" d="M1200.3,585.3c-2.1-2.5-2.9-6.3-2.9-10.9v-15.9c0-4.8,1-8.6,2.9-11.1c1.9-2.5,5.4-3.8,10.3-3.8
				c4.6,0,8,1,9.9,3.4s2.9,5.4,2.9,9.4v4h-9.6V556c0-1.7-0.2-2.9-0.6-4c-0.4-0.8-1.3-1.5-2.7-1.5s-2.3,0.4-2.7,1.5
				c-0.4,1-0.6,2.3-0.6,4v20.7c0,1.7,0.2,3.1,0.6,4c0.4,0.8,1.3,1.5,2.7,1.5s2.3-0.4,2.5-1.5c0.4-0.8,0.6-2.3,0.6-4v-4.6h9.6v3.8
				c0,4.2-1,7.3-2.9,9.6c-1.9,2.3-5.2,3.6-9.9,3.6C1205.7,589.3,1202.3,588.1,1200.3,585.3z"/>
			<path fill="#FFFFFF" d="M1231.1,585.5c-2.1-2.5-3.1-6.1-3.1-10.9v-16.6c0-4.8,1-8.4,3.1-10.9c2.1-2.5,5.4-3.6,10.3-3.6
				c4.8,0,8.2,1.3,10.3,3.6c2.1,2.5,3.1,6.1,3.1,10.9v16.6c0,4.8-1,8.4-3.1,10.9c-2.1,2.5-5.4,3.8-10.3,3.8
				C1236.5,589.3,1233.2,588.1,1231.1,585.5z M1244.1,580.9c0.4-0.8,0.6-2.1,0.6-3.8v-21.4c0-1.7-0.2-2.9-0.6-3.8
				c-0.4-0.8-1.3-1.5-2.7-1.5c-1.3,0-2.1,0.4-2.7,1.5c-0.4,0.8-0.6,2.1-0.6,3.8v21.4c0,1.7,0.2,2.9,0.6,3.8s1.3,1.5,2.7,1.5
				S1243.6,581.8,1244.1,580.9z"/>
			<path fill="#FFFFFF" d="M1260.6,544.3h6.9l9,21.4v-21.4h8.2v44.2h-6.7l-9-23.1v23.1h-8.4V544.3z"/>
			<path fill="#FFFFFF" d="M1303.4,544.3h8.4l4.8,30.2l4.4-30.2h8.8l-8.2,44.2h-10.3L1303.4,544.3z"/>
			<path fill="#FFFFFF" d="M1336.1,585.5c-2.1-2.5-3.1-6.1-3.1-10.9v-16.6c0-4.8,1-8.4,3.1-10.9s5.4-3.6,10.3-3.6
				c4.8,0,8.2,1.3,10.3,3.6c2.1,2.5,3.1,6.1,3.1,10.9v16.6c0,4.8-1,8.4-3.1,10.9c-2.1,2.5-5.4,3.8-10.3,3.8
				C1341.5,589.3,1338.2,588.1,1336.1,585.5z M1349.1,580.9c0.4-0.8,0.6-2.1,0.6-3.8v-21.4c0-1.7-0.2-2.9-0.6-3.8
				c-0.4-0.8-1.3-1.5-2.7-1.5c-1.3,0-2.1,0.4-2.7,1.5c-0.4,0.8-0.6,2.1-0.6,3.8v21.4c0,1.7,0.2,2.9,0.6,3.8s1.3,1.5,2.7,1.5
				C1347.8,582.4,1348.6,581.8,1349.1,580.9z"/>
			<path fill="#FFFFFF" d="M1367.9,586c-2.1-2.3-3.1-5.9-3.4-10.7l8.4-1.3c0,2.7,0.4,4.8,1,6.1c0.6,1.3,1.7,1.9,2.9,1.9
				c1.7,0,2.5-1,2.5-3.1c0-1.7-0.4-3.1-1.3-4.4c-0.8-1.3-2.1-2.5-3.8-4l-3.8-3.4c-1.9-1.7-3.4-3.4-4.4-5c-1-1.7-1.5-4-1.5-6.5
				c0-3.8,1-6.5,3.4-8.6c2.3-2.1,5.2-2.9,9-2.9c4.2,0,7.1,1.3,8.6,3.6s2.3,5.4,2.5,9l-8.4,1c0-2.3-0.2-4-0.6-5s-1-1.5-2.3-1.5
				c-0.8,0-1.5,0.4-1.9,1c-0.4,0.6-0.6,1.5-0.6,2.3c0,1.5,0.4,2.7,1,3.8c0.6,1,1.7,2.1,3.4,3.6l3.6,3.1c2.1,1.9,4,3.8,5,5.9
				c1.3,2.1,1.9,4.6,1.9,7.3c0,2.1-0.4,4-1.5,5.7c-1,1.7-2.3,2.9-4,4c-1.7,1-3.8,1.5-6.1,1.5C1373.2,589.3,1370,588.1,1367.9,586z"
				/>
			<path fill="#FFFFFF" d="M1045,656.8c-1.9-2.3-3.1-5.4-3.8-9.2c-0.6-3.8-0.8-8.6-0.8-14.3c0-6.1,0.2-10.9,0.8-14.7
				c0.6-3.8,1.9-6.9,3.8-9.2c1.9-2.3,4.8-3.6,8.6-3.6v6.3c-1.3,0-2.3,0.8-3.1,2.3c-0.6,1.7-1.3,4-1.5,6.9s-0.4,6.9-0.4,11.9
				c0,4.8,0.2,8.8,0.4,11.7s0.8,5.2,1.5,6.7s1.7,2.3,2.9,2.3v6.3C1049.8,660.4,1046.8,659.1,1045,656.8z"/>
			<path fill="#FFFFFF" d="M1059.4,606.3h10.5l4.8,25.8l5.2-25.8h10.1l0.8,44.2h-6.9l-0.8-29.3l-5.2,29.3h-6.3l-5.4-29.8l-0.4,29.8
				h-7.1L1059.4,606.3z"/>
			<path fill="#FFFFFF" d="M1103.4,606.3h11.1l8.2,44.2h-9l-1.5-9.4h-6.5l-1.5,9.4h-9.2L1103.4,606.3z M1111.4,635.4l-2.3-17.2
				l-2.3,17.2H1111.4z"/>
			<path fill="#FFFFFF" d="M1127.3,606.3h12.2c4.8,0,8.6,0.8,10.9,2.5c2.5,1.7,3.8,4.8,3.8,9.2c0,2.9-0.4,5.2-1,7.1
				c-0.8,1.7-2.1,3.1-4.2,4.2l6.1,21.4h-10.1l-4.8-19.9h-2.7v19.7h-9.9v-44.2H1127.3z M1139.9,625.1c1.9,0,3.4-0.4,4.2-1.5
				c0.8-1,1.3-2.5,1.3-4.6c0-2.1-0.4-3.6-1-4.6c-0.6-1-1.9-1.5-3.8-1.5h-3.1v12.2H1139.9z"/>
			<path fill="#FFFFFF" d="M1160.2,606.3h9.9v44.2h-9.9V606.3z"/>
			<path fill="#FFFFFF" d="M1182.9,606.3h11.1l8.2,44.2h-9l-1.5-9.4h-6.5l-1.5,9.4h-9.2L1182.9,606.3z M1190.8,635.4l-2.3-17.2
				l-2.3,17.2H1190.8z"/>
			<path fill="#FFFFFF" d="M1223.3,647.6c-2.1-2.5-3.1-6.1-3.1-10.9v-16.6c0-4.8,1-8.4,3.1-10.9c2.1-2.5,5.4-3.6,10.3-3.6
				c4.8,0,8.2,1.3,10.3,3.6c2.1,2.5,3.1,6.1,3.1,10.9v16.6c0,4.8-1,8.4-3.1,10.9c-2.1,2.5-5.4,3.8-10.3,3.8
				C1228.8,651.1,1225.4,650.1,1223.3,647.6z M1236.3,643c0.4-0.8,0.6-2.1,0.6-3.8v-21.4c0-1.7-0.2-2.9-0.6-3.8s-1.3-1.5-2.7-1.5
				c-1.3,0-2.1,0.4-2.7,1.5c-0.4,0.8-0.6,2.1-0.6,3.8v21.4c0,1.7,0.2,2.9,0.6,3.8c0.4,0.8,1.3,1.5,2.7,1.5S1235.9,643.8,1236.3,643z
				"/>
			<path fill="#FFFFFF" d="M1251,606.3h7.3l-2.9,16.6h-4.4V606.3z"/>
			<path fill="#FFFFFF" d="M1262.3,606.3h11.3c3.8,0,6.9,0.4,9,1.5c2.1,1,3.8,2.5,4.6,4.4c0.8,2.1,1.3,4.8,1.3,8.2v16.1
				c0,3.4-0.4,6.1-1.3,8.2c-0.8,2.1-2.3,3.6-4.6,4.6c-2.1,1-5,1.5-8.8,1.5h-11.3v-44.4H1262.3z M1273.6,643.8c1.5,0,2.5-0.2,3.1-0.6
				c0.6-0.4,1-1,1.3-1.9c0.2-0.8,0.2-1.9,0.2-3.6v-19.3c0-1.5,0-2.5-0.2-3.4c-0.2-0.8-0.6-1.3-1.3-1.7c-0.6-0.4-1.7-0.6-3.1-0.6
				h-1.5v30.6h1.5V643.8z"/>
			<path fill="#FFFFFF" d="M1296.7,647.6c-2.1-2.5-3.1-6.1-3.1-10.9v-16.6c0-4.8,1-8.4,3.1-10.9c2.1-2.5,5.4-3.6,10.3-3.6
				c4.8,0,8.2,1.3,10.3,3.6c2.1,2.5,3.1,6.1,3.1,10.9v16.6c0,4.8-1,8.4-3.1,10.9c-2.1,2.5-5.4,3.8-10.3,3.8
				C1302.1,651.1,1298.8,650.1,1296.7,647.6z M1309.7,643c0.4-0.8,0.6-2.1,0.6-3.8v-21.4c0-1.7-0.2-2.9-0.6-3.8s-1.3-1.5-2.7-1.5
				c-1.3,0-2.1,0.4-2.7,1.5c-0.4,0.8-0.6,2.1-0.6,3.8v21.4c0,1.7,0.2,2.9,0.6,3.8c0.4,0.8,1.3,1.5,2.7,1.5S1309.2,643.8,1309.7,643z
				"/>
			<path fill="#FFFFFF" d="M1326.2,606.3h6.9l9,21.4v-21.4h8.2v44.2h-6.7l-9-23.1v23.1h-8.4V606.3z"/>
			<path fill="#FFFFFF" d="M1357,606.3h6.9l9,21.4v-21.4h8.2v44.2h-6.7l-9-23.1v23.1h-8.4V606.3z"/>
			<path fill="#FFFFFF" d="M1387.6,606.3h19.9v6.7h-10.1v10.9h7.8v6.7h-7.8v13.2h10.3v6.7h-20.1L1387.6,606.3L1387.6,606.3z"/>
			<path fill="#FFFFFF" d="M1412.1,606.3h9.9V644h10.3v6.5h-19.9v-44.2H1412.1z"/>
			<path fill="#FFFFFF" d="M1435,654.1c1.3,0,2.3-0.8,2.9-2.3c0.6-1.5,1.3-3.8,1.5-6.7s0.4-6.9,0.4-11.7c0-5-0.2-9-0.4-11.9
				c-0.2-2.9-0.8-5.2-1.5-6.9c-0.6-1.7-1.7-2.3-3.1-2.3v-6.3c3.8,0,6.7,1.3,8.6,3.6c1.9,2.3,3.1,5.4,3.8,9.2s0.8,8.8,0.8,14.7
				c0,5.7-0.2,10.5-0.8,14.3c-0.6,3.8-1.9,6.9-3.8,9.4c-1.9,2.3-4.8,3.6-8.6,3.6v-6.5H1435z"/>
		</g>
	</g>
	<g>
		<path fill="#FFFFFF" d="M1552.6,544.3h11.1l8.2,44.2h-9l-1.5-9.4h-6.3l-1.5,9.4h-9.2L1552.6,544.3z M1560.5,573.4l-2.3-17.2
			l-2.3,17.2H1560.5z"/>
		<path fill="#FFFFFF" d="M1576.4,544.3h9.9V582h10.3v6.7h-19.9v-44.4H1576.4z"/>
		<path fill="#FFFFFF" d="M1601.4,544.3h10.5l4.8,25.8l5.2-25.8h10.1l0.8,44.2h-6.9l-0.8-29.6l-5.2,29.6h-6.1l-5.4-29.8l-0.6,29.8
			h-7.1L1601.4,544.3z"/>
		<path fill="#FFFFFF" d="M1641.6,585.5c-2.1-2.5-3.1-6.1-3.1-10.9v-16.6c0-4.8,1-8.4,3.1-10.9c2.1-2.5,5.4-3.6,10.3-3.6
			c4.8,0,8.2,1.3,10.3,3.6c2.1,2.3,3.1,6.1,3.1,10.9v16.6c0,4.8-1,8.4-3.1,10.9c-2.1,2.5-5.4,3.8-10.3,3.8
			C1647.1,589.3,1643.7,588.1,1641.6,585.5z M1654.6,580.9c0.4-0.8,0.6-2.1,0.6-3.8v-21.4c0-1.7-0.2-2.9-0.6-3.8
			c-0.4-0.8-1.3-1.5-2.7-1.5c-1.3,0-2.1,0.4-2.7,1.5c-0.4,0.8-0.6,2.1-0.6,3.8v21.4c0,1.7,0.2,2.9,0.6,3.8s1.3,1.5,2.7,1.5
			C1653.4,582.2,1654.2,581.8,1654.6,580.9z"/>
		<path fill="#FFFFFF" d="M1671.4,544.3h12.2c4.8,0,8.6,0.8,10.9,2.5c2.5,1.7,3.8,4.8,3.8,9.2c0,2.9-0.4,5.2-1,7.1
			c-0.8,1.7-2.1,3.1-4.2,4.2l6.1,21.4H1689l-4.8-19.9h-2.7v19.9h-9.9v-44.4H1671.4z M1683.7,563.1c1.9,0,3.4-0.4,4.2-1.5
			c0.8-1,1.3-2.5,1.3-4.6s-0.4-3.6-1-4.6c-0.6-1-1.9-1.5-3.8-1.5h-3.1v12.2C1681.2,563.1,1683.7,563.1,1683.7,563.1z"/>
		<path fill="#FFFFFF" d="M1702.4,582.6l10.9-31.9H1703V544h19.9v5.4l-10.9,32.1h11.1v6.7h-20.5v-5.7H1702.4z"/>
		<path fill="#FFFFFF" d="M1734,544.3h11.1l8.2,44.2h-9l-1.5-9.4h-6.5l-1.5,9.4h-9.2L1734,544.3z M1742,573.4l-2.3-17.2l-2.3,17.2
			H1742z"/>
		<path fill="#FFFFFF" d="M1757.9,544.3h6.9l9,21.4v-21.4h8.2v44.2h-6.7l-9-23.1v23.1h-8.4V544.3z"/>
		<path fill="#FFFFFF" d="M1788.7,544.3h11.3c3.8,0,6.9,0.4,9,1.5c2.1,1,3.8,2.5,4.6,4.4c0.8,2.1,1.3,4.8,1.3,8.2v16.1
			c0,3.4-0.4,6.1-1.3,8.2c-0.8,2.1-2.3,3.6-4.6,4.6c-2.1,1-5,1.5-8.8,1.5H1789v-44.4H1788.7z M1800.1,581.8c1.5,0,2.5-0.2,3.1-0.6
			c0.6-0.4,1-1,1.3-1.9c0.2-0.8,0.2-1.9,0.2-3.6v-19.3c0-1.5,0-2.5-0.2-3.4c-0.2-0.8-0.6-1.3-1.3-1.7c-0.6-0.4-1.7-0.6-3.1-0.6h-1.5
			v30.6h1.5V581.8z"/>
		<path fill="#FFFFFF" d="M1823.1,585.5c-2.1-2.5-3.1-6.1-3.1-10.9v-16.6c0-4.8,1-8.4,3.1-10.9c2.1-2.5,5.4-3.6,10.3-3.6
			c4.8,0,8.2,1.3,10.3,3.6c2.1,2.5,3.1,6.1,3.1,10.9v16.6c0,4.8-1,8.4-3.1,10.9c-2.1,2.5-5.4,3.8-10.3,3.8
			S1825.2,588.1,1823.1,585.5z M1836.1,580.9c0.4-0.8,0.6-2.1,0.6-3.8v-21.4c0-1.7-0.2-2.9-0.6-3.8c-0.4-0.8-1.3-1.5-2.7-1.5
			c-1.3,0-2.1,0.4-2.7,1.5c-0.4,0.8-0.6,2.1-0.6,3.8v21.4c0,1.7,0.2,2.9,0.6,3.8s1.3,1.5,2.7,1.5
			C1834.9,582.2,1835.7,581.8,1836.1,580.9z"/>
		<path fill="#FFFFFF" d="M1869.2,585.3c-2.1-2.5-2.9-6.3-2.9-10.9v-15.9c0-4.8,1-8.6,2.9-11.1c1.9-2.5,5.4-3.8,10.3-3.8
			c4.6,0,8,1,9.9,3.4s2.9,5.4,2.9,9.4v4h-9.6V556c0-1.7-0.2-2.9-0.6-4c-0.4-0.8-1.3-1.5-2.7-1.5s-2.3,0.4-2.7,1.5
			c-0.4,1-0.6,2.3-0.6,4v20.7c0,1.7,0.2,3.1,0.6,4c0.4,0.8,1.3,1.5,2.7,1.5c1.3,0,2.3-0.4,2.5-1.5c0.4-0.8,0.6-2.3,0.6-4v-4.6h9.6
			v3.8c0,4.2-1,7.3-2.9,9.6c-1.9,2.3-5.2,3.6-9.9,3.6C1874.7,589.3,1871.3,588.1,1869.2,585.3z"/>
		<path fill="#FFFFFF" d="M1900,585.5c-2.1-2.5-3.1-6.1-3.1-10.9v-16.6c0-4.8,1-8.4,3.1-10.9c2.1-2.5,5.4-3.6,10.3-3.6
			c4.8,0,8.2,1.3,10.3,3.6c2.1,2.3,3.1,6.1,3.1,10.9v16.6c0,4.8-1,8.4-3.1,10.9c-2.1,2.5-5.4,3.8-10.3,3.8
			C1905.5,589.3,1902.1,588.1,1900,585.5z M1913,580.9c0.4-0.8,0.6-2.1,0.6-3.8v-21.4c0-1.7-0.2-2.9-0.6-3.8
			c-0.4-0.8-1.3-1.5-2.7-1.5c-1.3,0-2.1,0.4-2.7,1.5c-0.4,0.8-0.6,2.1-0.6,3.8v21.4c0,1.7,0.2,2.9,0.6,3.8s1.3,1.5,2.7,1.5
			C1911.6,582.2,1912.6,581.8,1913,580.9z"/>
		<path fill="#FFFFFF" d="M1929.6,544.3h6.9l9,21.4v-21.4h8.2v44.2h-6.7l-9-23.1v23.1h-8.4V544.3z"/>
		<path fill="#FFFFFF" d="M1731.3,606.3h9.9V644h10.3v6.5h-19.9v-44.2H1731.3z"/>
		<path fill="#FFFFFF" d="M1755.4,606.3h19.9v6.7h-10.1v10.9h7.8v6.7h-7.8v13.2h10.3v6.7h-20.1L1755.4,606.3L1755.4,606.3z"/>
		<path fill="#FFFFFF" d="M1782,647.2c-1.9-2.7-2.7-6.5-2.7-11.3V621c0-5,1-8.8,2.9-11.5c2.1-2.7,5.4-4,10.3-4c4.6,0,8,1,10.1,3.4
			s2.9,5.4,2.9,9.6v2.9h-9.6v-3.6c0-1.7-0.2-3.1-0.6-4s-1.3-1.3-2.7-1.3s-2.3,0.4-2.7,1.5s-0.6,2.3-0.6,4.2v20.5
			c0,1.7,0.2,3.1,0.8,4.2c0.6,1,1.5,1.5,2.9,1.5c2.5,0,3.8-1.9,3.8-5.7v-5.2h-4v-5.7h12.8v23.1h-6.5l-0.6-3.6
			c-1.5,2.9-3.8,4.4-7.1,4.4C1787.1,651.1,1783.9,649.9,1782,647.2z"/>
		<path fill="#FFFFFF" d="M1811.8,606.3h12.2c4.8,0,8.6,0.8,10.9,2.5c2.5,1.7,3.8,4.8,3.8,9.2c0,2.9-0.4,5.2-1,7.1
			c-0.8,1.7-2.1,3.1-4.2,4.2l6.1,21.4h-10.3l-4.8-19.9h-2.7v19.7h-9.9V606.3z M1824.4,625.1c1.9,0,3.4-0.4,4.2-1.5
			c0.8-1,1.3-2.5,1.3-4.6c0-2.1-0.4-3.6-1-4.6c-0.6-1-1.9-1.5-3.8-1.5h-3.1v12.2H1824.4z"/>
		<path fill="#FFFFFF" d="M1850.8,606.3h11.1l8.2,44.2h-9l-1.5-9.4h-6.5l-1.5,9.4h-9.2L1850.8,606.3z M1858.7,635.4l-2.3-17.2
			l-2.3,17.2H1858.7z"/>
		<path fill="#FFFFFF" d="M1874.7,606.3h6.9l9,21.4v-21.4h8.2v44.2h-6.7l-9-23.1v23.1h-8.4V606.3z"/>
		<path fill="#FFFFFF" d="M1905.5,606.3h11.1c3.8,0,6.9,0.4,9,1.5c2.1,1,3.8,2.5,4.6,4.4c0.8,1.9,1.3,4.8,1.3,8.2v16.1
			c0,3.4-0.4,6.1-1.3,8.2c-0.8,2.1-2.3,3.6-4.6,4.6c-2.3,1-5,1.5-8.8,1.5h-11.3L1905.5,606.3L1905.5,606.3z M1916.8,643.8
			c1.5,0,2.5-0.2,3.1-0.6c0.6-0.4,1-1,1.3-1.9c0.2-0.8,0.2-1.9,0.2-3.6v-19.3c0-1.5,0-2.5-0.2-3.4c-0.2-0.8-0.6-1.3-1.3-1.7
			c-0.6-0.4-1.7-0.6-3.1-0.6h-1.5v30.6h1.5V643.8z"/>
		<g>
			<path fill="#FFFFFF" d="M1546.2,606.8h10.3l4.8,25.2l5.1-25.2h9.9l0.8,43.4h-6.8l-0.8-28.8l-5,28.8h-6l-5.4-29.1l-0.6,29.1h-6.9
				L1546.2,606.8z"/>
			<path fill="#FFFFFF" d="M1583.3,606.8h9.6v43.4h-9.6V606.8z"/>
			<path fill="#FFFFFF" d="M1599.4,606.8h11.9c4.7,0,8.3,0.8,10.8,2.5c2.4,1.7,3.6,4.7,3.6,8.9c0,2.9-0.4,5.2-1.1,6.9
				c-0.7,1.7-2.1,3.1-4.2,4l5.9,21h-9.9l-4.8-19.4h-2.7v19.4h-9.6V606.8z M1611.6,625.2c1.9,0,3.3-0.5,4-1.5c0.8-1,1.2-2.5,1.2-4.6
				c0-2-0.4-3.4-1.1-4.4c-0.7-1-1.9-1.5-3.7-1.5h-3.1v12H1611.6z"/>
			<path fill="#FFFFFF" d="M1635,613.9h-6.5v-7.1h22.6v7.1h-6.5v36.2h-9.6V613.9z"/>
			<path fill="#FFFFFF" d="M1655,606.8h9.6v17.6h6.7v-17.6h9.6v43.4h-9.6v-18.9h-6.7v18.9h-9.6V606.8z"/>
			<path fill="#FFFFFF" d="M1693.6,606.8h10.9l8.1,43.4h-8.8l-1.4-9.2h-6.4l-1.5,9.2h-9L1693.6,606.8z M1701.4,635.3l-2.3-16.9
				l-2.3,16.9H1701.4z"/>
		</g>
	</g>
</g>
</svg>
