<?xml version="1.0" encoding="utf-8"?>
<!-- Generator: Adobe Illustrator 18.0.0, SVG Export Plug-In . SVG Version: 6.00 Build 0)  -->
<!DOCTYPE svg PUBLIC "-//W3C//DTD SVG 1.1//EN" "http://www.w3.org/Graphics/SVG/1.1/DTD/svg11.dtd">
<svg version="1.1" id="Capa_1" xmlns="http://www.w3.org/2000/svg" xmlns:xlink="http://www.w3.org/1999/xlink" x="0px" y="0px"
	 viewBox="0 0 879 205.4" enable-background="new 0 0 879 205.4" xml:space="preserve">
<rect width="351" height="205.4"/>
<rect x="363" width="515.9" height="205.4"/>
<g>
	<path fill="#FFFFFF" d="M36.3,106.2c-3.1-3.9-4.6-9.3-4.6-16.2c0-3.8,0.7-7.2,2.1-10.2c1.4-3,3.5-5.1,6.2-6.5
		c-2.1-1.5-3.8-3.7-5.1-6.4c-1.4-2.7-2-6.1-2-9.9c0-5.8,1.6-10.4,4.8-13.7c3.2-3.3,7.8-4.9,13.7-4.9c5.9,0,10.4,1.6,13.6,4.9
		c3.2,3.2,4.7,7.7,4.7,13.4c0,4.1-0.6,7.5-1.9,10.3c-1.3,2.8-3,4.9-5.1,6.3c2.8,1.4,4.8,3.6,6.2,6.7c1.4,3.1,2.1,6.6,2.1,10.7
		c0,6.7-1.6,12-4.7,15.8c-3.1,3.8-8.1,5.7-14.9,5.7C44.4,112.1,39.4,110.2,36.3,106.2z M54.8,99.3c0.7-1.3,1.2-2.7,1.3-4.2
		c0.1-1.5,0.2-3.4,0.2-5.6c0-3.1-0.3-5.5-1-7.3c-0.7-1.8-2-2.7-4-2.7c-2.1,0-3.4,1-4.1,3c-0.6,2-1,4.7-1,8.2c0,2.9,0.3,5.4,1,7.4
		c0.6,2,2,3,4.1,3C52.9,101.2,54,100.6,54.8,99.3z M55.7,57.3c0-2.4-0.4-4.3-1.1-5.7c-0.8-1.4-1.9-2.1-3.3-2.1
		c-1.5,0-2.6,0.7-3.4,2.1c-0.8,1.4-1.2,3.3-1.2,5.7c0,7.2,1.5,10.8,4.6,10.8C54.2,68,55.7,64.4,55.7,57.3z"/>
	<path fill="#FFFFFF" d="M83.8,105.7c-3.2-4.2-4.9-10-4.9-17.2V62.6c0-7.8,1.4-13.8,4.3-18c2.9-4.2,8-6.3,15.4-6.3
		c6.6,0,11.3,1.5,14.1,4.5c2.8,3,4.2,7.6,4.2,13.9L117,58h-13.9c0-3.2-0.3-5.4-0.8-6.6c-0.5-1.2-1.7-1.9-3.6-1.9
		c-1.4,0-2.4,0.4-3.1,1.2c-0.7,0.8-1.1,2.2-1.4,4.2c-0.2,1.9-0.4,4.9-0.4,8.8v6.4c0.8-1.2,2-2.2,3.6-2.9c1.6-0.7,3.5-1.1,5.7-1.1
		c5.2,0,9,1.9,11.4,5.7c2.4,3.8,3.6,8.8,3.6,14.9c0,8.1-1.5,14.4-4.4,18.7c-2.9,4.4-8,6.5-15.1,6.5C92,112,87,109.9,83.8,105.7z
		 M102.6,98.4c0.6-1.8,0.8-5,0.8-9.4c0-2.9-0.1-5.1-0.3-6.6c-0.2-1.5-0.6-2.7-1.2-3.6c-0.6-0.9-1.7-1.4-3.2-1.4
		c-1,0-1.9,0.3-2.8,0.9c-0.9,0.6-1.5,1.2-1.9,1.9V92c0,6.1,1.6,9.2,5,9.2C100.8,101.2,102,100.2,102.6,98.4z"/>
	<path fill="#FFFFFF" d="M131.7,106.7c-3.4-3.7-5-8.7-5-14.9V59.3c0-6.5,1.6-11.7,4.9-15.4c3.3-3.7,8.1-5.6,14.6-5.6
		c6.5,0,11.3,1.9,14.6,5.6c3.2,3.7,4.9,8.9,4.9,15.4v32.5c0,6.2-1.7,11.2-5.1,14.9c-3.4,3.7-8.2,5.6-14.4,5.6
		C139.9,112.3,135.1,110.4,131.7,106.7z M149.8,96.8c0.6-1.5,0.8-3.3,0.8-5.4V59.7c0-2.4-0.3-4.3-0.8-5.9c-0.5-1.6-1.7-2.3-3.7-2.3
		s-3.2,0.8-3.7,2.3c-0.5,1.5-0.8,3.5-0.8,5.9v31.7c0,5.1,1.5,7.7,4.4,7.7C148.1,99.1,149.3,98.4,149.8,96.8z"/>
</g>
<g>
	<path fill="#FFFFFF" d="M32.5,155.5v6.4h-2.6v-16.4h5.6c1.9,0,3.3,0.4,4.3,1.3s1.4,2.1,1.4,3.7c0,1.5-0.5,2.8-1.5,3.7
		c-1,0.9-2.4,1.3-4.2,1.3H32.5z M38.4,150.5c0-0.9-0.3-1.6-0.8-2.1s-1.3-0.7-2.5-0.7h-2.6v5.7h2.6C37.3,153.4,38.4,152.4,38.4,150.5
		z"/>
	<path fill="#FFFFFF" d="M46,145.5v9.7c0,1.5,0.3,2.5,1,3.2c0.6,0.7,1.5,1.1,2.7,1.1c1.1,0,2-0.4,2.7-1.1c0.6-0.7,1-1.8,1-3.2v-9.7
		h2.6v9.7c0,2.2-0.6,3.9-1.7,5.1c-1.2,1.2-2.7,1.7-4.6,1.7c-1.9,0-3.4-0.6-4.5-1.7c-1.1-1.2-1.7-2.8-1.7-5.1v-9.7H46z"/>
	<path fill="#FFFFFF" d="M70,154.9c0.6,0.7,0.9,1.6,0.9,2.6c0,1.4-0.5,2.4-1.4,3.2c-0.9,0.8-2.2,1.2-4,1.2H59v-16.4h6.4
		c1.6,0,2.9,0.4,3.8,1.1c0.9,0.7,1.3,1.7,1.3,3c0,1-0.3,1.9-0.8,2.5c-0.5,0.6-1.3,1.1-2.1,1.3C68.5,153.6,69.3,154.1,70,154.9z
		 M61.7,152.6h3.3c0.9,0,1.6-0.2,2.1-0.6c0.5-0.4,0.7-1,0.7-1.8c0-0.8-0.2-1.4-0.7-1.8s-1.2-0.6-2.2-0.6h-3.2V152.6z M67.3,159
		c0.5-0.5,0.8-1.1,0.8-1.9s-0.3-1.5-0.8-1.9c-0.6-0.5-1.3-0.7-2.3-0.7h-3.3v5.2H65C66,159.7,66.8,159.5,67.3,159z"/>
	<path fill="#FFFFFF" d="M76,159.8h5.7v2.1h-8.3v-16.4H76V159.8z"/>
	<path fill="#FFFFFF" d="M86.4,145.5v16.4h-2.6v-16.4H86.4z"/>
	<path fill="#FFFFFF" d="M101.9,146.9c1.3,1,2.2,2.4,2.7,4.2h-2.8c-0.4-1-1-1.8-1.8-2.4c-0.8-0.6-1.9-0.9-3.1-0.9
		c-1,0-1.8,0.2-2.6,0.7s-1.4,1.2-1.8,2.1c-0.4,0.9-0.7,1.9-0.7,3.1c0,1.2,0.2,2.2,0.7,3.1c0.4,0.9,1,1.6,1.8,2.1s1.6,0.7,2.6,0.7
		c1.2,0,2.3-0.3,3.1-0.9c0.8-0.6,1.5-1.4,1.8-2.3h2.8c-0.5,1.7-1.4,3.1-2.7,4.1c-1.3,1-3,1.5-5,1.5c-1.5,0-2.9-0.4-4.1-1.1
		c-1.2-0.7-2.1-1.7-2.8-2.9c-0.6-1.3-1-2.7-1-4.3c0-1.6,0.3-3.1,1-4.3c0.6-1.3,1.6-2.2,2.8-3c1.2-0.7,2.6-1.1,4.1-1.1
		C98.9,145.3,100.6,145.9,101.9,146.9z"/>
	<path fill="#FFFFFF" d="M117,158.3h-6.9l-1.3,3.5H106l6-16.1h3l6,16.1h-2.8L117,158.3z M116.3,156.3l-2.7-7.7l-2.7,7.7H116.3z"/>
	<path fill="#FFFFFF" d="M135.4,146.9c1.3,1,2.2,2.4,2.7,4.2h-2.8c-0.4-1-1-1.8-1.8-2.4c-0.8-0.6-1.9-0.9-3.1-0.9
		c-1,0-1.8,0.2-2.6,0.7s-1.4,1.2-1.8,2.1c-0.4,0.9-0.7,1.9-0.7,3.1c0,1.2,0.2,2.2,0.7,3.1c0.4,0.9,1,1.6,1.8,2.1s1.6,0.7,2.6,0.7
		c1.2,0,2.3-0.3,3.1-0.9c0.8-0.6,1.5-1.4,1.8-2.3h2.8c-0.5,1.7-1.4,3.1-2.7,4.1c-1.3,1-3,1.5-5,1.5c-1.5,0-2.9-0.4-4.1-1.1
		c-1.2-0.7-2.1-1.7-2.8-2.9c-0.6-1.3-1-2.7-1-4.3c0-1.6,0.3-3.1,1-4.3c0.6-1.3,1.6-2.2,2.8-3c1.2-0.7,2.6-1.1,4.1-1.1
		C132.4,145.3,134,145.9,135.4,146.9z"/>
	<path fill="#FFFFFF" d="M143.4,145.5v16.4h-2.6v-16.4H143.4z"/>
	<path fill="#FFFFFF" d="M158.3,146.4c1.2,0.7,2.2,1.7,2.9,3c0.7,1.3,1.1,2.7,1.1,4.3c0,1.6-0.4,3.1-1.1,4.3c-0.7,1.3-1.7,2.3-2.9,3
		c-1.2,0.7-2.6,1.1-4.1,1.1c-1.5,0-2.9-0.4-4.1-1.1c-1.2-0.7-2.2-1.7-2.9-3s-1.1-2.7-1.1-4.3c0-1.6,0.4-3.1,1.1-4.3
		c0.7-1.3,1.7-2.3,2.9-3c1.2-0.7,2.6-1.1,4.1-1.1C155.7,145.3,157,145.7,158.3,146.4z M151.3,148.5c-0.8,0.5-1.5,1.2-1.9,2.1
		c-0.5,0.9-0.7,1.9-0.7,3.1c0,1.2,0.2,2.2,0.7,3.1c0.5,0.9,1.1,1.6,1.9,2.1c0.8,0.5,1.8,0.7,2.8,0.7c1,0,2-0.2,2.8-0.7
		c0.8-0.5,1.4-1.2,1.9-2.1c0.5-0.9,0.7-1.9,0.7-3.1c0-1.2-0.2-2.2-0.7-3.1c-0.5-0.9-1.1-1.6-1.9-2.1c-0.8-0.5-1.7-0.7-2.8-0.7
		C153.1,147.8,152.2,148,151.3,148.5z"/>
	<path fill="#FFFFFF" d="M178.1,161.9h-2.6l-8-12.1v12.1h-2.6v-16.4h2.6l8,12.1v-12.1h2.6V161.9z"/>
	<path fill="#FFFFFF" d="M184,147.6v5h6v2h-6v5.1h6.7v2.2h-9.4v-16.4h9.4v2.1H184z"/>
	<path fill="#FFFFFF" d="M203.5,159.8c-0.4,0.7-1,1.2-1.8,1.7c-0.8,0.4-1.8,0.6-2.9,0.6c-1.1,0-2.1-0.2-3-0.6
		c-0.9-0.4-1.6-0.9-2.1-1.7c-0.5-0.7-0.8-1.5-0.9-2.5h2.8c0.1,0.7,0.4,1.3,0.9,1.8c0.5,0.5,1.2,0.8,2.1,0.8c0.8,0,1.4-0.2,1.9-0.6
		c0.4-0.4,0.7-1,0.7-1.7c0-0.6-0.2-1.1-0.5-1.4s-0.7-0.7-1.2-0.9s-1.1-0.5-2-0.7c-1-0.3-1.9-0.6-2.5-1c-0.6-0.3-1.2-0.8-1.6-1.4
		c-0.4-0.6-0.7-1.4-0.7-2.4c0-0.9,0.2-1.7,0.6-2.3c0.4-0.7,1.1-1.2,1.9-1.5c0.8-0.4,1.7-0.5,2.8-0.5c1.7,0,3,0.4,4,1.2
		s1.5,1.9,1.7,3.2h-2.9c-0.1-0.6-0.4-1.1-0.9-1.6c-0.5-0.4-1.1-0.7-1.9-0.7c-0.7,0-1.3,0.2-1.8,0.6c-0.4,0.4-0.7,0.9-0.7,1.6
		c0,0.6,0.2,1,0.5,1.4c0.3,0.4,0.7,0.6,1.2,0.9c0.5,0.2,1.1,0.5,1.9,0.7c1,0.3,1.9,0.7,2.5,1c0.7,0.3,1.2,0.8,1.7,1.4
		s0.7,1.5,0.7,2.5C204,158.3,203.9,159.1,203.5,159.8z"/>
	<path fill="#FFFFFF" d="M222.7,145.5v2.1h-4.6v14.2h-2.7v-14.2h-4.5v-2.1H222.7z"/>
	<path fill="#FFFFFF" d="M236.3,146.4c1.2,0.7,2.2,1.7,2.9,3c0.7,1.3,1.1,2.7,1.1,4.3c0,1.6-0.4,3.1-1.1,4.3c-0.7,1.3-1.7,2.3-2.9,3
		c-1.2,0.7-2.6,1.1-4.1,1.1c-1.5,0-2.9-0.4-4.1-1.1c-1.2-0.7-2.2-1.7-2.9-3s-1.1-2.7-1.1-4.3c0-1.6,0.4-3.1,1.1-4.3
		c0.7-1.3,1.7-2.3,2.9-3c1.2-0.7,2.6-1.1,4.1-1.1C233.7,145.3,235.1,145.7,236.3,146.4z M229.4,148.5c-0.8,0.5-1.5,1.2-1.9,2.1
		c-0.5,0.9-0.7,1.9-0.7,3.1c0,1.2,0.2,2.2,0.7,3.1c0.5,0.9,1.1,1.6,1.9,2.1c0.8,0.5,1.8,0.7,2.8,0.7c1,0,2-0.2,2.8-0.7
		c0.8-0.5,1.4-1.2,1.9-2.1c0.5-0.9,0.7-1.9,0.7-3.1c0-1.2-0.2-2.2-0.7-3.1c-0.5-0.9-1.1-1.6-1.9-2.1c-0.8-0.5-1.7-0.7-2.8-0.7
		C231.2,147.8,230.2,148,229.4,148.5z"/>
	<path fill="#FFFFFF" d="M253.5,145.5v2.1h-4.6v14.2h-2.7v-14.2h-4.5v-2.1H253.5z"/>
	<path fill="#FFFFFF" d="M265.2,158.3h-6.9l-1.3,3.5h-2.8l6-16.1h3l6,16.1h-2.8L265.2,158.3z M264.5,156.3l-2.7-7.7l-2.7,7.7H264.5z
		"/>
	<path fill="#FFFFFF" d="M273.9,159.8h5.7v2.1h-8.3v-16.4h2.6V159.8z"/>
	<path fill="#FFFFFF" d="M284.3,147.6v5h6v2h-6v5.1h6.7v2.2h-9.4v-16.4h9.4v2.1H284.3z"/>
	<path fill="#FFFFFF" d="M303.8,159.8c-0.4,0.7-1,1.2-1.8,1.7c-0.8,0.4-1.8,0.6-2.9,0.6c-1.1,0-2.1-0.2-3-0.6
		c-0.9-0.4-1.6-0.9-2.1-1.7c-0.5-0.7-0.8-1.5-0.9-2.5h2.8c0.1,0.7,0.4,1.3,0.9,1.8c0.5,0.5,1.2,0.8,2.1,0.8c0.8,0,1.4-0.2,1.9-0.6
		c0.4-0.4,0.7-1,0.7-1.7c0-0.6-0.2-1.1-0.5-1.4s-0.7-0.7-1.2-0.9s-1.1-0.5-2-0.7c-1-0.3-1.9-0.6-2.5-1c-0.6-0.3-1.2-0.8-1.6-1.4
		c-0.4-0.6-0.7-1.4-0.7-2.4c0-0.9,0.2-1.7,0.6-2.3c0.4-0.7,1.1-1.2,1.9-1.5c0.8-0.4,1.7-0.5,2.8-0.5c1.7,0,3,0.4,4,1.2
		s1.5,1.9,1.7,3.2h-2.9c-0.1-0.6-0.4-1.1-0.9-1.6c-0.5-0.4-1.1-0.7-1.9-0.7c-0.7,0-1.3,0.2-1.8,0.6c-0.4,0.4-0.7,0.9-0.7,1.6
		c0,0.6,0.2,1,0.5,1.4c0.3,0.4,0.7,0.6,1.2,0.9c0.5,0.2,1.1,0.5,1.9,0.7c1,0.3,1.9,0.7,2.5,1c0.7,0.3,1.2,0.8,1.7,1.4
		s0.7,1.5,0.7,2.5C304.4,158.3,304.2,159.1,303.8,159.8z"/>
</g>
<g>
	<path fill="#FFFFFF" d="M419.3,109.4c-3.1-1.7-5.3-4.3-6.6-7.7c-1.3-3.4-1.9-7.7-1.9-13V39.3h15.7v51.8c0,2.9,0.4,5.2,1.1,6.9
		c0.7,1.7,2.2,2.6,4.5,2.6c2.2,0,3.7-0.9,4.4-2.6c0.7-1.7,1.1-4,1.1-6.9V39.3h15.7v49.4c0,5.2-0.7,9.6-1.9,13
		c-1.3,3.4-3.5,6-6.6,7.7c-3.1,1.7-7.3,2.6-12.7,2.6C426.7,112,422.4,111.2,419.3,109.4z"/>
	<path fill="#FFFFFF" d="M478.5,111.9c-6.1-0.3-10.7-2.3-13.7-5.9c-3-3.6-4.6-9.2-4.9-16.8l13.5-2c0.1,4.5,0.6,7.8,1.6,9.8
		c1,2,2.5,3,4.6,3c2.7,0,4-1.7,4-5.2c0-2.8-0.6-5.1-1.9-7.1c-1.3-2-3.2-4.1-5.9-6.5l-6.3-5.4c-3.2-2.8-5.6-5.6-7.2-8.3
		c-1.6-2.7-2.4-6.2-2.4-10.3c0-5.5,1.6-9.9,4.7-13.1c3.2-3.2,7.5-5,13-5.4v-8.4h4.5v8.3c6.1,0.4,10.2,2.5,12.2,6.3
		c2.1,3.9,3.2,8.5,3.4,13.9l-13.7,1.7c-0.1-3.8-0.5-6.5-1-8.1c-0.6-1.6-1.8-2.4-3.6-2.3c-1.4,0-2.5,0.6-3.2,1.7
		c-0.7,1.1-1.1,2.4-1.1,3.8c0,2.5,0.6,4.6,1.7,6.2c1.1,1.6,2.9,3.5,5.2,5.5l6,5.2c3.5,3.2,6.3,6.5,8.2,9.8c1.9,3.3,2.9,7.2,2.9,11.7
		c0,4.8-1.5,8.8-4.4,12.2c-2.9,3.3-6.9,5.2-11.8,5.7v8.8h-4.5V111.9z"/>
	<path fill="#FFFFFF" d="M532.5,107.5c-2.7-3-4.1-7.7-4.1-13.9v-1.1h13.8c0,3.2,0.3,5.4,0.8,6.6c0.6,1.2,1.8,1.9,3.7,1.9
		c1.4,0,2.3-0.4,3-1.2c0.6-0.8,1-2.2,1.3-4.2c0.2-1.9,0.4-4.9,0.4-8.8v-6.4c-0.8,1.2-2,2.2-3.6,2.9c-1.7,0.7-3.5,1.1-5.6,1.1
		c-5.2,0-9-2-11.5-6c-2.4-4-3.7-9.2-3.7-15.5c0-7.8,1.5-13.9,4.6-18.1c3.1-4.2,8.1-6.3,15-6.3c6.8,0,11.8,2,14.9,6
		c3.2,4,4.8,9.6,4.8,16.8v26.7c0,7.7-1.4,13.7-4.3,17.9c-2.9,4.2-8,6.3-15.4,6.3C540,112,535.3,110.5,532.5,107.5z M551.3,70.1V58.4
		c0-2.8-0.3-5.1-1-6.7c-0.6-1.6-1.9-2.5-3.7-2.5c-1.9,0-3.1,0.9-3.7,2.8c-0.6,1.9-0.8,5-0.8,9.3c0,2.9,0.1,5.1,0.3,6.6
		s0.6,2.7,1.2,3.6c0.6,0.9,1.7,1.4,3.2,1.4C548.6,72.9,550.1,72,551.3,70.1z"/>
	<path fill="#FFFFFF" d="M582.9,53.9c-0.6,0.4-2.4,1.1-5.1,2.3c-0.5,0.2-1.2,0.5-2.2,0.9c-1,0.4-1.8,0.8-2.5,1.1v-11
		c7.1-3.7,11.4-6.3,13-8h11.6V111h-14.8V53.9z"/>
	<path fill="#FFFFFF" d="M617.3,53.9c-0.6,0.4-2.4,1.1-5.1,2.3c-0.5,0.2-1.2,0.5-2.2,0.9c-1,0.4-1.8,0.8-2.5,1.1v-11
		c7.1-3.7,11.4-6.3,13-8H632V111h-14.8V53.9z"/>
	<path fill="#FFFFFF" d="M644,97.4h13.6V111H644V97.4z"/>
	<path fill="#FFFFFF" d="M670.5,107.5c-2.7-3-4.1-7.7-4.1-13.9v-1.1h13.8c0,3.2,0.3,5.4,0.8,6.6c0.6,1.2,1.8,1.9,3.7,1.9
		c1.4,0,2.3-0.4,3-1.2c0.6-0.8,1-2.2,1.3-4.2c0.2-1.9,0.4-4.9,0.4-8.8v-6.4c-0.8,1.2-2,2.2-3.6,2.9c-1.7,0.7-3.5,1.1-5.6,1.1
		c-5.2,0-9-2-11.5-6c-2.4-4-3.7-9.2-3.7-15.5c0-7.8,1.5-13.9,4.6-18.1c3.1-4.2,8.1-6.3,15-6.3c6.8,0,11.8,2,14.9,6
		c3.2,4,4.8,9.6,4.8,16.8v26.7c0,7.7-1.4,13.7-4.3,17.9c-2.9,4.2-8,6.3-15.4,6.3C677.9,112,673.2,110.5,670.5,107.5z M689.3,70.1
		V58.4c0-2.8-0.3-5.1-1-6.7c-0.6-1.6-1.9-2.5-3.7-2.5c-1.9,0-3.1,0.9-3.7,2.8c-0.6,1.9-0.8,5-0.8,9.3c0,2.9,0.1,5.1,0.3,6.6
		s0.6,2.7,1.2,3.6c0.6,0.9,1.7,1.4,3.2,1.4C686.5,72.9,688,72,689.3,70.1z"/>
	<path fill="#FFFFFF" d="M719.9,109.6c-2.7-1.8-4.6-4.3-5.6-7.5c-1-3.2-1.5-7.2-1.5-12.1h14.2c0,4.2,0.3,7.1,1,8.8s2,2.5,4,2.5
		c1.6,0,2.8-0.5,3.5-1.6c0.7-1.1,1.2-2.6,1.4-4.6c0.2-2,0.3-4.9,0.3-8.7c0-4-0.4-7.1-1.1-9.2c-0.8-2.1-2.2-3.1-4.4-3.1
		c-3,0-4.9,2.2-5.7,6.5h-12.7l1.3-41.3h33.4v12.4h-21.6l-0.8,14.8c0.6-0.9,2-1.8,4.1-2.4c2.1-0.7,4.2-1,6.4-1c4.8,0,8.5,2,11.1,6
		c2.6,4,3.8,9.7,3.8,17c0,5.7-0.5,10.4-1.5,14.2c-1,3.7-2.9,6.7-5.7,8.8c-2.8,2.2-6.9,3.2-12.3,3.2
		C726.5,112.3,722.7,111.4,719.9,109.6z"/>
	<path fill="#FFFFFF" d="M774.1,50.6h-19.5V39.3h34v10.2L772.9,111h-14.4L774.1,50.6z"/>
</g>
<g>
	<path fill="#FFFFFF" d="M410.3,145.5v16.4h-2.6v-16.4H410.3z"/>
	<path fill="#FFFFFF" d="M426.7,161.9h-2.6l-8-12.1v12.1h-2.6v-16.4h2.6l8,12.1v-12.1h2.6V161.9z"/>
	<path fill="#FFFFFF" d="M431.6,145.5l4.7,13.5l4.7-13.5h2.9l-5.9,16.4h-3.4l-5.9-16.4H431.6z"/>
	<path fill="#FFFFFF" d="M448.5,147.6v5h6v2h-6v5.1h6.7v2.2h-9.4v-16.4h9.4v2.1H448.5z"/>
	<path fill="#FFFFFF" d="M466.4,161.9l-4.1-6.5h-1.9v6.5h-2.6v-16.4h5.8c1.9,0,3.3,0.5,4.3,1.4c1,0.9,1.5,2.1,1.5,3.6
		c0,1.3-0.4,2.3-1.1,3.2c-0.7,0.8-1.8,1.3-3.1,1.6l4.3,6.7H466.4z M460.5,153.5h2.9c2.1,0,3.2-0.9,3.2-2.8c0-0.9-0.3-1.6-0.8-2.1
		c-0.5-0.5-1.3-0.8-2.4-0.8h-2.9V153.5z"/>
	<path fill="#FFFFFF" d="M481.9,159.8c-0.4,0.7-1,1.2-1.8,1.7c-0.8,0.4-1.8,0.6-2.9,0.6c-1.1,0-2.1-0.2-3-0.6
		c-0.9-0.4-1.6-0.9-2.1-1.7c-0.5-0.7-0.8-1.5-0.9-2.5h2.8c0.1,0.7,0.4,1.3,0.9,1.8c0.5,0.5,1.2,0.8,2.1,0.8c0.8,0,1.4-0.2,1.9-0.6
		c0.4-0.4,0.7-1,0.7-1.7c0-0.6-0.2-1.1-0.5-1.4c-0.3-0.4-0.7-0.7-1.2-0.9s-1.1-0.5-2-0.7c-1-0.3-1.9-0.6-2.5-1
		c-0.6-0.3-1.2-0.8-1.6-1.4c-0.4-0.6-0.7-1.4-0.7-2.4c0-0.9,0.2-1.7,0.6-2.3c0.4-0.7,1.1-1.2,1.9-1.5c0.8-0.4,1.7-0.5,2.8-0.5
		c1.7,0,3,0.4,4,1.2s1.5,1.9,1.7,3.2h-2.9c-0.1-0.6-0.4-1.1-0.9-1.6c-0.5-0.4-1.1-0.7-1.9-0.7c-0.7,0-1.3,0.2-1.8,0.6
		c-0.4,0.4-0.7,0.9-0.7,1.6c0,0.6,0.2,1,0.5,1.4c0.3,0.4,0.7,0.6,1.2,0.9c0.5,0.2,1.1,0.5,1.9,0.7c1,0.3,1.9,0.7,2.5,1
		c0.7,0.3,1.2,0.8,1.7,1.4s0.7,1.5,0.7,2.5C482.5,158.3,482.3,159.1,481.9,159.8z"/>
	<path fill="#FFFFFF" d="M487.7,145.5v16.4h-2.6v-16.4H487.7z"/>
	<path fill="#FFFFFF" d="M502.7,146.4c1.2,0.7,2.2,1.7,2.9,3c0.7,1.3,1.1,2.7,1.1,4.3c0,1.6-0.4,3.1-1.1,4.3s-1.7,2.3-2.9,3
		c-1.2,0.7-2.6,1.1-4.1,1.1c-1.5,0-2.9-0.4-4.1-1.1c-1.2-0.7-2.2-1.7-2.9-3c-0.7-1.3-1.1-2.7-1.1-4.3c0-1.6,0.4-3.1,1.1-4.3
		c0.7-1.3,1.7-2.3,2.9-3c1.2-0.7,2.6-1.1,4.1-1.1C500,145.3,501.4,145.7,502.7,146.4z M495.7,148.5c-0.8,0.5-1.5,1.2-1.9,2.1
		c-0.5,0.9-0.7,1.9-0.7,3.1c0,1.2,0.2,2.2,0.7,3.1c0.5,0.9,1.1,1.6,1.9,2.1c0.8,0.5,1.8,0.7,2.8,0.7c1,0,2-0.2,2.8-0.7
		c0.8-0.5,1.4-1.2,1.9-2.1c0.5-0.9,0.7-1.9,0.7-3.1c0-1.2-0.2-2.2-0.7-3.1c-0.5-0.9-1.1-1.6-1.9-2.1c-0.8-0.5-1.7-0.7-2.8-0.7
		C497.5,147.8,496.5,148,495.7,148.5z M502.2,141.9l-5.1,2.6v-1.9l5.1-2.8V141.9z"/>
	<path fill="#FFFFFF" d="M522.5,161.9h-2.6l-8-12.1v12.1h-2.6v-16.4h2.6l8,12.1v-12.1h2.6V161.9z"/>
	<path fill="#FFFFFF" d="M541.7,145.5v2.1h-4.6v14.2h-2.7v-14.2h-4.5v-2.1H541.7z"/>
	<path fill="#FFFFFF" d="M555.4,146.4c1.2,0.7,2.2,1.7,2.9,3c0.7,1.3,1.1,2.7,1.1,4.3c0,1.6-0.4,3.1-1.1,4.3s-1.7,2.3-2.9,3
		c-1.2,0.7-2.6,1.1-4.1,1.1c-1.5,0-2.9-0.4-4.1-1.1c-1.2-0.7-2.2-1.7-2.9-3c-0.7-1.3-1.1-2.7-1.1-4.3c0-1.6,0.4-3.1,1.1-4.3
		c0.7-1.3,1.7-2.3,2.9-3c1.2-0.7,2.6-1.1,4.1-1.1C552.8,145.3,554.1,145.7,555.4,146.4z M548.4,148.5c-0.8,0.5-1.5,1.2-1.9,2.1
		c-0.5,0.9-0.7,1.9-0.7,3.1c0,1.2,0.2,2.2,0.7,3.1c0.5,0.9,1.1,1.6,1.9,2.1c0.8,0.5,1.8,0.7,2.8,0.7c1,0,2-0.2,2.8-0.7
		c0.8-0.5,1.4-1.2,1.9-2.1c0.5-0.9,0.7-1.9,0.7-3.1c0-1.2-0.2-2.2-0.7-3.1c-0.5-0.9-1.1-1.6-1.9-2.1c-0.8-0.5-1.7-0.7-2.8-0.7
		C550.2,147.8,549.3,148,548.4,148.5z"/>
	<path fill="#FFFFFF" d="M572.5,145.5v2.1h-4.6v14.2h-2.7v-14.2h-4.5v-2.1H572.5z"/>
	<path fill="#FFFFFF" d="M584.3,158.3h-6.9l-1.3,3.5h-2.8l6-16.1h3l6,16.1h-2.8L584.3,158.3z M583.5,156.3l-2.7-7.7l-2.7,7.7H583.5z
		"/>
	<path fill="#FFFFFF" d="M593,159.8h5.7v2.1h-8.3v-16.4h2.6V159.8z"/>
	<path fill="#FFFFFF" d="M611.5,154.8c1.5-1.6,2.3-3.2,2.3-4.6c0-0.8-0.2-1.5-0.6-2c-0.4-0.5-1.1-0.7-2-0.7c-0.9,0-1.7,0.3-2.1,0.9
		c-0.5,0.6-0.8,1.5-0.8,2.6h-2.6c0.1-1.9,0.7-3.3,1.7-4.3c1-1,2.4-1.5,4-1.5c1.6,0,2.8,0.4,3.7,1.3c0.9,0.8,1.4,2,1.4,3.5
		c0,1.2-0.4,2.4-1.1,3.6c-0.7,1.2-1.7,2.3-2.8,3.4s-2.3,1.9-3.5,2.7h7.8v2.2h-11.4v-1.9C607.9,158.1,610,156.4,611.5,154.8z"/>
	<path fill="#FFFFFF" d="M618.9,153.6c0-2.6,0.5-4.6,1.4-6.1c0.9-1.5,2.5-2.2,4.6-2.2c2.2,0,3.7,0.7,4.6,2.2
		c0.9,1.5,1.4,3.5,1.4,6.1c0,2.6-0.5,4.6-1.4,6.1c-0.9,1.5-2.5,2.2-4.6,2.2c-2.2,0-3.7-0.7-4.6-2.2S618.9,156.2,618.9,153.6z
		 M628.3,153.6c0-1.9-0.2-3.3-0.7-4.3c-0.5-1-1.4-1.5-2.7-1.5c-1.3,0-2.3,0.5-2.7,1.5s-0.7,2.4-0.7,4.3c0,1.9,0.2,3.3,0.7,4.3
		s1.4,1.5,2.7,1.5c1.3,0,2.2-0.5,2.7-1.5C628.1,156.9,628.3,155.5,628.3,153.6z"/>
	<path fill="#FFFFFF" d="M632.4,148v-2.5h5.2v16.4h-2.8V148H632.4z"/>
	<path fill="#FFFFFF" d="M650.4,147.4l-6.1,14.5h-2.8l6.2-14.2h-8.1v-2.3h10.8V147.4z"/>
</g>
<g>
</g>
<g>
</g>
<g>
</g>
<g>
</g>
<g>
</g>
<g>
</g>
<g>
</g>
<g>
</g>
<g>
</g>
<g>
</g>
<g>
</g>
<g>
</g>
<g>
</g>
<g>
</g>
<g>
</g>
</svg>
