<?xml version="1.0" encoding="utf-8"?>
<!-- Generator: Adobe Illustrator 18.0.0, SVG Export Plug-In . SVG Version: 6.00 Build 0)  -->
<!DOCTYPE svg PUBLIC "-//W3C//DTD SVG 1.1//EN" "http://www.w3.org/Graphics/SVG/1.1/DTD/svg11.dtd">
<svg version="1.1" id="Capa_1" xmlns="http://www.w3.org/2000/svg" xmlns:xlink="http://www.w3.org/1999/xlink" x="0px" y="0px"
	 viewBox="0 0 1100 208.7" enable-background="new 0 0 1100 208.7" xml:space="preserve">
<rect fill="#FFFFFF" width="360" height="208.7"/>
<rect x="740" fill="#FFFFFF" width="360" height="208.7"/>
<rect x="370" fill="#FFFFFF" width="360" height="208.7"/>
<g>
	<path fill="#0000F5" d="M27.3,72c-1.3-2-2-4.8-2-8.4V49.1c0-3.7,0.7-6.5,2-8.4c1.3-2,3.7-2.9,7.1-2.9c3.1,0,5.3,0.9,6.6,2.7
		c1.3,1.8,2,4.3,2,7.7v2.2h-3.2v-2.1c0-1.7-0.1-3.2-0.4-4.3c-0.3-1.1-0.8-1.9-1.6-2.5c-0.8-0.6-1.9-0.9-3.3-0.9
		c-1.6,0-2.8,0.3-3.6,1c-0.8,0.7-1.4,1.6-1.7,2.7c-0.3,1.2-0.4,2.6-0.4,4.4v15.5c0,2.8,0.4,4.9,1.3,6.2c0.8,1.3,2.3,1.9,4.5,1.9
		c2.1,0,3.5-0.7,4.2-2s1.1-3.3,1.1-6v-2.4h3.2v2.2c0,3.5-0.6,6.2-1.9,8.1C39.7,74,37.5,75,34.4,75C31,75,28.7,74,27.3,72z"/>
	<path fill="#0000F5" d="M49.5,72.1c-1.4-1.9-2.1-4.7-2.1-8.3V48.7c0-3.5,0.7-6.2,2.1-8.1c1.4-1.9,3.8-2.8,7.1-2.8
		c3.3,0,5.6,0.9,7,2.8s2.1,4.6,2.1,8.1v15.2c0,3.6-0.7,6.3-2.1,8.3C62.4,74,60,75,56.7,75C53.3,75,50.9,74,49.5,72.1z M61.2,70.3
		c0.8-1.3,1.2-3.2,1.2-5.7V48c0-2.5-0.4-4.4-1.2-5.7c-0.8-1.3-2.3-1.9-4.5-1.9c-2.2,0-3.8,0.6-4.6,1.9s-1.2,3.1-1.2,5.7v16.5
		c0,2.6,0.4,4.5,1.2,5.8c0.8,1.3,2.4,1.9,4.6,1.9C58.9,72.2,60.4,71.6,61.2,70.3z"/>
	<path fill="#0000F5" d="M72,38.1h3.4l7.1,31.6l7.2-31.6h3.4L94,74.5h-2.8l-0.7-29l-6.9,29h-2.2l-6.8-29l-0.7,29h-2.8L72,38.1z"/>
	<path fill="#0000F5" d="M101.5,72.3c-1.3-1.8-2-4.4-2-7.7V38.1h3.3v26.6c0,2.4,0.4,4.3,1.3,5.6c0.8,1.3,2.4,2,4.6,2
		c2.2,0,3.7-0.7,4.6-2c0.9-1.3,1.3-3.2,1.3-5.6V38.1h3.2v26.5c0,3.3-0.7,5.9-2.1,7.7c-1.4,1.8-3.7,2.7-7.1,2.7
		C105.3,75,102.9,74.1,101.5,72.3z"/>
	<path fill="#0000F5" d="M123.7,38.1h2.4l11.4,28.3V38.1h2.9v36.5h-2.4l-11.5-28.6v28.6h-2.9V38.1z"/>
	<path fill="#0000F5" d="M146.9,38.1h3.4v36.5h-3.4V38.1z"/>
	<path fill="#0000F5" d="M157.9,72c-1.3-2-2-4.8-2-8.4V49.1c0-3.7,0.7-6.5,2-8.4c1.3-2,3.7-2.9,7.1-2.9c3.1,0,5.3,0.9,6.6,2.7
		c1.3,1.8,2,4.3,2,7.7v2.2h-3.2v-2.1c0-1.7-0.1-3.2-0.4-4.3c-0.3-1.1-0.8-1.9-1.6-2.5c-0.8-0.6-1.9-0.9-3.3-0.9
		c-1.6,0-2.8,0.3-3.6,1c-0.8,0.7-1.4,1.6-1.7,2.7c-0.3,1.2-0.4,2.6-0.4,4.4v15.5c0,2.8,0.4,4.9,1.3,6.2c0.8,1.3,2.3,1.9,4.5,1.9
		c2.1,0,3.5-0.7,4.2-2s1.1-3.3,1.1-6v-2.4h3.2v2.2c0,3.5-0.6,6.2-1.9,8.1c-1.3,1.9-3.5,2.8-6.6,2.8C161.6,75,159.2,74,157.9,72z"/>
	<path fill="#0000F5" d="M184.4,38.1h3.5l7.6,36.5h-3.3l-1.8-9.8h-8.6l-1.8,9.8h-3.3L184.4,38.1z M190,62.3l-3.8-19.7l-3.8,19.7H190
		z"/>
	<path fill="#0000F5" d="M201.1,72c-1.3-2-2-4.8-2-8.4V49.1c0-3.7,0.7-6.5,2-8.4c1.3-2,3.7-2.9,7.1-2.9c3.1,0,5.3,0.9,6.6,2.7
		c1.3,1.8,2,4.3,2,7.7v2.2h-3.2v-2.1c0-1.7-0.1-3.2-0.4-4.3c-0.3-1.1-0.8-1.9-1.6-2.5c-0.8-0.6-1.9-0.9-3.3-0.9
		c-1.6,0-2.8,0.3-3.6,1c-0.8,0.7-1.4,1.6-1.7,2.7c-0.3,1.2-0.4,2.6-0.4,4.4v15.5c0,2.8,0.4,4.9,1.3,6.2c0.8,1.3,2.3,1.9,4.5,1.9
		c2.1,0,3.5-0.7,4.2-2s1.1-3.3,1.1-6v-2.4h3.2v2.2c0,3.5-0.6,6.2-1.9,8.1c-1.3,1.9-3.5,2.8-6.6,2.8C204.8,75,202.4,74,201.1,72z"/>
	<path fill="#0000F5" d="M222,38.1h3.4v36.5H222V38.1z"/>
	<path fill="#0000F5" d="M233.1,72.1c-1.4-1.9-2.1-4.7-2.1-8.3V48.7c0-3.5,0.7-6.2,2.1-8.1c1.4-1.9,3.8-2.8,7.1-2.8
		c3.3,0,5.6,0.9,7,2.8s2.1,4.6,2.1,8.1v15.2c0,3.6-0.7,6.3-2.1,8.3c-1.4,1.9-3.8,2.9-7.1,2.9C236.9,75,234.5,74,233.1,72.1z
		 M244.8,70.3c0.8-1.3,1.2-3.2,1.2-5.7V48c0-2.5-0.4-4.4-1.2-5.7c-0.8-1.3-2.3-1.9-4.5-1.9c-2.2,0-3.8,0.6-4.6,1.9s-1.2,3.1-1.2,5.7
		v16.5c0,2.6,0.4,4.5,1.2,5.8c0.8,1.3,2.4,1.9,4.6,1.9C242.5,72.2,244,71.6,244.8,70.3z M242.2,27.1h3.2l-4.3,8.8h-1.7L242.2,27.1z"
		/>
	<path fill="#0000F5" d="M255.1,38.1h2.4l11.4,28.3V38.1h2.9v36.5h-2.4L258,45.9v28.6h-2.9V38.1z"/>
</g>
<g>
	<path fill="#0000F5" d="M25.6,87.1h15.1v4.7h-8.6v10.5h6.7v4.6h-6.7V119h8.6v4.5H25.6V87.1z"/>
	<path fill="#0000F5" d="M49.6,104.2l-7-17.1h6.1l4.7,11.3l4.1-11.3H63l-6.9,18.4l7.4,18.1h-6.1l-5.1-12.3L48,123.5h-5.6L49.6,104.2
		z"/>
	<path fill="#0000F5" d="M70.3,92h-5.7v-4.9h17.9V92h-5.6v31.5h-6.6V92z"/>
	<path fill="#0000F5" d="M85.7,87.1h15.1v4.7h-8.6v10.5H99v4.6h-6.7V119h8.6v4.5H85.7V87.1z"/>
	<path fill="#0000F5" d="M104.7,87.1h8.6c3.8,0,6.6,0.7,8.5,2.2c1.9,1.5,2.8,4,2.8,7.5c0,2.3-0.3,4.2-1,5.6
		c-0.7,1.5-1.8,2.5-3.4,3.2l5,18h-6.6l-4.3-16.7h-3.1v16.7h-6.5V87.1z M113.3,102.7c1.9,0,3.2-0.4,4-1.3c0.8-0.9,1.2-2.3,1.2-4.3
		c0-1.9-0.3-3.3-1-4.2c-0.7-0.9-1.9-1.3-3.7-1.3h-2.4v11.1H113.3z"/>
	<path fill="#0000F5" d="M129.6,87.1h4.6l8.7,20.8V87.1h5.4v36.5h-4.3l-8.8-21.8v21.8h-5.6V87.1z"/>
	<path fill="#0000F5" d="M159.1,87.1h7l7.2,36.5h-6.1l-1.4-8.4h-6.2l-1.5,8.4h-6.2L159.1,87.1z M165,110.9l-2.4-15.3l-2.4,15.3H165z
		"/>
</g>
<g>
	<path fill="#0000F5" d="M757.4,38.1h8.6c3.8,0,6.6,0.7,8.5,2.2c1.9,1.5,2.8,4,2.8,7.5c0,2.3-0.3,4.2-1,5.6
		c-0.7,1.5-1.8,2.5-3.4,3.2l5,18h-6.6L767,57.8h-3.1v16.7h-6.5V38.1z M766,53.7c1.9,0,3.2-0.4,4-1.3c0.8-0.9,1.2-2.3,1.2-4.3
		c0-1.9-0.3-3.3-1-4.2c-0.7-0.9-1.9-1.3-3.7-1.3h-2.4v11.1H766z"/>
	<path fill="#0000F5" d="M782.3,38.1h15.1v4.7h-8.6v10.5h6.7v4.6h-6.7V70h8.6v4.5h-15.2V38.1z"/>
	<path fill="#0000F5" d="M803,72.2c-1.6-1.9-2.5-4.6-2.6-8.3l5.6-1.1c0.1,2.3,0.5,4.1,1.1,5.3c0.6,1.2,1.6,1.8,3,1.8
		c1,0,1.8-0.3,2.2-0.9c0.5-0.6,0.7-1.4,0.7-2.5c0-1.4-0.3-2.7-1-3.7c-0.6-1-1.6-2.1-3-3.3l-4.5-4c-1.4-1.2-2.4-2.5-3.1-3.9
		c-0.7-1.4-1-3-1-4.9c0-2.9,0.8-5.1,2.5-6.6c1.6-1.6,3.9-2.4,6.8-2.4c3.1,0,5.3,0.9,6.7,2.7c1.3,1.8,2.1,4.2,2.3,7.2l-5.6,1
		c-0.1-2-0.4-3.5-0.8-4.5c-0.5-1-1.4-1.5-2.7-1.5c-0.9,0-1.7,0.3-2.2,1c-0.5,0.6-0.8,1.5-0.8,2.5c0,1.2,0.2,2.2,0.7,2.9
		c0.5,0.8,1.2,1.6,2.2,2.5l4.5,4c1.7,1.5,3,3,3.9,4.7c0.9,1.7,1.4,3.6,1.4,5.9c0,1.7-0.4,3.3-1.1,4.6c-0.8,1.4-1.8,2.4-3.2,3.2
		c-1.4,0.8-2.9,1.1-4.7,1.1C807,75,804.6,74.1,803,72.2z"/>
	<path fill="#0000F5" d="M823.1,38.1h10.5c6.1,0,9.2,3.5,9.2,10.4c0,6.6-3.2,9.9-9.6,9.9h-3.6v16.2h-6.5V38.1z M832.2,53.7
		c1.8,0,3-0.4,3.6-1.1c0.6-0.8,0.9-2.1,0.9-4.1c0-1.4-0.1-2.5-0.3-3.3c-0.2-0.8-0.6-1.3-1.3-1.7c-0.6-0.4-1.6-0.6-2.9-0.6h-2.5v10.9
		H832.2z"/>
	<path fill="#0000F5" d="M848.3,72c-1.6-2-2.4-5-2.4-8.9V49.4c0-3.9,0.8-6.8,2.4-8.8c1.6-2,4.3-3,8-3c3.7,0,6.3,1,7.9,3
		c1.6,2,2.4,4.9,2.4,8.8v13.7c0,3.9-0.8,6.8-2.4,8.9c-1.6,2-4.2,3.1-7.9,3.1C852.6,75,849.9,74,848.3,72z M859.2,68.7
		c0.5-0.9,0.8-2.3,0.8-4.1V47.9c0-1.8-0.2-3.1-0.7-4c-0.5-0.9-1.5-1.4-2.9-1.4c-1.5,0-2.5,0.5-3,1.4c-0.5,0.9-0.8,2.2-0.8,4v16.8
		c0,1.8,0.3,3.1,0.8,4.1c0.5,0.9,1.5,1.4,3,1.4C857.7,70.1,858.7,69.7,859.2,68.7z"/>
	<path fill="#0000F5" d="M871.4,38.1h4.6l8.7,20.8V38.1h5.4v36.5h-4.3L877,52.8v21.8h-5.6V38.1z"/>
	<path fill="#0000F5" d="M897.3,72.2c-1.6-1.9-2.5-4.6-2.6-8.3l5.6-1.1c0.1,2.3,0.5,4.1,1.1,5.3c0.6,1.2,1.6,1.8,3,1.8
		c1,0,1.8-0.3,2.2-0.9c0.5-0.6,0.7-1.4,0.7-2.5c0-1.4-0.3-2.7-1-3.7c-0.6-1-1.6-2.1-3-3.3l-4.5-4c-1.4-1.2-2.4-2.5-3.1-3.9
		c-0.7-1.4-1-3-1-4.9c0-2.9,0.8-5.1,2.5-6.6c1.6-1.6,3.9-2.4,6.8-2.4c3.1,0,5.3,0.9,6.7,2.7c1.3,1.8,2.1,4.2,2.3,7.2l-5.6,1
		c-0.1-2-0.4-3.5-0.8-4.5c-0.5-1-1.4-1.5-2.7-1.5c-0.9,0-1.7,0.3-2.2,1c-0.5,0.6-0.8,1.5-0.8,2.5c0,1.2,0.2,2.2,0.7,2.9
		c0.5,0.8,1.2,1.6,2.2,2.5l4.5,4c1.7,1.5,3,3,3.9,4.7c0.9,1.7,1.4,3.6,1.4,5.9c0,1.7-0.4,3.3-1.1,4.6c-0.8,1.4-1.8,2.4-3.2,3.2
		c-1.4,0.8-2.9,1.1-4.7,1.1C901.4,75,898.9,74.1,897.3,72.2z"/>
	<path fill="#0000F5" d="M922.7,38.1h7l7.2,36.5h-6.1l-1.4-8.4h-6.2l-1.5,8.4h-6.2L922.7,38.1z M928.7,61.9l-2.4-15.3l-2.4,15.3
		H928.7z"/>
	<path fill="#0000F5" d="M940.5,38.1h8.9c3.4,0,6,0.7,7.8,2.1c1.8,1.4,2.7,3.8,2.7,7.2c0,2.2-0.4,4-1.3,5.2c-0.9,1.2-2.2,2-3.9,2.3
		c4.1,0.8,6.2,3.8,6.2,9c0,3.5-0.8,6.2-2.5,7.9c-1.7,1.8-4.2,2.7-7.5,2.7h-10.4V38.1z M949.3,53c1.9,0,3.2-0.4,3.9-1.3
		c0.7-0.9,1-2.2,1-4.2c0-1.9-0.5-3.1-1.4-3.8c-0.9-0.7-2.4-1-4.5-1H947V53H949.3z M949.5,69.9c1.9,0,3.3-0.5,4-1.4
		c0.7-0.9,1.1-2.5,1.1-4.6c0-2.2-0.4-3.8-1.2-4.8c-0.8-1-2.2-1.5-4.1-1.5H947v12.3H949.5z"/>
	<path fill="#0000F5" d="M965.3,38.1h6.5v36.5h-6.5V38.1z"/>
	<path fill="#0000F5" d="M977.3,38.1h6.5V70h8.7v4.5h-15.2V38.1z"/>
	<path fill="#0000F5" d="M996.2,38.1h6.5v36.5h-6.5V38.1z"/>
	<path fill="#0000F5" d="M1008.2,38.1h8.5c2.9,0,5.2,0.4,6.8,1.2c1.7,0.8,2.8,2,3.5,3.6c0.7,1.6,1,3.8,1,6.5v13.3c0,2.8-0.3,5-1,6.7
		c-0.7,1.7-1.9,3-3.5,3.8c-1.6,0.9-3.8,1.3-6.6,1.3h-8.7V38.1z M1016.7,69.9c1.4,0,2.5-0.3,3.1-0.8c0.6-0.5,1.1-1.2,1.2-2.1
		c0.2-0.9,0.3-2.3,0.3-4.1V49c0-1.6-0.1-2.8-0.3-3.7c-0.2-0.8-0.6-1.5-1.3-1.9c-0.7-0.4-1.7-0.6-3.1-0.6h-2v27.1H1016.7z"/>
	<path fill="#0000F5" d="M1038,38.1h7l7.2,36.5h-6.1l-1.4-8.4h-6.2l-1.5,8.4h-6.2L1038,38.1z M1044,61.9l-2.4-15.3l-2.4,15.3H1044z"
		/>
	<path fill="#0000F5" d="M1055.8,38.1h8.5c2.9,0,5.2,0.4,6.8,1.2c1.7,0.8,2.8,2,3.5,3.6c0.7,1.6,1,3.8,1,6.5v13.3c0,2.8-0.3,5-1,6.7
		c-0.7,1.7-1.9,3-3.5,3.8c-1.6,0.9-3.8,1.3-6.6,1.3h-8.7V38.1z M1064.3,69.9c1.4,0,2.5-0.3,3.1-0.8c0.6-0.5,1.1-1.2,1.2-2.1
		c0.2-0.9,0.3-2.3,0.3-4.1V49c0-1.6-0.1-2.8-0.3-3.7c-0.2-0.8-0.6-1.5-1.3-1.9c-0.7-0.4-1.7-0.6-3.1-0.6h-2v27.1H1064.3z"/>
</g>
<g>
	<path fill="#0000F5" d="M759.2,121.2c-1.6-1.9-2.5-4.6-2.6-8.3l5.6-1.1c0.1,2.3,0.5,4.1,1.1,5.3c0.6,1.2,1.6,1.8,3,1.8
		c1,0,1.8-0.3,2.2-0.9c0.5-0.6,0.7-1.4,0.7-2.5c0-1.4-0.3-2.7-1-3.7c-0.6-1-1.6-2.1-3-3.3l-4.5-4c-1.4-1.2-2.4-2.5-3.1-3.9
		c-0.7-1.4-1-3-1-4.9c0-2.9,0.8-5.1,2.5-6.6c1.6-1.6,3.9-2.4,6.8-2.4c3.1,0,5.3,0.9,6.7,2.7c1.3,1.8,2.1,4.2,2.3,7.2l-5.6,1
		c-0.1-2-0.4-3.5-0.8-4.5c-0.5-1-1.4-1.5-2.7-1.5c-0.9,0-1.7,0.3-2.2,1c-0.5,0.6-0.8,1.5-0.8,2.5c0,1.2,0.2,2.2,0.7,2.9
		c0.5,0.8,1.2,1.6,2.2,2.5l4.5,4c1.7,1.5,3,3,3.9,4.7c0.9,1.7,1.4,3.6,1.4,5.9c0,1.7-0.4,3.3-1.1,4.6c-0.8,1.4-1.8,2.4-3.2,3.2
		c-1.4,0.8-2.9,1.1-4.7,1.1C763.2,124,760.8,123.1,759.2,121.2z"/>
	<path fill="#0000F5" d="M781.1,121c-1.6-2-2.4-5-2.4-8.9V98.4c0-3.9,0.8-6.8,2.4-8.8c1.6-2,4.3-3,8-3c3.7,0,6.3,1,7.9,3
		c1.6,2,2.4,4.9,2.4,8.8v13.7c0,3.9-0.8,6.8-2.4,8.9c-1.6,2-4.2,3.1-7.9,3.1C785.4,124,782.7,123,781.1,121z M792,117.7
		c0.5-0.9,0.8-2.3,0.8-4.1V96.9c0-1.8-0.2-3.1-0.7-4c-0.5-0.9-1.5-1.4-2.9-1.4c-1.5,0-2.5,0.5-3,1.4c-0.5,0.9-0.8,2.2-0.8,4v16.8
		c0,1.8,0.3,3.1,0.8,4.1c0.5,0.9,1.5,1.4,3,1.4C790.5,119.1,791.5,118.7,792,117.7z"/>
	<path fill="#0000F5" d="M806,120.9c-1.6-2.1-2.3-5.1-2.3-9v-13c0-4,0.8-7,2.3-9.1s4.2-3.1,7.9-3.1c3.5,0,6,0.9,7.5,2.7
		c1.5,1.8,2.2,4.4,2.2,7.8v3.1h-6.3v-3.1c0-1.3-0.1-2.3-0.2-3c-0.1-0.7-0.4-1.3-0.9-1.8c-0.5-0.5-1.2-0.7-2.3-0.7
		c-1.1,0-1.9,0.2-2.4,0.7c-0.5,0.5-0.9,1.2-1,2c-0.2,0.8-0.2,1.9-0.2,3.2v15.8c0,2.1,0.3,3.6,0.8,4.5s1.5,1.4,2.9,1.4
		c1,0,1.8-0.2,2.2-0.7c0.5-0.5,0.8-1.1,0.9-1.9c0.1-0.8,0.2-1.9,0.2-3.2V110h6.3v2.9c0,3.5-0.7,6.2-2.2,8.2c-1.4,1.9-4,2.9-7.5,2.9
		C810.2,124,807.5,123,806,120.9z"/>
	<path fill="#0000F5" d="M828.4,87.1h6.5v36.5h-6.5V87.1z"/>
	<path fill="#0000F5" d="M845.7,87.1h7l7.2,36.5h-6.1l-1.4-8.4h-6.2l-1.5,8.4h-6.2L845.7,87.1z M851.7,110.9l-2.4-15.3l-2.4,15.3
		H851.7z"/>
	<path fill="#0000F5" d="M863.5,87.1h6.5V119h8.7v4.5h-15.2V87.1z"/>
</g>
<g>
	<path fill="#0000F5" d="M757.4,136.1h15.1v4.7h-8.6v10.5h6.7v4.6h-6.7V168h8.6v4.5h-15.2V136.1z"/>
	<path fill="#0000F5" d="M776.9,136.1h6.8l5.1,25.2l5.3-25.2h6.6l0.7,36.5h-4.9l-0.5-25.3l-5.1,25.3h-3.9l-5.2-25.4l-0.5,25.4h-4.9
		L776.9,136.1z"/>
	<path fill="#0000F5" d="M806.6,136.1h10.5c6.1,0,9.2,3.5,9.2,10.4c0,6.6-3.2,9.9-9.6,9.9h-3.6v16.2h-6.5V136.1z M815.7,151.7
		c1.8,0,3-0.4,3.6-1.1c0.6-0.8,0.9-2.1,0.9-4.1c0-1.4-0.1-2.5-0.3-3.3c-0.2-0.8-0.6-1.3-1.3-1.7c-0.6-0.4-1.6-0.6-2.9-0.6h-2.5v10.9
		H815.7z"/>
	<path fill="#0000F5" d="M830,136.1h8.6c3.8,0,6.6,0.7,8.5,2.2c1.9,1.5,2.8,4,2.8,7.5c0,2.3-0.3,4.2-1,5.6c-0.7,1.5-1.8,2.5-3.4,3.2
		l5,18h-6.6l-4.3-16.7h-3.1v16.7H830V136.1z M838.6,151.7c1.9,0,3.2-0.4,4-1.3c0.8-0.9,1.2-2.3,1.2-4.3c0-1.9-0.3-3.3-1-4.2
		c-0.7-0.9-1.9-1.3-3.7-1.3h-2.4v11.1H838.6z"/>
	<path fill="#0000F5" d="M854.9,136.1h15.1v4.7h-8.6v10.5h6.7v4.6h-6.7V168h8.6v4.5h-15.2V136.1z"/>
	<path fill="#0000F5" d="M875.6,170.2c-1.6-1.9-2.5-4.6-2.6-8.3l5.6-1.1c0.1,2.3,0.5,4.1,1.1,5.3c0.6,1.2,1.6,1.8,3,1.8
		c1,0,1.8-0.3,2.2-0.9c0.5-0.6,0.7-1.4,0.7-2.5c0-1.4-0.3-2.7-1-3.7c-0.6-1-1.6-2.1-3-3.3l-4.5-4c-1.4-1.2-2.4-2.5-3.1-3.9
		c-0.7-1.4-1-3-1-4.9c0-2.9,0.8-5.1,2.5-6.6c1.6-1.6,3.9-2.4,6.8-2.4c3.1,0,5.3,0.9,6.7,2.7c1.3,1.8,2.1,4.2,2.3,7.2l-5.6,1
		c-0.1-2-0.4-3.5-0.8-4.5c-0.5-1-1.4-1.5-2.7-1.5c-0.9,0-1.7,0.3-2.2,1c-0.5,0.6-0.8,1.5-0.8,2.5c0,1.2,0.2,2.2,0.7,2.9
		c0.5,0.8,1.2,1.6,2.2,2.5l4.5,4c1.7,1.5,3,3,3.9,4.7c0.9,1.7,1.4,3.6,1.4,5.9c0,1.7-0.4,3.3-1.1,4.6c-0.8,1.4-1.8,2.4-3.2,3.2
		c-1.4,0.8-2.9,1.1-4.7,1.1C879.6,173,877.2,172.1,875.6,170.2z"/>
	<path fill="#0000F5" d="M900.9,136.1h7l7.2,36.5h-6.1l-1.4-8.4h-6.2l-1.5,8.4h-6.2L900.9,136.1z M906.9,159.9l-2.4-15.3l-2.4,15.3
		H906.9z"/>
	<path fill="#0000F5" d="M918.7,136.1h8.6c3.8,0,6.6,0.7,8.5,2.2c1.9,1.5,2.8,4,2.8,7.5c0,2.3-0.3,4.2-1,5.6
		c-0.7,1.5-1.8,2.5-3.4,3.2l5,18h-6.6l-4.3-16.7h-3.1v16.7h-6.5V136.1z M927.3,151.7c1.9,0,3.2-0.4,4-1.3c0.8-0.9,1.2-2.3,1.2-4.3
		c0-1.9-0.3-3.3-1-4.2c-0.7-0.9-1.9-1.3-3.7-1.3h-2.4v11.1H927.3z"/>
	<path fill="#0000F5" d="M943.8,136.1h6.5v36.5h-6.5V136.1z"/>
	<path fill="#0000F5" d="M961.1,136.1h7l7.2,36.5h-6.1l-1.4-8.4h-6.2l-1.5,8.4h-6.2L961.1,136.1z M967.1,159.9l-2.4-15.3l-2.4,15.3
		H967.1z"/>
</g>
<g>
	<path fill="#0000F5" d="M392.4,72c-1.3-2-2-4.8-2-8.4V49.1c0-3.7,0.7-6.5,2-8.4c1.3-2,3.7-2.9,7.1-2.9c3.1,0,5.3,0.9,6.6,2.7
		c1.3,1.8,2,4.3,2,7.7v2.2h-3.2v-2.1c0-1.7-0.1-3.2-0.4-4.3c-0.3-1.1-0.8-1.9-1.6-2.5c-0.8-0.6-1.9-0.9-3.3-0.9
		c-1.6,0-2.8,0.3-3.6,1c-0.8,0.7-1.4,1.6-1.7,2.7c-0.3,1.2-0.4,2.6-0.4,4.4v15.5c0,2.8,0.4,4.9,1.3,6.2c0.8,1.3,2.3,1.9,4.5,1.9
		c2.1,0,3.5-0.7,4.2-2s1.1-3.3,1.1-6v-2.4h3.2v2.2c0,3.5-0.6,6.2-1.9,8.1c-1.3,1.9-3.5,2.8-6.6,2.8C396.1,75,393.8,74,392.4,72z"/>
	<path fill="#0000F5" d="M414.6,72.1c-1.4-1.9-2.1-4.7-2.1-8.3V48.7c0-3.5,0.7-6.2,2.1-8.1c1.4-1.9,3.8-2.8,7.1-2.8
		c3.3,0,5.6,0.9,7,2.8s2.1,4.6,2.1,8.1v15.2c0,3.6-0.7,6.3-2.1,8.3c-1.4,1.9-3.8,2.9-7.1,2.9C418.4,75,416,74,414.6,72.1z
		 M426.3,70.3c0.8-1.3,1.2-3.2,1.2-5.7V48c0-2.5-0.4-4.4-1.2-5.7c-0.8-1.3-2.3-1.9-4.5-1.9c-2.2,0-3.8,0.6-4.6,1.9s-1.2,3.1-1.2,5.7
		v16.5c0,2.6,0.4,4.5,1.2,5.8c0.8,1.3,2.4,1.9,4.6,1.9C424,72.2,425.5,71.6,426.3,70.3z"/>
	<path fill="#0000F5" d="M437.1,38.1h3.4l7.1,31.6l7.2-31.6h3.4l0.9,36.5h-2.8l-0.7-29l-6.9,29h-2.2l-6.8-29l-0.7,29h-2.8
		L437.1,38.1z"/>
	<path fill="#0000F5" d="M466.6,72.3c-1.3-1.8-2-4.4-2-7.7V38.1h3.3v26.6c0,2.4,0.4,4.3,1.3,5.6c0.8,1.3,2.4,2,4.6,2
		c2.2,0,3.7-0.7,4.6-2c0.9-1.3,1.3-3.2,1.3-5.6V38.1h3.2v26.5c0,3.3-0.7,5.9-2.1,7.7c-1.4,1.8-3.7,2.7-7.1,2.7
		C470.4,75,468,74.1,466.6,72.3z"/>
	<path fill="#0000F5" d="M488.8,38.1h2.4l11.4,28.3V38.1h2.9v36.5h-2.4l-11.5-28.6v28.6h-2.9V38.1z"/>
	<path fill="#0000F5" d="M512,38.1h3.4v36.5H512V38.1z"/>
	<path fill="#0000F5" d="M523,72c-1.3-2-2-4.8-2-8.4V49.1c0-3.7,0.7-6.5,2-8.4c1.3-2,3.7-2.9,7.1-2.9c3.1,0,5.3,0.9,6.6,2.7
		c1.3,1.8,2,4.3,2,7.7v2.2h-3.2v-2.1c0-1.7-0.1-3.2-0.4-4.3c-0.3-1.1-0.8-1.9-1.6-2.5c-0.8-0.6-1.9-0.9-3.3-0.9
		c-1.6,0-2.8,0.3-3.6,1c-0.8,0.7-1.4,1.6-1.7,2.7c-0.3,1.2-0.4,2.6-0.4,4.4v15.5c0,2.8,0.4,4.9,1.3,6.2c0.8,1.3,2.3,1.9,4.5,1.9
		c2.1,0,3.5-0.7,4.2-2s1.1-3.3,1.1-6v-2.4h3.2v2.2c0,3.5-0.6,6.2-1.9,8.1c-1.3,1.9-3.5,2.8-6.6,2.8C526.7,75,524.3,74,523,72z"/>
	<path fill="#0000F5" d="M549.5,38.1h3.5l7.6,36.5h-3.3l-1.8-9.8H547l-1.8,9.8h-3.3L549.5,38.1z M555.1,62.3l-3.8-19.7l-3.8,19.7
		H555.1z"/>
	<path fill="#0000F5" d="M566.2,72c-1.3-2-2-4.8-2-8.4V49.1c0-3.7,0.7-6.5,2-8.4s3.7-2.9,7.1-2.9c3.1,0,5.3,0.9,6.6,2.7
		c1.3,1.8,2,4.3,2,7.7v2.2h-3.2v-2.1c0-1.7-0.1-3.2-0.4-4.3c-0.3-1.1-0.8-1.9-1.6-2.5c-0.8-0.6-1.9-0.9-3.3-0.9
		c-1.6,0-2.8,0.3-3.6,1c-0.8,0.7-1.4,1.6-1.7,2.7c-0.3,1.2-0.4,2.6-0.4,4.4v15.5c0,2.8,0.4,4.9,1.3,6.2c0.8,1.3,2.3,1.9,4.5,1.9
		c2.1,0,3.5-0.7,4.2-2c0.7-1.3,1.1-3.3,1.1-6v-2.4h3.2v2.2c0,3.5-0.6,6.2-1.9,8.1c-1.3,1.9-3.5,2.8-6.6,2.8
		C569.9,75,567.5,74,566.2,72z"/>
	<path fill="#0000F5" d="M587.1,38.1h3.4v36.5h-3.4V38.1z"/>
	<path fill="#0000F5" d="M598.2,72.1c-1.4-1.9-2.1-4.7-2.1-8.3V48.7c0-3.5,0.7-6.2,2.1-8.1c1.4-1.9,3.8-2.8,7.1-2.8
		c3.3,0,5.6,0.9,7,2.8s2.1,4.6,2.1,8.1v15.2c0,3.6-0.7,6.3-2.1,8.3c-1.4,1.9-3.8,2.9-7.1,2.9C602,75,599.6,74,598.2,72.1z
		 M609.9,70.3c0.8-1.3,1.2-3.2,1.2-5.7V48c0-2.5-0.4-4.4-1.2-5.7c-0.8-1.3-2.3-1.9-4.5-1.9c-2.2,0-3.8,0.6-4.6,1.9
		c-0.8,1.2-1.2,3.1-1.2,5.7v16.5c0,2.6,0.4,4.5,1.2,5.8c0.8,1.3,2.4,1.9,4.6,1.9C607.6,72.2,609.1,71.6,609.9,70.3z M607.3,27.1h3.2
		l-4.3,8.8h-1.7L607.3,27.1z"/>
	<path fill="#0000F5" d="M620.1,38.1h2.4L634,66.4V38.1h2.9v36.5h-2.4l-11.5-28.6v28.6h-2.9V38.1z"/>
</g>
<g>
	<path fill="#0000F5" d="M390.9,87.1h6.5v36.5h-6.5V87.1z"/>
	<path fill="#0000F5" d="M402.9,87.1h4.6l8.7,20.8V87.1h5.4v36.5h-4.3l-8.8-21.8v21.8h-5.6V87.1z"/>
	<path fill="#0000F5" d="M430.6,92h-5.7v-4.9h17.9V92h-5.6v31.5h-6.6V92z"/>
	<path fill="#0000F5" d="M446.1,87.1h15.1v4.7h-8.6v10.5h6.7v4.6h-6.7V119h8.6v4.5h-15.2V87.1z"/>
	<path fill="#0000F5" d="M465,87.1h8.6c3.8,0,6.6,0.7,8.5,2.2c1.9,1.5,2.8,4,2.8,7.5c0,2.3-0.3,4.2-1,5.6c-0.7,1.5-1.8,2.5-3.4,3.2
		l5,18H479l-4.3-16.7h-3.1v16.7H465V87.1z M473.6,102.7c1.9,0,3.2-0.4,4-1.3c0.8-0.9,1.2-2.3,1.2-4.3c0-1.9-0.3-3.3-1-4.2
		c-0.7-0.9-1.9-1.3-3.7-1.3h-2.4v11.1H473.6z"/>
	<path fill="#0000F5" d="M489.9,87.1h4.6l8.7,20.8V87.1h5.4v36.5h-4.3l-8.8-21.8v21.8h-5.6V87.1z"/>
	<path fill="#0000F5" d="M519.4,87.1h7l7.2,36.5h-6.1l-1.4-8.4h-6.2l-1.5,8.4h-6.2L519.4,87.1z M525.4,110.9L523,95.6l-2.4,15.3
		H525.4z"/>
</g>
<g>
</g>
<g>
</g>
<g>
</g>
<g>
</g>
<g>
</g>
<g>
</g>
<g>
</g>
<g>
</g>
<g>
</g>
<g>
</g>
<g>
</g>
<g>
</g>
<g>
</g>
<g>
</g>
<g>
</g>
</svg>
