<?xml version="1.0" encoding="utf-8"?>
<!-- Generator: Adobe Illustrator 18.0.0, SVG Export Plug-In . SVG Version: 6.00 Build 0)  -->
<!DOCTYPE svg PUBLIC "-//W3C//DTD SVG 1.1//EN" "http://www.w3.org/Graphics/SVG/1.1/DTD/svg11.dtd">
<svg version="1.1" id="Capa_1" xmlns="http://www.w3.org/2000/svg" xmlns:xlink="http://www.w3.org/1999/xlink" x="0px" y="0px"
	 viewBox="0 933.4 2000 266.6" enable-background="new 0 933.4 2000 266.6" xml:space="preserve">
<rect y="933.4" fill="#FFFFFF" width="645" height="266.6"/>
<rect x="677.5" y="933.4" fill="#FFFFFF" width="645" height="266.6"/>
<rect x="1355" y="933.4" fill="#FFFFFF" width="645" height="266.6"/>
<g>
	<path d="M28.4,980.3h9.2c4.2,0,7.1,1.1,9,3.2c1.7,2.1,2.7,5.3,2.7,9.2v16.8c0,4.2-0.8,7.6-2.5,9.7c-1.7,2.3-4.6,3.4-8.6,3.4h-9.7
		v-42.2H28.4z M37.8,1019.7c2.1,0,3.8-0.4,4.8-1.3s1.7-2.1,2.1-3.6c0.2-1.5,0.4-3.4,0.4-5.9v-15.8c0-2.3-0.2-4.2-0.6-5.5
		c-0.4-1.5-1.1-2.5-2.3-3.2c-1.3-0.6-2.7-1.1-4.8-1.1h-5.3v36.6h5.7V1019.7z"/>
	<path d="M57.6,1020.2c-1.7-2.1-2.3-5-2.3-9v-30.9h4v31.1c0,2.7,0.4,5,1.5,6.5c1.1,1.5,2.7,2.3,5.5,2.3c2.5,0,4.4-0.8,5.5-2.3
		c1.1-1.5,1.7-3.8,1.7-6.5v-31.1h3.8v30.9c0,3.8-0.8,6.9-2.5,9c-1.7,2.1-4.4,3.2-8.4,3.2C62,1023.3,59.2,1022.3,57.6,1020.2z"/>
	<path d="M84,980.3h9.7c3.8,0,6.5,0.8,8.2,2.7c1.7,1.9,2.3,4.6,2.3,8c0,2.7-0.4,4.8-1.3,6.7c-0.8,1.7-2.3,2.9-4.6,3.4l6.5,21.6h-4
		l-6.3-21h-6.7v21H84V980.3z M93.3,998.9c2.5,0,4.4-0.6,5.3-1.9c0.8-1.3,1.5-3.2,1.5-5.9c0-2.7-0.4-4.8-1.5-6.1
		c-1.1-1.3-2.7-1.9-5.3-1.9h-5.5v15.8L93.3,998.9L93.3,998.9z"/>
	<path d="M117.4,980.3h4.2l9,42.6h-4l-2.1-11.3h-10.1l-2.1,11.3h-4L117.4,980.3z M124.2,1008.4l-4.4-22.9l-4.4,22.9H124.2z"/>
	<path d="M135.9,980.3h2.9l13.7,33v-33h3.4v42.6h-2.9l-13.7-33.4v33.4h-3.4V980.3z"/>
	<path d="M168.5,983.4h-8v-3.2h19.7v3.2h-7.8v39.5h-4V983.4z"/>
	<path d="M184.9,980.3h15.3v3.2h-11.3v16h9.2v2.9h-9.2v17.6h11.6v2.9h-15.5V980.3z"/>
	<path d="M216.6,980.3h4v39.5h12.2v2.9h-16v-42.4H216.6z"/>
	<path d="M243.3,980.3h4.2l9,42.6h-4l-2.1-11.3h-10.1l-2.1,11.3h-4L243.3,980.3z M250,1008.4l-4.4-22.9l-4.4,22.9H250z"/>
	<path d="M273.9,1019.7c-1.7-2.3-2.3-5.7-2.3-9.9v-16.8c0-4.2,0.8-7.6,2.3-9.9c1.5-2.3,4.4-3.4,8.4-3.4c3.6,0,6.3,1.1,7.8,3.2
		s2.3,5,2.3,9v2.5h-3.8V992c0-2.1-0.2-3.8-0.4-5c-0.2-1.3-0.8-2.3-1.9-2.9c-0.8-0.6-2.3-1.1-4-1.1c-1.9,0-3.4,0.4-4.2,1.1
		c-1.1,0.8-1.7,1.9-2.1,3.2c-0.4,1.3-0.6,3.2-0.6,5.3v18.1c0,3.4,0.4,5.7,1.5,7.1c1.1,1.5,2.7,2.3,5.3,2.3c2.5,0,4.2-0.8,5-2.3
		c0.8-1.5,1.3-3.8,1.3-6.9v-2.7h3.8v2.5c0,4-0.8,7.1-2.3,9.5c-1.5,2.1-4.2,3.4-7.8,3.4C278.4,1023.3,275.4,1022.1,273.9,1019.7z"/>
	<path d="M305.3,980.3h4.2l9,42.6h-4l-2.1-11.3h-10.1l-2.1,11.3h-4L305.3,980.3z M312,1008.4l-4.4-22.9l-4.4,22.9H312z"/>
	<path d="M324.4,980.3h4l8.4,37l8.6-37h4l1.1,42.6h-3.4l-0.8-33.8l-8.2,33.8h-2.5l-8-33.8l-0.8,33.8h-3.4L324.4,980.3z"/>
	<path d="M357.4,980.3h10.3c3.6,0,6.1,1.1,7.8,2.9c1.5,1.9,2.3,4.8,2.3,8.4c0,3.4-0.8,5.9-2.5,8c-1.7,2.1-4.2,3.2-7.6,3.2h-6.3v20.2
		h-4V980.3z M366.6,999.6c2.7,0,4.4-0.6,5.7-1.9c1.1-1.3,1.7-3.4,1.7-6.3c0-2.1-0.2-4-0.6-5c-0.4-1.1-1.1-2.1-2.1-2.5
		s-2.5-0.8-4.4-0.8h-5.5v16.4h5.3V999.6z"/>
	<path d="M387.4,980.3h4.2l9,42.6h-4l-2.1-11.3h-10.1l-2.1,11.3h-4L387.4,980.3z M394.1,1008.4l-4.4-22.9l-4.4,22.9H394.1z"/>
	<path d="M405.7,980.3h2.9l13.7,33v-33h3.4v42.6h-2.9L409,989.5v33.4h-3.4V980.3z M417.2,973.9c-0.4-0.2-1.1-0.6-1.9-1.1
		c-0.6-0.4-1.1-0.6-1.5-0.8s-0.8-0.2-1.1-0.2c-1.1,0-1.7,0.6-1.7,2.1h-2.3c0-1.1,0.2-2.3,0.8-3.2c0.6-1.1,1.5-1.5,2.7-1.5
		c0.6,0,1.1,0.2,1.7,0.4c0.6,0.2,1.1,0.6,1.7,1.1c0.6,0.4,1.1,0.6,1.5,0.8c0.4,0.2,0.8,0.2,1.1,0.2c0.6,0,1.1-0.2,1.3-0.6
		c0.2-0.4,0.4-0.8,0.4-1.7h2.3c0,1.3-0.2,2.5-0.8,3.4c-0.4,1.1-1.5,1.5-2.9,1.5C418.3,974.2,417.6,974.2,417.2,973.9z"/>
	<path d="M439.7,980.3h4.2l9,42.6h-4l-2.1-11.3h-10.1l-2.1,11.3h-4L439.7,980.3z M446.4,1008.4l-4.4-22.9l-4.4,22.9H446.4z"/>
	<path d="M468.9,980.3h9.2c4.2,0,7.1,1.1,9,3.2c1.7,2.1,2.7,5.3,2.7,9.2v16.8c0,4.2-0.8,7.6-2.5,9.7c-1.7,2.3-4.6,3.4-8.6,3.4h-9.7
		v-42.2H468.9z M478.2,1019.7c2.1,0,3.8-0.4,4.8-1.3s1.7-2.1,2.1-3.6c0.2-1.5,0.4-3.4,0.4-5.9v-15.8c0-2.3-0.2-4.2-0.6-5.5
		c-0.4-1.5-1.1-2.5-2.3-3.2c-1.3-0.6-2.7-1.1-4.8-1.1h-5.3v36.6h5.7V1019.7z"/>
	<path d="M496.2,980.3h15.3v3.2h-11.3v16h9.2v2.9h-9.2v17.6h11.6v2.9h-15.5L496.2,980.3L496.2,980.3z"/>
</g>
<g>
	<path d="M28.4,1043.3h10.3c3.6,0,6.1,1.1,7.8,2.9c1.5,1.9,2.3,4.8,2.3,8.4c0,3.4-0.8,5.9-2.5,8c-1.7,2.1-4.2,3.2-7.6,3.2h-6.3v20.2
		h-4V1043.3z M37.4,1062.6c2.7,0,4.4-0.6,5.7-1.9c1.1-1.3,1.7-3.4,1.7-6.3c0-2.1-0.2-4-0.6-5c-0.4-1.1-1.1-2.1-2.1-2.5
		c-1.1-0.4-2.5-0.8-4.4-0.8h-5.3v16.4h5V1062.6z"/>
	<path d="M53.8,1043.3h9.7c3.8,0,6.5,0.8,8.2,2.7s2.3,4.6,2.3,8c0,2.7-0.4,4.8-1.3,6.7c-0.8,1.7-2.3,2.9-4.6,3.4l6.5,21.6h-3.8
		l-6.3-21h-6.7v21h-4V1043.3z M63.2,1062c2.5,0,4.4-0.6,5.3-1.9c0.8-1.3,1.5-3.2,1.5-5.9s-0.4-4.8-1.5-6.1c-1.1-1.3-2.7-1.9-5.3-1.9
		h-5.5v15.8L63.2,1062L63.2,1062z"/>
	<path d="M80.7,1043.3H96v3.2H84.7v16h9.2v2.9h-9.2v17.6h11.6v2.9H80.7C80.7,1085.9,80.7,1043.3,80.7,1043.3z"/>
	<path d="M101.5,1043.3h2.9l13.7,33v-33h3.4v42.6h-2.9l-13.4-33.6v33.4h-3.4v-42.4H101.5z"/>
	<path d="M130.3,1083.2c-1.7-2.1-2.7-4.8-2.9-8.4l3.6-1.1c0.2,2.9,1.1,5.3,2.1,6.9c1.1,1.7,2.7,2.5,5,2.5c4,0,6.1-2.1,6.1-6.1
		c0-1.7-0.4-3.4-1.3-4.6c-0.8-1.3-2.1-2.9-4-4.6l-7.6-7.1c-1.3-1.3-2.3-2.5-2.9-4c-0.6-1.5-0.8-2.9-0.8-4.6c0-2.9,0.8-5.3,2.5-6.7
		c1.7-1.7,4-2.3,6.9-2.3c3.2,0,5.5,0.8,7.4,2.5c1.7,1.7,2.7,4.4,2.9,8.2l-3.4,0.8c-0.2-2.9-0.8-5-1.9-6.3c-1.1-1.5-2.7-2.1-5-2.1
		c-1.9,0-3.4,0.4-4.4,1.5c-1.1,1.1-1.7,2.3-1.7,4.2c0,1.3,0.2,2.3,0.6,3.2c0.4,1.1,1.3,1.9,2.3,2.9l7.6,7.1c1.9,1.9,3.4,3.8,4.6,5.7
		c1.3,1.9,1.7,4,1.7,6.1c0,3.2-0.8,5.5-2.7,7.1c-1.9,1.7-4.2,2.5-7.1,2.5C134.7,1086.3,131.9,1085.3,130.3,1083.2z"/>
	<path d="M159.7,1043.3h4.2l9,42.6h-4l-2.1-11.3h-10.1l-2.1,11.3h-4L159.7,1043.3z M166.4,1071.4l-4.6-22.9l-4.4,22.9H166.4z"/>
	<path d="M176.9,1090.1c0.8-0.6,1.5-1.1,1.9-1.9c0.4-0.6,0.6-1.5,0.6-2.5h-2.3v-5.7h4.2v5.3c0,1.7-0.2,3.2-0.8,4
		c-0.6,1.1-1.5,1.9-2.9,2.5L176.9,1090.1z"/>
	<path d="M199.8,1083.2c-1.7-2.1-2.7-4.8-2.9-8.4l3.6-1.1c0.2,2.9,1.1,5.3,2.1,6.9s2.7,2.5,5,2.5c4,0,6.1-2.1,6.1-6.1
		c0-1.7-0.4-3.4-1.3-4.6c-0.8-1.3-2.1-2.9-4-4.6l-7.6-7.1c-1.3-1.3-2.3-2.5-2.9-4c-0.6-1.5-0.8-2.9-0.8-4.6c0-2.9,0.8-5.3,2.5-6.7
		c1.7-1.7,4-2.3,6.9-2.3c3.2,0,5.5,0.8,7.4,2.5c1.7,1.7,2.7,4.4,2.9,8.2l-3.4,0.8c-0.2-2.9-0.8-5-1.9-6.3c-1.1-1.5-2.7-2.1-5-2.1
		c-1.9,0-3.4,0.4-4.4,1.5c-1.1,1.1-1.7,2.3-1.7,4.2c0,1.3,0.2,2.3,0.6,3.2c0.4,1.1,1.3,1.9,2.3,2.9l7.6,7.1c1.9,1.9,3.4,3.8,4.6,5.7
		c1.3,1.9,1.7,4,1.7,6.1c0,3.2-0.8,5.5-2.7,7.1c-1.9,1.7-4.2,2.5-7.1,2.5C204,1086.3,201.5,1085.3,199.8,1083.2z"/>
	<path d="M222.5,1043.3h15.3v3.2h-11.3v16h9.2v2.9h-9.2v17.6H238v2.9h-15.5V1043.3z"/>
	<path d="M254,1043.3h10.3c3.6,0,6.1,1.1,7.8,2.9c1.5,1.9,2.3,4.8,2.3,8.4c0,3.4-0.8,5.9-2.5,8c-1.7,2.1-4.2,3.2-7.6,3.2H258v20.2
		h-4L254,1043.3L254,1043.3z M263.2,1062.6c2.7,0,4.4-0.6,5.7-1.9c1.1-1.3,1.7-3.4,1.7-6.3c0-2.1-0.2-4-0.6-5s-1.1-2.1-2.1-2.5
		s-2.5-0.8-4.4-0.8h-5.3v16.4h5V1062.6z"/>
	<path d="M281.3,1083.2c-1.7-2.1-2.3-5-2.3-9v-30.9h4v31.1c0,2.7,0.4,5,1.5,6.5s2.7,2.3,5.5,2.3c2.5,0,4.4-0.8,5.5-2.3
		c1.1-1.5,1.7-3.8,1.7-6.5v-31.1h3.8v30.9c0,3.8-0.8,6.9-2.5,9c-1.7,2.1-4.4,3.2-8.4,3.2C285.7,1086.3,283,1085.3,281.3,1083.2z"/>
	<path d="M307.6,1043.3h9.2c3.8,0,6.3,0.8,8,2.7c1.7,1.9,2.5,4.4,2.5,7.8c0,2.3-0.4,4.2-1.3,5.9s-2.3,2.7-4.2,3.2
		c2.3,0.6,4,1.9,5,3.8c1.1,1.9,1.5,4.2,1.5,6.9c0,3.8-0.8,6.7-2.3,9c-1.5,2.1-4,3.4-7.8,3.4h-10.5v-42.6H307.6z M317.4,1061.6
		c2.3,0,3.8-0.6,4.8-1.9c0.8-1.3,1.3-3.2,1.3-5.7c0-1.7-0.2-3.2-0.6-4.2c-0.4-1.1-1.3-1.9-2.5-2.5s-2.7-0.8-5-0.8h-3.8v15.3h5.9
		V1061.6z M317.4,1082.8c1.9,0,3.2-0.4,4.2-1.1s1.7-1.7,2.1-2.9c0.4-1.3,0.6-3.2,0.6-5.3c0-5.9-2.3-8.8-6.9-8.8h-5.9v18.1
		L317.4,1082.8L317.4,1082.8z"/>
	<path d="M334,1043.3h4v39.5h12.2v2.9H334V1043.3z"/>
	<path d="M354.2,1043.3h4v42.6h-4V1043.3z"/>
	<path d="M367.2,1082.8c-1.7-2.3-2.3-5.7-2.3-9.9v-16.8c0-4.2,0.8-7.6,2.3-9.9s4.4-3.4,8.4-3.4c3.6,0,6.3,1.1,7.8,3.2
		c1.5,2.1,2.3,5,2.3,9v2.5h-3.8v-2.5c0-2.1-0.2-3.8-0.4-5c-0.2-1.3-0.8-2.3-1.9-2.9c-0.8-0.6-2.3-1.1-4-1.1c-1.9,0-3.4,0.4-4.2,1.1
		c-1.1,0.8-1.7,1.9-2.1,3.2c-0.4,1.3-0.6,3.2-0.6,5.3v18.1c0,3.4,0.4,5.7,1.5,7.1s2.7,2.3,5.3,2.3s4.2-0.8,5-2.3
		c0.8-1.5,1.3-3.8,1.3-6.9v-2.7h3.8v2.5c0,4-0.8,7.1-2.3,9.5c-1.5,2.1-4.2,3.4-7.8,3.4C371.6,1086.3,368.9,1085.1,367.2,1082.8z"/>
	<path d="M398.5,1043.3h4.2l9,42.6h-4l-2.1-11.3h-10.1l-2.1,11.3h-4L398.5,1043.3z M405.3,1071.4l-4.4-22.9l-4.4,22.9H405.3z"/>
	<path d="M417,1043.3h9.7c3.8,0,6.5,0.8,8.2,2.7s2.3,4.6,2.3,8c0,2.7-0.4,4.8-1.3,6.7c-0.8,1.7-2.3,2.9-4.6,3.4l6.5,21.6H434
		l-6.3-21H421v21h-4L417,1043.3L417,1043.3z M426.5,1062c2.5,0,4.4-0.6,5.3-1.9c0.8-1.3,1.5-3.2,1.5-5.9s-0.4-4.8-1.5-6.1
		s-2.7-1.9-5.3-1.9H421v15.8L426.5,1062L426.5,1062z"/>
	<path d="M445.4,1083c-1.7-2.3-2.5-5.5-2.5-9.7v-17.6c0-4.2,0.8-7.4,2.5-9.5c1.7-2.1,4.4-3.4,8.4-3.4c3.8,0,6.7,1.1,8.4,3.4
		c1.7,2.1,2.5,5.3,2.5,9.5v17.6c0,4.2-0.8,7.4-2.5,9.7c-1.7,2.3-4.4,3.4-8.4,3.4C450,1086.3,447.1,1085.1,445.4,1083z M459.2,1080.9
		c1.1-1.5,1.5-3.8,1.5-6.7v-19.3c0-2.9-0.4-5.3-1.5-6.7c-1.1-1.5-2.7-2.1-5.5-2.1c-2.7,0-4.4,0.6-5.5,2.1c-1.1,1.5-1.5,3.6-1.5,6.7
		v19.3c0,2.9,0.4,5.3,1.5,6.7c1.1,1.5,2.7,2.3,5.5,2.3C456.5,1083.2,458.4,1082.4,459.2,1080.9z"/>
	<path d="M471.4,1043.3h2.9l13.7,33v-33h3.4v42.6h-2.9l-13.7-33.4v33.4h-3.4V1043.3z"/>
	<path d="M511.3,1083.2c-1.7-2.1-2.3-5-2.3-9v-30.9h4v31.1c0,2.7,0.4,5,1.5,6.5s2.7,2.3,5.5,2.3c2.5,0,4.4-0.8,5.5-2.3
		c1.1-1.5,1.7-3.8,1.7-6.5v-31.1h3.8v30.9c0,3.8-0.8,6.9-2.5,9s-4.4,3.2-8.4,3.2C515.8,1086.3,513,1085.3,511.3,1083.2z"/>
	<path d="M537.6,1043.3h2.9l13.7,33v-33h3.4v42.6h-2.9l-13.7-33.4v33.4h-3.4V1043.3z"/>
</g>
<g>
	<path d="M33.6,1109.5h-8v-3.2h19.7v3.2h-7.8v39.5h-4V1109.5z"/>
	<path d="M51.7,1146c-1.7-2.3-2.5-5.5-2.5-9.7v-17.6c0-4.2,0.8-7.4,2.5-9.5s4.4-3.4,8.4-3.4c3.8,0,6.7,1.1,8.4,3.4
		c1.7,2.1,2.5,5.3,2.5,9.5v17.6c0,4.2-0.8,7.4-2.5,9.7c-1.7,2.3-4.4,3.4-8.4,3.4C56.3,1149.4,53.4,1148.1,51.7,1146z M65.5,1143.9
		c1.1-1.5,1.5-3.8,1.5-6.7v-19.3c0-2.9-0.4-5.3-1.5-6.7s-2.7-2.1-5.5-2.1c-2.7,0-4.4,0.6-5.5,2.1s-1.5,3.6-1.5,6.7v19.3
		c0,2.9,0.4,5.3,1.5,6.7s2.7,2.3,5.5,2.3C62.8,1146.2,64.5,1145.4,65.5,1143.9z"/>
	<path d="M83,1109.5h-8v-3.2h19.7v3.2H87v39.5h-4C83,1148.9,83,1109.5,83,1109.5z"/>
	<path d="M104.8,1106.3h4.2l9,42.6h-4l-2.1-11.3h-10.1l-2.1,11.3h-4L104.8,1106.3z M111.6,1134.5l-4.4-22.9l-4.4,22.9H111.6z"/>
	<path d="M123.3,1106.3h4v39.5h12.2v2.9h-16v-42.4H123.3z"/>
	<path d="M154,1106.3h9.2c4.2,0,7.1,1.1,9,3.2c1.7,2.1,2.7,5.3,2.7,9.2v16.8c0,4.2-0.8,7.6-2.5,9.7c-1.7,2.3-4.6,3.4-8.6,3.4h-9.7
		v-42.2H154z M163.4,1145.8c2.1,0,3.8-0.4,4.8-1.3c1.1-0.8,1.7-2.1,2.1-3.6c0.2-1.5,0.4-3.4,0.4-5.9v-15.8c0-2.3-0.2-4.2-0.6-5.5
		c-0.4-1.5-1.1-2.5-2.3-3.2s-2.7-1.1-4.8-1.1h-5.3v36.6h5.7V1145.8z"/>
	<path d="M181.3,1106.3h15.3v3.2h-11.3v16h9.2v2.9h-9.2v17.6h11.6v2.9h-15.5V1106.3z"/>
</g>
<g>
	<path d="M217.2,1114.3c-0.4,0.2-1.7,0.6-3.8,1.3c-1.9,0.6-2.7,0.8-2.7,0.8v-5.5c1.5-0.4,2.9-1.3,4.6-2.1c1.7-0.8,2.9-1.7,3.6-2.7
		h5.7v42.6h-7.4L217.2,1114.3L217.2,1114.3z"/>
	<path d="M231.9,1143.7l10.5-16.2c0.2-0.2,0.4-0.6,0.4-0.8c0.2-0.2,0.2-0.4,0.4-0.6c1.3-1.9,2.1-3.6,2.7-4.8
		c0.6-1.3,0.8-2.7,0.8-4.4c0-3.4-1.1-5-3.4-5c-1.7,0-2.7,0.6-3.4,1.9s-1.1,2.9-1.1,5v1.7h-7.1v-1.9c0-4,0.8-7.1,2.7-9.5
		c1.9-2.3,4.6-3.4,8.4-3.4c3.6,0,6.3,1.1,8.2,2.9c1.9,1.9,2.7,4.6,2.7,8.2c0,2.1-0.4,4.2-1.1,5.9c-0.6,1.7-1.9,3.8-3.6,6.3l-0.6,1.1
		l-8.8,13.2h12.8v5.9h-21.2v-5.5H231.9z"/>
	<path d="M258.2,1136.8c0-5,1.7-8.4,5-10.3c-1.3-1.1-2.5-2.3-3.2-3.8c-0.8-1.7-1.3-3.6-1.3-5.9c0-3.4,0.8-6.1,2.7-8
		c1.9-1.9,4.4-2.9,7.8-2.9s6.1,1.1,7.8,2.9c1.7,1.9,2.7,4.6,2.7,8c0,4.4-1.5,7.8-4.4,9.7c3.4,1.9,5,5.5,5,10.5
		c0,8.4-3.8,12.6-11.1,12.6S258.2,1145.2,258.2,1136.8z M272.5,1141.8c0.6-1.3,0.8-3.2,0.8-5.3s-0.2-3.6-0.8-4.8
		c-0.6-1.3-1.7-1.9-3.2-1.9s-2.5,0.6-3.2,2.1c-0.6,1.3-0.8,2.9-0.8,5.3c0,2.1,0.2,3.8,0.8,5c0.6,1.3,1.7,1.9,3.2,1.9
		C270.8,1143.9,271.8,1143.3,272.5,1141.8z M272.7,1116.8c0-1.7-0.2-2.9-0.8-4c-0.6-1.1-1.5-1.5-2.7-1.5c-1.3,0-2.1,0.4-2.7,1.5
		c-0.6,1.1-0.8,2.3-0.8,4c0,4.6,1.3,6.7,3.6,6.9C271.6,1123.5,272.7,1121.2,272.7,1116.8z"/>
	<path d="M298.5,1106.3h12.6c7.1,0,10.9,4,10.9,12.2c0,7.8-3.8,11.6-11.3,11.6h-4.2v18.9h-7.8v-42.6H298.5z M309.2,1124.4
		c2.1,0,3.6-0.4,4.2-1.3c0.6-0.8,1.1-2.5,1.1-4.8c0-1.7-0.2-2.9-0.4-3.8c-0.2-0.8-0.8-1.5-1.5-2.1c-0.8-0.4-1.9-0.6-3.6-0.6h-2.9
		v12.8h3.2V1124.4z"/>
	<path d="M330.7,1147.7c-1.7-1.1-2.9-2.7-3.8-4.8c-0.6-2.1-1.1-4.6-1.1-8v-28.6h7.6v29.6c0,2.5,0.2,4.4,0.8,5.7
		c0.6,1.3,1.7,2.1,3.6,2.1s2.9-0.6,3.6-2.1c0.6-1.5,0.8-3.2,0.8-5.7v-29.6h7.6v28.8c0,3.2-0.4,5.7-1.1,7.8c-0.6,2.1-1.9,3.8-3.8,4.8
		s-4.2,1.7-7.1,1.7S332.4,1148.7,330.7,1147.7z"/>
	<path d="M356.1,1106.3h10.5c4,0,7.1,0.8,9.2,2.5c2.1,1.7,3.2,4.4,3.2,8.4c0,2.5-0.6,4.6-1.7,6.1c-1.1,1.5-2.5,2.3-4.6,2.7
		c4.8,1.1,7.4,4.4,7.4,10.5c0,4.2-1.1,7.1-2.9,9.2c-2.1,2.1-5,3.2-8.8,3.2h-12.4v-42.6H356.1z M366.4,1123.7c2.3,0,3.8-0.4,4.6-1.5
		c0.8-1.1,1.3-2.5,1.3-4.8c0-2.1-0.6-3.6-1.7-4.4c-1.1-0.8-2.9-1.3-5.3-1.3h-1.7v12L366.4,1123.7L366.4,1123.7z M366.8,1143.3
		c2.3,0,3.8-0.6,4.8-1.7c0.8-1.1,1.3-2.9,1.3-5.3c0-2.5-0.4-4.4-1.5-5.7c-1.1-1.3-2.5-1.7-4.8-1.7h-2.7v14.3H366.8z"/>
	<path d="M385.3,1106.3h7.8v37.2h10.3v5.3h-18.1L385.3,1106.3L385.3,1106.3z"/>
	<path d="M407.6,1106.3h7.6v42.6h-7.6V1106.3z"/>
	<path d="M423.9,1145.6c-1.9-2.5-2.7-5.9-2.7-10.5V1120c0-4.6,0.8-8.2,2.7-10.5c1.9-2.5,5-3.6,9.5-3.6c4.2,0,7.1,1.1,8.8,3.2
		c1.7,2.1,2.7,5,2.7,9v3.6h-7.6v-3.8c0-1.5,0-2.7-0.2-3.6c-0.2-0.8-0.4-1.5-1.1-2.1s-1.5-0.8-2.7-0.8c-1.3,0-2.1,0.2-2.9,0.8
		c-0.6,0.6-1.1,1.3-1.3,2.3c-0.2,1.1-0.2,2.3-0.2,3.8v18.5c0,2.5,0.4,4.2,1.1,5.3c0.6,1.1,1.7,1.7,3.4,1.7c1.3,0,2.1-0.2,2.7-0.8
		c0.6-0.6,0.8-1.3,1.1-2.3c0.2-0.8,0.2-2.1,0.2-3.8v-3.8h7.6v3.4c0,4.2-0.8,7.4-2.5,9.5c-1.7,2.3-4.6,3.4-9,3.4
		C428.8,1149.4,425.8,1148.1,423.9,1145.6z"/>
	<path d="M456.5,1106.3h8.4l8.4,42.6h-7.1l-1.7-9.9h-7.4l-1.7,9.9h-7.4L456.5,1106.3z M463.7,1134l-2.9-17.9l-2.9,17.9H463.7z"/>
	<path d="M479.4,1145.6c-1.9-2.5-2.7-5.9-2.7-10.5V1120c0-4.6,0.8-8.2,2.7-10.5c1.9-2.5,5-3.6,9.5-3.6c4.2,0,7.1,1.1,8.8,3.2
		c1.7,2.1,2.7,5,2.7,9v3.6h-7.6v-3.8c0-1.5,0-2.7-0.2-3.6c-0.2-0.8-0.4-1.5-1.1-2.1c-0.6-0.6-1.5-0.8-2.7-0.8s-2.1,0.2-2.9,0.8
		c-0.6,0.6-1.1,1.3-1.3,2.3c-0.2,1.1-0.2,2.3-0.2,3.8v18.5c0,2.5,0.4,4.2,1.1,5.3s1.7,1.7,3.4,1.7c1.3,0,2.1-0.2,2.7-0.8
		c0.6-0.6,0.8-1.3,1.1-2.3c0.2-0.8,0.2-2.1,0.2-3.8v-3.8h7.6v3.4c0,4.2-0.8,7.4-2.5,9.5c-1.7,2.3-4.6,3.4-9,3.4
		C484.2,1149.4,481.1,1148.1,479.4,1145.6z"/>
	<path d="M505.9,1106.3h7.6v42.6h-7.6V1106.3z"/>
	<path d="M522.3,1145.8c-1.9-2.3-2.7-5.9-2.7-10.3v-16c0-4.4,0.8-8,2.7-10.3s5-3.4,9.5-3.4c4.4,0,7.6,1.1,9.5,3.4
		c1.9,2.3,2.9,5.7,2.9,10.3v16c0,4.4-1.1,8-2.9,10.3c-1.9,2.3-5,3.6-9.5,3.6C527.3,1149.4,524.2,1148.1,522.3,1145.8z M535.1,1142
		c0.6-1.1,0.8-2.7,0.8-4.8v-19.5c0-2.1-0.2-3.6-0.8-4.6c-0.6-1.1-1.7-1.7-3.6-1.7c-1.9,0-2.9,0.6-3.6,1.7s-0.8,2.5-0.8,4.6v19.5
		c0,2.1,0.2,3.6,0.8,4.8c0.6,1.1,1.7,1.7,3.6,1.7C533.4,1143.7,534.5,1143.1,535.1,1142z"/>
	<path d="M549.6,1106.3h5.5l10.3,24.2v-24.2h6.5v42.6h-5.3l-10.5-25.4v25.4h-6.5V1106.3z"/>
	<path d="M578.2,1106.3H596v5.5h-10.1v12.2h8v5.5h-8v14.1h10.3v5.3h-18.1V1106.3z"/>
	<path d="M602.7,1146.2c-1.9-2.1-2.9-5.5-3.2-9.7l6.7-1.3c0,2.7,0.6,4.8,1.3,6.1c0.8,1.5,1.9,2.1,3.6,2.1c1.3,0,2.1-0.4,2.7-1.1
		c0.6-0.6,0.8-1.7,0.8-2.9c0-1.7-0.4-3.2-1.1-4.2c-0.8-1.3-1.9-2.5-3.6-3.8l-5.5-4.6c-1.7-1.5-2.9-2.9-3.8-4.4
		c-0.8-1.7-1.3-3.6-1.3-5.9c0-3.4,1.1-5.9,2.9-7.8c1.9-1.9,4.6-2.7,8-2.7c3.8,0,6.3,1.1,8,3.2s2.5,4.8,2.7,8.4l-6.7,1.1
		c0-2.3-0.4-4-1.1-5.3s-1.7-1.7-3.2-1.7c-1.1,0-2.1,0.4-2.7,1.1c-0.6,0.8-1.1,1.7-1.1,2.9c0,1.3,0.2,2.5,0.8,3.4
		c0.6,0.8,1.5,1.9,2.7,2.9l5.3,4.6c2.1,1.7,3.6,3.6,4.6,5.5c1.1,1.9,1.7,4.2,1.7,6.9c0,2.1-0.4,3.8-1.3,5.5s-2.1,2.7-3.8,3.8
		s-3.4,1.3-5.5,1.3C607.6,1149.4,604.6,1148.3,602.7,1146.2z"/>
</g>
<g>
	<path d="M1388.4,1024.4c-1.7-2.1-2.7-4.8-2.9-8.4l3.6-1.1c0.2,2.9,1.1,5.3,2.1,6.9c1.1,1.7,2.7,2.5,5,2.5c4,0,6.1-2.1,6.1-6.1
		c0-1.7-0.4-3.4-1.3-4.6c-0.8-1.3-2.1-2.9-4-4.6l-7.6-7.1c-1.5-1.3-2.3-2.5-2.9-4c-0.6-1.5-0.8-2.9-0.8-4.6c0-2.9,0.8-5.3,2.5-6.7
		c1.7-1.7,4-2.3,6.9-2.3c3.2,0,5.7,0.8,7.4,2.5s2.7,4.4,2.9,8.2l-3.4,0.8c-0.2-2.9-0.8-5-1.9-6.3c-1.1-1.5-2.7-2.1-5-2.1
		c-1.9,0-3.4,0.4-4.4,1.5s-1.7,2.3-1.7,4.2c0,1.3,0.2,2.3,0.6,3.2c0.4,0.8,1.3,1.9,2.3,2.9l7.6,7.1c1.9,1.9,3.4,3.8,4.6,5.7
		c1.3,1.9,1.7,4,1.7,6.1c0,3.2-0.8,5.5-2.7,7.1c-1.9,1.7-4.2,2.5-7.1,2.5C1392.9,1027.5,1390.3,1026.5,1388.4,1024.4z"/>
	<path d="M1411.1,984.5h15.3v3.2h-11.3v16h9.2v2.9h-9.2v17.6h11.6v2.9h-15.5L1411.1,984.5L1411.1,984.5z"/>
	<path d="M1449.6,984.5h4.2l9,42.6h-4l-2.1-11.3h-10.1l-2.1,11.3h-4L1449.6,984.5z M1456.3,1012.6l-4.6-22.9l-4.4,22.9H1456.3z"/>
	<path d="M1467.9,984.5h4v39.5h12.2v2.9h-16v-42.4H1467.9z"/>
	<path d="M1489.3,1023.9c-1.7-2.3-2.3-5.7-2.3-9.9v-16.8c0-4.2,0.8-7.6,2.3-9.9c1.5-2.3,4.4-3.4,8.4-3.4c3.6,0,6.3,1.1,7.8,3.2
		c1.5,2.1,2.3,5,2.3,9v2.5h-3.8v-2.5c0-2.1-0.2-3.8-0.4-5c-0.2-1.3-0.8-2.3-1.9-2.9c-1.1-0.6-2.3-1.1-4-1.1c-1.9,0-3.4,0.4-4.2,1.1
		c-1.1,0.8-1.7,1.9-1.9,3.2c-0.4,1.3-0.6,3.2-0.6,5.3v18.1c0,3.4,0.4,5.7,1.5,7.1c1.1,1.5,2.7,2.3,5.3,2.3c2.5,0,4.2-0.8,5-2.3
		c0.8-1.5,1.3-3.8,1.3-6.9v-2.7h3.8v2.5c0,4-0.8,7.1-2.3,9.5c-1.5,2.1-4.2,3.4-7.8,3.4C1493.7,1027.5,1491,1026.3,1489.3,1023.9z"/>
	<path d="M1520.6,984.5h4.2l9,42.6h-4l-2.1-11.3h-10.1l-2.1,11.3h-4L1520.6,984.5z M1527.3,1012.6l-4.6-22.9l-4.4,22.9H1527.3z"/>
	<path d="M1539.1,984.5h2.9l13.4,33v-33h3.6v42.6h-2.7l-13.7-33.4v33.4h-3.4v-42.6H1539.1z"/>
	<path d="M1564.5,1023.9l14.3-36.6h-13v-2.9h17.4v2.1l-14.7,37.4h14.7v2.9h-18.5v-2.9H1564.5z"/>
	<path d="M1589.3,1023.9c-1.7-2.3-2.5-5.5-2.5-9.7v-17.6c0-4.2,0.8-7.4,2.5-9.5c1.7-2.1,4.4-3.4,8.4-3.4c3.8,0,6.7,1.1,8.4,3.4
		c1.7,2.3,2.5,5.3,2.5,9.5v17.6c0,4.2-0.8,7.4-2.5,9.7c-1.7,2.3-4.4,3.4-8.4,3.4C1593.9,1027.5,1591,1026.3,1589.3,1023.9z
		 M1603.2,1021.8c1.1-1.5,1.5-3.8,1.5-6.7v-19.3c0-2.9-0.4-5.3-1.5-6.7c-1.1-1.5-2.7-2.1-5.5-2.1s-4.4,0.6-5.5,2.1
		c-1.1,1.5-1.5,3.6-1.5,6.7v19.3c0,2.9,0.4,5.3,1.5,6.7c1.1,1.5,2.7,2.3,5.5,2.3S1602.1,1023.5,1603.2,1021.8z M1600.2,971.6h3.8
		l-5.3,10.3h-2.1L1600.2,971.6z"/>
	<path d="M1627.9,1024.4c-1.7-2.1-2.3-5-2.3-9v-30.9h4v31.1c0,2.7,0.4,5,1.5,6.5c1.1,1.5,2.7,2.3,5.5,2.3c2.5,0,4.4-0.8,5.5-2.3
		c1.1-1.5,1.7-3.8,1.7-6.5v-31.1h3.8v30.9c0,3.8-0.8,6.9-2.5,9s-4.4,3.2-8.4,3.2C1632.4,1027.5,1629.4,1026.5,1627.9,1024.4z"/>
	<path d="M1654.2,984.5h2.9l13.4,33v-33h3.6v42.6h-2.7l-13.7-33.4v33.4h-3.4v-42.6H1654.2z"/>
	<path d="M1697.5,987.4h-8v-2.9h20v3.2h-7.8v39.5h-4.2V987.4z"/>
	<path d="M1715.5,1023.9c-1.7-2.3-2.5-5.5-2.5-9.7v-17.6c0-4.2,0.8-7.4,2.5-9.5c1.7-2.1,4.4-3.4,8.4-3.4c3.8,0,6.7,1.1,8.4,3.4
		c1.7,2.3,2.5,5.3,2.5,9.5v17.6c0,4.2-0.8,7.4-2.5,9.7c-1.7,2.3-4.4,3.4-8.4,3.4C1720.2,1027.5,1717.2,1026.3,1715.5,1023.9z
		 M1729.4,1021.8c1.1-1.5,1.5-3.8,1.5-6.7v-19.3c0-2.9-0.4-5.3-1.5-6.7c-1.1-1.5-2.7-2.1-5.5-2.1c-2.7,0-4.4,0.6-5.5,2.1
		c-1.1,1.5-1.5,3.6-1.5,6.7v19.3c0,2.9,0.4,5.3,1.5,6.7c1.1,1.5,2.7,2.3,5.5,2.3C1726.7,1024.2,1728.4,1023.5,1729.4,1021.8z"/>
	<path d="M1746.8,987.4h-8v-2.9h20v3.2h-7.8v39.5h-4v-39.7H1746.8z"/>
	<path d="M1768.7,984.5h4.2l9,42.6h-4l-2.1-11.3h-10.1l-2.1,11.3h-4L1768.7,984.5z M1775.4,1012.6l-4.6-22.9l-4.4,22.9H1775.4z"/>
	<path d="M1787.2,984.5h4v39.5h12.2v2.9h-16v-42.4H1787.2z"/>
	<path d="M1817.9,984.5h9.2c4.2,0,7.1,1.1,9,3.2c1.7,2.1,2.7,5.3,2.7,9.2v16.8c0,4.2-0.8,7.6-2.5,9.7c-1.7,2.3-4.6,3.4-8.6,3.4h-9.7
		v-42.2H1817.9z M1827.3,1023.9c2.1,0,3.8-0.4,4.8-1.3s1.7-2.1,2.1-3.6c0.4-1.5,0.4-3.4,0.4-5.9v-15.8c0-2.3-0.2-4.2-0.6-5.5
		c-0.4-1.5-1.1-2.5-2.1-3.2c-1.1-0.6-2.7-1.1-4.8-1.1h-5.3v36.6h5.5V1023.9z"/>
	<path d="M1845.2,984.5h15.3v3.2h-11.3v16h9.2v2.9h-9.2v17.6h11.6v2.9h-15.5L1845.2,984.5L1845.2,984.5z"/>
</g>
<g>
	<path d="M1391,1088.9c-1.7-1.1-2.9-2.7-3.8-4.8c-0.6-2.1-1.1-4.6-1.1-8v-28.6h7.6v29.6c0,2.5,0.2,4.4,0.8,5.7
		c0.6,1.3,1.7,2.1,3.6,2.1c1.9,0,2.9-0.6,3.6-2.1c0.6-1.3,0.8-3.2,0.8-5.7v-29.6h7.6v28.8c0,3.2-0.4,5.7-1.1,7.8
		c-0.6,2.1-1.9,3.8-3.8,4.8c-1.7,1.1-4.2,1.7-7.4,1.7C1395.2,1090.5,1392.6,1089.9,1391,1088.9z"/>
	<path d="M1425.6,1090.5c-6.9-0.2-10.7-4.6-10.9-13l6.7-1.3c0,2.7,0.6,4.8,1.3,6.1c0.8,1.5,1.9,2.1,3.6,2.1c1.3,0,2.1-0.4,2.7-1.1
		s0.8-1.7,0.8-2.9c0-1.7-0.4-3.2-1.1-4.2s-1.9-2.5-3.6-3.8l-5.3-4.6c-1.7-1.5-2.9-2.9-3.8-4.6c-0.8-1.7-1.3-3.6-1.3-5.7
		c0-3.2,0.8-5.7,2.7-7.6c1.9-1.9,4.2-2.7,7.4-2.9v-4.2h2.3v4.2c3.2,0.2,5.5,1.3,6.9,3.4c1.3,2.1,2.1,4.8,2.3,8.2l-6.7,1.1
		c-0.2-2.3-0.4-4-1.1-5.3c-0.4-1.3-1.5-1.7-2.9-1.7c-1.3,0-2.1,0.4-2.9,1.1c-0.6,0.6-1.1,1.7-1.1,2.9c0,1.3,0.2,2.5,0.8,3.4
		c0.6,0.8,1.5,1.9,2.7,2.9l5.3,4.6c1.9,1.9,3.6,3.6,4.6,5.7c1.1,2.1,1.7,4.2,1.7,6.7c0,2.9-0.8,5.3-2.5,7.1c-1.7,1.9-4,2.9-6.7,3.2
		v4.4h-2.3v-4.2H1425.6z"/>
	<path d="M1444.1,1087.2c-1.9-2.1-2.9-5.5-3.2-9.7l6.7-1.3c0,2.7,0.6,4.8,1.3,6.1c0.8,1.5,1.9,2.1,3.6,2.1c1.3,0,2.1-0.4,2.7-1.1
		c0.6-0.6,0.8-1.7,0.8-2.9c0-1.7-0.4-3.2-1.1-4.2c-0.8-1.3-1.9-2.5-3.6-3.8l-5.3-4.6c-1.7-1.5-2.9-2.9-3.8-4.4
		c-0.8-1.5-1.3-3.6-1.3-5.9c0-3.4,1.1-5.9,2.9-7.8c1.9-1.9,4.6-2.7,8-2.7c3.8,0,6.3,1.1,8,3.2c1.7,2.1,2.5,4.8,2.7,8.4l-6.7,1.1
		c0-2.3-0.4-4-1.1-5.3s-1.7-1.7-3.2-1.7c-1.1,0-2.1,0.4-2.7,1.1c-0.6,0.8-1.1,1.7-1.1,2.9c0,1.3,0.2,2.5,0.8,3.4
		c0.6,0.8,1.5,1.9,2.7,2.9l5.3,4.6c2.1,1.7,3.6,3.6,4.6,5.5c1.1,1.9,1.7,4.2,1.7,6.9c0,2.1-0.4,3.8-1.3,5.5s-2.1,2.7-3.8,3.8
		c-1.7,0.8-3.6,1.3-5.7,1.3C1448.7,1090.5,1446,1089.5,1444.1,1087.2z"/>
	<path d="M1479.4,1078.4v-1.5h7.1v1.3c0,2.1,0.4,3.8,0.8,4.8c0.6,1.1,1.5,1.5,2.9,1.5s2.5-0.6,2.9-1.7c0.4-1.1,0.8-2.7,0.8-5
		c0-2.3-0.4-4-1.1-5.3c-0.8-1.3-2.1-1.9-4-1.9h-1.3v-5.9h1.1c1.9,0,3.2-0.6,4-1.5c0.8-1.1,1.1-2.5,1.1-4.8c0-1.9-0.2-3.4-0.8-4.2
		c-0.6-0.8-1.7-1.5-3.2-1.5s-2.3,0.4-2.9,1.5s-0.8,2.5-0.8,4.6v1.5h-7.1v-2.1c0-3.6,1.1-6.5,2.9-8.4c1.9-1.9,4.6-2.9,8.2-2.9
		c3.6,0,6.3,1.1,8.2,2.9c1.9,1.9,2.9,4.6,2.9,8.4c0,2.5-0.4,4.6-1.5,6.1c-1.1,1.7-2.3,2.7-4,3.2c1.7,0.6,3.2,1.7,4.2,3.4
		c1.1,1.7,1.5,4,1.5,6.7c0,4-0.8,7.1-2.7,9.5c-1.7,2.3-4.6,3.4-8.4,3.4C1483.2,1090.5,1479.4,1086.6,1479.4,1078.4z"/>
	<path d="M1509.2,1086.8c-1.9-2.5-2.7-5.9-2.7-10.1v-14.9c0-4.6,0.8-8.2,2.5-10.7s4.6-4,8.6-4c3.6,0,6.3,0.8,8,2.7s2.5,4.4,2.7,8
		v0.6h-6.9c0-2.1-0.2-3.6-0.8-4.4c-0.4-0.8-1.5-1.3-2.9-1.3s-2.3,0.6-2.9,1.9c-0.6,1.3-0.8,3.6-0.8,6.7v5c0.6-0.8,1.3-1.5,2.3-1.9
		s2.3-0.6,3.6-0.6c6.1,0,9,4,9,12.2c0,9.7-3.8,14.5-11.1,14.5C1513.9,1090.5,1510.9,1089.3,1509.2,1086.8z M1520.6,1083
		c0.6-1.3,0.8-3.2,0.8-5.7c0-1.9,0-3.4-0.2-4.4c-0.2-1.1-0.4-1.9-1.1-2.5c-0.6-0.6-1.5-1.1-2.5-1.1c-0.8,0-1.7,0.2-2.3,0.6
		c-0.6,0.4-1.3,1.1-1.5,1.7v6.7c0,2.1,0.2,3.6,0.8,4.8c0.6,1.3,1.7,1.9,2.9,1.9C1518.9,1084.9,1520,1084.2,1520.6,1083z"/>
	<path d="M1545.4,1079.4h-12.8v-6.3l11.1-25.8h8.4v26.3h4.4v5.9h-4.4v10.5h-6.7V1079.4z M1545.4,1073.7v-18.5l-6.7,18.5H1545.4z"/>
	<path d="M1559.9,1082.8h6.9v7.1h-6.9V1082.8z"/>
	<path d="M1573.9,1087.8c-1.7-1.9-2.5-4.4-2.7-8v-0.6h6.9c0,2.1,0.2,3.6,0.8,4.4c0.4,0.8,1.5,1.3,2.9,1.3c1.5,0,2.3-0.6,2.9-1.9
		c0.6-1.3,0.8-3.6,0.8-6.7v-5c-0.4,0.8-1.3,1.5-2.3,1.9s-2.3,0.6-3.6,0.6c-5.9,0-9-4.2-9-12.4c0-4.4,0.8-8,2.7-10.5
		c1.9-2.5,4.6-3.8,8.4-3.8s6.5,1.3,8.4,3.8c1.9,2.5,2.7,5.9,2.7,10.1v15.1c0,4.6-0.8,8.2-2.5,10.9s-4.6,4-8.6,4
		C1578.4,1090.5,1575.6,1089.7,1573.9,1087.8z M1585.7,1065.8v-6.7c0-2.1-0.2-3.8-0.8-4.8c-0.6-1.3-1.5-1.9-2.9-1.9
		s-2.3,0.6-2.9,1.9c-0.6,1.3-0.8,3.2-0.8,5.7c0,1.9,0,3.4,0.2,4.4c0.2,1.1,0.4,1.9,1.1,2.5s1.5,1.1,2.5,1.1
		C1583.6,1068.1,1584.9,1067.2,1585.7,1065.8z"/>
	<path d="M1610.5,1079.4h-12.8v-6.3l11.1-25.8h8.4v26.3h4.4v5.9h-4.4v10.5h-6.7V1079.4z M1610.5,1073.7v-18.5l-6.7,18.5H1610.5z"/>
	<path d="M1624.8,1077.7c0-5,1.7-8.4,5-10.3c-1.5-1.1-2.5-2.3-3.4-3.8c-0.8-1.7-1.3-3.6-1.3-5.9c0-3.4,0.8-6.1,2.7-8
		c1.9-1.9,4.4-2.9,7.8-2.9c3.4,0,6.1,1.1,7.8,2.9c1.7,1.9,2.7,4.6,2.7,8c0,4.4-1.5,7.8-4.4,9.7c3.4,1.9,5,5.5,5,10.5
		c0,8.4-3.8,12.6-11.1,12.6S1624.8,1086.3,1624.8,1077.7z M1639.1,1083c0.6-1.3,0.8-3.2,0.8-5.3c0-2.1-0.2-3.6-0.8-4.8
		c-0.6-1.3-1.7-1.9-3.2-1.9c-1.5,0-2.5,0.6-3.2,2.1c-0.6,1.5-0.8,2.9-0.8,5.3c0,2.1,0.2,3.8,0.8,5c0.6,1.3,1.7,1.9,3.2,1.9
		C1637.6,1085.1,1638.7,1084.2,1639.1,1083z M1639.5,1058c0-1.7-0.2-2.9-0.8-4s-1.5-1.5-2.7-1.5c-1.3,0-2.1,0.4-2.7,1.5
		s-0.8,2.3-0.8,4c0,4.6,1.3,6.7,3.6,6.9C1638.2,1064.7,1639.5,1062.4,1639.5,1058z"/>
	<path d="M1666.3,1047.5h10.1c3.4,0,6.1,0.4,8.2,1.5c1.9,0.8,3.4,2.3,4.2,4.2c0.8,1.9,1.3,4.4,1.3,7.6v15.5c0,3.2-0.4,5.9-1.3,7.8
		c-0.8,1.9-2.1,3.6-4.2,4.4c-1.9,1.1-4.6,1.5-7.8,1.5h-10.5V1047.5z M1676.6,1084.5c1.7,0,2.9-0.2,3.8-0.8c0.8-0.6,1.3-1.5,1.5-2.5
		c0.2-1.1,0.2-2.7,0.2-4.8v-16.2c0-1.9-0.2-3.4-0.4-4.2c-0.2-0.8-0.8-1.7-1.5-2.1c-0.8-0.4-2.1-0.6-3.8-0.6h-2.3v31.5h2.5V1084.5z"
		/>
	<path d="M1695.7,1047.5h17.9v5.5h-10.1v12.2h8v5.5h-8v14.1h10.3v5.3h-18.1V1047.5z"/>
	<path d="M1728.9,1047.5h6.9l5.7,30l5.3-30h6.9l-8.6,42.6h-7.6L1728.9,1047.5z"/>
	<path d="M1762.7,1047.5h8.4l8.4,42.6h-7.1l-1.7-9.9h-7.4l-1.7,9.9h-7.4L1762.7,1047.5z M1769.9,1075.2l-2.9-17.9l-2.9,17.9H1769.9z
		"/>
	<path d="M1783.9,1047.5h12.4c7.4,0,10.9,4,10.9,12.2c0,7.8-3.8,11.6-11.3,11.6h-4.2v18.9h-7.8V1047.5z M1794.7,1065.5
		c2.1,0,3.6-0.4,4.2-1.3c0.6-0.8,1.1-2.5,1.1-4.8c0-1.7-0.2-2.9-0.4-3.8c-0.2-0.8-0.8-1.5-1.5-2.1c-0.8-0.4-1.9-0.6-3.6-0.6h-2.9
		v12.8h3.2V1065.5z"/>
</g>
<g>
	<path d="M714.3,1024.4c-1.7-2.1-2.7-4.8-2.9-8.4l3.6-1.1c0.2,2.9,1.1,5.3,2.1,6.9c1.1,1.7,2.7,2.5,5,2.5c4,0,6.1-2.1,6.1-6.1
		c0-1.7-0.4-3.4-1.3-4.6c-0.8-1.3-2.1-2.9-4-4.6l-7.6-7.1c-1.3-1.3-2.3-2.5-2.9-4c-0.6-1.5-0.8-2.9-0.8-4.6c0-2.9,0.8-5.3,2.5-6.7
		c1.7-1.7,4-2.3,6.9-2.3c3.2,0,5.5,0.8,7.4,2.5c1.7,1.7,2.7,4.4,2.9,8.2l-3.4,0.8c-0.2-2.9-0.8-5-1.9-6.3c-1.1-1.5-2.7-2.1-5-2.1
		c-1.9,0-3.4,0.4-4.4,1.5c-1.1,1.1-1.7,2.3-1.7,4.2c0,1.3,0.2,2.3,0.6,3.2c0.4,1.1,1.3,1.9,2.3,2.9l7.6,7.1c1.9,1.9,3.4,3.8,4.6,5.7
		c1.3,1.9,1.7,4,1.7,6.1c0,3.2-0.8,5.5-2.7,7.1c-1.9,1.7-4.2,2.5-7.1,2.5C718.5,1027.5,716,1026.5,714.3,1024.4z"/>
	<path d="M737,984.5h15.3v3.2H741v16h9.2v2.9H741v17.6h11.6v2.9H737V984.5z"/>
	<path d="M770.2,1023.9c-1.7-2.3-2.3-5.7-2.3-10.1v-16.6c0-4.4,0.8-7.8,2.3-10.1c1.7-2.3,4.4-3.4,8.4-3.4c3.8,0,6.3,1.1,8,3.2
		c1.7,2.1,2.3,5,2.3,9.2v1.5h-3.8v-1.5c0-3.2-0.4-5.5-1.5-6.9c-0.8-1.5-2.5-2.1-5-2.1c-1.9,0-3.4,0.4-4.2,1.3
		c-1.1,0.8-1.7,1.9-1.9,3.4c-0.4,1.5-0.4,3.2-0.4,5.3v17.4c0,3.4,0.4,5.9,1.5,7.4c1.1,1.5,2.7,2.3,5.5,2.3c2.5,0,4.2-0.8,5.3-2.5
		c1.1-1.7,1.5-4.2,1.5-7.6v-5h-6.3v-2.9h10.1v20.6H787l-0.4-4.8c-0.6,1.7-1.5,3.2-2.7,4c-1.3,1.1-2.9,1.5-5,1.5
		C774.4,1027.5,771.6,1026.3,770.2,1023.9z"/>
	<path d="M795.8,984.5h15.3v3.2h-11.3v16h9.2v2.9h-9.2v17.6h11.6v2.9h-15.5V984.5z"/>
	<path d="M816.8,984.5h2.9l13.7,33v-33h3.4v42.6h-2.9l-13.7-33.4v33.4h-3.4V984.5z"/>
	<path d="M843.9,984.5h15.3v3.2h-11.3v16h9.2v2.9h-9.2v17.6h11.6v2.9h-15.5V984.5z"/>
	<path d="M864.9,984.5h9.7c3.8,0,6.5,0.8,8.2,2.7c1.7,1.9,2.3,4.6,2.3,8c0,2.7-0.4,4.8-1.3,6.7c-0.8,1.7-2.3,2.9-4.6,3.4l6.5,21.6
		h-3.8l-6.3-21h-6.7v21h-4V984.5z M874.4,1003.1c2.5,0,4.4-0.6,5.3-1.9s1.5-3.2,1.5-5.9s-0.4-4.8-1.5-6.1c-1.1-1.3-2.7-1.9-5.3-1.9
		h-5.5v15.8L874.4,1003.1L874.4,1003.1z"/>
	<path d="M893.5,1023.9c-1.7-2.3-2.5-5.5-2.5-9.7v-17.6c0-4.2,0.8-7.4,2.5-9.5c1.7-2.1,4.4-3.4,8.4-3.4c3.8,0,6.7,1.1,8.4,3.4
		c1.7,2.1,2.5,5.3,2.5,9.5v17.6c0,4.2-0.8,7.4-2.5,9.7c-1.7,2.3-4.4,3.4-8.4,3.4C897.9,1027.5,895.2,1026.3,893.5,1023.9z
		 M907.4,1021.8c1.1-1.5,1.5-3.8,1.5-6.7v-19.3c0-2.9-0.4-5.3-1.5-6.7c-1.1-1.5-2.7-2.1-5.5-2.1c-2.7,0-4.4,0.6-5.5,2.1
		c-1.1,1.5-1.5,3.6-1.5,6.7v19.3c0,2.9,0.4,5.3,1.5,6.7c1.1,1.5,2.7,2.3,5.5,2.3C904.4,1024.2,906.3,1023.5,907.4,1021.8z
		 M904.2,971.6h3.8l-5.3,10.3h-1.9L904.2,971.6z"/>
	<path d="M931.9,1024.4c-1.7-2.1-2.3-5-2.3-9v-30.9h4v31.1c0,2.7,0.4,5,1.5,6.5c1.1,1.5,2.7,2.3,5.5,2.3c2.5,0,4.4-0.8,5.5-2.3
		c1.1-1.5,1.7-3.8,1.7-6.5v-31.1h3.8v30.9c0,3.8-0.8,6.9-2.5,9c-1.7,2.1-4.4,3.2-8.4,3.2C936.3,1027.5,933.6,1026.5,931.9,1024.4z"
		/>
	<path d="M958.4,984.5h2.9l13.7,33v-33h3.4v42.6h-2.9l-13.7-33.4v33.4h-3.4V984.5z"/>
	<path d="M1001.7,987.4h-8v-2.9h20v3.2h-7.8v39.5h-4v-39.7H1001.7z"/>
	<path d="M1019.7,1023.9c-1.7-2.3-2.5-5.5-2.5-9.7v-17.6c0-4.2,0.8-7.4,2.5-9.5c1.7-2.1,4.4-3.4,8.4-3.4c3.8,0,6.7,1.1,8.4,3.4
		c1.7,2.3,2.5,5.3,2.5,9.5v17.6c0,4.2-0.8,7.4-2.5,9.7c-1.7,2.3-4.4,3.4-8.4,3.4C1024.2,1027.5,1021.4,1026.3,1019.7,1023.9z
		 M1033.6,1021.8c1.1-1.5,1.5-3.8,1.5-6.7v-19.3c0-2.9-0.4-5.3-1.5-6.7c-1.1-1.5-2.7-2.1-5.5-2.1s-4.4,0.6-5.5,2.1
		c-1.1,1.5-1.5,3.6-1.5,6.7v19.3c0,2.9,0.4,5.3,1.5,6.7c1.1,1.5,2.7,2.3,5.5,2.3C1030.7,1024.2,1032.6,1023.5,1033.6,1021.8z"/>
	<path d="M1050.8,987.4h-8v-2.9h20v3.2h-7.8v39.5h-4v-39.7H1050.8z"/>
	<path d="M1072.9,984.5h4.2l9,42.6h-4l-2.1-11.3H1070l-2.1,11.3h-4L1072.9,984.5z M1079.4,1012.6l-4.6-22.9l-4.4,22.9H1079.4z"/>
	<path d="M1091.2,984.5h4v39.5h12.2v2.9h-16v-42.4H1091.2z"/>
	<path d="M1122.1,984.5h9.2c4.2,0,7.1,1.1,9,3.2c1.7,2.1,2.7,5.3,2.7,9.2v16.8c0,4.2-0.8,7.6-2.5,9.7c-1.7,2.3-4.6,3.4-8.6,3.4h-9.7
		v-42.2H1122.1z M1131.3,1023.9c2.1,0,3.8-0.4,4.8-1.3s1.7-2.1,2.1-3.6c0.4-1.5,0.4-3.4,0.4-5.9v-15.8c0-2.3-0.2-4.2-0.6-5.5
		c-0.4-1.5-1.1-2.5-2.1-3.2c-1.1-0.6-2.7-1.1-4.8-1.1h-5v36.6h5.3V1023.9z"/>
	<path d="M1149.4,984.5h15.3v3.2h-11.3v16h9.2v2.9h-9.2v17.6h11.6v2.9h-15.5V984.5z"/>
</g>
<g>
	<path d="M711.3,1077.7c0-5,1.7-8.4,5-10.3c-1.3-1.1-2.5-2.3-3.2-3.8c-0.8-1.7-1.3-3.6-1.3-5.9c0-3.4,0.8-6.1,2.7-8
		c1.9-1.9,4.4-2.9,7.8-2.9c3.4,0,6.1,1.1,7.8,2.9c1.7,1.9,2.7,4.6,2.7,8c0,4.4-1.5,7.8-4.4,9.7c3.4,1.9,5,5.5,5,10.5
		c0,8.4-3.8,12.6-11.1,12.6C715.1,1090.5,711.3,1086.3,711.3,1077.7z M725.6,1083c0.6-1.3,0.8-3.2,0.8-5.3c0-2.1-0.2-3.6-0.8-4.8
		c-0.6-1.3-1.7-1.9-3.2-1.9c-1.5,0-2.5,0.6-3.2,2.1c-0.6,1.3-0.8,2.9-0.8,5.3c0,2.1,0.2,3.8,0.8,5c0.6,1.3,1.7,1.9,3.2,1.9
		C724.2,1085.1,725.2,1084.2,725.6,1083z M725.8,1058c0-1.7-0.2-2.9-0.8-4c-0.6-1.1-1.5-1.5-2.7-1.5s-2.1,0.4-2.7,1.5
		c-0.6,1.1-0.8,2.3-0.8,4c0,4.6,1.3,6.7,3.6,6.9C724.8,1064.7,725.8,1062.4,725.8,1058z"/>
	<path d="M741.6,1087.2c-1.9-2.3-2.9-5.3-2.9-9v-18.9c0-4,0.8-6.9,2.7-9.2c1.9-2.1,4.6-3.4,8.4-3.4s6.5,1.1,8.4,3.4s2.7,5.3,2.7,9
		v18.9c0,3.8-1.1,6.7-2.9,9c-1.9,2.3-4.6,3.4-8.2,3.4C746.2,1090.3,743.5,1089.5,741.6,1087.2z M753.6,1078.1v-18.7
		c0-1.9-0.2-3.4-0.8-4.6c-0.6-1.3-1.5-1.7-2.9-1.7c-1.5,0-2.5,0.6-2.9,1.7c-0.4,1.1-0.8,2.7-0.8,4.6v18.7c0,1.7,0.2,3.2,0.8,4.4
		c0.6,1.3,1.5,1.9,2.9,1.9C752.3,1084.2,753.6,1082.4,753.6,1078.1z"/>
	<path d="M766.4,1082.8h6.9v7.1h-6.9V1082.8z"/>
	<path d="M780.7,1087.8c-1.7-1.9-2.5-4.4-2.7-8v-0.6h6.9c0,2.1,0.2,3.6,0.8,4.4c0.4,0.8,1.5,1.3,2.9,1.3c1.3,0,2.3-0.6,2.9-1.9
		c0.6-1.3,0.8-3.6,0.8-6.7v-5c-0.4,0.8-1.3,1.5-2.3,1.9s-2.3,0.6-3.6,0.6c-5.9,0-9-4.2-9-12.4c0-4.4,0.8-8,2.7-10.5
		c1.7-2.5,4.6-3.8,8.4-3.8s6.5,1.3,8.4,3.8c1.9,2.5,2.7,5.9,2.7,10.1v15.1c0,4.6-0.8,8.2-2.5,10.9s-4.6,4-8.6,4
		C784.9,1090.5,782.4,1089.7,780.7,1087.8z M792.2,1065.8v-6.7c0-2.1-0.2-3.8-0.8-4.8c-0.6-1.1-1.5-1.9-2.9-1.9
		c-1.5,0-2.3,0.6-2.9,1.9c-0.6,1.3-0.8,3.2-0.8,5.7c0,1.9,0,3.4,0.2,4.4c0.2,1.1,0.4,1.9,1.1,2.5s1.5,1.1,2.5,1.1
		C790.1,1068.1,791.4,1067.2,792.2,1065.8z"/>
	<path d="M808.4,1087.2c-1.9-2.3-2.9-5.3-2.9-9v-18.9c0-4,0.8-6.9,2.7-9.2c1.9-2.1,4.6-3.4,8.4-3.4s6.5,1.1,8.4,3.4s2.7,5.3,2.7,9
		v18.9c0,3.8-1.1,6.7-2.9,9c-1.9,2.3-4.6,3.4-8.2,3.4C813,1090.3,810.3,1089.5,808.4,1087.2z M820.4,1078.1v-18.7
		c0-1.9-0.2-3.4-0.8-4.6c-0.6-1.3-1.5-1.7-2.9-1.7c-1.5,0-2.5,0.6-2.9,1.7c-0.4,1.1-0.8,2.7-0.8,4.6v18.7c0,1.7,0.2,3.2,0.8,4.4
		c0.6,1.3,1.5,1.9,2.9,1.9C819.1,1084.2,820.4,1082.4,820.4,1078.1z"/>
	<path d="M832.8,1078.4v-1.5h7.1v1.3c0,2.1,0.4,3.8,0.8,4.8c0.4,1.1,1.5,1.5,2.9,1.5s2.5-0.6,3.2-1.7c0.6-1.1,0.8-2.7,0.8-5
		c0-2.3-0.4-4-1.1-5.3c-0.8-1.3-2.1-1.9-4-1.9h-1.3v-5.9h1.1c1.9,0,3.2-0.6,4-1.5c0.8-1.1,1.1-2.5,1.1-4.8c0-1.9-0.2-3.4-0.8-4.2
		c-0.6-0.8-1.7-1.5-3.2-1.5c-1.5,0-2.3,0.4-2.9,1.5c-0.6,1.1-0.8,2.5-0.8,4.6v1.5h-7.1v-2.1c0-3.6,1.1-6.5,2.9-8.4
		c1.9-1.9,4.6-2.9,8.2-2.9s6.3,1.1,8.2,2.9c1.9,1.9,2.9,4.6,2.9,8.4c0,2.5-0.4,4.6-1.5,6.1c-1.1,1.7-2.3,2.7-4,3.2
		c1.7,0.6,3.2,1.7,4.2,3.4c1.1,1.7,1.5,4,1.5,6.7c0,4-0.8,7.1-2.7,9.5c-1.7,2.3-4.6,3.4-8.4,3.4
		C836.3,1090.5,832.8,1086.6,832.8,1078.4z"/>
	<path d="M859.2,1082.8h6.9v7.1h-6.9V1082.8z"/>
	<path d="M873.5,1087.8c-1.7-1.9-2.5-4.4-2.7-8v-0.6h6.9c0,2.1,0.2,3.6,0.8,4.4c0.4,0.8,1.5,1.3,2.9,1.3c1.3,0,2.3-0.6,2.9-1.9
		c0.6-1.3,0.8-3.6,0.8-6.7v-5c-0.4,0.8-1.3,1.5-2.3,1.9s-2.3,0.6-3.6,0.6c-5.9,0-9-4.2-9-12.4c0-4.4,0.8-8,2.7-10.5
		c1.7-2.5,4.6-3.8,8.4-3.8c3.8,0,6.5,1.3,8.4,3.8c1.9,2.5,2.7,5.9,2.7,10.1v15.1c0,4.6-0.8,8.2-2.5,10.9c-1.7,2.7-4.6,4-8.6,4
		C877.7,1090.5,875.2,1089.7,873.5,1087.8z M885.1,1065.8v-6.7c0-2.1-0.2-3.8-0.8-4.8c-0.6-1.1-1.5-1.9-2.9-1.9s-2.3,0.6-2.9,1.9
		c-0.6,1.3-0.8,3.2-0.8,5.7c0,1.9,0,3.4,0.2,4.4c0.2,1.1,0.4,1.9,1.1,2.5s1.5,1.1,2.5,1.1C883,1068.1,884.2,1067.2,885.1,1065.8z"/>
	<path d="M900.2,1087.4c-1.5-2.1-2.3-5.3-2.3-9.7h7.1c0,2.3,0.2,4.2,0.8,5.5c0.6,1.3,1.5,1.9,3.2,1.9c1.1,0,2.1-0.4,2.5-1.1
		c0.6-0.8,0.8-1.7,1.1-3.2c0.2-1.3,0.2-3.2,0.2-5.3c0-2.7-0.2-4.8-0.8-6.3s-1.7-2.1-3.4-2.1c-1.1,0-1.9,0.4-2.5,1.1
		c-0.6,0.6-1.3,1.7-1.5,2.7h-6.3l0.4-23.7h19.1v6.5h-13l-0.4,10.3c0.6-0.6,1.5-1.3,2.5-1.7s2.3-0.6,3.8-0.6c2.9,0,5.3,1.1,6.7,3.4
		c1.5,2.3,2.1,5.5,2.1,9.7c0,3.2-0.2,6.1-0.8,8.2c-0.6,2.3-1.7,4-3.4,5.3s-4,1.9-6.9,1.9C904.6,1090.5,901.7,1089.5,900.2,1087.4z"
		/>
	<path d="M927.1,1086.8c-1.9-2.5-2.7-5.9-2.7-10.1v-14.9c0-4.6,0.8-8.2,2.5-10.7c1.7-2.5,4.6-4,8.6-4c3.6,0,6.3,0.8,8,2.7
		c1.7,1.9,2.5,4.4,2.7,8v0.6h-7.1c0-2.1-0.2-3.6-0.8-4.4c-0.4-0.8-1.5-1.3-2.9-1.3s-2.3,0.6-2.9,1.9c-0.6,1.3-0.8,3.6-0.8,6.7v5
		c0.6-0.8,1.3-1.5,2.3-1.9s2.3-0.6,3.6-0.6c6.1,0,9,4,9,12.2c0,9.7-3.8,14.5-11.1,14.5C931.7,1090.5,929,1089.3,927.1,1086.8z
		 M938.4,1083c0.6-1.3,0.8-3.2,0.8-5.7c0-1.9,0-3.4-0.2-4.4c-0.2-1.1-0.4-1.9-1.1-2.5s-1.5-1.1-2.5-1.1c-0.8,0-1.7,0.2-2.3,0.6
		c-0.6,0.4-1.3,1.1-1.5,1.7v6.7c0,2.1,0.2,3.6,0.8,4.8c0.6,1.3,1.7,1.9,2.9,1.9C937,1084.9,937.8,1084.2,938.4,1083z"/>
	<path d="M966.8,1086.8c-1.9-2.5-2.7-5.9-2.7-10.5v-15.1c0-4.6,0.8-8.2,2.7-10.5c1.9-2.5,5-3.6,9.5-3.6c4.2,0,7.1,1.1,8.8,3.2
		c1.7,2.1,2.7,5,2.7,9v3.6h-7.6v-3.8c0-1.5,0-2.7-0.2-3.6c-0.2-0.8-0.4-1.5-1.1-2.1c-0.6-0.6-1.5-0.8-2.7-0.8s-2.1,0.2-2.9,0.8
		c-0.6,0.6-1.1,1.3-1.3,2.3s-0.2,2.3-0.2,3.8v18.5c0,2.5,0.4,4.2,1.1,5.3s1.7,1.7,3.4,1.7c1.3,0,2.1-0.2,2.7-0.8
		c0.6-0.6,0.8-1.3,1.1-2.3c0.2-0.8,0.2-2.1,0.2-3.8v-3.8h7.6v3.4c0,4.2-0.8,7.4-2.5,9.5c-1.7,2.3-4.6,3.4-9,3.4
		C971.8,1090.5,968.7,1089.3,966.8,1086.8z"/>
	<path d="M995.2,1087c-1.9-2.3-2.9-5.9-2.9-10.3v-16c0-4.4,0.8-8,2.9-10.3c1.9-2.3,5-3.4,9.5-3.4c4.4,0,7.6,1.1,9.5,3.4
		c1.9,2.3,2.7,5.7,2.7,10.3v16c0,4.4-1.1,8-2.9,10.3c-1.9,2.3-5,3.6-9.5,3.6C1000.2,1090.5,997.1,1089.3,995.2,1087z M1008.2,1083.2
		c0.6-1.1,0.8-2.7,0.8-4.8v-19.5c0-2.1-0.2-3.6-0.8-4.6c-0.6-1.1-1.7-1.7-3.6-1.7c-1.7,0-2.9,0.6-3.6,1.7c-0.6,1.1-0.8,2.5-0.8,4.6
		v19.5c0,2.1,0.2,3.6,0.8,4.8c0.6,1.3,1.7,1.7,3.6,1.7S1007.6,1084.2,1008.2,1083.2z"/>
	<path d="M1022.7,1047.5h5.5l10.3,24.2v-24.2h6.3v42.6h-5.3l-10.5-25.4v25.4h-6.5v-42.6H1022.7z"/>
	<path d="M1055.5,1053.1h-6.7v-5.7h21.2v5.7h-6.7v36.8h-7.8V1053.1L1055.5,1053.1z"/>
	<path d="M1079.2,1047.5h8.4l8.4,42.6h-7.1l-1.7-9.9h-7.4l-1.7,9.9h-7.4L1079.2,1047.5z M1086.3,1075.2l-2.9-17.9l-2.9,17.9H1086.3z
		"/>
	<path d="M1101.9,1086.8c-1.9-2.5-2.7-5.9-2.7-10.5v-15.1c0-4.6,0.8-8.2,2.7-10.5c1.9-2.5,5-3.6,9.5-3.6c4.2,0,7.1,1.1,8.8,3.2
		s2.7,5,2.7,9v3.6h-7.4v-3.8c0-1.5,0-2.7-0.2-3.6s-0.4-1.5-1.1-2.1s-1.5-0.8-2.7-0.8s-2.1,0.2-2.7,0.8c-0.6,0.6-1.1,1.3-1.3,2.3
		c-0.2,1.1-0.2,2.3-0.2,3.8v18.5c0,2.5,0.4,4.2,1.1,5.3s1.7,1.7,3.4,1.7c1.3,0,2.1-0.2,2.7-0.8c0.6-0.6,1.1-1.3,1.1-2.3
		c0.2-0.8,0.2-2.1,0.2-3.8v-3.8h7.4v3.4c0,4.2-0.8,7.4-2.5,9.5c-1.7,2.3-4.6,3.4-9,3.4C1106.9,1090.5,1103.8,1089.3,1101.9,1086.8z"
		/>
	<path d="M1132.6,1053.1h-6.7v-5.7h21.2v5.7h-6.7v36.8h-7.8L1132.6,1053.1L1132.6,1053.1z"/>
	<path d="M1152.7,1087c-1.9-2.3-2.7-5.9-2.7-10.3v-16c0-4.4,1.1-8,2.7-10.3c1.9-2.3,5-3.4,9.5-3.4c4.4,0,7.6,1.1,9.5,3.4
		c1.9,2.3,2.7,5.7,2.7,10.3v16c0,4.4-1.1,8-2.9,10.3c-1.9,2.3-5,3.6-9.5,3.6C1157.8,1090.5,1154.6,1089.3,1152.7,1087z
		 M1165.8,1083.2c0.6-1.1,0.8-2.7,0.8-4.8v-19.5c0-2.1-0.2-3.6-0.8-4.6c-0.6-1.1-1.7-1.7-3.6-1.7c-1.9,0-2.9,0.6-3.6,1.7
		c-0.6,1.1-0.8,2.5-0.8,4.6v19.5c0,2.1,0.2,3.6,0.8,4.8c0.6,1.3,1.7,1.7,3.6,1.7C1163.9,1084.9,1165.1,1084.2,1165.8,1083.2z"/>
	<path d="M1182.4,1087.2c-1.9-2.1-2.9-5.5-3.2-9.7l6.7-1.3c0,2.7,0.6,4.8,1.3,6.1c0.8,1.5,1.9,2.1,3.6,2.1c1.3,0,2.1-0.4,2.7-1.1
		s0.8-1.7,0.8-2.9c0-1.7-0.4-3.2-1.1-4.2c-0.8-1.3-1.9-2.5-3.6-3.8l-5.3-4.6c-1.7-1.5-2.9-2.9-3.8-4.4c-0.8-1.5-1.3-3.6-1.3-5.9
		c0-3.4,1.1-5.9,2.9-7.8c1.9-1.9,4.6-2.7,8-2.7c3.8,0,6.3,1.1,8,3.2s2.5,4.8,2.7,8.4l-6.7,1.1c0-2.3-0.4-4-1.1-5.3s-1.7-1.7-3.2-1.7
		c-1.1,0-2.1,0.4-2.7,1.1c-0.6,0.8-1.1,1.7-1.1,2.9c0,1.3,0.2,2.5,0.8,3.4c0.6,0.8,1.5,1.9,2.7,2.9l5.3,4.6c2.1,1.7,3.6,3.6,4.6,5.5
		c1.1,1.9,1.7,4.2,1.7,6.9c0,2.1-0.4,3.8-1.3,5.5c-0.8,1.7-2.1,2.7-3.8,3.8c-1.7,0.8-3.6,1.3-5.7,1.3
		C1187,1090.5,1184.2,1089.5,1182.4,1087.2z"/>
</g>
</svg>
