<?xml version="1.0" encoding="utf-8"?>
<!-- Generator: Adobe Illustrator 18.0.0, SVG Export Plug-In . SVG Version: 6.00 Build 0)  -->
<!DOCTYPE svg PUBLIC "-//W3C//DTD SVG 1.1//EN" "http://www.w3.org/Graphics/SVG/1.1/DTD/svg11.dtd">
<svg version="1.1" id="Capa_1" xmlns="http://www.w3.org/2000/svg" xmlns:xlink="http://www.w3.org/1999/xlink" x="0px" y="0px"
	 viewBox="0 0 1099.9 255" enable-background="new 0 0 1099.9 255" xml:space="preserve">
<rect x="372" fill="#FFFFFF" width="355.8" height="255"/>
<rect fill="#0000F5" width="355.8" height="255"/>
<g>
	<path fill="#FFFFFF" d="M30,34.4c-0.2,0.1-0.9,0.4-1.9,0.9c-0.2,0.1-0.5,0.2-0.8,0.3c-0.4,0.2-0.7,0.3-0.9,0.4v-4.1
		c2.7-1.4,4.3-2.4,4.9-3h4.4v26.9H30V34.4z"/>
	<path fill="#FFFFFF" d="M41.4,54.1c-1.1-1.5-1.7-3.5-1.7-6.2v-1h5.5v1c0,1.4,0.1,2.3,0.4,2.9c0.3,0.6,0.8,0.8,1.5,0.8
		c0.7,0,1.2-0.3,1.4-0.8c0.2-0.6,0.4-1.5,0.4-2.8c0-1.4-0.2-2.5-0.6-3.1c-0.4-0.7-1.1-1-2.2-1h-1v-3.8h0.9c1.1,0,1.9-0.3,2.3-0.9
		s0.6-1.6,0.6-3c0-1.1-0.1-1.9-0.4-2.4c-0.3-0.5-0.8-0.8-1.5-0.8c-0.7,0-1.2,0.3-1.4,0.8c-0.3,0.6-0.4,1.4-0.4,2.5v1.4h-5.5V36
		c0-2.4,0.6-4.3,1.9-5.6s3.1-1.9,5.4-1.9c2.3,0,4.2,0.6,5.5,1.9c1.3,1.2,2,3,2,5.4c0,1.5-0.3,2.8-0.9,3.9c-0.6,1.1-1.4,1.7-2.4,2
		c1,0.4,1.8,1.1,2.4,2c0.6,1,0.9,2.4,0.9,4.2c0,2.6-0.6,4.7-1.8,6.2c-1.2,1.5-3,2.2-5.6,2.2C44.5,56.3,42.5,55.6,41.4,54.1z"/>
	<path fill="#FFFFFF" d="M66,28.9h12.1v4.1H72v6.7h4.7v4.1H72v8h6.2v4H66V28.9z"/>
	<path fill="#FFFFFF" d="M80.9,28.9h4.2l5.5,13v-13h4.9v26.9h-4l-5.5-14v14h-5.1V28.9z"/>
	<path fill="#FFFFFF" d="M102,33.3h-4.1v-4.4H112v4.4h-4v22.5h-6V33.3z"/>
	<path fill="#FFFFFF" d="M114.3,28.9h7.4c2.9,0,5.2,0.5,6.7,1.6c1.5,1,2.3,2.9,2.3,5.5c0,1.8-0.2,3.2-0.7,4.3
		c-0.5,1.1-1.3,1.9-2.6,2.5l3.7,13h-6.1l-3-12.1h-1.7v12.1h-5.9V28.9z M121.9,40.3c1.2,0,2-0.3,2.5-0.9c0.5-0.6,0.7-1.6,0.7-2.8
		c0-1.2-0.2-2.1-0.7-2.7c-0.4-0.6-1.2-0.9-2.3-0.9h-1.9v7.4H121.9z"/>
	<path fill="#FFFFFF" d="M134.2,28.9h12.1v4.1h-6.1v6.7h4.7v4.1h-4.7v8h6.2v4h-12.2V28.9z"/>
	<path fill="#FFFFFF" d="M147.8,28.9h5.1l2.9,18.3l2.7-18.3h5.4L159,55.8h-6.3L147.8,28.9z"/>
	<path fill="#FFFFFF" d="M166.6,28.9h5.9v26.9h-5.9V28.9z"/>
	<path fill="#FFFFFF" d="M178,54.1c-1.3-1.4-1.9-3.5-2-6.5l5.1-0.8c0,1.7,0.2,2.9,0.6,3.7c0.4,0.7,1,1.1,1.7,1.1c1,0,1.5-0.7,1.5-2
		c0-1-0.2-1.9-0.7-2.7c-0.5-0.8-1.2-1.6-2.2-2.4l-2.3-2c-1.2-1-2-2-2.7-3.1c-0.6-1.1-0.9-2.4-0.9-3.9c0-2.3,0.7-4,2-5.2
		c1.3-1.2,3.2-1.8,5.5-1.8c2.5,0,4.3,0.7,5.2,2.2c0.9,1.5,1.4,3.3,1.5,5.4l-5.1,0.6c0-1.4-0.2-2.4-0.4-3c-0.2-0.6-0.7-0.9-1.4-0.9
		c-0.5,0-0.9,0.2-1.2,0.6c-0.3,0.4-0.4,0.9-0.4,1.4c0,0.9,0.2,1.7,0.6,2.3c0.4,0.6,1.1,1.3,2,2.1l2.2,2c1.3,1.1,2.4,2.3,3.1,3.6
		s1.1,2.8,1.1,4.5c0,1.3-0.3,2.4-0.9,3.4c-0.6,1-1.4,1.8-2.5,2.4c-1.1,0.6-2.3,0.9-3.7,0.9C181.1,56.2,179.2,55.5,178,54.1z"/>
	<path fill="#FFFFFF" d="M196.1,33.3H192v-4.4h14.1v4.4h-4v22.5h-6V33.3z"/>
	<path fill="#FFFFFF" d="M211,28.9h6.8l5,26.9h-5.5l-0.9-5.7h-4l-0.9,5.7h-5.6L211,28.9z M215.9,46.6l-1.4-10.5L213,46.6H215.9z"/>
	<path fill="#FFFFFF" d="M226.7,54.1c-1.3-1.4-1.9-3.5-2-6.5l5.1-0.8c0,1.7,0.2,2.9,0.6,3.7c0.4,0.7,1,1.1,1.7,1.1
		c1,0,1.5-0.7,1.5-2c0-1-0.2-1.9-0.7-2.7c-0.5-0.8-1.2-1.6-2.2-2.4l-2.3-2c-1.2-1-2-2-2.7-3.1c-0.6-1.1-0.9-2.4-0.9-3.9
		c0-2.3,0.7-4,2-5.2c1.3-1.2,3.2-1.8,5.5-1.8c2.5,0,4.3,0.7,5.2,2.2c0.9,1.5,1.4,3.3,1.5,5.4l-5.1,0.6c0-1.4-0.2-2.4-0.4-3
		c-0.2-0.6-0.7-0.9-1.4-0.9c-0.5,0-0.9,0.2-1.2,0.6c-0.3,0.4-0.4,0.9-0.4,1.4c0,0.9,0.2,1.7,0.6,2.3c0.4,0.6,1.1,1.3,2,2.1l2.2,2
		c1.3,1.1,2.4,2.3,3.1,3.6s1.1,2.8,1.1,4.5c0,1.3-0.3,2.4-0.9,3.4c-0.6,1-1.4,1.8-2.5,2.4c-1.1,0.6-2.3,0.9-3.7,0.9
		C229.9,56.2,228,55.5,226.7,54.1z"/>
	<path fill="#FFFFFF" d="M253.3,34.4c-0.2,0.1-0.9,0.4-1.9,0.9c-0.2,0.1-0.5,0.2-0.8,0.3c-0.4,0.2-0.7,0.3-0.9,0.4v-4.1
		c2.7-1.4,4.3-2.4,4.9-3h4.4v26.9h-5.5V34.4z"/>
	<path fill="#FFFFFF" d="M264,37.1h5v5h-5V37.1z M264,48.9h5v5h-5V48.9z"/>
	<path fill="#FFFFFF" d="M275.5,34.4c-0.2,0.1-0.9,0.4-1.9,0.9c-0.2,0.1-0.5,0.2-0.8,0.3c-0.4,0.2-0.7,0.3-0.9,0.4v-4.1
		c2.7-1.4,4.3-2.4,4.9-3h4.4v26.9h-5.5V34.4z"/>
</g>
<g>
	<path fill="#FFFFFF" d="M28.8,93.9c-1-1.5-1.5-3.5-1.5-6.2V77c0-2.7,0.5-4.8,1.5-6.2c1-1.5,2.8-2.2,5.3-2.2c2.3,0,3.9,0.7,4.9,2
		c1,1.3,1.5,3.2,1.5,5.7v1.6h-2.4v-1.6c0-1.3-0.1-2.3-0.3-3.1c-0.2-0.8-0.6-1.4-1.2-1.9c-0.6-0.4-1.4-0.7-2.5-0.7
		c-1.2,0-2.1,0.2-2.7,0.7s-1,1.2-1.3,2c-0.2,0.9-0.3,1.9-0.3,3.3v11.5c0,2.1,0.3,3.6,0.9,4.6c0.6,1,1.7,1.4,3.3,1.4
		c1.6,0,2.6-0.5,3.2-1.4c0.5-1,0.8-2.4,0.8-4.4v-1.8h2.4v1.6c0,2.6-0.5,4.6-1.4,5.9c-1,1.4-2.6,2.1-5,2.1
		C31.6,96.1,29.9,95.4,28.8,93.9z"/>
	<path fill="#FFFFFF" d="M45.5,94c-1.1-1.4-1.6-3.5-1.6-6.1V76.7c0-2.6,0.5-4.6,1.6-6c1.1-1.4,2.8-2.1,5.3-2.1
		c2.5,0,4.2,0.7,5.3,2.1c1.1,1.4,1.6,3.4,1.6,6v11.2c0,2.6-0.5,4.7-1.6,6.1c-1,1.4-2.8,2.1-5.3,2.1C48.3,96.1,46.5,95.4,45.5,94z
		 M54.2,92.7c0.6-1,0.9-2.4,0.9-4.2V76.2c0-1.9-0.3-3.3-0.9-4.2c-0.6-0.9-1.7-1.4-3.4-1.4c-1.7,0-2.8,0.5-3.5,1.4
		c-0.6,0.9-0.9,2.3-0.9,4.2v12.2c0,1.9,0.3,3.3,0.9,4.3c0.6,1,1.8,1.4,3.5,1.4C52.5,94.1,53.6,93.6,54.2,92.7z"/>
	<path fill="#FFFFFF" d="M61.9,68.9h1.8l8.6,20.9V68.9h2.2v26.9h-1.8l-8.6-21.1v21.1h-2.2V68.9z"/>
	<path fill="#FFFFFF" d="M86,68.9h2.5v25h7.6v1.9H86V68.9z"/>
	<path fill="#FFFFFF" d="M99.6,94c-1.1-1.4-1.6-3.5-1.6-6.1V76.7c0-2.6,0.5-4.6,1.6-6c1.1-1.4,2.8-2.1,5.3-2.1
		c2.5,0,4.2,0.7,5.3,2.1c1.1,1.4,1.6,3.4,1.6,6v11.2c0,2.6-0.5,4.7-1.6,6.1c-1,1.4-2.8,2.1-5.3,2.1C102.4,96.1,100.6,95.4,99.6,94z
		 M108.3,92.7c0.6-1,0.9-2.4,0.9-4.2V76.2c0-1.9-0.3-3.3-0.9-4.2c-0.6-0.9-1.7-1.4-3.4-1.4c-1.7,0-2.8,0.5-3.5,1.4
		c-0.6,0.9-0.9,2.3-0.9,4.2v12.2c0,1.9,0.3,3.3,0.9,4.3c0.6,1,1.8,1.4,3.5,1.4C106.6,94.1,107.7,93.6,108.3,92.7z"/>
	<path fill="#FFFFFF" d="M116.9,94.2c-1.1-1.3-1.7-3.1-1.9-5.4l2.2-0.7c0.2,1.9,0.6,3.4,1.3,4.4s1.7,1.5,3.2,1.5
		c2.5,0,3.8-1.3,3.8-3.9c0-1.1-0.3-2.1-0.8-2.9c-0.5-0.8-1.4-1.8-2.5-2.9l-4.8-4.6c-0.9-0.8-1.5-1.6-1.9-2.5
		c-0.4-0.9-0.6-1.8-0.6-2.9c0-1.8,0.5-3.3,1.6-4.3c1.1-1,2.6-1.5,4.4-1.5c2,0,3.5,0.5,4.6,1.6s1.7,2.8,1.9,5.2l-2.2,0.6
		c-0.1-1.8-0.5-3.2-1.1-4.1c-0.6-0.9-1.7-1.3-3.1-1.3c-1.2,0-2.1,0.3-2.8,0.9c-0.7,0.6-1,1.5-1,2.7c0,0.8,0.1,1.4,0.4,2
		c0.3,0.6,0.8,1.2,1.5,1.9l4.8,4.5c1.2,1.2,2.2,2.3,2.9,3.5c0.7,1.2,1,2.5,1,3.9c0,1.9-0.6,3.5-1.7,4.5c-1.1,1.1-2.6,1.6-4.5,1.6
		C119.6,96.1,118,95.5,116.9,94.2z"/>
	<path fill="#FFFFFF" d="M136.5,68.9h2.4l5.1,22.3l4.8-22.3h2.4l-6.1,26.9h-2.3L136.5,68.9z"/>
	<path fill="#FFFFFF" d="M155.2,94c-1.1-1.4-1.6-3.5-1.6-6.1V76.7c0-2.6,0.5-4.6,1.6-6c1.1-1.4,2.8-2.1,5.3-2.1
		c2.5,0,4.2,0.7,5.3,2.1c1.1,1.4,1.6,3.4,1.6,6v11.2c0,2.6-0.5,4.7-1.6,6.1c-1,1.4-2.8,2.1-5.3,2.1C158,96.1,156.2,95.4,155.2,94z
		 M163.9,92.7c0.6-1,0.9-2.4,0.9-4.2V76.2c0-1.9-0.3-3.3-0.9-4.2c-0.6-0.9-1.7-1.4-3.4-1.4c-1.7,0-2.8,0.5-3.5,1.4
		c-0.6,0.9-0.9,2.3-0.9,4.2v12.2c0,1.9,0.3,3.3,0.9,4.3c0.6,1,1.8,1.4,3.5,1.4C162.2,94.1,163.3,93.6,163.9,92.7z"/>
	<path fill="#FFFFFF" d="M172.6,93.9c-1-1.5-1.5-3.5-1.5-6.2V77c0-2.7,0.5-4.8,1.5-6.2c1-1.5,2.8-2.2,5.3-2.2c2.3,0,3.9,0.7,4.9,2
		c1,1.3,1.5,3.2,1.5,5.7v1.6h-2.4v-1.6c0-1.3-0.1-2.3-0.3-3.1c-0.2-0.8-0.6-1.4-1.2-1.9c-0.6-0.4-1.4-0.7-2.5-0.7
		c-1.2,0-2.1,0.2-2.7,0.7s-1,1.2-1.3,2c-0.2,0.9-0.3,1.9-0.3,3.3v11.5c0,2.1,0.3,3.6,0.9,4.6c0.6,1,1.7,1.4,3.3,1.4
		c1.6,0,2.6-0.5,3.2-1.4c0.5-1,0.8-2.4,0.8-4.4v-1.8h2.4v1.6c0,2.6-0.5,4.6-1.4,5.9c-1,1.4-2.6,2.1-5,2.1
		C175.3,96.1,173.6,95.4,172.6,93.9z"/>
	<path fill="#FFFFFF" d="M188.2,68.9h9.7v2h-7.2v10.1h5.8v1.9h-5.8v11.1h7.2v1.9h-9.8V68.9z"/>
	<path fill="#FFFFFF" d="M201.4,68.9h6.1c2.4,0,4.1,0.6,5.1,1.7c1,1.2,1.5,2.9,1.5,5.1c0,1.7-0.3,3.1-0.8,4.2
		c-0.6,1.1-1.5,1.8-2.9,2.1l4.1,13.8h-2.5l-4-13.2h-4.2v13.2h-2.5V68.9z M207.4,80.7c1.6,0,2.7-0.4,3.4-1.2c0.6-0.8,1-2.1,1-3.8
		c0-1.7-0.3-3-0.9-3.8c-0.6-0.8-1.7-1.2-3.4-1.2h-3.5v9.9H207.4z"/>
	<path fill="#FFFFFF" d="M219.4,94c-1.1-1.4-1.6-3.5-1.6-6.1V76.7c0-2.6,0.5-4.6,1.6-6c1.1-1.4,2.8-2.1,5.3-2.1
		c2.5,0,4.2,0.7,5.3,2.1c1.1,1.4,1.6,3.4,1.6,6v11.2c0,2.6-0.5,4.7-1.6,6.1c-1,1.4-2.8,2.1-5.3,2.1C222.3,96.1,220.5,95.4,219.4,94z
		 M228.2,92.7c0.6-1,0.9-2.4,0.9-4.2V76.2c0-1.9-0.3-3.3-0.9-4.2c-0.6-0.9-1.7-1.4-3.4-1.4c-1.7,0-2.8,0.5-3.5,1.4
		c-0.6,0.9-0.9,2.3-0.9,4.2v12.2c0,1.9,0.3,3.3,0.9,4.3c0.6,1,1.8,1.4,3.5,1.4C226.4,94.1,227.6,93.6,228.2,92.7z"/>
	<path fill="#FFFFFF" d="M236.8,94.2c-1.1-1.3-1.7-3.1-1.9-5.4l2.2-0.7c0.2,1.9,0.6,3.4,1.3,4.4s1.7,1.5,3.2,1.5
		c2.5,0,3.8-1.3,3.8-3.9c0-1.1-0.3-2.1-0.8-2.9c-0.5-0.8-1.4-1.8-2.5-2.9l-4.8-4.6c-0.9-0.8-1.5-1.6-1.9-2.5
		c-0.4-0.9-0.6-1.8-0.6-2.9c0-1.8,0.5-3.3,1.6-4.3c1.1-1,2.6-1.5,4.4-1.5c2,0,3.5,0.5,4.6,1.6s1.7,2.8,1.9,5.2l-2.2,0.6
		c-0.1-1.8-0.5-3.2-1.1-4.1c-0.6-0.9-1.7-1.3-3.1-1.3c-1.2,0-2.1,0.3-2.8,0.9c-0.7,0.6-1,1.5-1,2.7c0,0.8,0.1,1.4,0.4,2
		c0.3,0.6,0.8,1.2,1.5,1.9l4.8,4.5c1.2,1.2,2.2,2.3,2.9,3.5c0.7,1.2,1,2.5,1,3.9c0,1.9-0.6,3.5-1.7,4.5c-1.1,1.1-2.6,1.6-4.5,1.6
		C239.5,96.1,237.9,95.5,236.8,94.2z"/>
</g>
<g>
	<path fill="#FFFFFF" d="M27.9,108.9h2.5v25h7.6v1.9H27.9V108.9z"/>
	<path fill="#FFFFFF" d="M40.7,108.9h2.5v26.9h-2.5V108.9z"/>
	<path fill="#FFFFFF" d="M49,134c-1.1-1.4-1.6-3.5-1.6-6.1v-11.2c0-2.6,0.5-4.6,1.6-6c1.1-1.4,2.8-2.1,5.3-2.1
		c2.5,0,4.2,0.7,5.3,2.1c1.1,1.4,1.6,3.4,1.6,6v11.2c0,2.6-0.5,4.7-1.6,6.1c-1,1.4-2.8,2.1-5.3,2.1C51.8,136.1,50,135.4,49,134z
		 M57.7,132.7c0.6-1,0.9-2.4,0.9-4.2v-12.2c0-1.9-0.3-3.3-0.9-4.2c-0.6-0.9-1.7-1.4-3.4-1.4c-1.7,0-2.8,0.5-3.5,1.4
		c-0.6,0.9-0.9,2.3-0.9,4.2v12.2c0,1.9,0.3,3.3,0.9,4.3c0.6,1,1.8,1.4,3.5,1.4C56,134.1,57.1,133.6,57.7,132.7z"/>
	<path fill="#FFFFFF" d="M65.4,108.9h1.8l8.6,20.9v-20.9H78v26.9h-1.8l-8.6-21.1v21.1h-2.2V108.9z"/>
	<path fill="#FFFFFF" d="M82.6,108.9h9.7v2h-7.2v10.1h5.8v1.9h-5.8v11.1h7.2v1.9h-9.8V108.9z"/>
	<path fill="#FFFFFF" d="M95.9,108.9h2.5v25h7.6v1.9H95.9V108.9z"/>
	<path fill="#FFFFFF" d="M114.1,133.9l9-23.1h-8.3v-1.9h11v1.3l-9.2,23.7h9.2v1.9h-11.7V133.9z"/>
	<path fill="#FFFFFF" d="M133.1,108.9h2.7l5.7,26.9H139l-1.3-7.2h-6.4l-1.4,7.2h-2.5L133.1,108.9z M137.3,126.8l-2.9-14.5l-2.9,14.5
		H137.3z"/>
	<path fill="#FFFFFF" d="M142.6,135.1c1.3,0,2.2-0.1,2.7-0.3c0.6-0.2,0.9-0.7,1.1-1.3s0.3-1.6,0.3-3.1v-21.5h2.5v21.6
		c0,1.6-0.1,2.8-0.4,3.8c-0.3,0.9-0.8,1.6-1.6,2c-0.8,0.4-1.9,0.7-3.4,0.7h-1.2V135.1z"/>
	<path fill="#FFFFFF" d="M154,108.9h5.8c2.7,0,4.5,0.7,5.6,2c1.1,1.4,1.7,3.3,1.7,5.9v10.7c0,2.7-0.5,4.7-1.6,6.2s-2.9,2.1-5.5,2.1
		H154V108.9z M159.9,133.9c1.4,0,2.4-0.3,3-0.8c0.7-0.6,1.1-1.3,1.3-2.3s0.3-2.2,0.3-3.7v-10c0-1.5-0.1-2.6-0.4-3.5
		c-0.2-0.9-0.7-1.5-1.4-2c-0.7-0.5-1.7-0.7-3-0.7h-3.3v23.1H159.9z"/>
	<path fill="#FFFFFF" d="M170.1,108.9h2.2l3.6,21.9l4.1-21.5h2.1l4.2,21.5l3.3-21.9h2.1l-4.4,26.9h-2l-4.3-22.2l-4.2,22.2h-2.1
		L170.1,108.9z"/>
	<path fill="#FFFFFF" d="M195,108.9h9.7v2h-7.2v10.1h5.8v1.9h-5.8v11.1h7.2v1.9H195V108.9z"/>
	<path fill="#FFFFFF" d="M208.3,108.9h5.8c2.3,0,4,0.6,5.1,1.7c1,1.2,1.5,2.8,1.5,5c0,1.5-0.3,2.7-0.8,3.8c-0.5,1-1.4,1.7-2.6,1.9
		c1.5,0.4,2.5,1.2,3.1,2.4c0.6,1.2,0.9,2.7,0.9,4.3c0,2.4-0.5,4.3-1.4,5.7c-0.9,1.4-2.6,2.1-4.9,2.1h-6.6V108.9z M214.5,120.5
		c1.4,0,2.4-0.4,3-1.2c0.6-0.8,0.9-2,0.9-3.6c0-1.1-0.1-2-0.4-2.7s-0.8-1.2-1.6-1.5c-0.7-0.3-1.8-0.5-3.1-0.5h-2.4v9.6H214.5z
		 M214.4,133.9c1.2,0,2-0.2,2.7-0.6c0.6-0.4,1.1-1,1.3-1.9c0.3-0.8,0.4-2,0.4-3.4c0-3.7-1.4-5.6-4.3-5.6h-3.7v11.5H214.4z"/>
	<path fill="#FFFFFF" d="M224.9,108.9h9.7v2h-7.2v10.1h5.8v1.9h-5.8v11.1h7.2v1.9h-9.8V108.9z"/>
	<path fill="#FFFFFF" d="M238.2,108.9h6.1c2.4,0,4.1,0.6,5.1,1.7c1,1.2,1.5,2.9,1.5,5.1c0,1.7-0.3,3.1-0.8,4.2
		c-0.6,1.1-1.5,1.8-2.9,2.1l4.1,13.8h-2.5l-4-13.2h-4.2v13.2h-2.5V108.9z M244.1,120.7c1.6,0,2.7-0.4,3.4-1.2c0.6-0.8,1-2.1,1-3.8
		c0-1.7-0.3-3-0.9-3.8c-0.6-0.8-1.7-1.2-3.4-1.2h-3.5v9.9H244.1z"/>
	<path fill="#FFFFFF" d="M254.5,138.6c0.6-0.3,1-0.7,1.2-1.1c0.2-0.4,0.4-1,0.4-1.6h-1.4v-3.6h2.7v3.4c0,1.1-0.2,1.9-0.5,2.6
		c-0.4,0.6-1,1.1-1.8,1.6L254.5,138.6z"/>
</g>
<g>
	<path fill="#FFFFFF" d="M27.9,148.9h9.7v1.9h-7.1v10.1h5.9v1.9h-5.9v13h-2.5V148.9z"/>
	<path fill="#FFFFFF" d="M40.7,148.9h9.7v2h-7.2v10.1h5.8v1.9h-5.8v11.1h7.2v1.9h-9.8V148.9z"/>
	<path fill="#FFFFFF" d="M53.9,148.9h2.5v25h7.6v1.9H53.9V148.9z"/>
	<path fill="#FFFFFF" d="M66.7,148.9h2.5v26.9h-2.5V148.9z"/>
	<path fill="#FFFFFF" d="M74,148.9h6.4c2.3,0,3.9,0.6,4.9,1.9c1,1.2,1.5,3,1.5,5.3c0,2.1-0.5,3.8-1.5,5.1s-2.6,2-4.8,2h-4v12.7H74
		V148.9z M79.8,161.2c1.7,0,2.8-0.4,3.5-1.1c0.7-0.8,1-2.1,1-4c0-1.4-0.1-2.5-0.4-3.2c-0.3-0.7-0.7-1.3-1.4-1.6
		c-0.6-0.3-1.6-0.5-2.8-0.5h-3.3v10.4H79.8z"/>
	<path fill="#FFFFFF" d="M90,148.9h9.7v2h-7.2v10.1h5.8v1.9h-5.8v11.1h7.2v1.9H90V148.9z"/>
	<path fill="#FFFFFF" d="M110.1,148.9h5.8c2.7,0,4.5,0.7,5.6,2c1.1,1.4,1.7,3.3,1.7,5.9v10.7c0,2.7-0.5,4.7-1.6,6.2
		s-2.9,2.1-5.5,2.1h-6.1V148.9z M116,173.9c1.4,0,2.4-0.3,3-0.8c0.7-0.6,1.1-1.3,1.3-2.3s0.3-2.2,0.3-3.7v-10c0-1.5-0.1-2.6-0.4-3.5
		c-0.2-0.9-0.7-1.5-1.4-2c-0.7-0.5-1.7-0.7-3-0.7h-3.3v23.1H116z"/>
	<path fill="#FFFFFF" d="M127.3,148.9h9.7v2h-7.2v10.1h5.8v1.9h-5.8v11.1h7.2v1.9h-9.8V148.9z"/>
	<path fill="#FFFFFF" d="M148.3,174.2c-1.1-1.3-1.7-3.1-1.9-5.4l2.2-0.7c0.2,1.9,0.6,3.4,1.3,4.4s1.7,1.5,3.2,1.5
		c2.5,0,3.8-1.3,3.8-3.9c0-1.1-0.3-2.1-0.8-2.9c-0.5-0.8-1.4-1.8-2.5-2.9l-4.8-4.6c-0.9-0.8-1.5-1.6-1.9-2.5
		c-0.4-0.9-0.6-1.8-0.6-2.9c0-1.8,0.5-3.3,1.6-4.3c1.1-1,2.6-1.5,4.4-1.5c2,0,3.5,0.5,4.6,1.6s1.7,2.8,1.9,5.2l-2.2,0.6
		c-0.1-1.8-0.5-3.2-1.1-4.1c-0.6-0.9-1.7-1.3-3.1-1.3c-1.2,0-2.1,0.3-2.8,0.9c-0.7,0.6-1,1.5-1,2.7c0,0.8,0.1,1.4,0.4,2
		c0.3,0.6,0.8,1.2,1.5,1.9l4.8,4.5c1.2,1.2,2.2,2.3,2.9,3.5c0.7,1.2,1,2.5,1,3.9c0,1.9-0.6,3.5-1.7,4.5c-1.1,1.1-2.6,1.6-4.5,1.6
		C151,176.1,149.4,175.5,148.3,174.2z"/>
	<path fill="#FFFFFF" d="M166,150.8h-5.1v-2h12.6v2h-5v25H166V150.8z"/>
	<path fill="#FFFFFF" d="M176.4,148.9h9.7v2h-7.2v10.1h5.8v1.9h-5.8v11.1h7.2v1.9h-9.8V148.9z"/>
	<path fill="#FFFFFF" d="M189.6,148.9h9.7v1.9h-7.1v10.1h5.9v1.9h-5.9v13h-2.5V148.9z"/>
	<path fill="#FFFFFF" d="M205.6,148.9h2.7l5.7,26.9h-2.5l-1.3-7.2h-6.4l-1.4,7.2H200L205.6,148.9z M209.9,166.8l-2.9-14.5l-2.9,14.5
		H209.9z"/>
	<path fill="#FFFFFF" d="M217.3,148.9h1.8l8.6,20.9v-20.9h2.2v26.9h-1.8l-8.6-21.1v21.1h-2.2V148.9z"/>
	<path fill="#FFFFFF" d="M234.6,148.9h2.5v26.9h-2.5V148.9z"/>
</g>
<g>
	<path fill="#FFFFFF" d="M32.2,206.9l-6.1-18h2.5l4.9,15l4.7-15h2.5l-5.9,18v8.9h-2.5V206.9z"/>
	<path fill="#FFFFFF" d="M54.5,188.9h2.7l5.7,26.9h-2.5l-1.3-7.2h-6.4l-1.4,7.2h-2.5L54.5,188.9z M58.7,206.8l-2.9-14.5L53,206.8
		H58.7z"/>
	<path fill="#FFFFFF" d="M66.1,188.9h2.6v14.2l7.2-14.2h2.4l-5.5,11.6l6.7,15.3h-2.5L71,202.3l-2.4,4.4v9.1h-2.6V188.9z"/>
	<path fill="#FFFFFF" d="M82.7,214.2c-1.1-1.3-1.7-3.1-1.9-5.4l2.2-0.7c0.2,1.9,0.6,3.4,1.3,4.4s1.7,1.5,3.2,1.5
		c2.5,0,3.8-1.3,3.8-3.9c0-1.1-0.3-2.1-0.8-2.9c-0.5-0.8-1.4-1.8-2.5-2.9l-4.8-4.6c-0.9-0.8-1.5-1.6-1.9-2.5
		c-0.4-0.9-0.6-1.8-0.6-2.9c0-1.8,0.5-3.3,1.6-4.3c1.1-1,2.6-1.5,4.4-1.5c2,0,3.5,0.5,4.6,1.6s1.7,2.8,1.9,5.2l-2.2,0.6
		c-0.1-1.8-0.5-3.2-1.1-4.1c-0.6-0.9-1.7-1.3-3.1-1.3c-1.2,0-2.1,0.3-2.8,0.9c-0.7,0.6-1,1.5-1,2.7c0,0.8,0.1,1.4,0.4,2
		c0.3,0.6,0.8,1.2,1.5,1.9l4.8,4.5c1.2,1.2,2.2,2.3,2.9,3.5c0.7,1.2,1,2.5,1,3.9c0,1.9-0.6,3.5-1.7,4.5c-1.1,1.1-2.6,1.6-4.5,1.6
		C85.4,216.1,83.8,215.5,82.7,214.2z"/>
	<path fill="#FFFFFF" d="M97.1,188.9h9.7v2h-7.2v10.1h5.8v1.9h-5.8v11.1h7.2v1.9h-9.8V188.9z"/>
	<path fill="#FFFFFF" d="M110.3,188.9h2.5v25h7.6v1.9h-10.2V188.9z"/>
	<path fill="#FFFFFF" d="M128.2,188.9h2.4l5.1,22.3l4.8-22.3h2.4l-6.1,26.9h-2.3L128.2,188.9z"/>
	<path fill="#FFFFFF" d="M149,188.9h2.7l5.7,26.9h-2.5l-1.3-7.2h-6.4l-1.4,7.2h-2.5L149,188.9z M153.2,206.8l-2.9-14.5l-2.9,14.5
		H153.2z"/>
	<path fill="#FFFFFF" d="M160.7,188.9h1.8l8.6,20.9v-20.9h2.2v26.9h-1.8l-8.6-21.1v21.1h-2.2V188.9z"/>
	<path fill="#FFFFFF" d="M184.7,188.9h5.8c2.7,0,4.5,0.7,5.6,2c1.1,1.4,1.7,3.3,1.7,5.9v10.7c0,2.7-0.5,4.7-1.6,6.2
		s-2.9,2.1-5.5,2.1h-6.1V188.9z M190.6,213.9c1.4,0,2.4-0.3,3-0.8c0.7-0.6,1.1-1.3,1.3-2.3s0.3-2.2,0.3-3.7v-10
		c0-1.5-0.1-2.6-0.4-3.5c-0.2-0.9-0.7-1.5-1.4-2c-0.7-0.5-1.7-0.7-3-0.7h-3.3v23.1H190.6z"/>
	<path fill="#FFFFFF" d="M202,188.9h9.7v2h-7.2v10.1h5.8v1.9h-5.8v11.1h7.2v1.9H202V188.9z"/>
	<path fill="#FFFFFF" d="M215.2,188.9h6.1c2.4,0,4.1,0.6,5.1,1.7c1,1.2,1.5,2.9,1.5,5.1c0,1.7-0.3,3.1-0.8,4.2
		c-0.6,1.1-1.5,1.8-2.9,2.1l4.1,13.8h-2.5l-4-13.2h-4.2v13.2h-2.5V188.9z M221.2,200.7c1.6,0,2.7-0.4,3.4-1.2c0.6-0.8,1-2.1,1-3.8
		c0-1.7-0.3-3-0.9-3.8c-0.6-0.8-1.7-1.2-3.4-1.2h-3.5v9.9H221.2z"/>
	<path fill="#FFFFFF" d="M237.8,188.9h2.2l3.6,21.9l4.1-21.5h2.1l4.2,21.5l3.3-21.9h2.1l-4.4,26.9h-2l-4.3-22.2l-4.2,22.2h-2.1
		L237.8,188.9z"/>
	<path fill="#FFFFFF" d="M266,188.9h2.7l5.7,26.9h-2.5l-1.3-7.2h-6.4l-1.4,7.2h-2.5L266,188.9z M270.2,206.8l-2.9-14.5l-2.9,14.5
		H270.2z"/>
	<path fill="#FFFFFF" d="M277.6,188.9h2.5v25h7.6v1.9h-10.2V188.9z"/>
	<path fill="#FFFFFF" d="M289.9,212.1h2.6v3.7h-2.6V212.1z"/>
</g>
<g>
	<path fill="#0000F5" d="M404.6,43.6h-4.8v-3.2h4.8v-5.2h3.6v5.2h4.8v3.2h-4.8v5.3h-3.6V43.6z"/>
	<path fill="#0000F5" d="M418.2,34.4c-0.2,0.1-0.9,0.4-1.9,0.9c-0.2,0.1-0.5,0.2-0.8,0.3c-0.4,0.2-0.7,0.3-0.9,0.4v-4.1
		c2.7-1.4,4.3-2.4,4.9-3h4.4v26.9h-5.5V34.4z"/>
	<path fill="#0000F5" d="M430.4,54.2c-1.3-1.4-1.9-3.3-1.9-5.6V36.4c0-2.5,0.6-4.4,1.8-5.8c1.2-1.4,3.1-2.1,5.5-2.1s4.3,0.7,5.5,2.1
		c1.2,1.4,1.8,3.3,1.8,5.8v12.2c0,2.3-0.6,4.2-1.9,5.6c-1.3,1.4-3.1,2.1-5.4,2.1C433.5,56.3,431.7,55.6,430.4,54.2z M437.2,50.5
		c0.2-0.6,0.3-1.3,0.3-2V36.5c0-0.9-0.1-1.6-0.3-2.2c-0.2-0.6-0.6-0.9-1.4-0.9c-0.7,0-1.2,0.3-1.4,0.9c-0.2,0.6-0.3,1.3-0.3,2.2
		v11.9c0,1.9,0.6,2.9,1.7,2.9C436.6,51.3,437,51.1,437.2,50.5z"/>
	<path fill="#0000F5" d="M448.7,54.2c-1.3-1.4-1.9-3.3-1.9-5.6V36.4c0-2.5,0.6-4.4,1.8-5.8c1.2-1.4,3.1-2.1,5.5-2.1s4.3,0.7,5.5,2.1
		c1.2,1.4,1.8,3.3,1.8,5.8v12.2c0,2.3-0.6,4.2-1.9,5.6c-1.3,1.4-3.1,2.1-5.4,2.1C451.8,56.3,450,55.6,448.7,54.2z M455.5,50.5
		c0.2-0.6,0.3-1.3,0.3-2V36.5c0-0.9-0.1-1.6-0.3-2.2c-0.2-0.6-0.6-0.9-1.4-0.9c-0.7,0-1.2,0.3-1.4,0.9c-0.2,0.6-0.3,1.3-0.3,2.2
		v11.9c0,1.9,0.6,2.9,1.7,2.9C454.8,51.3,455.3,51.1,455.5,50.5z"/>
	<path fill="#0000F5" d="M477.6,28.9h6.8l5,26.9h-5.5l-0.9-5.7h-4l-0.9,5.7h-5.6L477.6,28.9z M482.4,46.6L481,36.1l-1.4,10.5H482.4z
		"/>
	<path fill="#0000F5" d="M493.3,54.1c-1.3-1.4-1.9-3.5-2-6.5l5.1-0.8c0,1.7,0.2,2.9,0.6,3.7c0.4,0.7,1,1.1,1.7,1.1
		c1,0,1.5-0.7,1.5-2c0-1-0.2-1.9-0.7-2.7c-0.5-0.8-1.2-1.6-2.2-2.4l-2.3-2c-1.2-1-2-2-2.7-3.1c-0.6-1.1-0.9-2.4-0.9-3.9
		c0-2.3,0.7-4,2-5.2c1.3-1.2,3.2-1.8,5.5-1.8c2.5,0,4.3,0.7,5.2,2.2c0.9,1.5,1.4,3.3,1.5,5.4l-5.1,0.6c0-1.4-0.2-2.4-0.4-3
		c-0.2-0.6-0.7-0.9-1.4-0.9c-0.5,0-0.9,0.2-1.2,0.6c-0.3,0.4-0.4,0.9-0.4,1.4c0,0.9,0.2,1.7,0.6,2.3c0.4,0.6,1.1,1.3,2,2.1l2.2,2
		c1.3,1.1,2.4,2.3,3.1,3.6s1.1,2.8,1.1,4.5c0,1.3-0.3,2.4-0.9,3.4c-0.6,1-1.4,1.8-2.5,2.4c-1.1,0.6-2.3,0.9-3.7,0.9
		C496.4,56.2,494.5,55.5,493.3,54.1z"/>
	<path fill="#0000F5" d="M509,28.9h5.9v26.9H509V28.9z"/>
	<path fill="#0000F5" d="M520.3,54.1c-1.3-1.4-1.9-3.5-2-6.5l5.1-0.8c0,1.7,0.2,2.9,0.6,3.7c0.4,0.7,1,1.1,1.7,1.1
		c1,0,1.5-0.7,1.5-2c0-1-0.2-1.9-0.7-2.7c-0.5-0.8-1.2-1.6-2.2-2.4l-2.3-2c-1.2-1-2-2-2.7-3.1c-0.6-1.1-0.9-2.4-0.9-3.9
		c0-2.3,0.7-4,2-5.2c1.3-1.2,3.2-1.8,5.5-1.8c2.5,0,4.3,0.7,5.2,2.2c0.9,1.5,1.4,3.3,1.5,5.4l-5.1,0.6c0-1.4-0.2-2.4-0.4-3
		c-0.2-0.6-0.7-0.9-1.4-0.9c-0.5,0-0.9,0.2-1.2,0.6c-0.3,0.4-0.4,0.9-0.4,1.4c0,0.9,0.2,1.7,0.6,2.3c0.4,0.6,1.1,1.3,2,2.1l2.2,2
		c1.3,1.1,2.4,2.3,3.1,3.6s1.1,2.8,1.1,4.5c0,1.3-0.3,2.4-0.9,3.4c-0.6,1-1.4,1.8-2.5,2.4c-1.1,0.6-2.3,0.9-3.7,0.9
		C523.5,56.2,521.6,55.5,520.3,54.1z"/>
	<path fill="#0000F5" d="M538.4,33.3h-4.1v-4.4h14.1v4.4h-4v22.5h-6V33.3z"/>
	<path fill="#0000F5" d="M550.8,28.9h12.1v4.1h-6.1v6.7h4.7v4.1h-4.7v8h6.2v4h-12.2V28.9z"/>
	<path fill="#0000F5" d="M565.6,28.9h4.2l5.5,13v-13h4.9v26.9h-4l-5.5-14v14h-5.1V28.9z"/>
	<path fill="#0000F5" d="M586.7,33.3h-4.1v-4.4h14.1v4.4h-4v22.5h-6V33.3z"/>
	<path fill="#0000F5" d="M599.1,28.9h12.1v4.1H605v6.7h4.7v4.1H605v8h6.2v4h-12.2V28.9z"/>
	<path fill="#0000F5" d="M615.3,54.1c-1.3-1.4-1.9-3.5-2-6.5l5.1-0.8c0,1.7,0.2,2.9,0.6,3.7s1,1.1,1.7,1.1c1,0,1.5-0.7,1.5-2
		c0-1-0.2-1.9-0.7-2.7c-0.5-0.8-1.2-1.6-2.2-2.4l-2.3-2c-1.2-1-2-2-2.7-3.1c-0.6-1.1-0.9-2.4-0.9-3.9c0-2.3,0.7-4,2-5.2
		c1.3-1.2,3.2-1.8,5.5-1.8c2.5,0,4.3,0.7,5.2,2.2c0.9,1.5,1.4,3.3,1.5,5.4l-5.1,0.6c0-1.4-0.2-2.4-0.4-3c-0.2-0.6-0.7-0.9-1.4-0.9
		c-0.5,0-0.9,0.2-1.2,0.6c-0.3,0.4-0.4,0.9-0.4,1.4c0,0.9,0.2,1.7,0.6,2.3c0.4,0.6,1.1,1.3,2,2.1l2.2,2c1.3,1.1,2.4,2.3,3.1,3.6
		c0.7,1.3,1.1,2.8,1.1,4.5c0,1.3-0.3,2.4-0.9,3.4c-0.6,1-1.4,1.8-2.5,2.4c-1.1,0.6-2.3,0.9-3.7,0.9
		C618.5,56.2,616.6,55.5,615.3,54.1z"/>
	<path fill="#0000F5" d="M631.2,37.1h5.1v5h-5.1V37.1z M631.2,48.9h5.1v5h-5.1V48.9z"/>
</g>
<g>
	<path d="M410.6,113.1c1.1,0.8,1.8,2,2.3,3.4H411c-0.4-0.9-0.9-1.6-1.7-2.2c-0.8-0.5-1.7-0.8-2.9-0.8c-0.9,0-1.7,0.2-2.4,0.7
		c-0.7,0.4-1.3,1.1-1.7,1.9c-0.4,0.8-0.6,1.8-0.6,2.9c0,1.1,0.2,2,0.6,2.8s1,1.4,1.7,1.9c0.7,0.4,1.5,0.7,2.4,0.7
		c1.1,0,2.1-0.3,2.9-0.8c0.8-0.5,1.3-1.3,1.7-2.2h1.9c-0.4,1.4-1.2,2.6-2.3,3.4c-1.1,0.8-2.5,1.2-4.2,1.2c-1.3,0-2.4-0.3-3.4-0.9
		c-1-0.6-1.8-1.4-2.3-2.5s-0.8-2.3-0.8-3.6c0-1.4,0.3-2.6,0.8-3.7c0.6-1.1,1.3-1.9,2.3-2.5c1-0.6,2.1-0.9,3.4-0.9
		C408.1,111.9,409.5,112.3,410.6,113.1z"/>
	<path d="M422.9,115.6c0.8,0.4,1.5,1.1,1.9,1.9c0.5,0.8,0.7,1.8,0.7,2.9c0,1.1-0.2,2.1-0.7,2.9c-0.5,0.8-1.1,1.5-1.9,1.9
		c-0.8,0.4-1.7,0.7-2.8,0.7c-1,0-2-0.2-2.8-0.7s-1.5-1.1-1.9-1.9s-0.7-1.8-0.7-2.9c0-1.1,0.2-2.1,0.7-2.9c0.5-0.8,1.1-1.5,1.9-1.9
		s1.7-0.7,2.8-0.7C421.2,114.9,422.1,115.2,422.9,115.6z M418.4,116.9c-0.5,0.3-1,0.7-1.3,1.3s-0.5,1.3-0.5,2.2
		c0,0.9,0.2,1.6,0.5,2.2s0.8,1,1.3,1.3c0.5,0.3,1.1,0.4,1.8,0.4s1.2-0.1,1.8-0.4c0.5-0.3,1-0.7,1.3-1.3s0.5-1.3,0.5-2.2
		c0-0.9-0.2-1.6-0.5-2.2s-0.8-1-1.3-1.3c-0.5-0.3-1.1-0.4-1.8-0.4S418.9,116.6,418.4,116.9z"/>
	<path d="M436.5,116.1c0.8,0.8,1.2,2,1.2,3.5v6.2h-1.8v-6.1c0-1.1-0.3-1.9-0.8-2.5c-0.5-0.6-1.3-0.9-2.2-0.9c-1,0-1.8,0.3-2.3,0.9
		c-0.6,0.6-0.9,1.6-0.9,2.8v5.7h-1.8v-10.7h1.8v2.5c0.3-0.9,0.8-1.5,1.5-2s1.5-0.7,2.4-0.7C434.7,114.9,435.7,115.3,436.5,116.1z"/>
	<path d="M445.5,124.2v1.6h-1.3c-1.1,0-1.9-0.3-2.5-0.8c-0.5-0.5-0.8-1.4-0.8-2.6v-5.8h-1.6v-1.5h1.6v-2.7h1.8v2.7h2.8v1.5h-2.8v5.8
		c0,0.7,0.1,1.2,0.4,1.4c0.3,0.3,0.7,0.4,1.3,0.4H445.5z"/>
	<path d="M454.7,115.7c0.7,0.5,1.2,1.2,1.5,2.1v-2.7h1.8v10.7h-1.8v-2.7c-0.3,0.9-0.8,1.6-1.5,2.1c-0.7,0.5-1.6,0.8-2.6,0.8
		c-1,0-1.8-0.2-2.5-0.7c-0.7-0.4-1.3-1.1-1.7-1.9c-0.4-0.8-0.6-1.8-0.6-2.9c0-1.1,0.2-2.1,0.6-2.9c0.4-0.8,1-1.5,1.7-1.9
		c0.7-0.4,1.6-0.7,2.5-0.7C453.1,114.9,454,115.2,454.7,115.7z M450,117.6c-0.7,0.7-1,1.7-1,2.9c0,1.2,0.3,2.2,1,2.9
		c0.7,0.7,1.5,1,2.6,1c0.7,0,1.3-0.2,1.9-0.5c0.6-0.3,1-0.8,1.3-1.4s0.5-1.3,0.5-2.1c0-0.8-0.2-1.5-0.5-2.1
		c-0.3-0.6-0.7-1.1-1.3-1.4c-0.6-0.3-1.2-0.5-1.9-0.5C451.5,116.5,450.6,116.9,450,117.6z"/>
	<path d="M477.1,116.1c0.8,0.8,1.1,2,1.1,3.5v6.2h-1.8v-6.1c0-1.1-0.3-1.9-0.8-2.4c-0.5-0.6-1.2-0.8-2.1-0.8c-0.9,0-1.7,0.3-2.3,0.9
		c-0.6,0.6-0.8,1.5-0.8,2.7v5.7h-1.8v-6.1c0-1.1-0.3-1.9-0.8-2.4c-0.5-0.6-1.2-0.8-2.1-0.8c-1,0-1.7,0.3-2.3,0.9
		c-0.6,0.6-0.9,1.5-0.9,2.7v5.7h-1.8v-10.7h1.8v2.4c0.3-0.8,0.7-1.5,1.4-1.9c0.7-0.4,1.4-0.7,2.3-0.7c0.9,0,1.7,0.2,2.4,0.7
		c0.7,0.5,1.1,1.1,1.4,2c0.3-0.9,0.8-1.5,1.5-2c0.7-0.5,1.5-0.7,2.4-0.7C475.3,114.9,476.3,115.3,477.1,116.1z"/>
	<path d="M488.6,115.6c0.8,0.4,1.5,1.1,1.9,1.9c0.5,0.8,0.7,1.8,0.7,2.9c0,1.1-0.2,2.1-0.7,2.9c-0.5,0.8-1.1,1.5-1.9,1.9
		c-0.8,0.4-1.7,0.7-2.8,0.7c-1,0-2-0.2-2.8-0.7s-1.5-1.1-1.9-1.9s-0.7-1.8-0.7-2.9c0-1.1,0.2-2.1,0.7-2.9c0.5-0.8,1.1-1.5,1.9-1.9
		s1.7-0.7,2.8-0.7C486.9,114.9,487.8,115.2,488.6,115.6z M484.1,116.9c-0.5,0.3-1,0.7-1.3,1.3s-0.5,1.3-0.5,2.2
		c0,0.9,0.2,1.6,0.5,2.2s0.8,1,1.3,1.3c0.5,0.3,1.1,0.4,1.8,0.4s1.2-0.1,1.8-0.4c0.5-0.3,1-0.7,1.3-1.3s0.5-1.3,0.5-2.2
		c0-0.9-0.2-1.6-0.5-2.2s-0.8-1-1.3-1.3c-0.5-0.3-1.1-0.4-1.8-0.4S484.6,116.6,484.1,116.9z"/>
	<path d="M499.8,115.9c0.7,0.6,1.2,1.5,1.3,2.5h-1.7c-0.1-0.6-0.3-1.2-0.8-1.6s-1.1-0.6-1.8-0.6c-0.6,0-1.1,0.2-1.5,0.5
		c-0.4,0.3-0.5,0.7-0.5,1.2c0,0.4,0.1,0.7,0.4,0.9c0.2,0.2,0.5,0.4,0.9,0.5c0.4,0.1,0.9,0.3,1.5,0.4c0.8,0.2,1.4,0.4,1.9,0.6
		c0.5,0.2,0.9,0.5,1.3,0.9s0.5,1,0.5,1.7c0,0.9-0.3,1.6-1,2.1s-1.5,0.8-2.6,0.8c-1.3,0-2.3-0.3-3.1-0.9s-1.3-1.5-1.4-2.6h1.7
		c0.1,0.7,0.3,1.2,0.8,1.6c0.5,0.4,1.2,0.6,2,0.6c0.6,0,1.1-0.2,1.4-0.5c0.3-0.3,0.5-0.7,0.5-1.2c0-0.4-0.1-0.7-0.4-1
		s-0.6-0.4-0.9-0.6c-0.4-0.1-0.9-0.3-1.5-0.4c-0.8-0.2-1.4-0.4-1.9-0.5c-0.5-0.2-0.9-0.5-1.2-0.9s-0.5-0.9-0.5-1.6
		c0-0.9,0.3-1.6,1-2.2c0.7-0.6,1.6-0.8,2.7-0.8C498.1,114.9,499.1,115.2,499.8,115.9z"/>
	<path d="M516.6,116c0.9,0.7,1.5,1.7,1.7,2.9h-1.9c-0.1-0.8-0.5-1.4-1.1-1.8c-0.6-0.4-1.3-0.7-2.2-0.7c-0.6,0-1.2,0.1-1.7,0.4
		c-0.5,0.3-0.9,0.7-1.2,1.3s-0.5,1.3-0.5,2.2c0,0.9,0.2,1.6,0.5,2.2s0.7,1,1.2,1.3c0.5,0.3,1.1,0.4,1.7,0.4c0.9,0,1.6-0.2,2.2-0.7
		c0.6-0.4,0.9-1,1.1-1.8h1.9c-0.2,1.2-0.8,2.2-1.7,2.9c-0.9,0.7-2,1.1-3.4,1.1c-1,0-1.9-0.2-2.7-0.7s-1.4-1.1-1.9-1.9
		s-0.7-1.8-0.7-2.9c0-1.1,0.2-2.1,0.7-2.9c0.4-0.8,1.1-1.5,1.9-1.9s1.7-0.7,2.7-0.7C514.6,114.9,515.7,115.3,516.6,116z"/>
	<path d="M528.2,115.6c0.8,0.4,1.5,1.1,1.9,1.9c0.5,0.8,0.7,1.8,0.7,2.9c0,1.1-0.2,2.1-0.7,2.9c-0.5,0.8-1.1,1.5-1.9,1.9
		c-0.8,0.4-1.7,0.7-2.8,0.7c-1,0-2-0.2-2.8-0.7s-1.5-1.1-1.9-1.9s-0.7-1.8-0.7-2.9c0-1.1,0.2-2.1,0.7-2.9c0.5-0.8,1.1-1.5,1.9-1.9
		s1.7-0.7,2.8-0.7C526.5,114.9,527.4,115.2,528.2,115.6z M523.7,116.9c-0.5,0.3-1,0.7-1.3,1.3s-0.5,1.3-0.5,2.2
		c0,0.9,0.2,1.6,0.5,2.2s0.8,1,1.3,1.3c0.5,0.3,1.1,0.4,1.8,0.4s1.2-0.1,1.8-0.4c0.5-0.3,1-0.7,1.3-1.3s0.5-1.3,0.5-2.2
		c0-0.9-0.2-1.6-0.5-2.2s-0.8-1-1.3-1.3c-0.5-0.3-1.1-0.4-1.8-0.4S524.2,116.6,523.7,116.9z"/>
	<path d="M541.8,116.1c0.8,0.8,1.2,2,1.2,3.5v6.2h-1.8v-6.1c0-1.1-0.3-1.9-0.8-2.5c-0.5-0.6-1.3-0.9-2.2-0.9c-1,0-1.8,0.3-2.3,0.9
		c-0.6,0.6-0.9,1.6-0.9,2.8v5.7h-1.8v-10.7h1.8v2.5c0.3-0.9,0.8-1.5,1.5-2s1.5-0.7,2.4-0.7C540,114.9,541,115.3,541.8,116.1z"/>
	<path d="M552.3,111.3v14.5h-1.8v-14.5H552.3z"/>
	<path d="M562.2,115.7c0.7,0.5,1.2,1.2,1.5,2.1v-2.7h1.8v10.7h-1.8v-2.7c-0.3,0.9-0.8,1.6-1.5,2.1c-0.7,0.5-1.6,0.8-2.6,0.8
		c-1,0-1.8-0.2-2.5-0.7s-1.3-1.1-1.7-1.9c-0.4-0.8-0.6-1.8-0.6-2.9c0-1.1,0.2-2.1,0.6-2.9c0.4-0.8,1-1.5,1.7-1.9s1.6-0.7,2.5-0.7
		C560.6,114.9,561.5,115.2,562.2,115.7z M557.4,117.6c-0.7,0.7-1,1.7-1,2.9c0,1.2,0.3,2.2,1,2.9c0.7,0.7,1.5,1,2.6,1
		c0.7,0,1.3-0.2,1.9-0.5c0.6-0.3,1-0.8,1.3-1.4s0.5-1.3,0.5-2.1c0-0.8-0.2-1.5-0.5-2.1c-0.3-0.6-0.7-1.1-1.3-1.4
		c-0.6-0.3-1.2-0.5-1.9-0.5C559,116.5,558.1,116.9,557.4,117.6z"/>
	<path d="M581.6,115.6c0.7,0.4,1.3,1.1,1.7,1.9c0.4,0.8,0.6,1.8,0.6,2.9c0,1.1-0.2,2.1-0.6,2.9c-0.4,0.8-1,1.5-1.7,1.9
		s-1.6,0.7-2.5,0.7c-1,0-1.9-0.3-2.6-0.8c-0.7-0.5-1.2-1.2-1.5-2.1v7.8h-1.8v-15.8h1.8v2.7c0.3-0.9,0.8-1.6,1.5-2.1
		c0.7-0.5,1.6-0.8,2.6-0.8C580,114.9,580.9,115.2,581.6,115.6z M576.7,117c-0.6,0.3-1,0.8-1.3,1.4c-0.3,0.6-0.5,1.3-0.5,2.1
		c0,0.8,0.2,1.5,0.5,2.1s0.7,1.1,1.3,1.4c0.6,0.3,1.2,0.5,1.9,0.5c1.1,0,2-0.3,2.6-1c0.7-0.7,1-1.7,1-2.9c0-1.2-0.3-2.2-1-2.9
		c-0.7-0.7-1.5-1-2.6-1C577.9,116.5,577.3,116.7,576.7,117z"/>
	<path d="M589.6,115.5c0.7-0.4,1.5-0.6,2.4-0.6v1.9h-0.5c-1,0-1.8,0.3-2.5,0.8c-0.6,0.5-1,1.4-1,2.5v5.6h-1.8v-10.7h1.8v2.2
		C588.5,116.5,589,115.9,589.6,115.5z"/>
	<path d="M603.6,120.8H595c0,1.2,0.4,2.1,1,2.8c0.7,0.6,1.5,0.9,2.4,0.9c0.9,0,1.6-0.2,2.2-0.7c0.6-0.4,0.9-1,1.1-1.7h1.9
		c-0.1,0.7-0.4,1.4-0.9,2c-0.4,0.6-1,1-1.7,1.4c-0.7,0.3-1.5,0.5-2.4,0.5c-1,0-1.9-0.2-2.7-0.7c-0.8-0.4-1.4-1.1-1.9-1.9
		c-0.4-0.8-0.7-1.8-0.7-2.9c0-1.1,0.2-2.1,0.7-2.9c0.5-0.8,1.1-1.5,1.9-1.9c0.8-0.4,1.7-0.7,2.7-0.7c1,0,2,0.2,2.7,0.7
		c0.8,0.4,1.4,1,1.8,1.8c0.4,0.7,0.6,1.6,0.6,2.5C603.7,120.2,603.7,120.5,603.6,120.8z M601.5,118c-0.3-0.5-0.7-0.9-1.2-1.2
		c-0.5-0.3-1.1-0.4-1.7-0.4c-1,0-1.8,0.3-2.5,0.9c-0.7,0.6-1,1.5-1.1,2.7h6.9C601.9,119.2,601.8,118.5,601.5,118z"/>
	<path d="M612.3,115.9c0.7,0.6,1.2,1.5,1.3,2.5h-1.7c-0.1-0.6-0.3-1.2-0.8-1.6s-1.1-0.6-1.8-0.6c-0.6,0-1.1,0.2-1.5,0.5
		c-0.4,0.3-0.5,0.7-0.5,1.2c0,0.4,0.1,0.7,0.4,0.9s0.5,0.4,0.9,0.5s0.9,0.3,1.5,0.4c0.8,0.2,1.4,0.4,1.9,0.6
		c0.5,0.2,0.9,0.5,1.3,0.9c0.3,0.4,0.5,1,0.5,1.7c0,0.9-0.3,1.6-1,2.1c-0.7,0.5-1.5,0.8-2.6,0.8c-1.3,0-2.3-0.3-3.1-0.9
		s-1.3-1.5-1.4-2.6h1.7c0.1,0.7,0.3,1.2,0.8,1.6c0.5,0.4,1.2,0.6,2,0.6c0.6,0,1.1-0.2,1.4-0.5c0.3-0.3,0.5-0.7,0.5-1.2
		c0-0.4-0.1-0.7-0.4-1s-0.6-0.4-0.9-0.6c-0.4-0.1-0.9-0.3-1.5-0.4c-0.8-0.2-1.4-0.4-1.9-0.5c-0.5-0.2-0.9-0.5-1.2-0.9
		c-0.3-0.4-0.5-0.9-0.5-1.6c0-0.9,0.3-1.6,1-2.2c0.7-0.6,1.6-0.8,2.7-0.8C610.6,114.9,611.6,115.2,612.3,115.9z"/>
	<path d="M625.9,120.8h-8.6c0,1.2,0.4,2.1,1,2.8c0.7,0.6,1.5,0.9,2.4,0.9c0.9,0,1.6-0.2,2.2-0.7c0.6-0.4,0.9-1,1.1-1.7h1.9
		c-0.1,0.7-0.4,1.4-0.9,2c-0.4,0.6-1,1-1.7,1.4c-0.7,0.3-1.5,0.5-2.4,0.5c-1,0-1.9-0.2-2.7-0.7c-0.8-0.4-1.4-1.1-1.9-1.9
		c-0.4-0.8-0.7-1.8-0.7-2.9c0-1.1,0.2-2.1,0.7-2.9c0.5-0.8,1.1-1.5,1.9-1.9c0.8-0.4,1.7-0.7,2.7-0.7c1,0,2,0.2,2.7,0.7
		c0.8,0.4,1.4,1,1.8,1.8c0.4,0.7,0.6,1.6,0.6,2.5C626,120.2,626,120.5,625.9,120.8z M623.8,118c-0.3-0.5-0.7-0.9-1.2-1.2
		c-0.5-0.3-1.1-0.4-1.7-0.4c-1,0-1.8,0.3-2.5,0.9c-0.7,0.6-1,1.5-1.1,2.7h6.9C624.2,119.2,624.1,118.5,623.8,118z"/>
	<path d="M637,116.1c0.8,0.8,1.2,2,1.2,3.5v6.2h-1.8v-6.1c0-1.1-0.3-1.9-0.8-2.5c-0.5-0.6-1.3-0.9-2.2-0.9c-1,0-1.8,0.3-2.3,0.9
		c-0.6,0.6-0.9,1.6-0.9,2.8v5.7h-1.8v-10.7h1.8v2.5c0.3-0.9,0.8-1.5,1.5-2c0.7-0.5,1.5-0.7,2.4-0.7
		C635.2,114.9,636.2,115.3,637,116.1z"/>
	<path d="M649,116c0.9,0.7,1.5,1.7,1.7,2.9h-1.9c-0.1-0.8-0.5-1.4-1.1-1.8c-0.6-0.4-1.3-0.7-2.2-0.7c-0.6,0-1.2,0.1-1.7,0.4
		c-0.5,0.3-0.9,0.7-1.2,1.3s-0.5,1.3-0.5,2.2c0,0.9,0.2,1.6,0.5,2.2s0.7,1,1.2,1.3c0.5,0.3,1.1,0.4,1.7,0.4c0.9,0,1.6-0.2,2.2-0.7
		c0.6-0.4,0.9-1,1.1-1.8h1.9c-0.2,1.2-0.8,2.2-1.7,2.9c-0.9,0.7-2,1.1-3.4,1.1c-1,0-1.9-0.2-2.7-0.7c-0.8-0.4-1.4-1.1-1.9-1.9
		c-0.4-0.8-0.7-1.8-0.7-2.9c0-1.1,0.2-2.1,0.7-2.9c0.5-0.8,1.1-1.5,1.9-1.9c0.8-0.4,1.7-0.7,2.7-0.7C647,114.9,648.1,115.3,649,116z
		"/>
	<path d="M653,111.1c0.2-0.2,0.5-0.3,0.9-0.3c0.4,0,0.7,0.1,0.9,0.3c0.2,0.2,0.3,0.5,0.3,0.8c0,0.3-0.1,0.6-0.3,0.8
		s-0.5,0.3-0.9,0.3c-0.4,0-0.7-0.1-0.9-0.3c-0.2-0.2-0.3-0.5-0.3-0.8C652.7,111.6,652.8,111.3,653,111.1z M654.8,115.1v10.7H653
		v-10.7H654.8z"/>
	<path d="M664.7,115.7c0.7,0.5,1.2,1.2,1.5,2.1v-2.7h1.8v10.7h-1.8v-2.7c-0.3,0.9-0.8,1.6-1.5,2.1c-0.7,0.5-1.6,0.8-2.6,0.8
		c-1,0-1.8-0.2-2.5-0.7s-1.3-1.1-1.7-1.9c-0.4-0.8-0.6-1.8-0.6-2.9c0-1.1,0.2-2.1,0.6-2.9c0.4-0.8,1-1.5,1.7-1.9s1.6-0.7,2.5-0.7
		C663.1,114.9,664,115.2,664.7,115.7z M659.9,117.6c-0.7,0.7-1,1.7-1,2.9c0,1.2,0.3,2.2,1,2.9c0.7,0.7,1.5,1,2.6,1
		c0.7,0,1.3-0.2,1.9-0.5c0.6-0.3,1-0.8,1.3-1.4s0.5-1.3,0.5-2.1c0-0.8-0.2-1.5-0.5-2.1c-0.3-0.6-0.7-1.1-1.3-1.4
		c-0.6-0.3-1.2-0.5-1.9-0.5C661.4,116.5,660.6,116.9,659.9,117.6z"/>
</g>
<g>
	<path d="M407.4,145.7c0.7,0.5,1.2,1.2,1.5,2.1v-6.5h1.8v14.5h-1.8v-2.7c-0.3,0.9-0.8,1.6-1.5,2.1c-0.7,0.5-1.6,0.8-2.6,0.8
		c-1,0-1.8-0.2-2.5-0.7c-0.7-0.4-1.3-1.1-1.7-1.9c-0.4-0.8-0.6-1.8-0.6-2.9c0-1.1,0.2-2.1,0.6-2.9c0.4-0.8,1-1.5,1.7-1.9
		c0.7-0.4,1.6-0.7,2.5-0.7C405.8,144.9,406.7,145.2,407.4,145.7z M402.6,147.6c-0.7,0.7-1,1.7-1,2.9c0,1.2,0.3,2.2,1,2.9
		c0.7,0.7,1.5,1,2.6,1c0.7,0,1.3-0.2,1.9-0.5c0.6-0.3,1-0.8,1.3-1.4s0.5-1.3,0.5-2.1c0-0.8-0.2-1.5-0.5-2.1
		c-0.3-0.6-0.7-1.1-1.3-1.4c-0.6-0.3-1.2-0.5-1.9-0.5C404.2,146.5,403.3,146.9,402.6,147.6z"/>
	<path d="M423.3,150.8h-8.6c0,1.2,0.4,2.1,1,2.8c0.7,0.6,1.5,0.9,2.4,0.9c0.9,0,1.6-0.2,2.2-0.7c0.6-0.4,0.9-1,1.1-1.7h1.9
		c-0.1,0.7-0.4,1.4-0.9,2c-0.4,0.6-1,1-1.7,1.4s-1.5,0.5-2.4,0.5c-1,0-1.9-0.2-2.7-0.7s-1.4-1.1-1.9-1.9s-0.7-1.8-0.7-2.9
		c0-1.1,0.2-2.1,0.7-2.9c0.4-0.8,1.1-1.5,1.9-1.9s1.7-0.7,2.7-0.7c1,0,2,0.2,2.7,0.7c0.8,0.4,1.4,1,1.8,1.8c0.4,0.7,0.6,1.6,0.6,2.5
		C423.4,150.2,423.4,150.5,423.3,150.8z M421.2,148c-0.3-0.5-0.7-0.9-1.2-1.2c-0.5-0.3-1.1-0.4-1.7-0.4c-1,0-1.8,0.3-2.5,0.9
		c-0.7,0.6-1,1.5-1.1,2.7h6.9C421.6,149.2,421.5,148.5,421.2,148z"/>
	<path d="M433.1,153.8c0.5,0.4,1.1,0.7,1.9,0.7c1.1,0,1.9-0.4,2.5-1.3s0.8-2.2,0.8-4c0-0.4,0-0.6,0-0.8c-0.2,0.8-0.6,1.4-1.3,1.9
		c-0.7,0.5-1.5,0.7-2.5,0.7c-1.4,0-2.4-0.4-3.2-1.2c-0.8-0.8-1.2-2-1.2-3.4c0-0.9,0.2-1.6,0.5-2.3c0.3-0.7,0.9-1.3,1.6-1.7
		s1.6-0.6,2.6-0.6c2,0,3.3,0.6,4.1,1.8s1.1,2.9,1.1,5c0,2.4-0.4,4.3-1.1,5.5c-0.8,1.3-2,1.9-3.8,1.9c-1.3,0-2.3-0.4-3.1-1.1
		c-0.7-0.7-1.2-1.7-1.3-2.9h1.7C432.4,152.8,432.7,153.4,433.1,153.8z M437.3,144.2c-0.6-0.7-1.4-1-2.5-1c-0.9,0-1.6,0.3-2.2,0.8
		c-0.5,0.5-0.8,1.3-0.8,2.3c0,1,0.3,1.8,0.8,2.4c0.5,0.6,1.3,0.8,2.2,0.8c0.5,0,1.1-0.1,1.6-0.3c0.5-0.2,0.9-0.6,1.2-1
		c0.3-0.5,0.5-1,0.5-1.6C438.1,145.6,437.8,144.8,437.3,144.2z"/>
	<path d="M442.9,143.4c0.4-0.6,0.9-1,1.6-1.3c0.7-0.3,1.6-0.5,2.6-0.5c1,0,1.8,0.2,2.5,0.5c0.7,0.3,1.2,0.8,1.6,1.3
		c0.4,0.6,0.5,1.2,0.5,1.9c0,0.8-0.2,1.4-0.6,2c-0.4,0.6-1,1-1.9,1.2c0.9,0.2,1.6,0.7,2.1,1.3c0.5,0.6,0.8,1.4,0.8,2.3
		c0,1.3-0.5,2.3-1.4,3.1s-2.2,1.1-3.7,1.1c-1.5,0-2.8-0.4-3.7-1.1c-0.9-0.7-1.4-1.8-1.4-3.1c0-0.9,0.3-1.7,0.8-2.3s1.2-1,2.1-1.3
		c-0.8-0.2-1.5-0.6-1.9-1.2c-0.4-0.6-0.6-1.2-0.6-2C442.4,144.6,442.6,144,442.9,143.4z M444.7,154c0.6,0.5,1.4,0.7,2.4,0.7
		c1,0,1.8-0.2,2.4-0.7c0.6-0.5,0.9-1.2,0.9-2.1c0-0.9-0.3-1.6-0.9-2c-0.6-0.5-1.4-0.7-2.4-0.7c-1,0-1.8,0.2-2.4,0.7
		c-0.6,0.5-0.9,1.1-0.9,2S444.1,153.5,444.7,154z M445,147.3c0.5,0.4,1.3,0.6,2.2,0.6c0.9,0,1.6-0.2,2.2-0.6c0.5-0.4,0.8-1,0.8-1.8
		s-0.3-1.4-0.8-1.8c-0.5-0.4-1.3-0.6-2.1-0.6c-0.9,0-1.6,0.2-2.2,0.6c-0.5,0.4-0.8,1-0.8,1.8S444.4,146.9,445,147.3z"/>
	<path d="M467.9,145.6c0.7,0.4,1.3,1.1,1.7,1.9c0.4,0.8,0.6,1.8,0.6,2.9c0,1.1-0.2,2.1-0.6,2.9s-1,1.5-1.7,1.9
		c-0.7,0.4-1.6,0.7-2.5,0.7c-1,0-1.9-0.3-2.6-0.8c-0.7-0.5-1.2-1.2-1.5-2.1v7.8h-1.8v-15.8h1.8v2.7c0.3-0.9,0.8-1.6,1.5-2.1
		c0.7-0.5,1.6-0.8,2.6-0.8C466.3,144.9,467.2,145.2,467.9,145.6z M463,147c-0.6,0.3-1,0.8-1.3,1.4c-0.3,0.6-0.5,1.3-0.5,2.1
		c0,0.8,0.2,1.5,0.5,2.1s0.7,1.1,1.3,1.4c0.6,0.3,1.2,0.5,1.9,0.5c1.1,0,2-0.3,2.6-1c0.7-0.7,1-1.7,1-2.9c0-1.2-0.3-2.2-1-2.9
		c-0.7-0.7-1.5-1-2.6-1C464.2,146.5,463.6,146.7,463,147z"/>
	<path d="M482.4,150.8h-8.6c0,1.2,0.4,2.1,1,2.8c0.7,0.6,1.5,0.9,2.4,0.9c0.9,0,1.6-0.2,2.2-0.7c0.6-0.4,0.9-1,1.1-1.7h1.9
		c-0.1,0.7-0.4,1.4-0.9,2c-0.4,0.6-1,1-1.7,1.4s-1.5,0.5-2.4,0.5c-1,0-1.9-0.2-2.7-0.7s-1.4-1.1-1.9-1.9s-0.7-1.8-0.7-2.9
		c0-1.1,0.2-2.1,0.7-2.9c0.4-0.8,1.1-1.5,1.9-1.9s1.7-0.7,2.7-0.7c1,0,2,0.2,2.7,0.7c0.8,0.4,1.4,1,1.8,1.8c0.4,0.7,0.6,1.6,0.6,2.5
		C482.5,150.2,482.5,150.5,482.4,150.8z M480.3,148c-0.3-0.5-0.7-0.9-1.2-1.2c-0.5-0.3-1.1-0.4-1.7-0.4c-1,0-1.8,0.3-2.5,0.9
		c-0.7,0.6-1,1.5-1.1,2.7h6.9C480.7,149.2,480.6,148.5,480.3,148z"/>
	<path d="M488.1,145.5c0.7-0.4,1.5-0.6,2.4-0.6v1.9H490c-1,0-1.8,0.3-2.5,0.8c-0.6,0.5-1,1.4-1,2.5v5.6h-1.8v-10.7h1.8v2.2
		C487,146.5,487.5,145.9,488.1,145.5z"/>
	<path d="M492.4,141.1c0.2-0.2,0.5-0.3,0.9-0.3s0.7,0.1,0.9,0.3c0.2,0.2,0.3,0.5,0.3,0.8c0,0.3-0.1,0.6-0.3,0.8
		c-0.2,0.2-0.5,0.3-0.9,0.3s-0.7-0.1-0.9-0.3c-0.2-0.2-0.3-0.5-0.3-0.8C492,141.6,492.1,141.3,492.4,141.1z M494.1,145.1v10.7h-1.8
		v-10.7H494.1z"/>
	<path d="M504.6,145.6c0.8,0.4,1.5,1.1,1.9,1.9c0.5,0.8,0.7,1.8,0.7,2.9c0,1.1-0.2,2.1-0.7,2.9c-0.5,0.8-1.1,1.5-1.9,1.9
		c-0.8,0.4-1.7,0.7-2.8,0.7c-1,0-2-0.2-2.8-0.7s-1.5-1.1-1.9-1.9s-0.7-1.8-0.7-2.9c0-1.1,0.2-2.1,0.7-2.9c0.5-0.8,1.1-1.5,1.9-1.9
		s1.7-0.7,2.8-0.7C502.9,144.9,503.8,145.2,504.6,145.6z M500.1,146.9c-0.5,0.3-1,0.7-1.3,1.3s-0.5,1.3-0.5,2.2
		c0,0.9,0.2,1.6,0.5,2.2s0.8,1,1.3,1.3c0.5,0.3,1.1,0.4,1.8,0.4s1.2-0.1,1.8-0.4c0.5-0.3,1-0.7,1.3-1.3s0.5-1.3,0.5-2.2
		c0-0.9-0.2-1.6-0.5-2.2s-0.8-1-1.3-1.3c-0.5-0.3-1.1-0.4-1.8-0.4S500.6,146.6,500.1,146.9z"/>
	<path d="M516.6,145.7c0.7,0.5,1.2,1.2,1.5,2.1v-6.5h1.8v14.5h-1.8v-2.7c-0.3,0.9-0.8,1.6-1.5,2.1c-0.7,0.5-1.6,0.8-2.6,0.8
		c-1,0-1.8-0.2-2.5-0.7c-0.7-0.4-1.3-1.1-1.7-1.9c-0.4-0.8-0.6-1.8-0.6-2.9c0-1.1,0.2-2.1,0.6-2.9c0.4-0.8,1-1.5,1.7-1.9
		c0.7-0.4,1.6-0.7,2.5-0.7C515,144.9,515.8,145.2,516.6,145.7z M511.8,147.6c-0.7,0.7-1,1.7-1,2.9c0,1.2,0.3,2.2,1,2.9
		c0.7,0.7,1.5,1,2.6,1c0.7,0,1.3-0.2,1.9-0.5c0.6-0.3,1-0.8,1.3-1.4s0.5-1.3,0.5-2.1c0-0.8-0.2-1.5-0.5-2.1
		c-0.3-0.6-0.7-1.1-1.3-1.4c-0.6-0.3-1.2-0.5-1.9-0.5C513.3,146.5,512.5,146.9,511.8,147.6z"/>
	<path d="M522.7,141.1c0.2-0.2,0.5-0.3,0.9-0.3s0.7,0.1,0.9,0.3c0.2,0.2,0.3,0.5,0.3,0.8c0,0.3-0.1,0.6-0.3,0.8
		c-0.2,0.2-0.5,0.3-0.9,0.3s-0.7-0.1-0.9-0.3c-0.2-0.2-0.3-0.5-0.3-0.8C522.4,141.6,522.5,141.3,522.7,141.1z M524.5,145.1v10.7
		h-1.8v-10.7H524.5z"/>
	<path d="M533.6,145.9c0.7,0.6,1.2,1.5,1.3,2.5h-1.7c-0.1-0.6-0.3-1.2-0.8-1.6s-1.1-0.6-1.8-0.6c-0.6,0-1.1,0.2-1.5,0.5
		c-0.4,0.3-0.5,0.7-0.5,1.2c0,0.4,0.1,0.7,0.4,0.9c0.2,0.2,0.5,0.4,0.9,0.5c0.4,0.1,0.9,0.3,1.5,0.4c0.8,0.2,1.4,0.4,1.9,0.6
		c0.5,0.2,0.9,0.5,1.3,0.9s0.5,1,0.5,1.7c0,0.9-0.3,1.6-1,2.1s-1.5,0.8-2.6,0.8c-1.3,0-2.3-0.3-3.1-0.9s-1.3-1.5-1.4-2.6h1.7
		c0.1,0.7,0.3,1.2,0.8,1.6c0.5,0.4,1.2,0.6,2,0.6c0.6,0,1.1-0.2,1.4-0.5c0.3-0.3,0.5-0.7,0.5-1.2c0-0.4-0.1-0.7-0.4-1
		s-0.6-0.4-0.9-0.6c-0.4-0.1-0.9-0.3-1.5-0.4c-0.8-0.2-1.4-0.4-1.9-0.5c-0.5-0.2-0.9-0.5-1.2-0.9s-0.5-0.9-0.5-1.6
		c0-0.9,0.3-1.6,1-2.2c0.7-0.6,1.6-0.8,2.7-0.8C531.9,144.9,532.9,145.3,533.6,145.9z"/>
	<path d="M542.5,154.2v1.6h-1.3c-1.1,0-1.9-0.3-2.5-0.8c-0.5-0.5-0.8-1.4-0.8-2.6v-5.8h-1.6v-1.5h1.6v-2.7h1.8v2.7h2.8v1.5h-2.8v5.8
		c0,0.7,0.1,1.2,0.4,1.4c0.3,0.3,0.7,0.4,1.3,0.4H542.5z"/>
	<path d="M551.8,145.7c0.7,0.5,1.2,1.2,1.5,2.1v-2.7h1.8v10.7h-1.8v-2.7c-0.3,0.9-0.8,1.6-1.5,2.1c-0.7,0.5-1.6,0.8-2.6,0.8
		c-1,0-1.8-0.2-2.5-0.7c-0.7-0.4-1.3-1.1-1.7-1.9c-0.4-0.8-0.6-1.8-0.6-2.9c0-1.1,0.2-2.1,0.6-2.9c0.4-0.8,1-1.5,1.7-1.9
		c0.7-0.4,1.6-0.7,2.5-0.7C550.1,144.9,551,145.2,551.8,145.7z M547,147.6c-0.7,0.7-1,1.7-1,2.9c0,1.2,0.3,2.2,1,2.9
		c0.7,0.7,1.5,1,2.6,1c0.7,0,1.3-0.2,1.9-0.5c0.6-0.3,1-0.8,1.3-1.4s0.5-1.3,0.5-2.1c0-0.8-0.2-1.5-0.5-2.1
		c-0.3-0.6-0.7-1.1-1.3-1.4c-0.6-0.3-1.2-0.5-1.9-0.5C548.5,146.5,547.6,146.9,547,147.6z"/>
	<path d="M564.2,145.9c0.7,0.6,1.2,1.5,1.3,2.5h-1.7c-0.1-0.6-0.3-1.2-0.8-1.6s-1.1-0.6-1.8-0.6c-0.6,0-1.1,0.2-1.5,0.5
		c-0.4,0.3-0.5,0.7-0.5,1.2c0,0.4,0.1,0.7,0.4,0.9s0.5,0.4,0.9,0.5s0.9,0.3,1.5,0.4c0.8,0.2,1.4,0.4,1.9,0.6
		c0.5,0.2,0.9,0.5,1.3,0.9c0.3,0.4,0.5,1,0.5,1.7c0,0.9-0.3,1.6-1,2.1c-0.7,0.5-1.5,0.8-2.6,0.8c-1.3,0-2.3-0.3-3.1-0.9
		s-1.3-1.5-1.4-2.6h1.7c0.1,0.7,0.3,1.2,0.8,1.6c0.5,0.4,1.2,0.6,2,0.6c0.6,0,1.1-0.2,1.4-0.5c0.3-0.3,0.5-0.7,0.5-1.2
		c0-0.4-0.1-0.7-0.4-1s-0.6-0.4-0.9-0.6c-0.4-0.1-0.9-0.3-1.5-0.4c-0.8-0.2-1.4-0.4-1.9-0.5c-0.5-0.2-0.9-0.5-1.2-0.9
		c-0.3-0.4-0.5-0.9-0.5-1.6c0-0.9,0.3-1.6,1-2.2c0.7-0.6,1.6-0.8,2.7-0.8C562.4,144.9,563.4,145.3,564.2,145.9z"/>
	<path d="M573.5,145.1l3.5,8.4l3.2-8.4h2l-6.4,15.8h-2l2.2-5.3l-4.5-10.5H573.5z"/>
	<path d="M587.5,143.7V142h3.9v13.8h-1.9v-12.1H587.5z"/>
	<path d="M594,148.8c0-2.2,0.4-3.9,1.1-5.1c0.7-1.2,2-1.8,3.8-1.8c1.8,0,3.1,0.6,3.8,1.9c0.7,1.2,1.1,3,1.1,5.1
		c0,2.2-0.4,3.9-1.1,5.2c-0.7,1.2-2,1.9-3.8,1.9c-1.8,0-3.1-0.6-3.8-1.9C594.3,152.8,594,151,594,148.8z M602,148.8
		c0-1.1-0.1-2.1-0.2-2.8c-0.2-0.8-0.5-1.4-0.9-1.8c-0.5-0.4-1.1-0.7-2-0.7c-0.8,0-1.5,0.2-2,0.7c-0.5,0.5-0.8,1.1-0.9,1.8
		c-0.2,0.8-0.2,1.7-0.2,2.8c0,1.1,0.1,2.1,0.2,2.8c0.2,0.8,0.5,1.4,0.9,1.8c0.5,0.5,1.1,0.7,2,0.7c0.9,0,1.5-0.2,2-0.7
		c0.5-0.5,0.8-1.1,0.9-1.8C601.9,150.9,602,150,602,148.8z"/>
	<path d="M611.1,141.1c0.2-0.2,0.5-0.3,0.9-0.3c0.4,0,0.7,0.1,0.9,0.3c0.2,0.2,0.3,0.5,0.3,0.8c0,0.3-0.1,0.6-0.3,0.8
		s-0.5,0.3-0.9,0.3c-0.4,0-0.7-0.1-0.9-0.3c-0.2-0.2-0.3-0.5-0.3-0.8C610.8,141.6,610.9,141.3,611.1,141.1z M612.9,145.1v10.7h-1.8
		v-10.7H612.9z"/>
	<path d="M624.4,146.1c0.8,0.8,1.2,2,1.2,3.5v6.2h-1.8v-6.1c0-1.1-0.3-1.9-0.8-2.5c-0.5-0.6-1.3-0.9-2.2-0.9c-1,0-1.8,0.3-2.3,0.9
		c-0.6,0.6-0.9,1.6-0.9,2.8v5.7h-1.8v-10.7h1.8v2.5c0.3-0.9,0.8-1.5,1.5-2c0.7-0.5,1.5-0.7,2.4-0.7
		C622.6,144.9,623.6,145.3,624.4,146.1z"/>
	<path d="M631.1,143c-0.4,0.3-0.6,0.9-0.6,1.8v0.3h2.5v1.6h-2.5v9.2h-1.8v-9.2h-1.5v-1.6h1.5v-0.4c0-2.6,1.4-3.8,4.3-3.7v1.6
		C632.1,142.5,631.4,142.7,631.1,143z"/>
	<path d="M636.7,141.3v14.5H635v-14.5H636.7z"/>
	<path d="M649.1,145.1v10.7h-1.8v-2.5c-0.3,0.9-0.8,1.5-1.5,2c-0.7,0.5-1.5,0.7-2.4,0.7c-1.2,0-2.2-0.4-3-1.2
		c-0.8-0.8-1.2-2-1.2-3.4v-6.3h1.8v6.1c0,1.1,0.3,1.9,0.8,2.5c0.5,0.6,1.3,0.9,2.2,0.9c1,0,1.8-0.3,2.3-0.9c0.6-0.6,0.9-1.6,0.9-2.8
		v-5.7H649.1z"/>
	<path d="M661.8,150.8h-8.6c0,1.2,0.4,2.1,1,2.8c0.7,0.6,1.5,0.9,2.4,0.9c0.9,0,1.6-0.2,2.2-0.7c0.6-0.4,0.9-1,1.1-1.7h1.9
		c-0.1,0.7-0.4,1.4-0.9,2c-0.4,0.6-1,1-1.7,1.4c-0.7,0.3-1.5,0.5-2.4,0.5c-1,0-1.9-0.2-2.7-0.7c-0.8-0.4-1.4-1.1-1.9-1.9
		c-0.4-0.8-0.7-1.8-0.7-2.9c0-1.1,0.2-2.1,0.7-2.9c0.5-0.8,1.1-1.5,1.9-1.9c0.8-0.4,1.7-0.7,2.7-0.7c1,0,2,0.2,2.7,0.7
		c0.8,0.4,1.4,1,1.8,1.8c0.4,0.7,0.6,1.6,0.6,2.5C661.9,150.2,661.8,150.5,661.8,150.8z M659.7,148c-0.3-0.5-0.7-0.9-1.2-1.2
		c-0.5-0.3-1.1-0.4-1.7-0.4c-1,0-1.8,0.3-2.5,0.9c-0.7,0.6-1,1.5-1.1,2.7h6.9C660.1,149.2,660,148.5,659.7,148z"/>
	<path d="M672.9,146.1c0.8,0.8,1.2,2,1.2,3.5v6.2h-1.8v-6.1c0-1.1-0.3-1.9-0.8-2.5c-0.5-0.6-1.3-0.9-2.2-0.9c-1,0-1.8,0.3-2.3,0.9
		c-0.6,0.6-0.9,1.6-0.9,2.8v5.7h-1.8v-10.7h1.8v2.5c0.3-0.9,0.8-1.5,1.5-2c0.7-0.5,1.5-0.7,2.4-0.7
		C671.1,144.9,672.1,145.3,672.9,146.1z"/>
	<path d="M684.9,146c0.9,0.7,1.5,1.7,1.7,2.9h-1.9c-0.1-0.8-0.5-1.4-1.1-1.8c-0.6-0.4-1.3-0.7-2.2-0.7c-0.6,0-1.2,0.1-1.7,0.4
		c-0.5,0.3-0.9,0.7-1.2,1.3s-0.5,1.3-0.5,2.2c0,0.9,0.2,1.6,0.5,2.2s0.7,1,1.2,1.3c0.5,0.3,1.1,0.4,1.7,0.4c0.9,0,1.6-0.2,2.2-0.7
		c0.6-0.4,0.9-1,1.1-1.8h1.9c-0.2,1.2-0.8,2.2-1.7,2.9c-0.9,0.7-2,1.1-3.4,1.1c-1,0-1.9-0.2-2.7-0.7c-0.8-0.4-1.4-1.1-1.9-1.9
		c-0.4-0.8-0.7-1.8-0.7-2.9c0-1.1,0.2-2.1,0.7-2.9c0.5-0.8,1.1-1.5,1.9-1.9c0.8-0.4,1.7-0.7,2.7-0.7
		C682.9,144.9,684,145.3,684.9,146z"/>
	<path d="M698.7,150.8h-8.6c0,1.2,0.4,2.1,1,2.8c0.7,0.6,1.5,0.9,2.4,0.9c0.9,0,1.6-0.2,2.2-0.7c0.6-0.4,0.9-1,1.1-1.7h1.9
		c-0.1,0.7-0.4,1.4-0.9,2c-0.4,0.6-1,1-1.7,1.4c-0.7,0.3-1.5,0.5-2.4,0.5c-1,0-1.9-0.2-2.7-0.7c-0.8-0.4-1.4-1.1-1.9-1.9
		c-0.4-0.8-0.7-1.8-0.7-2.9c0-1.1,0.2-2.1,0.7-2.9c0.5-0.8,1.1-1.5,1.9-1.9c0.8-0.4,1.7-0.7,2.7-0.7c1,0,2,0.2,2.7,0.7
		c0.8,0.4,1.4,1,1.8,1.8c0.4,0.7,0.6,1.6,0.6,2.5C698.7,150.2,698.7,150.5,698.7,150.8z M696.6,148c-0.3-0.5-0.7-0.9-1.2-1.2
		c-0.5-0.3-1.1-0.4-1.7-0.4c-1,0-1.8,0.3-2.5,0.9c-0.7,0.6-1,1.5-1.1,2.7h6.9C697,149.2,696.8,148.5,696.6,148z"/>
	<path d="M704.4,145.5c0.7-0.4,1.5-0.6,2.4-0.6v1.9h-0.5c-1,0-1.8,0.3-2.5,0.8c-0.6,0.5-1,1.4-1,2.5v5.6h-1.8v-10.7h1.8v2.2
		C703.2,146.5,703.7,145.9,704.4,145.5z"/>
	<path d="M714.8,145.9c0.7,0.6,1.2,1.5,1.3,2.5h-1.7c-0.1-0.6-0.3-1.2-0.8-1.6s-1.1-0.6-1.8-0.6c-0.6,0-1.1,0.2-1.5,0.5
		c-0.4,0.3-0.5,0.7-0.5,1.2c0,0.4,0.1,0.7,0.4,0.9s0.5,0.4,0.9,0.5s0.9,0.3,1.5,0.4c0.8,0.2,1.4,0.4,1.9,0.6
		c0.5,0.2,0.9,0.5,1.3,0.9c0.3,0.4,0.5,1,0.5,1.7c0,0.9-0.3,1.6-1,2.1c-0.7,0.5-1.5,0.8-2.6,0.8c-1.3,0-2.3-0.3-3.1-0.9
		s-1.3-1.5-1.4-2.6h1.7c0.1,0.7,0.3,1.2,0.8,1.6c0.5,0.4,1.2,0.6,2,0.6c0.6,0,1.1-0.2,1.4-0.5c0.3-0.3,0.5-0.7,0.5-1.2
		c0-0.4-0.1-0.7-0.4-1s-0.6-0.4-0.9-0.6c-0.4-0.1-0.9-0.3-1.5-0.4c-0.8-0.2-1.4-0.4-1.9-0.5c-0.5-0.2-0.9-0.5-1.2-0.9
		c-0.3-0.4-0.5-0.9-0.5-1.6c0-0.9,0.3-1.6,1-2.2c0.7-0.6,1.6-0.8,2.7-0.8C713.1,144.9,714.1,145.3,714.8,145.9z"/>
</g>
<g>
	<path d="M407.4,175.7c0.7,0.5,1.2,1.1,1.5,1.9v-2.5h1.8v15.8h-1.8v-7.7c-0.3,0.8-0.8,1.5-1.5,2s-1.5,0.7-2.5,0.7
		c-1,0-1.8-0.2-2.6-0.7s-1.4-1.1-1.8-1.9c-0.4-0.8-0.7-1.8-0.7-2.9c0-1.1,0.2-2.1,0.7-2.9c0.4-0.8,1-1.5,1.8-1.9s1.6-0.7,2.6-0.7
		C405.9,175,406.7,175.2,407.4,175.7z M402.7,177.6c-0.7,0.7-1,1.7-1,2.9c0,1.2,0.3,2.2,1,2.9c0.7,0.7,1.5,1,2.6,1
		c0.7,0,1.3-0.2,1.8-0.5c0.6-0.3,1-0.8,1.3-1.4c0.3-0.6,0.5-1.3,0.5-2.1c0-0.8-0.2-1.5-0.5-2.1c-0.3-0.6-0.8-1-1.3-1.4
		c-0.6-0.3-1.2-0.5-1.8-0.5C404.2,176.5,403.3,176.9,402.7,177.6z"/>
	<path d="M423.1,175.1v10.7h-1.8v-2.5c-0.3,0.9-0.8,1.5-1.5,2s-1.5,0.7-2.4,0.7c-1.2,0-2.2-0.4-3-1.2c-0.8-0.8-1.2-2-1.2-3.4v-6.3
		h1.8v6.1c0,1.1,0.3,1.9,0.8,2.5c0.5,0.6,1.3,0.9,2.2,0.9c1,0,1.8-0.3,2.3-0.9c0.6-0.6,0.9-1.6,0.9-2.8v-5.7H423.1z"/>
	<path d="M425.9,171.1c0.2-0.2,0.5-0.3,0.9-0.3s0.7,0.1,0.9,0.3c0.2,0.2,0.3,0.5,0.3,0.8c0,0.3-0.1,0.6-0.3,0.8
		c-0.2,0.2-0.5,0.3-0.9,0.3s-0.7-0.1-0.9-0.3c-0.2-0.2-0.3-0.5-0.3-0.8C425.6,171.6,425.7,171.3,425.9,171.1z M427.7,175.1v10.7
		h-1.8v-10.7H427.7z"/>
	<path d="M440.3,180.8h-8.6c0,1.2,0.4,2.1,1,2.8c0.7,0.6,1.5,0.9,2.4,0.9c0.9,0,1.6-0.2,2.2-0.7c0.6-0.4,0.9-1,1.1-1.7h1.9
		c-0.1,0.7-0.4,1.4-0.9,2c-0.4,0.6-1,1-1.7,1.4s-1.5,0.5-2.4,0.5c-1,0-1.9-0.2-2.7-0.7s-1.4-1.1-1.9-1.9s-0.7-1.8-0.7-2.9
		c0-1.1,0.2-2.1,0.7-2.9c0.4-0.8,1.1-1.5,1.9-1.9s1.7-0.7,2.7-0.7c1,0,2,0.2,2.7,0.7c0.8,0.4,1.4,1,1.8,1.8c0.4,0.7,0.6,1.6,0.6,2.5
		C440.4,180.2,440.4,180.6,440.3,180.8z M438.2,178c-0.3-0.5-0.7-0.9-1.2-1.2c-0.5-0.3-1.1-0.4-1.7-0.4c-1,0-1.8,0.3-2.5,0.9
		c-0.7,0.6-1,1.5-1.1,2.7h6.9C438.7,179.2,438.5,178.5,438.2,178z"/>
	<path d="M451.4,176.1c0.8,0.8,1.2,2,1.2,3.5v6.2h-1.8v-6.1c0-1.1-0.3-1.9-0.8-2.5c-0.5-0.6-1.3-0.9-2.2-0.9c-1,0-1.8,0.3-2.3,0.9
		c-0.6,0.6-0.9,1.6-0.9,2.8v5.7h-1.8v-10.7h1.8v2.5c0.3-0.9,0.8-1.5,1.5-2s1.5-0.7,2.4-0.7C449.6,174.9,450.7,175.3,451.4,176.1z"/>
	<path d="M465.1,180.8h-8.6c0,1.2,0.4,2.1,1,2.8c0.7,0.6,1.5,0.9,2.4,0.9c0.9,0,1.6-0.2,2.2-0.7c0.6-0.4,0.9-1,1.1-1.7h1.9
		c-0.1,0.7-0.4,1.4-0.9,2c-0.4,0.6-1,1-1.7,1.4s-1.5,0.5-2.4,0.5c-1,0-1.9-0.2-2.7-0.7s-1.4-1.1-1.9-1.9s-0.7-1.8-0.7-2.9
		c0-1.1,0.2-2.1,0.7-2.9c0.4-0.8,1.1-1.5,1.9-1.9s1.7-0.7,2.7-0.7c1,0,2,0.2,2.7,0.7c0.8,0.4,1.4,1,1.8,1.8c0.4,0.7,0.6,1.6,0.6,2.5
		C465.2,180.2,465.1,180.6,465.1,180.8z M463,178c-0.3-0.5-0.7-0.9-1.2-1.2c-0.5-0.3-1.1-0.4-1.7-0.4c-1,0-1.8,0.3-2.5,0.9
		c-0.7,0.6-1,1.5-1.1,2.7h6.9C463.4,179.2,463.3,178.5,463,178z"/>
	<path d="M473.8,175.9c0.7,0.6,1.2,1.5,1.3,2.5h-1.7c-0.1-0.6-0.3-1.2-0.8-1.6s-1.1-0.6-1.8-0.6c-0.6,0-1.1,0.2-1.5,0.5
		c-0.4,0.3-0.5,0.7-0.5,1.2c0,0.4,0.1,0.7,0.4,0.9c0.2,0.2,0.5,0.4,0.9,0.5c0.4,0.1,0.9,0.3,1.5,0.4c0.8,0.2,1.4,0.4,1.9,0.6
		c0.5,0.2,0.9,0.5,1.3,0.9s0.5,1,0.5,1.7c0,0.9-0.3,1.6-1,2.1s-1.5,0.8-2.6,0.8c-1.3,0-2.3-0.3-3.1-0.9s-1.3-1.5-1.4-2.6h1.7
		c0.1,0.7,0.3,1.2,0.8,1.6c0.5,0.4,1.2,0.6,2,0.6c0.6,0,1.1-0.2,1.4-0.5c0.3-0.3,0.5-0.7,0.5-1.2c0-0.4-0.1-0.7-0.4-1
		s-0.6-0.4-0.9-0.6c-0.4-0.1-0.9-0.3-1.5-0.4c-0.8-0.2-1.4-0.4-1.9-0.5c-0.5-0.2-0.9-0.5-1.2-0.9s-0.5-0.9-0.5-1.6
		c0-0.9,0.3-1.6,1-2.2c0.7-0.6,1.6-0.8,2.7-0.8C472.1,174.9,473,175.3,473.8,175.9z"/>
	<path d="M482.4,171.1c0.2-0.2,0.5-0.3,0.9-0.3s0.7,0.1,0.9,0.3c0.2,0.2,0.3,0.5,0.3,0.8c0,0.3-0.1,0.6-0.3,0.8
		c-0.2,0.2-0.5,0.3-0.9,0.3s-0.7-0.1-0.9-0.3c-0.2-0.2-0.3-0.5-0.3-0.8C482.1,171.6,482.2,171.3,482.4,171.1z M484.2,175.1v10.7
		h-1.8v-10.7H484.2z"/>
	<path d="M495.7,176.1c0.8,0.8,1.2,2,1.2,3.5v6.2h-1.8v-6.1c0-1.1-0.3-1.9-0.8-2.5c-0.5-0.6-1.3-0.9-2.2-0.9c-1,0-1.8,0.3-2.3,0.9
		c-0.6,0.6-0.9,1.6-0.9,2.8v5.7h-1.8v-10.7h1.8v2.5c0.3-0.9,0.8-1.5,1.5-2s1.5-0.7,2.4-0.7C494,174.9,495,175.3,495.7,176.1z"/>
	<path d="M504.7,184.2v1.6h-1.3c-1.1,0-1.9-0.3-2.5-0.8c-0.5-0.5-0.8-1.4-0.8-2.6v-5.8h-1.6v-1.5h1.6v-2.7h1.8v2.7h2.8v1.5h-2.8v5.8
		c0,0.7,0.1,1.2,0.4,1.4c0.3,0.3,0.7,0.4,1.3,0.4H504.7z"/>
	<path d="M516.7,180.8h-8.6c0,1.2,0.4,2.1,1,2.8c0.7,0.6,1.5,0.9,2.4,0.9c0.9,0,1.6-0.2,2.2-0.7c0.6-0.4,0.9-1,1.1-1.7h1.9
		c-0.1,0.7-0.4,1.4-0.9,2c-0.4,0.6-1,1-1.7,1.4s-1.5,0.5-2.4,0.5c-1,0-1.9-0.2-2.7-0.7s-1.4-1.1-1.9-1.9s-0.7-1.8-0.7-2.9
		c0-1.1,0.2-2.1,0.7-2.9c0.4-0.8,1.1-1.5,1.9-1.9s1.7-0.7,2.7-0.7c1,0,2,0.2,2.7,0.7c0.8,0.4,1.4,1,1.8,1.8c0.4,0.7,0.6,1.6,0.6,2.5
		C516.8,180.2,516.7,180.6,516.7,180.8z M514.6,178c-0.3-0.5-0.7-0.9-1.2-1.2c-0.5-0.3-1.1-0.4-1.7-0.4c-1,0-1.8,0.3-2.5,0.9
		c-0.7,0.6-1,1.5-1.1,2.7h6.9C515,179.2,514.9,178.5,514.6,178z"/>
	<path d="M522.4,175.5c0.7-0.4,1.5-0.6,2.4-0.6v1.9h-0.5c-1,0-1.8,0.3-2.5,0.8c-0.6,0.5-1,1.4-1,2.5v5.6h-1.8v-10.7h1.8v2.2
		C521.2,176.5,521.7,175.9,522.4,175.5z"/>
	<path d="M533.6,175.7c0.7,0.5,1.2,1.2,1.5,2.1v-2.7h1.8v10.7h-1.8v-2.7c-0.3,0.9-0.8,1.6-1.5,2.1c-0.7,0.5-1.6,0.8-2.6,0.8
		c-1,0-1.8-0.2-2.5-0.7c-0.7-0.4-1.3-1.1-1.7-1.9c-0.4-0.8-0.6-1.8-0.6-2.9c0-1.1,0.2-2.1,0.6-2.9c0.4-0.8,1-1.5,1.7-1.9
		c0.7-0.4,1.6-0.7,2.5-0.7C532,174.9,532.9,175.2,533.6,175.7z M528.9,177.6c-0.7,0.7-1,1.7-1,2.9c0,1.2,0.3,2.2,1,2.9
		c0.7,0.7,1.5,1,2.6,1c0.7,0,1.3-0.2,1.9-0.5c0.6-0.3,1-0.8,1.3-1.4s0.5-1.3,0.5-2.1c0-0.8-0.2-1.5-0.5-2.1
		c-0.3-0.6-0.7-1.1-1.3-1.4c-0.6-0.3-1.2-0.5-1.9-0.5C530.4,176.5,529.5,176.9,528.9,177.6z"/>
	<path d="M547.9,176c0.9,0.7,1.5,1.7,1.7,2.9h-1.9c-0.1-0.8-0.5-1.4-1.1-1.8c-0.6-0.4-1.3-0.7-2.2-0.7c-0.6,0-1.2,0.1-1.7,0.4
		c-0.5,0.3-0.9,0.7-1.2,1.3s-0.5,1.3-0.5,2.2c0,0.9,0.2,1.6,0.5,2.2s0.7,1,1.2,1.3c0.5,0.3,1.1,0.4,1.7,0.4c0.9,0,1.6-0.2,2.2-0.7
		c0.6-0.4,0.9-1,1.1-1.8h1.9c-0.2,1.2-0.8,2.2-1.7,2.9c-0.9,0.7-2,1.1-3.4,1.1c-1,0-1.9-0.2-2.7-0.7s-1.4-1.1-1.9-1.9
		s-0.7-1.8-0.7-2.9c0-1.1,0.2-2.1,0.7-2.9c0.4-0.8,1.1-1.5,1.9-1.9s1.7-0.7,2.7-0.7C545.9,174.9,547,175.3,547.9,176z"/>
	<path d="M557,184.2v1.6h-1.3c-1.1,0-1.9-0.3-2.5-0.8c-0.5-0.5-0.8-1.4-0.8-2.6v-5.8h-1.6v-1.5h1.6v-2.7h1.8v2.7h2.8v1.5h-2.8v5.8
		c0,0.7,0.1,1.2,0.4,1.4s0.7,0.4,1.3,0.4H557z"/>
	<path d="M568.7,175.1v10.7h-1.8v-2.5c-0.3,0.9-0.8,1.5-1.5,2c-0.7,0.5-1.5,0.7-2.4,0.7c-1.2,0-2.2-0.4-3-1.2
		c-0.8-0.8-1.2-2-1.2-3.4v-6.3h1.8v6.1c0,1.1,0.3,1.9,0.8,2.5c0.5,0.6,1.3,0.9,2.2,0.9c1,0,1.8-0.3,2.3-0.9c0.6-0.6,0.9-1.6,0.9-2.8
		v-5.7H568.7z"/>
	<path d="M578.6,175.7c0.7,0.5,1.2,1.2,1.5,2.1v-2.7h1.8v10.7h-1.8v-2.7c-0.3,0.9-0.8,1.6-1.5,2.1c-0.7,0.5-1.6,0.8-2.6,0.8
		c-1,0-1.8-0.2-2.5-0.7s-1.3-1.1-1.7-1.9c-0.4-0.8-0.6-1.8-0.6-2.9c0-1.1,0.2-2.1,0.6-2.9c0.4-0.8,1-1.5,1.7-1.9s1.6-0.7,2.5-0.7
		C577,174.9,577.9,175.2,578.6,175.7z M573.8,177.6c-0.7,0.7-1,1.7-1,2.9c0,1.2,0.3,2.2,1,2.9c0.7,0.7,1.5,1,2.6,1
		c0.7,0,1.3-0.2,1.9-0.5c0.6-0.3,1-0.8,1.3-1.4s0.5-1.3,0.5-2.1c0-0.8-0.2-1.5-0.5-2.1c-0.3-0.6-0.7-1.1-1.3-1.4
		c-0.6-0.3-1.2-0.5-1.9-0.5C575.4,176.5,574.5,176.9,573.8,177.6z"/>
	<path d="M588.1,175.5c0.7-0.4,1.5-0.6,2.4-0.6v1.9h-0.5c-1,0-1.8,0.3-2.5,0.8c-0.6,0.5-1,1.4-1,2.5v5.6h-1.8v-10.7h1.8v2.2
		C586.9,176.5,587.4,175.9,588.1,175.5z"/>
	<path d="M599.9,175.6c0.8,0.4,1.5,1.1,1.9,1.9c0.5,0.8,0.7,1.8,0.7,2.9c0,1.1-0.2,2.1-0.7,2.9c-0.5,0.8-1.1,1.5-1.9,1.9
		c-0.8,0.4-1.7,0.7-2.8,0.7c-1,0-2-0.2-2.8-0.7c-0.8-0.4-1.5-1.1-1.9-1.9c-0.5-0.8-0.7-1.8-0.7-2.9c0-1.1,0.2-2.1,0.7-2.9
		c0.5-0.8,1.1-1.5,1.9-1.9c0.8-0.4,1.7-0.7,2.8-0.7C598.1,174.9,599.1,175.2,599.9,175.6z M595.3,176.9c-0.5,0.3-1,0.7-1.3,1.3
		s-0.5,1.3-0.5,2.2c0,0.9,0.2,1.6,0.5,2.2s0.8,1,1.3,1.3c0.5,0.3,1.1,0.4,1.8,0.4c0.6,0,1.2-0.1,1.8-0.4c0.5-0.3,1-0.7,1.3-1.3
		s0.5-1.3,0.5-2.2c0-0.9-0.2-1.6-0.5-2.2s-0.8-1-1.3-1.3c-0.5-0.3-1.1-0.4-1.8-0.4C596.5,176.5,595.9,176.7,595.3,176.9z"/>
	<path d="M613.5,176.1c0.8,0.8,1.2,2,1.2,3.5v6.2h-1.8v-6.1c0-1.1-0.3-1.9-0.8-2.5c-0.5-0.6-1.3-0.9-2.2-0.9c-1,0-1.8,0.3-2.3,0.9
		c-0.6,0.6-0.9,1.6-0.9,2.8v5.7h-1.8v-10.7h1.8v2.5c0.3-0.9,0.8-1.5,1.5-2c0.7-0.5,1.5-0.7,2.4-0.7
		C611.7,174.9,612.7,175.3,613.5,176.1z"/>
	<path d="M630.3,176c0.9,0.7,1.5,1.7,1.7,2.9h-1.9c-0.1-0.8-0.5-1.4-1.1-1.8c-0.6-0.4-1.3-0.7-2.2-0.7c-0.6,0-1.2,0.1-1.7,0.4
		c-0.5,0.3-0.9,0.7-1.2,1.3s-0.5,1.3-0.5,2.2c0,0.9,0.2,1.6,0.5,2.2s0.7,1,1.2,1.3c0.5,0.3,1.1,0.4,1.7,0.4c0.9,0,1.6-0.2,2.2-0.7
		c0.6-0.4,0.9-1,1.1-1.8h1.9c-0.2,1.2-0.8,2.2-1.7,2.9c-0.9,0.7-2,1.1-3.4,1.1c-1,0-1.9-0.2-2.7-0.7c-0.8-0.4-1.4-1.1-1.9-1.9
		c-0.4-0.8-0.7-1.8-0.7-2.9c0-1.1,0.2-2.1,0.7-2.9c0.5-0.8,1.1-1.5,1.9-1.9c0.8-0.4,1.7-0.7,2.7-0.7
		C628.3,174.9,629.4,175.3,630.3,176z"/>
	<path d="M642,175.6c0.8,0.4,1.5,1.1,1.9,1.9c0.5,0.8,0.7,1.8,0.7,2.9c0,1.1-0.2,2.1-0.7,2.9c-0.5,0.8-1.1,1.5-1.9,1.9
		c-0.8,0.4-1.7,0.7-2.8,0.7c-1,0-2-0.2-2.8-0.7c-0.8-0.4-1.5-1.1-1.9-1.9c-0.5-0.8-0.7-1.8-0.7-2.9c0-1.1,0.2-2.1,0.7-2.9
		c0.5-0.8,1.1-1.5,1.9-1.9c0.8-0.4,1.7-0.7,2.8-0.7C640.2,174.9,641.1,175.2,642,175.6z M637.4,176.9c-0.5,0.3-1,0.7-1.3,1.3
		s-0.5,1.3-0.5,2.2c0,0.9,0.2,1.6,0.5,2.2s0.8,1,1.3,1.3c0.5,0.3,1.1,0.4,1.8,0.4c0.6,0,1.2-0.1,1.8-0.4c0.5-0.3,1-0.7,1.3-1.3
		s0.5-1.3,0.5-2.2c0-0.9-0.2-1.6-0.5-2.2s-0.8-1-1.3-1.3c-0.5-0.3-1.1-0.4-1.8-0.4C638.6,176.5,638,176.7,637.4,176.9z"/>
	<path d="M655.6,176.1c0.8,0.8,1.2,2,1.2,3.5v6.2h-1.8v-6.1c0-1.1-0.3-1.9-0.8-2.5c-0.5-0.6-1.3-0.9-2.2-0.9c-1,0-1.8,0.3-2.3,0.9
		c-0.6,0.6-0.9,1.6-0.9,2.8v5.7h-1.8v-10.7h1.8v2.5c0.3-0.9,0.8-1.5,1.5-2c0.7-0.5,1.5-0.7,2.4-0.7
		C653.8,174.9,654.8,175.3,655.6,176.1z"/>
</g>
<g>
	<path d="M410.2,210.8h-8.6c0,1.2,0.4,2.1,1,2.8c0.7,0.6,1.5,0.9,2.4,0.9c0.9,0,1.6-0.2,2.2-0.7c0.6-0.4,0.9-1,1.1-1.7h1.9
		c-0.1,0.7-0.4,1.4-0.9,2c-0.4,0.6-1,1-1.7,1.4s-1.5,0.5-2.4,0.5c-1,0-1.9-0.2-2.7-0.7s-1.4-1.1-1.9-1.9s-0.7-1.8-0.7-2.9
		c0-1.1,0.2-2.1,0.7-2.9c0.4-0.8,1.1-1.5,1.9-1.9s1.7-0.7,2.7-0.7c1,0,2,0.2,2.7,0.7c0.8,0.4,1.4,1,1.8,1.8c0.4,0.7,0.6,1.6,0.6,2.5
		C410.2,210.2,410.2,210.6,410.2,210.8z M408,208c-0.3-0.5-0.7-0.9-1.2-1.2c-0.5-0.3-1.1-0.4-1.7-0.4c-1,0-1.8,0.3-2.5,0.9
		c-0.7,0.6-1,1.5-1.1,2.7h6.9C408.5,209.2,408.3,208.5,408,208z"/>
	<path d="M414.3,201.4v14.5h-1.8v-14.5H414.3z"/>
	<path d="M432.7,207l-0.7,3.2h2.7v1.6h-3.1l-0.9,4h-1.7l0.9-4h-4.1l-0.9,4h-1.7l0.9-4h-3v-1.6h3.4l0.7-3.2h-3v-1.6h3.3l0.9-4h1.7
		l-0.9,4h4.1l0.9-4h1.7l-0.9,4h2.8v1.6H432.7z M431,207h-4.1l-0.7,3.2h4.1L431,207z"/>
	<path d="M448.1,203.1c1.1,0.8,1.8,1.9,2.2,3.2h-1.9c-0.3-0.8-0.9-1.5-1.6-2c-0.8-0.5-1.7-0.8-2.7-0.8c-0.9,0-1.8,0.2-2.5,0.7
		c-0.7,0.4-1.3,1.1-1.7,1.9s-0.6,1.8-0.6,2.9c0,1.1,0.2,2.1,0.6,2.9c0.4,0.8,1,1.4,1.8,1.9c0.8,0.4,1.6,0.7,2.6,0.7
		c0.8,0,1.6-0.2,2.3-0.5c0.7-0.4,1.3-0.9,1.7-1.6c0.4-0.7,0.7-1.5,0.8-2.5h-5.4v-1.3h6.9v1.6c-0.1,1.1-0.5,2.1-1,3s-1.3,1.6-2.3,2.1
		c-1,0.5-2,0.8-3.2,0.8c-1.3,0-2.5-0.3-3.5-0.9c-1-0.6-1.8-1.4-2.4-2.5s-0.8-2.3-0.8-3.6c0-1.4,0.3-2.6,0.8-3.6s1.4-1.9,2.4-2.5
		c1-0.6,2.2-0.9,3.5-0.9C445.7,201.9,447,202.3,448.1,203.1z"/>
	<path d="M454.8,214.4h4.9v1.4H453V202h1.8V214.4z"/>
	<path d="M471.3,202.8c1,0.6,1.8,1.4,2.4,2.5c0.6,1.1,0.9,2.3,0.9,3.6s-0.3,2.6-0.9,3.6c-0.6,1.1-1.4,1.9-2.4,2.5
		c-1,0.6-2.2,0.9-3.4,0.9c-1.3,0-2.4-0.3-3.5-0.9c-1-0.6-1.8-1.4-2.4-2.5c-0.6-1.1-0.9-2.3-0.9-3.6s0.3-2.6,0.9-3.6
		c0.6-1.1,1.4-1.9,2.4-2.5c1-0.6,2.2-0.9,3.5-0.9C469.1,201.9,470.3,202.2,471.3,202.8z M465.3,204.2c-0.7,0.4-1.3,1.1-1.8,1.9
		c-0.4,0.8-0.6,1.8-0.6,2.9c0,1.1,0.2,2,0.6,2.9c0.4,0.8,1,1.4,1.8,1.9c0.7,0.4,1.6,0.7,2.5,0.7c0.9,0,1.8-0.2,2.5-0.7
		c0.7-0.4,1.3-1.1,1.8-1.9c0.4-0.8,0.6-1.8,0.6-2.8c0-1.1-0.2-2-0.6-2.9c-0.4-0.8-1-1.4-1.8-1.9c-0.7-0.4-1.6-0.7-2.5-0.7
		C466.9,203.5,466,203.7,465.3,204.2z"/>
	<path d="M478.7,202v8.3c0,1.4,0.3,2.4,0.9,3s1.4,1,2.5,1c1,0,1.9-0.3,2.4-1c0.6-0.7,0.9-1.6,0.9-3V202h1.8v8.3
		c0,1.9-0.5,3.3-1.4,4.2s-2.2,1.4-3.7,1.4c-1.6,0-2.8-0.5-3.7-1.4c-0.9-0.9-1.4-2.4-1.4-4.2V202H478.7z"/>
	<path d="M500.7,212.6c-0.6,1-1.4,1.8-2.5,2.4s-2.4,0.8-3.9,0.8h-4.4V202h4.4c1.5,0,2.8,0.3,3.9,0.8s1.9,1.3,2.5,2.4
		c0.6,1,0.8,2.3,0.8,3.7C501.5,210.3,501.2,211.5,500.7,212.6z M498.3,212.8c1-0.9,1.4-2.2,1.4-3.9c0-1.7-0.5-3-1.4-3.9
		c-0.9-0.9-2.3-1.4-4.1-1.4h-2.5v10.6h2.5C495.9,214.2,497.3,213.8,498.3,212.8z"/>
	<path d="M515.8,205.7c0.7,0.5,1.2,1.2,1.5,2.1v-6.5h1.8v14.5h-1.8v-2.7c-0.3,0.9-0.8,1.6-1.5,2.1c-0.7,0.5-1.6,0.8-2.6,0.8
		c-1,0-1.8-0.2-2.5-0.7c-0.7-0.4-1.3-1.1-1.7-1.9c-0.4-0.8-0.6-1.8-0.6-2.9c0-1.1,0.2-2.1,0.6-2.9c0.4-0.8,1-1.5,1.7-1.9
		c0.7-0.4,1.6-0.7,2.5-0.7C514.2,205,515,205.2,515.8,205.7z M511,207.6c-0.7,0.7-1,1.7-1,2.9c0,1.2,0.3,2.2,1,2.9
		c0.7,0.7,1.5,1,2.6,1c0.7,0,1.3-0.2,1.9-0.5c0.6-0.3,1-0.8,1.3-1.4s0.5-1.3,0.5-2.1c0-0.8-0.2-1.5-0.5-2.1
		c-0.3-0.6-0.7-1.1-1.3-1.4c-0.6-0.3-1.2-0.5-1.9-0.5C512.5,206.5,511.7,206.9,511,207.6z"/>
	<path d="M531.4,205.1v10.7h-1.8v-2.5c-0.3,0.9-0.8,1.5-1.5,2s-1.5,0.7-2.4,0.7c-1.2,0-2.2-0.4-3-1.2c-0.8-0.8-1.2-2-1.2-3.4v-6.3
		h1.8v6.1c0,1.1,0.3,1.9,0.8,2.5c0.5,0.6,1.3,0.9,2.2,0.9c1,0,1.8-0.3,2.3-0.9c0.6-0.6,0.9-1.6,0.9-2.8v-5.7H531.4z"/>
	<path d="M537.6,205.5c0.7-0.4,1.5-0.6,2.4-0.6v1.9h-0.5c-1,0-1.8,0.3-2.5,0.8c-0.6,0.5-1,1.4-1,2.5v5.6h-1.8v-10.7h1.8v2.2
		C536.4,206.5,536.9,205.9,537.6,205.5z"/>
	<path d="M548.8,205.7c0.7,0.5,1.2,1.2,1.5,2.1v-2.7h1.8v10.7h-1.8v-2.7c-0.3,0.9-0.8,1.6-1.5,2.1c-0.7,0.5-1.6,0.8-2.6,0.8
		c-1,0-1.8-0.2-2.5-0.7c-0.7-0.4-1.3-1.1-1.7-1.9c-0.4-0.8-0.6-1.8-0.6-2.9c0-1.1,0.2-2.1,0.6-2.9c0.4-0.8,1-1.5,1.7-1.9
		c0.7-0.4,1.6-0.7,2.5-0.7C547.2,205,548.1,205.2,548.8,205.7z M544.1,207.6c-0.7,0.7-1,1.7-1,2.9c0,1.2,0.3,2.2,1,2.9
		c0.7,0.7,1.5,1,2.6,1c0.7,0,1.3-0.2,1.9-0.5c0.6-0.3,1-0.8,1.3-1.4c0.3-0.6,0.5-1.3,0.5-2.1c0-0.8-0.2-1.5-0.5-2.1
		c-0.3-0.6-0.7-1.1-1.3-1.4c-0.6-0.3-1.2-0.5-1.9-0.5C545.6,206.5,544.7,206.9,544.1,207.6z"/>
	<path d="M563.6,206.1c0.8,0.8,1.2,2,1.2,3.5v6.2H563v-6.1c0-1.1-0.3-1.9-0.8-2.5c-0.5-0.6-1.3-0.9-2.2-0.9c-1,0-1.8,0.3-2.3,0.9
		c-0.6,0.6-0.9,1.6-0.9,2.8v5.7h-1.8v-10.7h1.8v2.5c0.3-0.9,0.8-1.5,1.5-2c0.7-0.5,1.5-0.7,2.4-0.7
		C561.8,204.9,562.9,205.3,563.6,206.1z"/>
	<path d="M572.6,214.3v1.6h-1.3c-1.1,0-1.9-0.3-2.5-0.8c-0.5-0.5-0.8-1.4-0.8-2.6v-5.8h-1.6v-1.5h1.6v-2.7h1.8v2.7h2.8v1.5h-2.8v5.8
		c0,0.7,0.1,1.2,0.4,1.4s0.7,0.4,1.3,0.4H572.6z"/>
	<path d="M584.6,210.8H576c0,1.2,0.4,2.1,1,2.8c0.7,0.6,1.5,0.9,2.4,0.9c0.9,0,1.6-0.2,2.2-0.7c0.6-0.4,0.9-1,1.1-1.7h1.9
		c-0.1,0.7-0.4,1.4-0.9,2c-0.4,0.6-1,1-1.7,1.4c-0.7,0.3-1.5,0.5-2.4,0.5c-1,0-1.9-0.2-2.7-0.7c-0.8-0.4-1.4-1.1-1.9-1.9
		c-0.4-0.8-0.7-1.8-0.7-2.9c0-1.1,0.2-2.1,0.7-2.9c0.5-0.8,1.1-1.5,1.9-1.9c0.8-0.4,1.7-0.7,2.7-0.7c1,0,2,0.2,2.7,0.7
		c0.8,0.4,1.4,1,1.8,1.8c0.4,0.7,0.6,1.6,0.6,2.5C584.7,210.2,584.6,210.6,584.6,210.8z M582.5,208c-0.3-0.5-0.7-0.9-1.2-1.2
		c-0.5-0.3-1.1-0.4-1.7-0.4c-1,0-1.8,0.3-2.5,0.9c-0.7,0.6-1,1.5-1.1,2.7h6.9C582.9,209.2,582.8,208.5,582.5,208z"/>
	<path d="M601.6,210.8H593c0,1.2,0.4,2.1,1,2.8c0.7,0.6,1.5,0.9,2.4,0.9c0.9,0,1.6-0.2,2.2-0.7c0.6-0.4,0.9-1,1.1-1.7h1.9
		c-0.1,0.7-0.4,1.4-0.9,2c-0.4,0.6-1,1-1.7,1.4c-0.7,0.3-1.5,0.5-2.4,0.5c-1,0-1.9-0.2-2.7-0.7c-0.8-0.4-1.4-1.1-1.9-1.9
		c-0.4-0.8-0.7-1.8-0.7-2.9c0-1.1,0.2-2.1,0.7-2.9c0.5-0.8,1.1-1.5,1.9-1.9c0.8-0.4,1.7-0.7,2.7-0.7c1,0,2,0.2,2.7,0.7
		c0.8,0.4,1.4,1,1.8,1.8c0.4,0.7,0.6,1.6,0.6,2.5C601.7,210.2,601.7,210.6,601.6,210.8z M599.5,208c-0.3-0.5-0.7-0.9-1.2-1.2
		c-0.5-0.3-1.1-0.4-1.7-0.4c-1,0-1.8,0.3-2.5,0.9c-0.7,0.6-1,1.5-1.1,2.7h6.9C599.9,209.2,599.8,208.5,599.5,208z"/>
	<path d="M605.8,201.4v14.5H604v-14.5H605.8z"/>
	<path d="M623.2,210.8h-8.6c0,1.2,0.4,2.1,1,2.8c0.7,0.6,1.5,0.9,2.4,0.9c0.9,0,1.6-0.2,2.2-0.7c0.6-0.4,0.9-1,1.1-1.7h1.9
		c-0.1,0.7-0.4,1.4-0.9,2c-0.4,0.6-1,1-1.7,1.4c-0.7,0.3-1.5,0.5-2.4,0.5c-1,0-1.9-0.2-2.7-0.7c-0.8-0.4-1.4-1.1-1.9-1.9
		c-0.4-0.8-0.7-1.8-0.7-2.9c0-1.1,0.2-2.1,0.7-2.9c0.5-0.8,1.1-1.5,1.9-1.9c0.8-0.4,1.7-0.7,2.7-0.7c1,0,2,0.2,2.7,0.7
		c0.8,0.4,1.4,1,1.8,1.8c0.4,0.7,0.6,1.6,0.6,2.5C623.3,210.2,623.3,210.6,623.2,210.8z M621.1,208c-0.3-0.5-0.7-0.9-1.2-1.2
		c-0.5-0.3-1.1-0.4-1.7-0.4c-1,0-1.8,0.3-2.5,0.9c-0.7,0.6-1,1.5-1.1,2.7h6.9C621.6,209.2,621.4,208.5,621.1,208z"/>
	<path d="M629.8,213.9l3.3-8.8h1.9l-4.2,10.7h-2.1l-4.2-10.7h1.9L629.8,213.9z"/>
	<path d="M646.6,210.8H638c0,1.2,0.4,2.1,1,2.8c0.7,0.6,1.5,0.9,2.4,0.9c0.9,0,1.6-0.2,2.2-0.7c0.6-0.4,0.9-1,1.1-1.7h1.9
		c-0.1,0.7-0.4,1.4-0.9,2c-0.4,0.6-1,1-1.7,1.4c-0.7,0.3-1.5,0.5-2.4,0.5c-1,0-1.9-0.2-2.7-0.7c-0.8-0.4-1.4-1.1-1.9-1.9
		c-0.4-0.8-0.7-1.8-0.7-2.9c0-1.1,0.2-2.1,0.7-2.9c0.5-0.8,1.1-1.5,1.9-1.9c0.8-0.4,1.7-0.7,2.7-0.7c1,0,2,0.2,2.7,0.7
		c0.8,0.4,1.4,1,1.8,1.8c0.4,0.7,0.6,1.6,0.6,2.5C646.7,210.2,646.6,210.6,646.6,210.8z M644.5,208c-0.3-0.5-0.7-0.9-1.2-1.2
		c-0.5-0.3-1.1-0.4-1.7-0.4c-1,0-1.8,0.3-2.5,0.9c-0.7,0.6-1,1.5-1.1,2.7h6.9C644.9,209.2,644.8,208.5,644.5,208z"/>
	<path d="M657.7,206.1c0.8,0.8,1.2,2,1.2,3.5v6.2H657v-6.1c0-1.1-0.3-1.9-0.8-2.5c-0.5-0.6-1.3-0.9-2.2-0.9c-1,0-1.8,0.3-2.3,0.9
		c-0.6,0.6-0.9,1.6-0.9,2.8v5.7H649v-10.7h1.8v2.5c0.3-0.9,0.8-1.5,1.5-2c0.7-0.5,1.5-0.7,2.4-0.7
		C655.9,204.9,656.9,205.3,657.7,206.1z"/>
	<path d="M666.7,214.3v1.6h-1.3c-1.1,0-1.9-0.3-2.5-0.8c-0.5-0.5-0.8-1.4-0.8-2.6v-5.8h-1.6v-1.5h1.6v-2.7h1.8v2.7h2.8v1.5h-2.8v5.8
		c0,0.7,0.1,1.2,0.4,1.4s0.7,0.4,1.3,0.4H666.7z"/>
	<path d="M676.5,205.6c0.8,0.4,1.5,1.1,1.9,1.9c0.5,0.8,0.7,1.8,0.7,2.9c0,1.1-0.2,2.1-0.7,2.9c-0.5,0.8-1.1,1.5-1.9,1.9
		c-0.8,0.4-1.7,0.7-2.8,0.7c-1,0-2-0.2-2.8-0.7c-0.8-0.4-1.5-1.1-1.9-1.9c-0.5-0.8-0.7-1.8-0.7-2.9c0-1.1,0.2-2.1,0.7-2.9
		c0.5-0.8,1.1-1.5,1.9-1.9c0.8-0.4,1.7-0.7,2.8-0.7C674.7,205,675.6,205.2,676.5,205.6z M671.9,206.9c-0.5,0.3-1,0.7-1.3,1.3
		s-0.5,1.3-0.5,2.2c0,0.9,0.2,1.6,0.5,2.2s0.8,1,1.3,1.3c0.5,0.3,1.1,0.4,1.8,0.4c0.6,0,1.2-0.1,1.8-0.4c0.5-0.3,1-0.7,1.3-1.3
		s0.5-1.3,0.5-2.2c0-0.9-0.2-1.6-0.5-2.2s-0.8-1-1.3-1.3c-0.5-0.3-1.1-0.4-1.8-0.4C673.1,206.5,672.5,206.7,671.9,206.9z"/>
	<path d="M682.7,213.7v2.1h-2.1v-2.1H682.7z"/>
</g>
<rect x="744.1" fill="#FFFFFF" width="355.8" height="255"/>
<g>
	<path fill="#0000F5" d="M769.8,54.5c-1-1.1-1.5-2.9-1.5-5.2v-0.4h5.2c0,1.2,0.1,2,0.3,2.5c0.2,0.5,0.7,0.7,1.4,0.7
		c0.5,0,0.9-0.2,1.1-0.5c0.2-0.3,0.4-0.8,0.5-1.6c0.1-0.7,0.1-1.8,0.1-3.3v-2.4c-0.3,0.5-0.7,0.8-1.4,1.1c-0.6,0.3-1.3,0.4-2.1,0.4
		c-1.9,0-3.4-0.8-4.3-2.3c-0.9-1.5-1.4-3.4-1.4-5.8c0-2.9,0.6-5.2,1.7-6.8c1.2-1.6,3-2.4,5.6-2.4c2.5,0,4.4,0.7,5.6,2.2
		s1.8,3.6,1.8,6.3v10c0,2.9-0.5,5.1-1.6,6.7s-3,2.4-5.8,2.4C772.6,56.2,770.8,55.6,769.8,54.5z M776.9,40.4v-4.4
		c0-1.1-0.1-1.9-0.4-2.5s-0.7-0.9-1.4-0.9c-0.7,0-1.2,0.3-1.4,1c-0.2,0.7-0.3,1.9-0.3,3.5c0,1.1,0,1.9,0.1,2.5
		c0.1,0.6,0.2,1,0.5,1.4c0.2,0.3,0.6,0.5,1.2,0.5C775.8,41.5,776.4,41.2,776.9,40.4z"/>
	<path fill="#0000F5" d="M787.3,54c-1.2-1.5-1.7-3.5-1.7-6.1c0-1.4,0.3-2.7,0.8-3.8s1.3-1.9,2.3-2.4c-0.8-0.6-1.4-1.4-1.9-2.4
		c-0.5-1-0.8-2.3-0.8-3.7c0-2.2,0.6-3.9,1.8-5.1s2.9-1.8,5.1-1.8s3.9,0.6,5.1,1.8c1.2,1.2,1.8,2.9,1.8,5c0,1.5-0.2,2.8-0.7,3.9
		s-1.1,1.8-1.9,2.4c1,0.5,1.8,1.3,2.3,2.5c0.5,1.2,0.8,2.5,0.8,4c0,2.5-0.6,4.5-1.8,5.9s-3,2.1-5.6,2.1
		C790.3,56.2,788.5,55.5,787.3,54z M794.2,51.4c0.3-0.5,0.4-1,0.5-1.6c0.1-0.6,0.1-1.3,0.1-2.1c0-1.2-0.1-2.1-0.4-2.7
		c-0.3-0.7-0.8-1-1.5-1c-0.8,0-1.3,0.4-1.5,1.1c-0.2,0.7-0.4,1.8-0.4,3.1c0,1.1,0.1,2,0.4,2.8c0.2,0.8,0.8,1.1,1.5,1.1
		C793.5,52.1,794,51.9,794.2,51.4z M794.6,35.6c0-0.9-0.1-1.6-0.4-2.2s-0.7-0.8-1.2-0.8c-0.6,0-1,0.3-1.3,0.8
		c-0.3,0.5-0.4,1.2-0.4,2.1c0,2.7,0.6,4.1,1.7,4.1C794,39.6,794.6,38.3,794.6,35.6z"/>
	<path fill="#0000F5" d="M812.1,28.9h9c2.4,0,4.1,0.7,5.3,2c1.2,1.3,1.8,3.3,1.8,5.8c0,2.9-0.7,4.9-2,6s-3.3,1.7-5.7,1.7h-2.4v11.4
		h-5.9V28.9z M820,40.2c1,0,1.7-0.3,2.1-0.8c0.3-0.6,0.5-1.5,0.5-2.8c0-1.2-0.2-2.1-0.5-2.7c-0.3-0.6-1-0.9-2.1-0.9h-2v7.1H820z"/>
	<path fill="#0000F5" d="M834.1,55.2c-1.2-0.7-2-1.6-2.5-2.9c-0.5-1.3-0.7-2.9-0.7-4.9V28.9h5.9v19.5c0,1.1,0.1,1.9,0.4,2.6
		c0.3,0.6,0.8,1,1.7,1s1.4-0.3,1.7-1s0.4-1.5,0.4-2.6V28.9h5.9v18.6c0,2-0.2,3.6-0.7,4.9c-0.5,1.3-1.3,2.2-2.5,2.9
		c-1.2,0.7-2.8,1-4.8,1S835.2,55.9,834.1,55.2z"/>
	<path fill="#0000F5" d="M850.6,28.9h7c1.7,0,3.2,0.2,4.5,0.5c1.2,0.4,2.2,1.1,3,2.1s1.1,2.5,1.1,4.4c0,1.6-0.3,2.8-1,3.7
		s-1.7,1.5-2.9,1.7c1.5,0.2,2.7,0.9,3.6,2c0.8,1.1,1.2,2.6,1.2,4.5c0,5.3-2.7,8-8.1,8h-8.3V28.9z M857.7,39.6c1.3,0,2.1-0.3,2.6-0.9
		c0.5-0.6,0.7-1.5,0.7-2.7c0-1.1-0.3-1.9-0.9-2.4c-0.6-0.5-1.4-0.8-2.5-0.8h-1v6.8H857.7z M857.8,51.6c1.3,0,2.2-0.3,2.7-0.9
		c0.5-0.6,0.8-1.6,0.8-3c0-1.5-0.3-2.6-0.8-3.2s-1.4-0.9-2.7-0.9h-1.2v8.1H857.8z"/>
	<path fill="#0000F5" d="M870.1,28.9h5.9v22.9h6.2v4h-12.1V28.9z"/>
	<path fill="#0000F5" d="M884.9,28.9h5.9v26.9h-5.9V28.9z"/>
	<path fill="#0000F5" d="M896.3,53.9c-1.2-1.5-1.8-3.8-1.8-6.7v-9.7c0-3,0.6-5.2,1.8-6.7c1.2-1.5,3.3-2.3,6.2-2.3c2.8,0,4.8,0.7,6,2
		c1.2,1.4,1.8,3.3,1.8,5.7v2.3h-5.8v-2.7c0-1-0.1-1.8-0.3-2.4s-0.8-0.8-1.6-0.8s-1.4,0.3-1.7,0.9s-0.4,1.4-0.4,2.4v12.7
		c0,1.1,0.1,1.9,0.4,2.4c0.3,0.6,0.8,0.8,1.6,0.8s1.3-0.3,1.6-0.8s0.3-1.4,0.3-2.4v-2.8h5.8v2.3c0,2.5-0.6,4.5-1.8,5.9
		c-1.2,1.4-3.2,2.1-6,2.1C899.6,56.2,897.6,55.4,896.3,53.9z"/>
	<path fill="#0000F5" d="M917.4,28.9h6.8l5,26.9h-5.5l-0.9-5.7h-4l-0.9,5.7h-5.6L917.4,28.9z M922.2,46.6l-1.4-10.5l-1.4,10.5H922.2
		z"/>
	<path fill="#0000F5" d="M932.9,53.9c-1.2-1.5-1.8-3.8-1.8-6.7v-9.7c0-3,0.6-5.2,1.8-6.7c1.2-1.5,3.3-2.3,6.2-2.3c2.8,0,4.8,0.7,6,2
		c1.2,1.4,1.8,3.3,1.8,5.7v2.3h-5.8v-2.7c0-1-0.1-1.8-0.3-2.4s-0.8-0.8-1.6-0.8s-1.4,0.3-1.7,0.9s-0.4,1.4-0.4,2.4v12.7
		c0,1.1,0.1,1.9,0.4,2.4c0.3,0.6,0.8,0.8,1.6,0.8s1.3-0.3,1.6-0.8s0.3-1.4,0.3-2.4v-2.8h5.8v2.3c0,2.5-0.6,4.5-1.8,5.9
		c-1.2,1.4-3.2,2.1-6,2.1C936.2,56.2,934.2,55.4,932.9,53.9z"/>
	<path fill="#0000F5" d="M950.2,28.9h5.9v26.9h-5.9V28.9z"/>
	<path fill="#0000F5" d="M961.6,53.9c-1.2-1.5-1.9-3.7-1.9-6.6v-10c0-2.9,0.6-5.1,1.9-6.6c1.2-1.5,3.3-2.2,6.2-2.2
		c2.9,0,5,0.7,6.3,2.2c1.3,1.5,1.9,3.7,1.9,6.6v10c0,2.9-0.6,5.1-1.9,6.6c-1.3,1.5-3.3,2.2-6.3,2.2C965,56.2,962.9,55.4,961.6,53.9z
		 M969.5,51.1c0.3-0.6,0.4-1.3,0.4-2.3v-13c0-1-0.1-1.8-0.4-2.3s-0.8-0.8-1.7-0.8c-0.8,0-1.3,0.3-1.6,0.8s-0.4,1.3-0.4,2.3v13
		c0,1,0.1,1.7,0.4,2.3c0.2,0.6,0.8,0.8,1.6,0.8S969.3,51.7,969.5,51.1z"/>
	<path fill="#0000F5" d="M979.6,28.9h4.2l5.5,13v-13h4.9v26.9h-4l-5.5-14v14h-5.1V28.9z"/>
	<path fill="#0000F5" d="M998.3,28.9h12.1v4.1h-6.1v6.7h4.7v4.1h-4.7v8h6.2v4h-12.2V28.9z"/>
	<path fill="#0000F5" d="M1014.5,54.1c-1.3-1.4-1.9-3.5-2-6.5l5.1-0.8c0,1.7,0.2,2.9,0.6,3.7s1,1.1,1.7,1.1c1,0,1.5-0.7,1.5-2
		c0-1-0.2-1.9-0.7-2.7c-0.5-0.8-1.2-1.6-2.2-2.4l-2.3-2c-1.2-1-2-2-2.7-3.1c-0.6-1.1-0.9-2.4-0.9-3.9c0-2.3,0.7-4,2-5.2
		c1.3-1.2,3.2-1.8,5.5-1.8c2.5,0,4.3,0.7,5.2,2.2c0.9,1.5,1.4,3.3,1.5,5.4l-5.1,0.6c0-1.4-0.2-2.4-0.4-3c-0.2-0.6-0.7-0.9-1.4-0.9
		c-0.5,0-0.9,0.2-1.2,0.6c-0.3,0.4-0.4,0.9-0.4,1.4c0,0.9,0.2,1.7,0.6,2.3c0.4,0.6,1.1,1.3,2,2.1l2.2,2c1.3,1.1,2.4,2.3,3.1,3.6
		c0.7,1.3,1.1,2.8,1.1,4.5c0,1.3-0.3,2.4-0.9,3.4c-0.6,1-1.4,1.8-2.5,2.4c-1.1,0.6-2.3,0.9-3.7,0.9
		C1017.7,56.2,1015.8,55.5,1014.5,54.1z"/>
	<path fill="#0000F5" d="M1030.4,37.1h5.1v5h-5.1V37.1z M1030.4,48.9h5.1v5h-5.1V48.9z"/>
</g>
<g>
	<path d="M772.6,120c1.3-1.5,2-2.8,2-4.1c0-0.8-0.2-1.4-0.6-1.9c-0.4-0.5-1-0.7-1.9-0.7c-0.9,0-1.6,0.3-2.1,0.9
		c-0.5,0.6-0.7,1.4-0.8,2.4h-1.8c0.1-1.5,0.6-2.7,1.4-3.5c0.9-0.8,2-1.2,3.3-1.2c1.3,0,2.3,0.3,3.1,1c0.8,0.7,1.1,1.7,1.1,2.9
		c0,1-0.3,2.1-1,3.2s-1.5,2.1-2.5,3c-1,0.9-2,1.7-3.1,2.3h7v1.5h-9.5v-1.3C769.5,122.9,771.2,121.5,772.6,120z"/>
	<path d="M777.8,113.7V112h3.9v13.8h-1.9v-12.1H777.8z"/>
	<path d="M797.8,115.6c0.7,0.4,1.3,1.1,1.7,1.9c0.4,0.8,0.6,1.8,0.6,2.9c0,1.1-0.2,2.1-0.6,2.9c-0.4,0.8-1,1.5-1.7,1.9
		s-1.6,0.7-2.5,0.7c-1,0-1.9-0.3-2.6-0.8c-0.7-0.5-1.2-1.2-1.5-2.1v7.8h-1.8v-15.8h1.8v2.7c0.3-0.9,0.8-1.6,1.5-2.1
		c0.7-0.5,1.6-0.8,2.6-0.8C796.2,114.9,797.1,115.2,797.8,115.6z M792.9,117c-0.6,0.3-1,0.8-1.3,1.4c-0.3,0.6-0.5,1.3-0.5,2.1
		c0,0.8,0.2,1.5,0.5,2.1s0.7,1.1,1.3,1.4c0.6,0.3,1.2,0.5,1.9,0.5c1.1,0,2-0.3,2.6-1c0.7-0.7,1-1.7,1-2.9c0-1.2-0.3-2.2-1-2.9
		c-0.7-0.7-1.5-1-2.6-1C794.1,116.5,793.5,116.7,792.9,117z"/>
	<path d="M812.3,120.8h-8.6c0,1.2,0.4,2.1,1,2.8c0.7,0.6,1.5,0.9,2.4,0.9c0.9,0,1.6-0.2,2.2-0.7c0.6-0.4,0.9-1,1.1-1.7h1.9
		c-0.1,0.7-0.4,1.4-0.9,2c-0.4,0.6-1,1-1.7,1.4c-0.7,0.3-1.5,0.5-2.4,0.5c-1,0-1.9-0.2-2.7-0.7c-0.8-0.4-1.4-1.1-1.9-1.9
		c-0.4-0.8-0.7-1.8-0.7-2.9c0-1.1,0.2-2.1,0.7-2.9c0.5-0.8,1.1-1.5,1.9-1.9c0.8-0.4,1.7-0.7,2.7-0.7c1,0,2,0.2,2.7,0.7
		c0.8,0.4,1.4,1,1.8,1.8c0.4,0.7,0.6,1.6,0.6,2.5C812.4,120.2,812.4,120.5,812.3,120.8z M810.2,118c-0.3-0.5-0.7-0.9-1.2-1.2
		c-0.5-0.3-1.1-0.4-1.7-0.4c-1,0-1.8,0.3-2.5,0.9c-0.7,0.6-1,1.5-1.1,2.7h6.9C810.6,119.2,810.5,118.5,810.2,118z"/>
	<path d="M818,115.5c0.7-0.4,1.5-0.6,2.4-0.6v1.9h-0.5c-1,0-1.8,0.3-2.5,0.8c-0.6,0.5-1,1.4-1,2.5v5.6h-1.8v-10.7h1.8v2.2
		C816.9,116.5,817.4,115.9,818,115.5z"/>
	<path d="M827.3,124.2v1.6H826c-1.1,0-1.9-0.3-2.5-0.8c-0.5-0.5-0.8-1.4-0.8-2.6v-5.8h-1.6v-1.5h1.6v-2.7h1.8v2.7h2.8v1.5h-2.8v5.8
		c0,0.7,0.1,1.2,0.4,1.4s0.7,0.4,1.3,0.4H827.3z"/>
	<path d="M839.3,120.8h-8.6c0,1.2,0.4,2.1,1,2.8c0.7,0.6,1.5,0.9,2.4,0.9c0.9,0,1.6-0.2,2.2-0.7c0.6-0.4,0.9-1,1.1-1.7h1.9
		c-0.1,0.7-0.4,1.4-0.9,2c-0.4,0.6-1,1-1.7,1.4c-0.7,0.3-1.5,0.5-2.4,0.5c-1,0-1.9-0.2-2.7-0.7c-0.8-0.4-1.4-1.1-1.9-1.9
		c-0.4-0.8-0.7-1.8-0.7-2.9c0-1.1,0.2-2.1,0.7-2.9c0.5-0.8,1.1-1.5,1.9-1.9c0.8-0.4,1.7-0.7,2.7-0.7c1,0,2,0.2,2.7,0.7
		c0.8,0.4,1.4,1,1.8,1.8c0.4,0.7,0.6,1.6,0.6,2.5C839.4,120.2,839.4,120.5,839.3,120.8z M837.2,118c-0.3-0.5-0.7-0.9-1.2-1.2
		c-0.5-0.3-1.1-0.4-1.7-0.4c-1,0-1.8,0.3-2.5,0.9c-0.7,0.6-1,1.5-1.1,2.7h6.9C837.6,119.2,837.5,118.5,837.2,118z"/>
	<path d="M850.4,116.1c0.8,0.8,1.2,2,1.2,3.5v6.2h-1.8v-6.1c0-1.1-0.3-1.9-0.8-2.5c-0.5-0.6-1.3-0.9-2.2-0.9c-1,0-1.8,0.3-2.3,0.9
		c-0.6,0.6-0.9,1.6-0.9,2.8v5.7h-1.8v-10.7h1.8v2.5c0.3-0.9,0.8-1.5,1.5-2c0.7-0.5,1.5-0.7,2.4-0.7
		C848.6,114.9,849.6,115.3,850.4,116.1z"/>
	<path d="M864.1,120.8h-8.6c0,1.2,0.4,2.1,1,2.8c0.7,0.6,1.5,0.9,2.4,0.9c0.9,0,1.6-0.2,2.2-0.7c0.6-0.4,0.9-1,1.1-1.7h1.9
		c-0.1,0.7-0.4,1.4-0.9,2c-0.4,0.6-1,1-1.7,1.4c-0.7,0.3-1.5,0.5-2.4,0.5c-1,0-1.9-0.2-2.7-0.7c-0.8-0.4-1.4-1.1-1.9-1.9
		c-0.4-0.8-0.7-1.8-0.7-2.9c0-1.1,0.2-2.1,0.7-2.9c0.5-0.8,1.1-1.5,1.9-1.9c0.8-0.4,1.7-0.7,2.7-0.7c1,0,2,0.2,2.7,0.7
		c0.8,0.4,1.4,1,1.8,1.8c0.4,0.7,0.6,1.6,0.6,2.5C864.1,120.2,864.1,120.5,864.1,120.8z M861.9,118c-0.3-0.5-0.7-0.9-1.2-1.2
		c-0.5-0.3-1.1-0.4-1.7-0.4c-1,0-1.8,0.3-2.5,0.9c-0.7,0.6-1,1.5-1.1,2.7h6.9C862.4,119.2,862.2,118.5,861.9,118z"/>
	<path d="M874.6,116c0.9,0.7,1.5,1.7,1.7,2.9h-1.9c-0.1-0.8-0.5-1.4-1.1-1.8c-0.6-0.4-1.3-0.7-2.2-0.7c-0.6,0-1.2,0.1-1.7,0.4
		c-0.5,0.3-0.9,0.7-1.2,1.3s-0.5,1.3-0.5,2.2c0,0.9,0.2,1.6,0.5,2.2s0.7,1,1.2,1.3c0.5,0.3,1.1,0.4,1.7,0.4c0.9,0,1.6-0.2,2.2-0.7
		c0.6-0.4,0.9-1,1.1-1.8h1.9c-0.2,1.2-0.8,2.2-1.7,2.9c-0.9,0.7-2,1.1-3.4,1.1c-1,0-1.9-0.2-2.7-0.7c-0.8-0.4-1.4-1.1-1.9-1.9
		c-0.4-0.8-0.7-1.8-0.7-2.9c0-1.1,0.2-2.1,0.7-2.9c0.5-0.8,1.1-1.5,1.9-1.9c0.8-0.4,1.7-0.7,2.7-0.7
		C872.6,114.9,873.7,115.3,874.6,116z"/>
	<path d="M878.6,111.1c0.2-0.2,0.5-0.3,0.9-0.3c0.4,0,0.7,0.1,0.9,0.3c0.2,0.2,0.3,0.5,0.3,0.8c0,0.3-0.1,0.6-0.3,0.8
		s-0.5,0.3-0.9,0.3c-0.4,0-0.7-0.1-0.9-0.3c-0.2-0.2-0.3-0.5-0.3-0.8C878.3,111.6,878.4,111.3,878.6,111.1z M880.4,115.1v10.7h-1.8
		v-10.7H880.4z"/>
	<path d="M893,120.8h-8.6c0,1.2,0.4,2.1,1,2.8c0.7,0.6,1.5,0.9,2.4,0.9c0.9,0,1.6-0.2,2.2-0.7c0.6-0.4,0.9-1,1.1-1.7h1.9
		c-0.1,0.7-0.4,1.4-0.9,2c-0.4,0.6-1,1-1.7,1.4c-0.7,0.3-1.5,0.5-2.4,0.5c-1,0-1.9-0.2-2.7-0.7c-0.8-0.4-1.4-1.1-1.9-1.9
		c-0.4-0.8-0.7-1.8-0.7-2.9c0-1.1,0.2-2.1,0.7-2.9c0.5-0.8,1.1-1.5,1.9-1.9c0.8-0.4,1.7-0.7,2.7-0.7c1,0,2,0.2,2.7,0.7
		c0.8,0.4,1.4,1,1.8,1.8c0.4,0.7,0.6,1.6,0.6,2.5C893.1,120.2,893.1,120.5,893,120.8z M890.9,118c-0.3-0.5-0.7-0.9-1.2-1.2
		c-0.5-0.3-1.1-0.4-1.7-0.4c-1,0-1.8,0.3-2.5,0.9c-0.7,0.6-1,1.5-1.1,2.7h6.9C891.3,119.2,891.2,118.5,890.9,118z"/>
	<path d="M904.1,116.1c0.8,0.8,1.2,2,1.2,3.5v6.2h-1.8v-6.1c0-1.1-0.3-1.9-0.8-2.5c-0.5-0.6-1.3-0.9-2.2-0.9c-1,0-1.8,0.3-2.3,0.9
		c-0.6,0.6-0.9,1.6-0.9,2.8v5.7h-1.8v-10.7h1.8v2.5c0.3-0.9,0.8-1.5,1.5-2c0.7-0.5,1.5-0.7,2.4-0.7
		C902.3,114.9,903.3,115.3,904.1,116.1z"/>
	<path d="M913.1,124.2v1.6h-1.3c-1.1,0-1.9-0.3-2.5-0.8c-0.5-0.5-0.8-1.4-0.8-2.6v-5.8h-1.6v-1.5h1.6v-2.7h1.8v2.7h2.8v1.5h-2.8v5.8
		c0,0.7,0.1,1.2,0.4,1.4s0.7,0.4,1.3,0.4H913.1z"/>
	<path d="M925,120.8h-8.6c0,1.2,0.4,2.1,1,2.8c0.7,0.6,1.5,0.9,2.4,0.9c0.9,0,1.6-0.2,2.2-0.7c0.6-0.4,0.9-1,1.1-1.7h1.9
		c-0.1,0.7-0.4,1.4-0.9,2c-0.4,0.6-1,1-1.7,1.4c-0.7,0.3-1.5,0.5-2.4,0.5c-1,0-1.9-0.2-2.7-0.7c-0.8-0.4-1.4-1.1-1.9-1.9
		c-0.4-0.8-0.7-1.8-0.7-2.9c0-1.1,0.2-2.1,0.7-2.9c0.5-0.8,1.1-1.5,1.9-1.9c0.8-0.4,1.7-0.7,2.7-0.7c1,0,2,0.2,2.7,0.7
		c0.8,0.4,1.4,1,1.8,1.8c0.4,0.7,0.6,1.6,0.6,2.5C925.1,120.2,925.1,120.5,925,120.8z M922.9,118c-0.3-0.5-0.7-0.9-1.2-1.2
		c-0.5-0.3-1.1-0.4-1.7-0.4c-1,0-1.8,0.3-2.5,0.9c-0.7,0.6-1,1.5-1.1,2.7h6.9C923.4,119.2,923.2,118.5,922.9,118z"/>
	<path d="M933.7,115.9c0.7,0.6,1.2,1.5,1.3,2.5h-1.7c-0.1-0.6-0.3-1.2-0.8-1.6s-1.1-0.6-1.8-0.6c-0.6,0-1.1,0.2-1.5,0.5
		c-0.4,0.3-0.5,0.7-0.5,1.2c0,0.4,0.1,0.7,0.4,0.9s0.5,0.4,0.9,0.5s0.9,0.3,1.5,0.4c0.8,0.2,1.4,0.4,1.9,0.6
		c0.5,0.2,0.9,0.5,1.3,0.9c0.3,0.4,0.5,1,0.5,1.7c0,0.9-0.3,1.6-1,2.1c-0.7,0.5-1.5,0.8-2.6,0.8c-1.3,0-2.3-0.3-3.1-0.9
		s-1.3-1.5-1.4-2.6h1.7c0.1,0.7,0.3,1.2,0.8,1.6c0.5,0.4,1.2,0.6,2,0.6c0.6,0,1.1-0.2,1.4-0.5c0.3-0.3,0.5-0.7,0.5-1.2
		c0-0.4-0.1-0.7-0.4-1s-0.6-0.4-0.9-0.6c-0.4-0.1-0.9-0.3-1.5-0.4c-0.8-0.2-1.4-0.4-1.9-0.5c-0.5-0.2-0.9-0.5-1.2-0.9
		c-0.3-0.4-0.5-0.9-0.5-1.6c0-0.9,0.3-1.6,1-2.2c0.7-0.6,1.6-0.8,2.7-0.8C932,114.9,933,115.2,933.7,115.9z"/>
	<path d="M949.4,115.7c0.7,0.5,1.2,1.2,1.5,2.1v-2.7h1.8v10.7h-1.8v-2.7c-0.3,0.9-0.8,1.6-1.5,2.1c-0.7,0.5-1.6,0.8-2.6,0.8
		c-1,0-1.8-0.2-2.5-0.7s-1.3-1.1-1.7-1.9c-0.4-0.8-0.6-1.8-0.6-2.9c0-1.1,0.2-2.1,0.6-2.9c0.4-0.8,1-1.5,1.7-1.9s1.6-0.7,2.5-0.7
		C947.8,114.9,948.7,115.2,949.4,115.7z M944.6,117.6c-0.7,0.7-1,1.7-1,2.9c0,1.2,0.3,2.2,1,2.9c0.7,0.7,1.5,1,2.6,1
		c0.7,0,1.3-0.2,1.9-0.5c0.6-0.3,1-0.8,1.3-1.4s0.5-1.3,0.5-2.1c0-0.8-0.2-1.5-0.5-2.1c-0.3-0.6-0.7-1.1-1.3-1.4
		c-0.6-0.3-1.2-0.5-1.9-0.5C946.2,116.5,945.3,116.9,944.6,117.6z"/>
	<path d="M968.8,112v1.4h-3.9v12.3h-1.8v-12.3h-3.9V112H968.8z"/>
	<path d="M972.3,112v13.8h-1.8V112H972.3z"/>
	<path d="M977,113.5v4.7h5.2v1.4H977v4.8h5.8v1.4h-7.6V112h7.6v1.4H977z"/>
	<path d="M992.4,125.8l-3.6-5.6h-1.9v5.6h-1.8V112h4.5c1.6,0,2.7,0.4,3.5,1.1s1.2,1.7,1.2,3c0,1.1-0.3,2-0.9,2.7s-1.5,1.1-2.7,1.3
		l3.8,5.7H992.4z M986.9,118.9h2.6c2,0,3-0.9,3-2.7s-1-2.7-3-2.7h-2.6V118.9z"/>
	<path d="M1000.1,113.7V112h3.9v13.8h-1.9v-12.1H1000.1z"/>
	<path d="M1008.2,126.1c0,0.7-0.2,1.2-0.5,1.6c-0.3,0.4-0.8,0.6-1.5,0.6v-0.8c0.3,0,0.6-0.1,0.7-0.3c0.2-0.2,0.2-0.5,0.2-0.8v-0.2
		h-1v-1.8h1.8C1008.1,125.1,1008.2,125.6,1008.2,126.1z"/>
</g>
<g>
	<path d="M776.8,143.4h-7.1v4.6c0.3-0.4,0.8-0.8,1.4-1.1c0.6-0.3,1.3-0.4,2-0.4c1,0,1.8,0.2,2.4,0.6s1.1,1,1.4,1.6
		c0.3,0.7,0.5,1.4,0.5,2.2c0,1.4-0.4,2.6-1.2,3.5c-0.8,0.9-2,1.3-3.5,1.3c-1.4,0-2.5-0.4-3.4-1.1c-0.9-0.7-1.4-1.8-1.5-3h1.8
		c0.1,0.8,0.5,1.4,1,1.9c0.5,0.4,1.2,0.7,2,0.7c1,0,1.8-0.3,2.3-0.9c0.5-0.6,0.8-1.4,0.8-2.4c0-1-0.3-1.7-0.8-2.2
		c-0.5-0.5-1.3-0.8-2.2-0.8c-0.7,0-1.3,0.1-1.8,0.4c-0.5,0.3-0.9,0.7-1.2,1.2h-1.7v-7.8h8.7V143.4z"/>
	<path d="M787.8,143.3l-5.2,12.5h-1.9l5.3-12.3h-7.2v-1.5h9V143.3z"/>
	<path d="M801.6,145.7c0.7,0.5,1.2,1.2,1.5,2.1v-2.7h1.8v10.7h-1.8v-2.7c-0.3,0.9-0.8,1.6-1.5,2.1c-0.7,0.5-1.6,0.8-2.6,0.8
		c-1,0-1.8-0.2-2.5-0.7s-1.3-1.1-1.7-1.9c-0.4-0.8-0.6-1.8-0.6-2.9c0-1.1,0.2-2.1,0.6-2.9c0.4-0.8,1-1.5,1.7-1.9s1.6-0.7,2.5-0.7
		C800,144.9,800.9,145.2,801.6,145.7z M796.9,147.6c-0.7,0.7-1,1.7-1,2.9c0,1.2,0.3,2.2,1,2.9c0.7,0.7,1.5,1,2.6,1
		c0.7,0,1.3-0.2,1.9-0.5c0.6-0.3,1-0.8,1.3-1.4s0.5-1.3,0.5-2.1c0-0.8-0.2-1.5-0.5-2.1c-0.3-0.6-0.7-1.1-1.3-1.4
		c-0.6-0.3-1.2-0.5-1.9-0.5C798.4,146.5,797.5,146.9,796.9,147.6z"/>
	<path d="M821,142v1.4h-3.9v12.3h-1.8v-12.3h-3.9V142H821z"/>
	<path d="M824.6,142v13.8h-1.8V142H824.6z"/>
	<path d="M829.2,143.5v4.7h5.2v1.4h-5.2v4.8h5.8v1.4h-7.6V142h7.6v1.4H829.2z"/>
	<path d="M844.6,155.8l-3.6-5.6h-1.9v5.6h-1.8V142h4.5c1.6,0,2.7,0.4,3.5,1.1s1.2,1.7,1.2,3c0,1.1-0.3,2-0.9,2.7s-1.5,1.1-2.7,1.3
		l3.8,5.7H844.6z M839.1,148.9h2.6c2,0,3-0.9,3-2.7s-1-2.7-3-2.7h-2.6V148.9z"/>
	<path d="M858.2,150c1.3-1.5,2-2.8,2-4.1c0-0.8-0.2-1.4-0.6-1.9c-0.4-0.5-1-0.7-1.9-0.7c-0.9,0-1.6,0.3-2.1,0.9
		c-0.5,0.6-0.7,1.4-0.8,2.4h-1.8c0.1-1.5,0.6-2.7,1.4-3.5c0.9-0.8,2-1.2,3.3-1.2c1.3,0,2.3,0.3,3.1,1c0.8,0.7,1.1,1.7,1.1,2.9
		c0,1-0.3,2.1-1,3.2s-1.5,2.1-2.5,3c-1,0.9-2,1.7-3.1,2.3h7v1.5h-9.5v-1.3C855.1,152.9,856.9,151.5,858.2,150z"/>
	<path d="M870.2,145.1l3.5,8.4l3.2-8.4h2l-6.4,15.8h-2l2.2-5.3l-4.5-10.5H870.2z"/>
	<path d="M890,150c1.3-1.5,2-2.8,2-4.1c0-0.8-0.2-1.4-0.6-1.9c-0.4-0.5-1-0.7-1.9-0.7c-0.9,0-1.6,0.3-2.1,0.9
		c-0.5,0.6-0.7,1.4-0.8,2.4h-1.8c0.1-1.5,0.6-2.7,1.4-3.5c0.9-0.8,2-1.2,3.3-1.2c1.3,0,2.3,0.3,3.1,1c0.8,0.7,1.1,1.7,1.1,2.9
		c0,1-0.3,2.1-1,3.2s-1.5,2.1-2.5,3c-1,0.9-2,1.7-3.1,2.3h7v1.5h-9.5v-1.3C886.9,152.9,888.7,151.5,890,150z"/>
	<path d="M896.1,148.8c0-2.2,0.4-3.9,1.1-5.1c0.7-1.2,2-1.8,3.8-1.8c1.8,0,3.1,0.6,3.8,1.9c0.7,1.2,1.1,3,1.1,5.1
		c0,2.2-0.4,3.9-1.1,5.2c-0.7,1.2-2,1.9-3.8,1.9c-1.8,0-3.1-0.6-3.8-1.9C896.4,152.8,896.1,151,896.1,148.8z M904.1,148.8
		c0-1.1-0.1-2.1-0.2-2.8c-0.2-0.8-0.5-1.4-0.9-1.8c-0.5-0.4-1.1-0.7-2-0.7c-0.8,0-1.5,0.2-2,0.7c-0.5,0.5-0.8,1.1-0.9,1.8
		c-0.2,0.8-0.2,1.7-0.2,2.8c0,1.1,0.1,2.1,0.2,2.8c0.2,0.8,0.5,1.4,0.9,1.8c0.5,0.5,1.1,0.7,2,0.7c0.9,0,1.5-0.2,2-0.7
		c0.5-0.5,0.8-1.1,0.9-1.8C904,150.9,904.1,150,904.1,148.8z"/>
	<path d="M923,150.8h-8.6c0,1.2,0.4,2.1,1,2.8c0.7,0.6,1.5,0.9,2.4,0.9c0.9,0,1.6-0.2,2.2-0.7c0.6-0.4,0.9-1,1.1-1.7h1.9
		c-0.1,0.7-0.4,1.4-0.9,2c-0.4,0.6-1,1-1.7,1.4c-0.7,0.3-1.5,0.5-2.4,0.5c-1,0-1.9-0.2-2.7-0.7c-0.8-0.4-1.4-1.1-1.9-1.9
		c-0.4-0.8-0.7-1.8-0.7-2.9c0-1.1,0.2-2.1,0.7-2.9c0.5-0.8,1.1-1.5,1.9-1.9c0.8-0.4,1.7-0.7,2.7-0.7c1,0,2,0.2,2.7,0.7
		c0.8,0.4,1.4,1,1.8,1.8c0.4,0.7,0.6,1.6,0.6,2.5C923.1,150.2,923,150.5,923,150.8z M920.9,148c-0.3-0.5-0.7-0.9-1.2-1.2
		c-0.5-0.3-1.1-0.4-1.7-0.4c-1,0-1.8,0.3-2.5,0.9c-0.7,0.6-1,1.5-1.1,2.7h6.9C921.3,149.2,921.2,148.5,920.9,148z"/>
	<path d="M934.1,146.1c0.8,0.8,1.2,2,1.2,3.5v6.2h-1.8v-6.1c0-1.1-0.3-1.9-0.8-2.5c-0.5-0.6-1.3-0.9-2.2-0.9c-1,0-1.8,0.3-2.3,0.9
		c-0.6,0.6-0.9,1.6-0.9,2.8v5.7h-1.8v-10.7h1.8v2.5c0.3-0.9,0.8-1.5,1.5-2c0.7-0.5,1.5-0.7,2.4-0.7
		C932.3,144.9,933.3,145.3,934.1,146.1z"/>
	<path d="M951.2,142v1.4h-3.9v12.3h-1.8v-12.3h-3.9V142H951.2z"/>
	<path d="M954.7,142v13.8H953V142H954.7z"/>
	<path d="M959.4,143.5v4.7h5.2v1.4h-5.2v4.8h5.8v1.4h-7.6V142h7.6v1.4H959.4z"/>
	<path d="M974.8,155.8l-3.6-5.6h-1.9v5.6h-1.8V142h4.5c1.6,0,2.7,0.4,3.5,1.1s1.2,1.7,1.2,3c0,1.1-0.3,2-0.9,2.7s-1.5,1.1-2.7,1.3
		l3.8,5.7H974.8z M969.3,148.9h2.6c2,0,3-0.9,3-2.7s-1-2.7-3-2.7h-2.6V148.9z"/>
	<path d="M990.4,142.1c0.6,0.3,1.1,0.7,1.4,1.3c0.3,0.5,0.5,1.2,0.5,1.9c0,0.9-0.3,1.6-0.8,2.2c-0.5,0.6-1.2,0.9-2.2,1.1v0.1
		c1,0.3,1.8,0.7,2.4,1.2s0.8,1.3,0.8,2.3c0,1.1-0.4,2.1-1.1,2.8c-0.8,0.7-1.8,1.1-3.3,1.1c-1.4,0-2.6-0.4-3.4-1.1
		c-0.9-0.7-1.4-1.8-1.6-3.2h1.8c0.1,0.9,0.4,1.5,1,2.1s1.3,0.8,2.2,0.8c0.9,0,1.5-0.2,2-0.7c0.5-0.4,0.7-1,0.7-1.7
		c0-0.9-0.3-1.5-1-2s-1.6-0.7-2.9-0.7h-0.5v-1.5h0.5c2.4,0,3.6-0.8,3.6-2.4c0-0.7-0.2-1.3-0.7-1.7c-0.4-0.4-1.1-0.6-1.8-0.6
		s-1.4,0.2-2,0.7s-0.8,1.1-0.9,2h-1.7c0.1-1.3,0.5-2.3,1.4-3.1c0.8-0.7,1.9-1.1,3.3-1.1C989,141.7,989.8,141.8,990.4,142.1z"/>
	<path d="M996.5,153.7v2.1h-2.1v-2.1H996.5z"/>
</g>
<g>
</g>
<g>
</g>
<g>
</g>
<g>
</g>
<g>
</g>
<g>
</g>
<g>
</g>
<g>
</g>
<g>
</g>
<g>
</g>
<g>
</g>
<g>
</g>
<g>
</g>
<g>
</g>
<g>
</g>
</svg>
