<?xml version="1.0" encoding="utf-8"?>
<!-- Generator: Adobe Illustrator 18.0.0, SVG Export Plug-In . SVG Version: 6.00 Build 0)  -->
<!DOCTYPE svg PUBLIC "-//W3C//DTD SVG 1.1//EN" "http://www.w3.org/Graphics/SVG/1.1/DTD/svg11.dtd">
<svg version="1.1" id="Capa_1" xmlns="http://www.w3.org/2000/svg" xmlns:xlink="http://www.w3.org/1999/xlink" x="0px" y="0px"
	 viewBox="722.8 328.2 1277.2 543.7" enable-background="new 722.8 328.2 1277.2 543.7" xml:space="preserve">
<g>
	<path fill="#646464" d="M1582.1,489.2c-0.7,1.1-1.6,2-2.7,2.7c-1.3,0.7-2.7,0.9-4.4,0.9h-5.5v-15.5h5.5c1.6,0,3.1,0.4,4.4,0.9
		s2.2,1.5,2.7,2.7c0.7,1.1,0.9,2.6,0.9,4C1583,486.6,1582.8,487.9,1582.1,489.2z M1578.7,488.8c0.9-0.9,1.5-2.2,1.5-3.6
		c0-1.6-0.5-2.7-1.5-3.6c-0.9-0.9-2.2-1.3-3.8-1.3h-2.2v10h2.2C1576.5,490.1,1577.7,489.5,1578.7,488.8z"/>
	<path fill="#646464" d="M1590.7,477.3v15.5h-3.1v-15.5H1590.7z"/>
	<path fill="#646464" d="M1605.1,489.7h-6.2l-1.1,3.1h-3.3l5.6-15.3h3.5l5.6,15.3h-3.3L1605.1,489.7z M1604.2,487.3l-2.2-6.6
		l-2.2,6.6H1604.2z"/>
	<path fill="#646464" d="M1621.3,492.8l-3.6-6h-1.3v6h-3.1v-15.5h5.8c1.8,0,3.1,0.4,4.2,1.3c0.9,0.9,1.5,2,1.5,3.5
		c0,1.1-0.4,2.2-0.9,2.9c-0.7,0.7-1.6,1.3-2.7,1.6l3.8,6.2H1621.3z M1616.4,484.6h2.6c1.8,0,2.7-0.7,2.7-2.4c0-0.7-0.2-1.3-0.7-1.8
		c-0.4-0.4-1.1-0.5-2-0.5h-2.6V484.6z"/>
	<path fill="#646464" d="M1632,477.3v15.5h-3.1v-15.5H1632z"/>
	<path fill="#646464" d="M1648.1,478.2c1.1,0.7,2.2,1.6,2.7,2.7s1.1,2.6,1.1,4c0,1.5-0.4,2.9-1.1,4s-1.6,2.2-2.7,2.7
		c-1.1,0.7-2.6,1.1-4,1.1c-1.5,0-2.7-0.4-4-1.1c-1.3-0.7-2.2-1.6-2.7-2.7c-0.7-1.3-1.1-2.6-1.1-4c0-1.5,0.4-2.9,1.1-4
		c0.7-1.3,1.6-2.2,2.7-2.7c1.1-0.5,2.6-1.1,4-1.1C1645.5,477.1,1647,477.5,1648.1,478.2z M1641.9,480.6c-0.7,0.4-1.3,0.9-1.6,1.8
		c-0.4,0.7-0.5,1.6-0.5,2.7s0.2,1.8,0.5,2.7c0.4,0.9,0.9,1.3,1.6,1.8c0.7,0.4,1.5,0.5,2.4,0.5c0.9,0,1.6-0.2,2.4-0.5
		c0.7-0.4,1.3-0.9,1.6-1.8c0.4-0.9,0.5-1.6,0.5-2.7s-0.2-1.8-0.5-2.7c-0.4-0.7-0.9-1.3-1.6-1.8c-0.7-0.4-1.5-0.5-2.4-0.5
		C1643.3,480,1642.4,480.2,1641.9,480.6z"/>
	<path fill="#646464" d="M1666.5,490.8c-0.4,0.7-0.9,1.3-1.8,1.6c-0.7,0.4-1.6,0.5-2.7,0.5c-1.1,0-2-0.2-2.9-0.5
		c-0.9-0.4-1.6-0.9-2-1.6c-0.5-0.7-0.7-1.5-0.9-2.4h3.3c0,0.5,0.4,1.1,0.7,1.6c0.4,0.4,0.9,0.5,1.6,0.5s1.1-0.2,1.5-0.5
		c0.4-0.4,0.5-0.7,0.5-1.3c0-0.5-0.2-0.9-0.4-1.3s-0.5-0.5-1.1-0.7c-0.4-0.2-1.1-0.4-1.8-0.7c-0.9-0.4-1.8-0.7-2.4-0.9
		s-1.1-0.7-1.6-1.5c-0.4-0.5-0.7-1.5-0.7-2.4c0-1.3,0.5-2.4,1.5-3.1c0.9-0.7,2.2-1.1,3.8-1.1s2.9,0.4,3.8,1.1
		c0.9,0.7,1.5,1.8,1.6,3.1h-3.3c0-0.5-0.4-1.1-0.7-1.5c-0.4-0.4-0.9-0.5-1.6-0.5c-0.5,0-1.1,0.2-1.5,0.4c-0.4,0.4-0.5,0.7-0.5,1.3
		c0,0.4,0.2,0.9,0.4,1.1c0.2,0.4,0.5,0.5,1.1,0.7c0.4,0.2,0.9,0.4,1.6,0.5c0.9,0.4,1.8,0.7,2.4,0.9c0.5,0.4,1.1,0.7,1.6,1.5
		c0.4,0.5,0.7,1.5,0.7,2.4C1667,489.3,1666.8,490.1,1666.5,490.8z"/>
	<path fill="#646464" d="M1674.5,480.4v3.3h-3.3v-3.3H1674.5z M1674.5,489.5v3.3h-3.3v-3.3H1674.5z"/>
</g>
<g>
	<path fill="#646464" d="M1701.1,474.6l-8,18.2h-7.5l8-17.3h-8.4v-6.2h15.8L1701.1,474.6L1701.1,474.6z"/>
	<path fill="#646464" d="M1712.7,485.9v6.9h-7.3v-6.9H1712.7z"/>
	<path fill="#646464" d="M1718.6,489.2v-6l9.8-14h7.8v13.7h2.4v6.4h-2.4v3.6h-7.3v-3.6H1718.6z M1729.5,477.5l-3.5,5.5h3.5V477.5z"
		/>
	<path fill="#646464" d="M1759.7,474.6l-8,18.2h-7.5l8-17.3h-8.4v-6.2h15.8L1759.7,474.6L1759.7,474.6z"/>
	<path fill="#646464" d="M1777.8,469.1c1.3,0.5,2.2,1.5,2.7,2.4c0.5,1.1,0.9,2.2,0.9,3.5c0,1.5-0.4,2.7-1.1,3.6
		c-0.7,0.9-1.5,1.5-2.4,1.8v0.2c2.6,0.9,4,2.7,4,5.5c0,1.5-0.4,2.6-0.9,3.6c-0.7,1.1-1.6,1.8-2.7,2.6c-1.3,0.5-2.7,0.9-4.4,0.9
		c-2.9,0-5.1-0.7-6.7-2c-1.6-1.3-2.4-3.5-2.6-6.4h7.1c0,0.7,0,1.5,0.4,1.8c0.2,0.4,0.7,0.5,1.5,0.5c0.4,0,0.7-0.2,0.9-0.4
		c0.2-0.4,0.4-0.7,0.4-1.1c0-0.5-0.2-1.1-0.5-1.5c-0.4-0.4-1.1-0.5-2-0.5h-1.3v-5.8h1.1c1.5,0,2.2-0.5,2.2-1.8
		c0-0.5-0.2-0.9-0.4-1.3c-0.2-0.2-0.5-0.4-0.9-0.4c-0.7,0-1.3,0.7-1.3,2h-7.1c0-2.6,0.9-4.6,2.4-6c1.5-1.5,3.5-2,6.2-2
		C1775,468.2,1776.5,468.6,1777.8,469.1z"/>
</g>
<g>
	<path fill="#646464" d="M1577.6,549.3l-3.6-6h-1.3v6h-3.1v-15.5h5.8c1.8,0,3.1,0.4,4.2,1.3c0.9,0.9,1.5,2,1.5,3.5
		c0,1.1-0.4,2.2-0.9,2.9c-0.7,0.7-1.6,1.3-2.7,1.6l3.8,6.2H1577.6z M1572.6,541.1h2.6c1.8,0,2.7-0.7,2.7-2.4c0-0.7-0.2-1.3-0.7-1.8
		c-0.4-0.4-1.1-0.5-2-0.5h-2.6V541.1z"/>
	<path fill="#646464" d="M1588.3,536.3v4h5.5v2.4h-5.5v4.2h6.2v2.6h-9.3V534h9.3v2.4H1588.3L1588.3,536.3z"/>
	<path fill="#646464" d="M1601.1,533.8l4.2,12.2l4.2-12.2h3.3l-5.5,15.5h-4.2l-5.5-15.5H1601.1z"/>
	<path fill="#646464" d="M1619.5,533.8v15.5h-3.1v-15.5H1619.5z"/>
	<path fill="#646464" d="M1634.6,547.3c-0.4,0.7-0.9,1.3-1.8,1.6c-0.7,0.4-1.6,0.5-2.7,0.5s-2-0.2-2.9-0.5c-0.9-0.4-1.6-0.9-2-1.6
		c-0.5-0.7-0.7-1.5-0.9-2.4h3.3c0,0.5,0.4,1.1,0.7,1.6c0.4,0.4,0.9,0.5,1.6,0.5s1.1-0.2,1.5-0.5s0.5-0.7,0.5-1.3
		c0-0.5-0.2-0.9-0.4-1.3s-0.5-0.5-1.1-0.7c-0.4-0.2-1.1-0.4-1.8-0.7c-0.9-0.4-1.8-0.7-2.4-0.9c-0.5-0.2-1.1-0.7-1.6-1.5
		c-0.4-0.5-0.7-1.5-0.7-2.4c0-1.3,0.5-2.4,1.5-3.1c0.9-0.7,2.2-1.1,3.8-1.1c1.6,0,2.9,0.4,3.8,1.1c0.9,0.7,1.5,1.8,1.6,3.1h-3.3
		c0-0.5-0.4-1.1-0.7-1.5c-0.4-0.4-0.9-0.5-1.6-0.5c-0.5,0-1.1,0.2-1.5,0.4c-0.4,0.4-0.5,0.7-0.5,1.3c0,0.4,0.2,0.9,0.4,1.1
		c0.2,0.4,0.5,0.5,1.1,0.7c0.4,0.2,0.9,0.4,1.6,0.5c0.9,0.4,1.8,0.7,2.4,0.9c0.5,0.4,1.1,0.7,1.6,1.5c0.4,0.5,0.7,1.5,0.7,2.4
		C1635.1,545.8,1634.9,546.5,1634.6,547.3z"/>
	<path fill="#646464" d="M1650.1,533.8v2.4h-4.2v12.9h-3.1v-12.8h-4.2V534h11.5V533.8z"/>
	<path fill="#646464" d="M1663.4,546.2h-6.2l-1.1,3.1h-3.3l5.6-15.3h3.5l5.6,15.3h-3.3L1663.4,546.2z M1662.4,543.8l-2.2-6.6
		l-2.2,6.6H1662.4z"/>
	<path fill="#646464" d="M1681.6,547.3c-0.4,0.7-0.9,1.3-1.8,1.6c-0.7,0.4-1.6,0.5-2.7,0.5c-1.1,0-2-0.2-2.9-0.5
		c-0.9-0.4-1.6-0.9-2-1.6c-0.5-0.7-0.7-1.5-0.9-2.4h3.3c0,0.5,0.4,1.1,0.7,1.6c0.4,0.4,0.9,0.5,1.6,0.5s1.1-0.2,1.5-0.5
		c0.4-0.4,0.5-0.7,0.5-1.3c0-0.5-0.2-0.9-0.4-1.3s-0.5-0.5-1.1-0.7c-0.4-0.2-1.1-0.4-1.8-0.7c-0.9-0.4-1.8-0.7-2.4-0.9
		c-0.5-0.2-1.1-0.7-1.6-1.5c-0.4-0.5-0.7-1.5-0.7-2.4c0-1.3,0.5-2.4,1.5-3.1c0.9-0.7,2.2-1.1,3.8-1.1s2.9,0.4,3.8,1.1
		c0.9,0.7,1.5,1.8,1.6,3.1h-3.3c0-0.5-0.4-1.1-0.7-1.5c-0.4-0.4-0.9-0.5-1.6-0.5c-0.5,0-1.1,0.2-1.5,0.4c-0.4,0.4-0.5,0.7-0.5,1.3
		c0,0.4,0.2,0.9,0.4,1.1c0.2,0.4,0.5,0.5,1.1,0.7c0.4,0.2,0.9,0.4,1.6,0.5c0.9,0.4,1.8,0.7,2.4,0.9c0.5,0.4,1.1,0.7,1.6,1.5
		c0.4,0.5,0.7,1.5,0.7,2.4C1682.1,545.8,1681.9,546.5,1681.6,547.3z"/>
	<path fill="#646464" d="M1689.6,536.9v3.3h-3.3v-3.3H1689.6z M1689.6,546v3.3h-3.3V546H1689.6z"/>
</g>
<g>
	<path fill="#646464" d="M1700,532.9v-6.7h11.1v23.1h-7.7v-16.4H1700z"/>
	<path fill="#646464" d="M1724.2,542.3v6.9h-7.3v-6.9H1724.2z"/>
	<path fill="#646464" d="M1742.6,525.6c1.3,0.5,2.2,1.5,2.7,2.4c0.5,1.1,0.9,2.2,0.9,3.5c0,1.5-0.4,2.7-1.1,3.6
		c-0.7,0.9-1.5,1.5-2.4,1.8v0.2c2.6,0.9,4,2.7,4,5.5c0,1.5-0.4,2.6-0.9,3.6c-0.7,1.1-1.6,1.8-2.7,2.6c-1.3,0.5-2.7,0.9-4.4,0.9
		c-2.9,0-5.1-0.7-6.7-2s-2.4-3.5-2.6-6.4h7.1c0,0.7,0,1.5,0.4,1.8c0.2,0.4,0.7,0.5,1.5,0.5c0.4,0,0.7-0.2,0.9-0.4
		c0.2-0.4,0.4-0.7,0.4-1.1c0-0.5-0.2-1.1-0.5-1.5s-1.1-0.5-2-0.5h-1.3v-5.8h1.1c1.5,0,2.2-0.5,2.2-1.8c0-0.5-0.2-0.9-0.4-1.3
		c-0.2-0.2-0.5-0.4-0.9-0.4c-0.7,0-1.3,0.7-1.3,2h-7.1c0-2.6,0.9-4.6,2.4-6s3.5-2,6.2-2C1740,524.7,1741.5,525,1742.6,525.6z"/>
	<path fill="#646464" d="M1752.8,537.4c0-3.6,0.7-6.4,2.4-8.6s4-3.1,7.5-3.1c3.5,0,5.8,1.1,7.5,3.3s2.4,4.9,2.4,8.6
		c0,3.6-0.7,6.4-2.4,8.6s-4,3.3-7.5,3.3c-3.5,0-5.8-1.1-7.5-3.3C1753.7,543.8,1752.8,540.9,1752.8,537.4z M1765.4,537.4
		c0-1.6-0.2-2.7-0.5-3.6c-0.4-0.9-1.1-1.3-2.2-1.3s-1.8,0.4-2.2,1.3c-0.4,0.9-0.5,2-0.5,3.6c0,1.6,0.2,2.7,0.5,3.6s1.1,1.3,2.2,1.3
		c1.1,0,1.8-0.4,2.2-1.3C1765.2,540.2,1765.4,538.9,1765.4,537.4z"/>
	<path fill="#646464" d="M1777,532.9v-6.7h11.1v23.1h-7.7v-16.4H1777z"/>
</g>
<g>
	<path fill="#646464" d="M1580.7,591.2c1.1,0.7,2.2,1.6,2.7,2.7c0.5,1.1,1.1,2.6,1.1,4s-0.4,2.9-1.1,4c-0.7,1.1-1.6,2.2-2.7,2.7
		c-1.1,0.7-2.6,1.1-4,1.1c-1.5,0-2.7-0.4-4-1.1c-1.3-0.7-2.2-1.6-2.7-2.7c-0.7-1.3-1.1-2.6-1.1-4s0.4-2.9,1.1-4
		c0.7-1.3,1.6-2.2,2.7-2.7c1.1-0.5,2.6-1.1,4-1.1C1578.1,590.1,1579.6,590.4,1580.7,591.2z M1574.3,593.5c-0.7,0.4-1.3,0.9-1.6,1.8
		c-0.4,0.7-0.5,1.6-0.5,2.7c0,1.1,0.2,1.8,0.5,2.7c0.4,0.9,0.9,1.3,1.6,1.8c0.7,0.4,1.5,0.5,2.4,0.5c0.9,0,1.6-0.2,2.4-0.5
		c0.7-0.4,1.3-0.9,1.6-1.8s0.5-1.6,0.5-2.7c0-1.1-0.2-1.8-0.5-2.7c-0.4-0.7-0.9-1.3-1.6-1.8c-0.7-0.4-1.5-0.5-2.4-0.5
		C1575.7,593,1575,593.2,1574.3,593.5z"/>
	<path fill="#646464" d="M1602,605.7h-3.1l-6.9-10.6v10.6h-3.1v-15.5h3.1l6.9,10.6v-10.6h3.1V605.7z"/>
	<path fill="#646464" d="M1610.2,603.4h5.1v2.4h-8.2v-15.5h3.1V603.4z"/>
	<path fill="#646464" d="M1622.4,590.3v15.5h-3.1v-15.5H1622.4z"/>
	<path fill="#646464" d="M1640.4,605.7h-3.1l-6.9-10.6v10.6h-3.1v-15.5h3.1l6.9,10.6v-10.6h3.1V605.7z"/>
	<path fill="#646464" d="M1648.4,592.8v4h5.5v2.4h-5.5v4.2h6.2v2.6h-9.3v-15.5h9.3v2.4H1648.4z"/>
	<path fill="#646464" d="M1662.1,593.4v3.3h-3.3v-3.3H1662.1z M1662.1,602.5v3.3h-3.3v-3.3H1662.1z"/>
</g>
<g>
	<path fill="#646464" d="M1672.5,589.3v-6.7h11.1v23.1h-7.7v-16.4H1672.5z"/>
	<path fill="#646464" d="M1702.9,582.1c1.3,0.5,2.2,1.5,2.7,2.4c0.5,1.1,0.9,2.2,0.9,3.5c0,1.5-0.4,2.7-1.1,3.6
		c-0.7,0.9-1.5,1.5-2.4,1.8v0.2c2.6,0.9,4,2.7,4,5.5c0,1.5-0.4,2.6-0.9,3.6c-0.7,1.1-1.6,1.8-2.7,2.6c-1.3,0.5-2.7,0.9-4.4,0.9
		c-2.9,0-5.1-0.7-6.7-2s-2.4-3.5-2.6-6.4h7.1c0,0.7,0,1.5,0.4,1.8c0.2,0.4,0.7,0.5,1.5,0.5c0.4,0,0.7-0.2,0.9-0.4
		c0.2-0.4,0.4-0.7,0.4-1.1c0-0.5-0.2-1.1-0.5-1.5c-0.4-0.4-1.1-0.5-2-0.5h-1.3v-5.8h1.1c1.5,0,2.2-0.5,2.2-1.8
		c0-0.5-0.2-0.9-0.4-1.3c-0.2-0.2-0.5-0.4-0.9-0.4c-0.7,0-1.3,0.7-1.3,2h-7.1c0-2.6,0.9-4.6,2.4-6s3.5-2,6.2-2
		C1700.2,581.1,1701.6,581.5,1702.9,582.1z"/>
	<path fill="#646464" d="M1720,598.8v6.9h-7.3v-6.9H1720z"/>
	<path fill="#646464" d="M1726,602.1v-6l9.8-14h7.8v13.7h2.4v6.4h-2.4v3.6h-7.3v-3.6H1726z M1737,590.4l-3.5,5.5h3.5V590.4z"/>
	<path fill="#646464" d="M1762.1,587.5c-0.2-0.4-0.7-0.5-1.1-0.5c-0.9,0-1.5,0.4-1.6,1.3c-0.4,0.9-0.4,2.2-0.4,4
		c0.4-0.5,0.9-1.1,1.6-1.5c0.7-0.4,1.6-0.5,2.6-0.5c2.2,0,3.8,0.7,5.1,2c1.3,1.3,1.8,3.1,1.8,5.6c0,1.6-0.4,3.1-1.1,4.2
		c-0.7,1.1-1.6,2.2-2.9,2.7c-1.3,0.5-2.7,0.9-4.6,0.9c-3.5,0-5.8-1.1-7.1-3.1c-1.3-2.2-2-5.1-2-8.9c0-2.9,0.4-5.5,0.9-7.3
		c0.5-1.8,1.6-3.3,2.9-4c1.3-0.9,3.1-1.3,5.1-1.3c2.6,0,4.6,0.7,5.8,2.2c1.3,1.5,2,3.3,2.2,5.5h-6.7
		C1762.5,588.4,1762.3,587.9,1762.1,587.5z M1759.9,599.2c0.4,0.4,0.7,0.5,1.5,0.5c0.5,0,1.1-0.2,1.5-0.5c0.4-0.4,0.5-0.7,0.5-1.5
		c0-0.5-0.2-1.1-0.5-1.5c-0.4-0.4-0.9-0.5-1.5-0.5c-0.5,0-1.1,0.2-1.5,0.5c-0.4,0.4-0.5,0.7-0.5,1.5
		C1759.4,598.5,1759.5,599,1759.9,599.2z"/>
	<path fill="#646464" d="M1786.1,587.5c-0.2-0.4-0.7-0.5-1.1-0.5c-0.9,0-1.5,0.4-1.6,1.3c-0.4,0.9-0.4,2.2-0.4,4
		c0.4-0.5,0.9-1.1,1.6-1.5s1.6-0.5,2.6-0.5c2.2,0,3.8,0.7,5.1,2s1.8,3.1,1.8,5.6c0,1.6-0.4,3.1-1.1,4.2c-0.7,1.1-1.6,2.2-2.9,2.7
		s-2.7,0.9-4.6,0.9c-3.5,0-5.8-1.1-7.1-3.1c-1.3-2.2-2-5.1-2-8.9c0-2.9,0.4-5.5,0.9-7.3c0.5-1.8,1.6-3.3,2.9-4
		c1.3-0.9,3.1-1.3,5.1-1.3c2.6,0,4.6,0.7,5.8,2.2c1.3,1.5,2,3.3,2.2,5.5h-6.7C1786.5,588.4,1786.3,587.9,1786.1,587.5z
		 M1783.8,599.2c0.4,0.4,0.7,0.5,1.5,0.5c0.5,0,1.1-0.2,1.5-0.5c0.4-0.4,0.5-0.7,0.5-1.5c0-0.5-0.2-1.1-0.5-1.5
		c-0.4-0.4-0.9-0.5-1.5-0.5c-0.5,0-1.1,0.2-1.5,0.5c-0.4,0.4-0.5,0.7-0.5,1.5C1783.4,598.5,1783.6,599,1783.8,599.2z"/>
</g>
<g>
	<path fill="#646464" d="M1577.6,662.2l-3.6-6h-1.3v6h-3.1v-15.5h5.8c1.8,0,3.1,0.4,4.2,1.3c0.9,0.9,1.5,2,1.5,3.5
		c0,1.1-0.4,2.2-0.9,2.9c-0.7,0.7-1.6,1.3-2.7,1.6l3.8,6.2L1577.6,662.2L1577.6,662.2z M1572.6,654h2.6c1.8,0,2.7-0.7,2.7-2.4
		c0-0.7-0.2-1.3-0.7-1.8c-0.4-0.4-1.1-0.5-2-0.5h-2.6V654z"/>
	<path fill="#646464" d="M1594.5,659.1h-6.2l-1.1,3.1h-3.3l5.6-15.3h3.5l5.6,15.3h-3.3L1594.5,659.1z M1593.8,656.7l-2.2-6.6
		l-2.2,6.6H1593.8z"/>
	<path fill="#646464" d="M1615.3,658.6c-0.7,1.1-1.6,2-2.7,2.7c-1.3,0.7-2.7,0.9-4.4,0.9h-5.5v-15.5h5.5c1.6,0,3.1,0.4,4.4,0.9
		c1.3,0.5,2.2,1.5,2.7,2.7c0.7,1.1,0.9,2.6,0.9,4C1616.4,656,1616,657.3,1615.3,658.6z M1611.8,658.2c0.9-0.9,1.5-2.2,1.5-3.6
		c0-1.6-0.5-2.7-1.5-3.6c-0.9-0.9-2.2-1.3-3.8-1.3h-2.2v10h2.2C1609.6,659.5,1610.9,658.9,1611.8,658.2z"/>
	<path fill="#646464" d="M1623.8,646.7v15.5h-3.1v-15.5H1623.8z"/>
	<path fill="#646464" d="M1640,647.6c1.1,0.7,2.2,1.6,2.7,2.7c0.5,1.1,1.1,2.6,1.1,4s-0.4,2.9-1.1,4c-0.7,1.1-1.6,2.2-2.7,2.7
		c-1.1,0.7-2.6,1.1-4,1.1s-2.7-0.4-4-1.1c-1.3-0.7-2.2-1.6-2.7-2.7c-0.7-1.3-1.1-2.6-1.1-4s0.4-2.9,1.1-4c0.7-1.3,1.6-2.2,2.7-2.7
		s2.6-1.1,4-1.1S1638.9,646.9,1640,647.6z M1633.7,650c-0.7,0.4-1.3,0.9-1.6,1.8c-0.4,0.7-0.5,1.6-0.5,2.7s0.2,1.8,0.5,2.7
		s0.9,1.3,1.6,1.8c0.7,0.4,1.5,0.5,2.4,0.5c0.9,0,1.6-0.2,2.4-0.5s1.3-0.9,1.6-1.8c0.4-0.9,0.5-1.6,0.5-2.7s-0.2-1.8-0.5-2.7
		c-0.4-0.7-0.9-1.3-1.6-1.8c-0.7-0.4-1.5-0.5-2.4-0.5C1635.1,649.5,1634.4,649.6,1633.7,650z"/>
	<path fill="#646464" d="M1651.3,649.8v3.3h-3.3v-3.3H1651.3z M1651.3,658.9v3.3h-3.3v-3.3H1651.3z"/>
</g>
<g>
	<path fill="#646464" d="M1661.7,645.8v-6.7h11.1v23.1h-7.7v-16.4H1661.7z"/>
	<path fill="#646464" d="M1680.8,640.9c0.7-1.1,1.6-1.8,2.9-2.6s2.9-0.9,4.7-0.9s3.5,0.4,4.7,0.9c1.3,0.7,2.2,1.5,2.9,2.6
		c0.7,1.1,0.9,2,0.9,3.1c0,1.1-0.2,2.2-0.7,2.9c-0.5,0.9-1.1,1.5-2,2c2.2,1.3,3.3,3.3,3.3,5.8c0,1.6-0.4,3.1-1.3,4.2
		c-0.9,1.1-2,2-3.3,2.6c-1.3,0.5-2.9,0.9-4.6,0.9s-3.3-0.4-4.6-0.9c-1.3-0.5-2.6-1.5-3.3-2.6c-0.9-1.1-1.3-2.6-1.3-4.2
		c0-2.6,1.1-4.6,3.3-5.8c-0.9-0.5-1.6-1.1-2-2c-0.5-0.9-0.7-1.8-0.7-2.9C1679.9,642.9,1680.1,642,1680.8,640.9z M1686.9,656
		c0.4,0.4,0.9,0.5,1.6,0.5s1.3-0.2,1.6-0.5s0.5-0.9,0.5-1.6c0-0.7-0.2-1.3-0.5-1.6s-0.9-0.7-1.6-0.7s-1.1,0.2-1.6,0.7
		c-0.4,0.4-0.5,0.9-0.5,1.6C1686.3,655.1,1686.5,655.7,1686.9,656z M1687.4,646.7c0.4,0.4,0.7,0.5,1.1,0.5c0.4,0,0.7-0.2,1.1-0.5
		c0.4-0.4,0.4-0.7,0.4-1.5c0-0.5-0.2-1.1-0.4-1.5c-0.4-0.4-0.7-0.5-1.1-0.5c-0.4,0-0.7,0.2-1.1,0.5c-0.4,0.4-0.4,0.9-0.4,1.5
		C1687,646,1687.2,646.4,1687.4,646.7z"/>
	<path fill="#646464" d="M1719.1,644l-8,18.2h-7.5l8-17.3h-8.4v-6.2h15.8V644z"/>
</g>
<g>
	<path fill="#646464" d="M1579.9,703.2v2.4h-4.2v12.9h-3.1v-12.8h-4.2v-2.4h11.5V703.2z"/>
	<path fill="#646464" d="M1586.1,703.2l4.2,12.2l4.2-12.2h3.3l-5.5,15.5h-4l-5.5-15.5H1586.1z"/>
	<path fill="#646464" d="M1604.5,706.3v3.3h-3.3v-3.3H1604.5z M1604.5,715.4v3.3h-3.3v-3.3H1604.5z"/>
</g>
<g>
	<path fill="#646464" d="M1614.9,702.3v-6.7h11.1v23.1h-7.7v-16.4H1614.9z"/>
	<path fill="#646464" d="M1632.6,715v-6l9.8-14h7.8v13.7h2.4v6.4h-2.4v3.6h-7.3V715H1632.6z M1643.5,703.4l-3.5,5.5h3.5V703.4z"/>
	<path fill="#646464" d="M1676.5,701h-9.7v2.7c0.4-0.4,0.9-0.7,1.6-0.9c0.7-0.2,1.5-0.4,2.2-0.4c1.5,0,2.7,0.4,3.8,1.1
		c1.1,0.7,1.8,1.6,2.4,2.7s0.7,2.6,0.7,3.8c0,2.6-0.7,4.7-2.2,6.2s-3.5,2.2-6,2.2c-1.8,0-3.5-0.4-4.9-0.9c-1.5-0.5-2.4-1.6-3.1-2.7
		c-0.7-1.1-1.1-2.6-0.9-4h7.1c0,0.4,0.2,0.7,0.4,0.9c0.2,0.2,0.5,0.5,1.1,0.5c0.5,0,0.9-0.2,1.3-0.5c0.2-0.4,0.4-0.9,0.4-1.6
		c0-0.5-0.2-1.1-0.4-1.5c-0.2-0.4-0.7-0.5-1.3-0.5c-0.5,0-0.7,0.2-1.1,0.4c-0.2,0.2-0.4,0.5-0.4,0.7h-7.1v-14.8h16V701z"/>
</g>
<path fill="#FF3800" d="M998.1,601.9l-12.9-247.2c3.5-0.2,9.5-0.4,12.9-0.4V601.9z"/>
<path fill="#FFBD00" d="M998.1,601.9l-25.9-246.1c4.6-0.5,8.4-0.7,12.9-1.1L998.1,601.9z"/>
<path fill="#0000F9" d="M998.1,601.9l162.5,186.9c-103.3,89.6-259.6,78.7-349.2-24.4c-89.6-103.3-78.7-259.6,24.4-349.2
	c39.9-34.6,84-53.9,136.6-59.4L998.1,601.9z"/>
<path fill="#979696" d="M998.1,601.9l216.6,120c-15.3,27.5-30.4,46.3-54.1,66.9L998.1,601.9z"/>
<path fill="#020000" d="M998.1,354.3c136.8,0,247.6,110.9,247.6,247.6c0,44.3-9.7,81.2-31,120l-216.6-120"/>
<line fill="none" stroke="#020200" stroke-width="22.428" stroke-linecap="round" stroke-miterlimit="10" x1="1521.6" y1="485.3" x2="1503.1" y2="485.3"/>
<line fill="none" stroke="#979696" stroke-width="22.428" stroke-linecap="round" stroke-miterlimit="10" x1="1521.6" y1="543.6" x2="1503.1" y2="543.6"/>
<line fill="none" stroke="#0000F9" stroke-width="22.428" stroke-linecap="round" stroke-miterlimit="10" x1="1521.6" y1="599.9" x2="1503.1" y2="599.9"/>
<line fill="none" stroke="#FFBD00" stroke-width="22.428" stroke-linecap="round" stroke-miterlimit="10" x1="1521.6" y1="652.2" x2="1503.1" y2="652.2"/>
<line fill="none" stroke="#FF3800" stroke-width="22.428" stroke-linecap="round" stroke-miterlimit="10" x1="1521.6" y1="710.1" x2="1503.1" y2="710.1"/>
</svg>
