<?xml version="1.0" encoding="utf-8"?>
<!-- Generator: Adobe Illustrator 18.0.0, SVG Export Plug-In . SVG Version: 6.00 Build 0)  -->
<!DOCTYPE svg PUBLIC "-//W3C//DTD SVG 1.1//EN" "http://www.w3.org/Graphics/SVG/1.1/DTD/svg11.dtd">
<svg version="1.1" id="Capa_1" xmlns="http://www.w3.org/2000/svg" xmlns:xlink="http://www.w3.org/1999/xlink" x="0px" y="0px"
	 viewBox="0 0 875.6 216.4" enable-background="new 0 0 875.6 216.4" xml:space="preserve">
<polygon fill="#0000F8" points="0,2 31.9,2 31.9,60.5 54.2,60.5 54.2,2 86.4,2 86.4,146.5 54.2,146.5 54.2,83.3 31.9,83.3 
	31.9,146.5 0,146.5 "/>
<rect x="108.5" y="2" fill="#0000F8" width="31.9" height="144.5"/>
<path fill="#0000F8" d="M169.1,135.6c-6.1-8.7-9.1-21-9.1-36.9V50.1c0-16.3,3.3-28.7,9.9-37.3C176.5,4.3,187.7,0,203.4,0
	c15.1,0,25.9,3.7,32.5,11.1c6.5,7.4,9.8,17.8,9.8,31.2v9.3h-31.2V39.8c0-5.7-0.7-10-2-12.9c-1.3-2.9-4.2-4.4-8.7-4.4
	c-4.6,0-7.6,1.6-9,4.8c-1.4,3.2-2.1,7.7-2.1,13.4v66.9c0,5.7,0.9,10.2,2.6,13.5c1.7,3.3,4.8,4.9,9.4,4.9c8.3,0,12.5-6.2,12.5-18.7
	V90.3h-13V71.5h41.7v74.9h-21.1l-1.8-12c-4.5,9.4-12.3,14.1-23.4,14.1C185.4,148.6,175.2,144.3,169.1,135.6"/>
<polygon fill="#0000F8" points="266.4,2 298.3,2 298.3,60.5 320.6,60.5 320.6,2 352.7,2 352.7,146.5 320.6,146.5 320.6,83.3 
	298.3,83.3 298.3,146.5 266.4,146.5 "/>
<polygon fill="#0000F8" points="374.7,2 406.6,2 406.6,124.9 439.8,124.9 439.8,146.5 374.7,146.5 "/>
<rect x="453.9" y="2" fill="#0000F8" width="31.9" height="144.5"/>
<path fill="#0000F8" d="M514.5,135.6c-6.1-8.7-9.1-21-9.1-36.9V50.1c0-16.3,3.3-28.7,9.9-37.3C521.9,4.3,533.1,0,548.8,0
	c15.1,0,25.9,3.7,32.5,11.1c6.5,7.4,9.8,17.8,9.8,31.2v9.3h-31.2V39.8c0-5.7-0.7-10-2-12.9c-1.3-2.9-4.2-4.4-8.7-4.4
	c-4.6,0-7.6,1.6-9,4.8c-1.4,3.2-2.1,7.7-2.1,13.4v66.9c0,5.7,0.9,10.2,2.6,13.5c1.7,3.3,4.8,4.9,9.4,4.9c8.3,0,12.5-6.2,12.5-18.7
	V90.3h-13V71.5h41.7v74.9h-21.1l-1.8-12c-4.5,9.4-12.3,14.1-23.4,14.1C530.8,148.6,520.6,144.3,514.5,135.6"/>
<polygon fill="#0000F8" points="611.8,2 643.7,2 643.7,60.5 666,60.5 666,2 698.1,2 698.1,146.5 666,146.5 666,83.3 643.7,83.3 
	643.7,146.5 611.8,146.5 "/>
<polygon fill="#0000F8" points="733.1,25.7 711.3,25.7 711.3,2 786.8,2 786.8,25.7 765.2,25.7 765.2,146.5 733.1,146.5 "/>
<path fill="#0000F8" d="M807,137.6c-6.7-7.3-10.3-18.9-10.8-34.9l27.3-4.1c0.1,9.2,1.2,15.7,3.3,19.7c2.1,4,5.2,6,9.4,6
	c5.4,0,8-3.5,8-10.5c0-5.6-1.3-10.4-3.8-14.5c-2.6-4-6.6-8.4-12-13l-12.5-10.9c-6.2-5.2-11-10.8-14.4-16.7c-3.4-5.9-5.1-12.9-5.1-21
	c0-12.1,3.6-21.5,10.8-28c7.2-6.5,17.1-9.8,29.7-9.8c13.7,0,23,4,27.9,12c4.9,8,7.6,17.7,7.9,29.1l-27.5,3.4
	c-0.2-7.5-0.9-12.9-2.1-16.1c-1.1-3.3-3.6-4.9-7.4-4.9c-2.7,0-4.8,1.2-6.3,3.5c-1.5,2.3-2.2,4.9-2.2,7.8c0,4.9,1.1,9,3.3,12.3
	c2.2,3.3,5.7,7.1,10.6,11.4l12,10.5c7.1,6.1,12.7,12.5,16.6,19.3c3.9,6.8,5.9,14.8,5.9,24.1c0,6.8-1.6,12.9-4.7,18.5
	c-3.2,5.5-7.6,9.9-13.3,13.1c-5.7,3.2-12.3,4.8-19.8,4.8C824,148.6,813.8,145,807,137.6"/>
<g>
	<path fill="#0000F8" d="M242.8,176.2h9.5c3.2,0,5.8,0.4,7.6,1.3c1.8,0.9,3.2,2.2,3.9,4c0.8,1.8,1.2,4.2,1.2,7.2v14.6
		c0,3-0.4,5.5-1.2,7.4c-0.8,1.9-2.1,3.3-3.9,4.2c-1.8,0.9-4.3,1.4-7.4,1.4h-9.8V176.2z M252.3,211.3c1.6,0,2.8-0.3,3.5-0.8
		c0.7-0.6,1.2-1.3,1.4-2.4c0.2-1,0.3-2.5,0.3-4.5v-15.4c0-1.8-0.1-3.1-0.3-4.1c-0.2-0.9-0.7-1.6-1.5-2.1c-0.7-0.4-1.9-0.7-3.5-0.7
		h-2.2v29.8H252.3z"/>
	<path fill="#0000F8" d="M270.4,176.2h16.8v5.2h-9.6v11.5h7.5v5.1h-7.5v13.3h9.7v5h-16.9V176.2z"/>
	<path fill="#0000F8" d="M291.6,176.2h7.3v35.1h9.8v5h-17V176.2z"/>
	<path fill="#0000F8" d="M324.5,176.2h9.5c3.2,0,5.8,0.4,7.6,1.3c1.8,0.9,3.2,2.2,3.9,4c0.8,1.8,1.2,4.2,1.2,7.2v14.6
		c0,3-0.4,5.5-1.2,7.4c-0.8,1.9-2.1,3.3-3.9,4.2c-1.8,0.9-4.3,1.4-7.4,1.4h-9.8V176.2z M334.1,211.3c1.6,0,2.8-0.3,3.5-0.8
		c0.7-0.6,1.2-1.3,1.4-2.4c0.2-1,0.3-2.5,0.3-4.5v-15.4c0-1.8-0.1-3.1-0.3-4.1c-0.2-0.9-0.7-1.6-1.5-2.1c-0.7-0.4-1.9-0.7-3.5-0.7
		h-2.2v29.8H334.1z"/>
	<path fill="#0000F8" d="M352.1,176.2h16.8v5.2h-9.6v11.5h7.5v5.1h-7.5v13.3h9.7v5h-16.9V176.2z"/>
	<path fill="#0000F8" d="M373.3,176.2h11.8c6.8,0,10.3,3.8,10.3,11.4c0,7.3-3.6,10.9-10.8,10.9h-4v17.8h-7.3V176.2z M383.4,193.4
		c2,0,3.3-0.4,4-1.3s1-2.4,1-4.5c0-1.6-0.1-2.8-0.3-3.6c-0.2-0.8-0.7-1.5-1.4-1.9c-0.7-0.4-1.8-0.6-3.3-0.6h-2.8v12H383.4z"/>
	<path fill="#0000F8" d="M403.4,176.2h7.8l8,40.1h-6.8l-1.6-9.3h-7l-1.6,9.3h-6.9L403.4,176.2z M410.1,202.4l-2.7-16.8l-2.7,16.8
		H410.1z"/>
	<path fill="#0000F8" d="M423.3,176.2h9.7c4.2,0,7.4,0.8,9.5,2.4c2.1,1.6,3.1,4.4,3.1,8.3c0,2.5-0.4,4.6-1.1,6.2
		c-0.7,1.6-2,2.8-3.8,3.5l5.6,19.8h-7.3L434,198h-3.5v18.4h-7.3V176.2z M432.9,193.4c2.1,0,3.6-0.5,4.4-1.4c0.9-1,1.3-2.5,1.3-4.7
		c0-2.1-0.4-3.7-1.2-4.6c-0.8-1-2.2-1.4-4.2-1.4h-2.7v12.2H432.9z"/>
	<path fill="#0000F8" d="M454.9,181.6h-6.4v-5.4h20v5.4h-6.2v34.7h-7.3V181.6z"/>
	<path fill="#0000F8" d="M477.2,176.2h7.8l8,40.1h-6.8l-1.6-9.3h-7l-1.6,9.3h-6.9L477.2,176.2z M483.9,202.4l-2.7-16.8l-2.7,16.8
		H483.9z"/>
	<path fill="#0000F8" d="M497.6,176.2h7.6l5.7,27.8l5.9-27.8h7.4l0.7,40.1h-5.5l-0.6-27.9l-5.7,27.9h-4.4l-5.8-28l-0.5,28h-5.5
		L497.6,176.2z"/>
	<path fill="#0000F8" d="M530.9,176.2h16.8v5.2h-9.6v11.5h7.5v5.1h-7.5v13.3h9.7v5h-16.9V176.2z"/>
	<path fill="#0000F8" d="M552.1,176.2h5.1l9.8,22.9v-22.9h6v40.1h-4.9l-9.8-24v24h-6.2V176.2z"/>
	<path fill="#0000F8" d="M583.1,181.6h-6.4v-5.4h20v5.4h-6.2v34.7h-7.3V181.6z"/>
	<path fill="#0000F8" d="M602.2,213.6c-1.8-2.2-2.7-5.5-2.7-9.8v-15.1c0-4.3,0.9-7.5,2.7-9.7c1.8-2.2,4.8-3.3,8.9-3.3
		c4.1,0,7.1,1.1,8.9,3.3c1.8,2.2,2.7,5.4,2.7,9.7v15.1c0,4.3-0.9,7.5-2.7,9.8c-1.8,2.2-4.7,3.4-8.8,3.4
		C607,216.9,604,215.8,602.2,213.6z M614.4,210c0.6-1,0.8-2.5,0.8-4.5V187c0-1.9-0.3-3.4-0.8-4.4c-0.5-1-1.6-1.5-3.3-1.5
		c-1.7,0-2.8,0.5-3.3,1.5c-0.6,1-0.8,2.5-0.8,4.4v18.5c0,1.9,0.3,3.4,0.8,4.5c0.6,1,1.7,1.5,3.3,1.5
		C612.8,211.5,613.9,211,614.4,210z"/>
</g>
<g>
</g>
<g>
</g>
<g>
</g>
<g>
</g>
<g>
</g>
<g>
</g>
<g>
</g>
<g>
</g>
<g>
</g>
<g>
</g>
<g>
</g>
<g>
</g>
<g>
</g>
<g>
</g>
<g>
</g>
</svg>
