<?xml version="1.0" encoding="utf-8"?>
<!-- Generator: Adobe Illustrator 18.0.0, SVG Export Plug-In . SVG Version: 6.00 Build 0)  -->
<!DOCTYPE svg PUBLIC "-//W3C//DTD SVG 1.1//EN" "http://www.w3.org/Graphics/SVG/1.1/DTD/svg11.dtd">
<svg version="1.1" id="Capa_1" xmlns="http://www.w3.org/2000/svg" xmlns:xlink="http://www.w3.org/1999/xlink" x="0px" y="0px"
	 viewBox="0 531.8 2000 478.9" enable-background="new 0 531.8 2000 478.9" xml:space="preserve">
<polygon fill="#0000F8" points="557.9,531.8 634.8,531.8 698.1,870.5 757.8,531.8 836.3,531.8 740.1,1010.5 654.3,1010.5 "/>
<path fill="#0000F8" d="M939.3,531.8h93.5l95.7,478.7h-81.1l-19-110.5h-83.2l-19.5,110.5h-82.2L939.3,531.8z M1019.1,844.5
	l-32.5-201l-32.5,201H1019.1z"/>
<path fill="#0000F8" d="M1176.3,531.8H1317c81.6,0,122.3,45.3,122.3,136c0,86.7-42.7,130-128.3,130h-47.8v212.9h-86.9V531.8z
	 M1296.8,736.3c23.6,0,39.6-5.1,47.8-15.2c8.2-10,12.4-28.1,12.4-54c0-19-1.5-33.4-4.2-43.5c-2.7-10-8.4-17.7-16.8-22.8
	c-8.4-5.1-21.5-7.7-39.3-7.7H1263v143.1H1296.8z"/>
</svg>
